<svg width="20" height="20" viewBox="0 0 20 20" fill="none" xmlns="http://www.w3.org/2000/svg">
    <defs>
<linearGradient id="paint0_linear" x1="5.83301" y1="5" x2="9.86414" y2="5.74228" gradientUnits="userSpaceOnUse">
<stop stop-color="#F29E51"/>
<stop offset="1" stop-color="#FF6600"/>
</linearGradient>
<linearGradient id="paint1_linear" x1="10.833" y1="5" x2="14.8641" y2="5.74228" gradientUnits="userSpaceOnUse">
<stop stop-color="#F29E51"/>
<stop offset="1" stop-color="#FF6600"/>
</linearGradient>
<linearGradient id="paint2_linear" x1="5.83301" y1="9.99988" x2="9.86414" y2="10.7422" gradientUnits="userSpaceOnUse">
<stop stop-color="#F29E51"/>
<stop offset="1" stop-color="#FF6600"/>
</linearGradient>
<linearGradient id="paint3_linear" x1="10.833" y1="10" x2="14.8641" y2="10.7423" gradientUnits="userSpaceOnUse">
<stop stop-color="#F29E51"/>
<stop offset="1" stop-color="#FF6600"/>
</linearGradient>
<linearGradient id="paint4_linear" x1="9.16602" y1="2.5" x2="11.0011" y2="3.17579" gradientUnits="userSpaceOnUse">
<stop stop-color="#F29E51"/>
<stop offset="1" stop-color="#FF6600"/>
</linearGradient>
<linearGradient id="paint5_linear" x1="3.33301" y1="0" x2="19.7567" y2="2.01613" gradientUnits="userSpaceOnUse">
<stop stop-color="#F29E51"/>
<stop offset="1" stop-color="#FF6600"/>
</linearGradient>
<linearGradient id="paint6_linear" x1="13.333" y1="2.5" x2="14.3408" y2="2.68557" gradientUnits="userSpaceOnUse">
<stop stop-color="#F29E51"/>
<stop offset="1" stop-color="#FF6600"/>
</linearGradient>
</defs>
    <path d="M6.24969 8.33337H8.74969C8.98 8.33337 9.16637 8.147 9.16637 7.91669V5.41668C9.16637 5.18637 8.98 5 8.74969 5H6.24969C6.01938 5 5.83301 5.18637 5.83301 5.41668V7.91669C5.83301 8.14704 6.01938 8.33337 6.24969 8.33337Z" fill="url(#paint0_linear)"/>
    <path d="M10.833 7.91668C10.833 8.14699 11.0194 8.33336 11.2497 8.33336H13.7497C13.98 8.33336 14.1664 8.14699 14.1664 7.91668V5.41668C14.1664 5.18637 13.98 5 13.7497 5H11.2497C11.0194 5 10.833 5.18637 10.833 5.41668V7.91668Z" fill="url(#paint1_linear)"/>
    <path d="M6.24969 13.3332H8.74969C8.98 13.3332 9.16637 13.1469 9.16637 12.9166V10.4166C9.16637 10.1862 8.98 9.99988 8.74969 9.99988H6.24969C6.01938 9.99988 5.83301 10.1862 5.83301 10.4166V12.9166C5.83301 13.1469 6.01938 13.3332 6.24969 13.3332Z" fill="url(#paint2_linear)"/>
    <path d="M13.7497 10H11.2497C11.0194 10 10.833 10.1864 10.833 10.4167V12.9167C10.833 13.147 11.0194 13.3334 11.2497 13.3334H13.7497C13.98 13.3334 14.1664 13.147 14.1664 12.9167V10.4167C14.1664 10.1864 13.98 10 13.7497 10Z" fill="url(#paint3_linear)"/>
    <path d="M9.5827 3.33336H10.416C10.6463 3.33336 10.8327 3.14699 10.8327 2.91668C10.8327 2.68637 10.6463 2.5 10.416 2.5H9.5827C9.35238 2.5 9.16602 2.68637 9.16602 2.91668C9.16605 3.14703 9.35242 3.33336 9.5827 3.33336Z" fill="url(#paint4_linear)"/>
    <path d="M14.9997 0H4.99969C4.08051 0 3.33301 0.747461 3.33301 1.66668V18.3334C3.33301 19.2525 4.08051 20 4.99969 20H14.9997C15.9189 20 16.6664 19.2525 16.6664 18.3333V1.66668C16.6664 0.747461 15.9189 0 14.9997 0ZM11.2497 18.3333H8.74969C8.51937 18.3333 8.33301 18.147 8.33301 17.9166C8.33301 17.6863 8.51937 17.5 8.74969 17.5H11.2497C11.48 17.5 11.6664 17.6864 11.6664 17.9167C11.6664 18.147 11.48 18.3333 11.2497 18.3333ZM14.9997 15.8333H4.99969V1.66668H14.9997V15.8333Z" fill="url(#paint5_linear)"/>
    <path d="M13.7497 3.33336C13.9798 3.33336 14.1664 3.14681 14.1664 2.91668C14.1664 2.68655 13.9798 2.5 13.7497 2.5C13.5196 2.5 13.333 2.68655 13.333 2.91668C13.333 3.14681 13.5196 3.33336 13.7497 3.33336Z" fill="url(#paint6_linear)"/>
</svg>
