<svg width="352" height="221" viewBox="0 0 352 221" fill="none" xmlns="http://www.w3.org/2000/svg">
    <defs>
        <clipPath id="clip0">
            <rect width="352" height="221" fill="white"/>
        </clipPath>
    </defs>
    <g clip-path="url(#clip0)">
<path d="M53.9036 113.955L57.2051 123.751H67.8952C68.4791 123.751 68.7192 124.47 68.2499 124.802L59.6007 130.857L62.9021 140.654C63.0822 141.187 62.4492 141.634 61.9745 141.302L53.3252 135.246L44.676 141.302C44.2067 141.634 43.5682 141.187 43.7483 140.654L47.0497 130.857L38.4005 124.802C37.9312 124.47 38.1713 123.751 38.7552 123.751H49.4453L52.7468 113.955C52.9432 113.421 53.7236 113.421 53.9036 113.955Z" fill="white"/>
<path d="M299.04 174.507L301.523 182.131H309.556C309.993 182.131 310.178 182.692 309.823 182.948L303.324 187.658L305.807 195.282C305.943 195.695 305.463 196.044 305.114 195.788L298.615 191.078L292.116 195.788C291.761 196.044 291.286 195.701 291.422 195.282L293.905 187.658L287.406 182.948C287.051 182.692 287.232 182.131 287.674 182.131H295.706L298.189 174.507C298.32 174.088 298.904 174.088 299.04 174.507Z" fill="white"/>
<path d="M307.253 45.6376L310.674 56.1362H321.736C322.336 56.1362 322.587 56.904 322.101 57.258L313.152 63.7488L316.573 74.2475C316.759 74.8193 316.104 75.293 315.613 74.9445L306.664 68.4536L297.714 74.9445C297.229 75.2985 296.568 74.8247 296.754 74.2475L300.175 63.7488L291.226 57.258C290.74 56.904 290.991 56.1362 291.592 56.1362H302.653L306.074 45.6376C306.26 45.0658 307.067 45.0658 307.253 45.6376Z" fill="white"/>
<path d="M332.89 146.796H290.331C289.333 146.796 288.525 145.99 288.525 144.994C288.525 143.997 289.333 143.191 290.331 143.191H332.89C333.889 143.191 334.696 143.997 334.696 144.994C334.696 145.99 333.889 146.796 332.89 146.796Z" fill="white" fill-opacity="0.45"/>
<path d="M51.5298 95.43H13.5167C12.5181 95.43 11.7104 94.6241 11.7104 93.6276C11.7104 92.6311 12.5181 91.8252 13.5167 91.8252H51.5243C52.5229 91.8252 53.3305 92.6311 53.3305 93.6276C53.3305 94.6241 52.5229 95.43 51.5298 95.43Z" fill="#E2D6C6"/>
<path d="M38.5475 23.181H34.6513C33.6254 23.181 32.7959 22.3533 32.7959 21.3295V17.6811C32.7959 16.6574 33.6254 15.8297 34.6513 15.8297H38.5475C39.5734 15.8297 40.4029 16.6574 40.4029 17.6811V21.3295C40.4029 22.3533 39.568 23.181 38.5475 23.181Z" fill="white" fill-opacity="0.45"/>
<path d="M43.1098 183.373H39.4973C38.5477 183.373 37.7783 182.605 37.7783 181.657V178.27C37.7783 177.323 38.5477 176.555 39.4973 176.555H43.1098C44.0593 176.555 44.8287 177.323 44.8287 178.27V181.657C44.8287 182.605 44.0593 183.373 43.1098 183.373Z" fill="#E2D6C6"/>
<path d="M350.281 51.6057H346.669C345.719 51.6057 344.95 50.8379 344.95 49.8904V46.5034C344.95 45.5559 345.719 44.7881 346.669 44.7881H350.281C351.231 44.7881 352 45.5559 352 46.5034V49.8904C352 50.8379 351.231 51.6057 350.281 51.6057Z" fill="white" fill-opacity="0.45"/>
<path d="M344.573 188.992C344.573 191.105 342.881 192.815 340.797 192.815C338.712 192.815 337.021 191.105 337.021 188.992C337.021 186.879 338.712 185.17 340.797 185.17C342.887 185.17 344.573 186.879 344.573 188.992Z" stroke="white" stroke-width="1.7038" stroke-miterlimit="10"/>
<path d="M8.02164 153.603C8.02164 155.716 6.32999 157.425 4.24544 157.425C2.16089 157.425 0.469238 155.716 0.469238 153.603C0.469238 151.49 2.16089 149.78 4.24544 149.78C6.32999 149.78 8.02164 151.495 8.02164 153.603Z" stroke="white" stroke-width="1.7038" stroke-miterlimit="10"/>
<path d="M301.25 14.6317C301.25 16.7445 299.559 18.4544 297.474 18.4544C295.389 18.4544 293.698 16.7445 293.698 14.6317C293.698 12.5189 295.389 10.8091 297.474 10.8091C299.559 10.8091 301.25 12.5244 301.25 14.6317Z" stroke="white" stroke-width="1.7038" stroke-miterlimit="10"/>
<path d="M18.4281 57.6936C18.4281 58.995 17.3858 60.046 16.1035 60.046C14.8211 60.046 13.7788 58.995 13.7788 57.6936C13.7788 56.3921 14.8211 55.3412 16.1035 55.3412C17.3858 55.3412 18.4281 56.3921 18.4281 57.6936Z" fill="white"/>
<path d="M337.02 109.136C337.02 110.437 335.978 111.488 334.696 111.488C333.413 111.488 332.371 110.437 332.371 109.136C332.371 107.835 333.413 106.784 334.696 106.784C335.978 106.784 337.02 107.835 337.02 109.136Z" fill="white"/>
<path d="M38.3896 220.581H317.452" stroke="#E8E09B" stroke-width="1.5557" stroke-miterlimit="10" stroke-linecap="round" stroke-linejoin="round"/>
<path d="M254.463 1.42664H98.7656V171.316H254.463V1.42664Z" fill="#EEE6DC"/>
<path d="M161.831 126.479L161.782 129.665C158.197 135.099 150.737 151.534 149.842 174.361C149.842 174.361 149.264 183.008 151.207 204.844L150.846 220.581H172.101L177.782 161.455L188.123 220.434L211.964 220.581C211.964 220.581 208.941 209.755 208.619 202.491C208.204 193.093 207.2 149.884 192.974 129.681L192.674 126.485H161.831V126.479Z" fill="#6A6ABB"/>
<path d="M161.782 129.665H192.974" stroke="#5252A3" stroke-width="1.7314" stroke-miterlimit="10"/>
<path d="M177.782 161.455V129.665" stroke="#5252A3" stroke-width="1.7314" stroke-miterlimit="10"/>
<path d="M171.463 162.479L188.996 159.593" stroke="#5252A3" stroke-width="1.7314" stroke-miterlimit="10"/>
<path d="M177.782 161.455L185.361 162.479" stroke="#5252A3" stroke-width="1.7314" stroke-miterlimit="10"/>
<path d="M182.246 129.665L182.197 150.755C182.126 152.247 181.542 153.674 180.549 154.795L177.979 157.687" stroke="#5252A3" stroke-width="1.7314" stroke-miterlimit="10"/>
<path d="M171.496 79.1919L156.757 81.8819C154.585 82.4428 153.166 84.5175 153.439 86.7337L161.832 126.474H192.674L201.989 87.5015C202.257 85.2744 200.827 83.1888 198.644 82.6443L183.965 78.9578L171.496 79.1919Z" fill="white"/>
<path d="M167.469 79.927C167.469 79.927 176.56 89.3094 188.74 80.1612" stroke="#EBEBEB" stroke-width="1.8405" stroke-miterlimit="10"/>
<path d="M166.912 79.6112C166.912 79.6112 170.693 116.242 168.8 151.534L150.072 153.581C150.072 153.581 150.808 134.136 150.563 127.982C149.788 108.613 140.675 89.1025 140.675 89.1025C140.675 89.1025 143.512 81.9037 151.55 81.0379L166.912 79.6112Z" fill="#DD8285"/>
<path d="M141.712 87.1965C141.712 87.1965 130.71 104.622 122.405 125.069C120.206 130.487 122.634 136.041 128.211 137.827C134.323 139.782 143.245 142.56 154.999 143.698C155.567 143.752 156.145 143.806 156.729 143.855C182.453 146.072 156.145 143.806 156.145 143.806L161.488 126.888L145.493 120.402L149.913 113.067L141.712 87.1965Z" fill="#DD8285"/>
<path d="M155 147.297L163.01 122.913" stroke="#C15F68" stroke-width="1.8405" stroke-miterlimit="10"/>
<path d="M148.877 114.794C148.877 114.794 147.392 100.712 146.35 95.822" stroke="#C15F68" stroke-width="1.8405" stroke-miterlimit="10"/>
<path d="M145.717 120.032L139.611 117.124" stroke="#C15F68" stroke-width="1.8405" stroke-miterlimit="10"/>
<path d="M150.143 121.824L161.831 126.479" stroke="#C15F68" stroke-width="1.8405" stroke-miterlimit="10"/>
<path d="M150.399 143.425L155.878 144.171" stroke="#C15F68" stroke-width="1.8405" stroke-miterlimit="10"/>
<path d="M196.33 81.0434C196.33 81.0434 214.376 79.9217 217.323 95.136C219.2 104.818 227.118 123.218 225.967 135.584C225.241 143.393 215.402 148.386 206.982 145.005C204.777 144.117 202.998 142.756 202.425 140.676C200.521 133.744 196.33 81.0434 196.33 81.0434Z" fill="#DD8285"/>
<path d="M189.629 79.6167C189.629 79.6167 185.345 134.408 185.542 152.231L206.022 153.064C206.022 153.064 204.723 109.74 206.666 87.5288C206.889 84.9858 205.192 82.176 202.693 81.6315C199.599 80.9617 195.064 80.5424 189.629 79.6167Z" fill="#DD8285"/>
<path d="M206.054 95.686L206.065 143.18" stroke="#C15F68" stroke-width="1.8405" stroke-miterlimit="10"/>
<path d="M173.493 113.187L165.057 112.278C163.491 112.109 162.356 110.704 162.525 109.136L164.686 89.2278C164.855 87.6649 166.263 86.5323 167.835 86.7011L176.271 87.6105C177.837 87.7793 178.972 89.1842 178.803 90.7525L176.642 110.661C176.467 112.224 175.06 113.356 173.493 113.187Z" fill="black"/>
<path d="M188.412 105.019C188.412 105.019 186.939 101.044 178.322 95.1143L177.979 98.2617C177.979 98.2617 169.957 98.5067 164.413 95.6207C163.654 95.2286 162.721 95.6588 162.563 96.4919C162.279 97.9676 162.153 100.266 163.212 102.776C163.992 104.633 166.132 106.969 167.878 107.982C170.906 109.735 177.487 112.948 182.557 112.725C189.667 112.409 188.412 105.019 188.412 105.019Z" fill="#EBAEA3"/>
<path d="M188.036 100.603L218.666 124.089L206.066 144.188L172.909 113.634L188.036 100.603Z" fill="#DD8285"/>
<path d="M188.036 100.603L210.295 117.669" stroke="#C15F68" stroke-width="1.8405" stroke-miterlimit="10"/>
<path d="M186.398 126.066L206.065 144.188" stroke="#C15F68" stroke-width="1.8405" stroke-miterlimit="10"/>
<path d="M183.037 63.4112C183.037 63.4112 181.34 63.4711 178.977 63.9067C176.609 64.3478 174.677 63.1063 174.202 64.7018C174.191 64.7344 172.27 63.1008 172.27 63.1008L170.813 79.3389C170.813 79.3389 178.038 83.1616 184.876 79.1429L183.037 63.4112Z" fill="#EBAEA3"/>
<path d="M180.434 31.1911C180.434 31.1911 189.782 23.2844 183.305 17.1965C176.827 11.1086 169.635 17.2891 169.095 20.9538C168.151 27.3902 174.153 30.9297 174.153 30.9297L180.434 31.1911Z" fill="#673345"/>
<path d="M173.368 29.111C173.368 29.111 169.597 29.2144 167.201 23.9651C167.201 23.9651 168.544 31.0441 174.77 30.1837L173.368 29.111Z" fill="#673345"/>
<path d="M180.964 28.6209C180.964 28.6209 184.025 29.0892 187.376 23.5458C187.376 23.5458 185.875 30.3253 179.616 29.7644L180.964 28.6209Z" fill="#673345"/>
<path d="M171.239 61.3693C171.239 61.3693 173.286 69.6789 183.67 69.0581L182.633 59.7302L171.239 61.3693Z" fill="#1C2238"/>
<path d="M193.858 43.5575C193.858 52.5587 186.835 59.8609 178.175 59.8609C169.515 59.8609 162.492 52.5641 162.492 43.5575C162.492 34.5563 169.515 28.4303 178.175 28.4303C186.835 28.4303 193.858 34.5563 193.858 43.5575Z" fill="#773E50"/>
<path d="M190.475 43.8734C190.475 48.992 189.733 53.4137 188.991 56.5502C188.265 59.6214 186.224 61.7668 183.332 63.493L182.808 63.8088C179.752 65.6385 175.807 65.6766 172.702 63.9178C169.575 62.1426 167.381 59.8011 166.71 56.5066C165.482 50.5113 165.351 43.8734 165.351 43.8734C165.351 43.8734 164.184 30.9461 177.733 31.1966C191.283 31.4471 190.475 43.8734 190.475 43.8734Z" fill="#EBAEA3"/>
<path d="M166.83 57.0184C164.445 59.0767 159.414 50.9305 161.728 48.736C164.041 46.5415 165.673 50.1137 165.673 50.1137L166.142 52.6893L166.841 56.1526L167.021 56.9313L166.83 57.0184Z" fill="#EBAEA3"/>
<path d="M162.764 51.4805C162.764 51.4805 163.741 49.3731 166.017 53.076" stroke="#1C2238" stroke-width="1.177" stroke-miterlimit="10" stroke-linecap="round" stroke-linejoin="round"/>
<path d="M188.986 57.0674C191.408 59.0822 196.292 50.8543 193.946 48.6979C191.599 46.5416 190.022 50.1409 190.022 50.1409L189.597 52.722L188.958 56.1962L188.789 56.9749L188.986 57.0674Z" fill="#EBAEA3"/>
<path d="M192.953 51.4587C192.953 51.4587 191.938 49.3677 189.733 53.1086" stroke="#1C2238" stroke-width="1.177" stroke-miterlimit="10" stroke-linecap="round" stroke-linejoin="round"/>
<path d="M184.658 42.7734H193.062C193.062 42.7734 192.227 29.405 176.767 30.3362C176.767 30.3362 164.047 30.4832 164.391 42.7734H178.093L178.383 41.4284L178.705 42.7734H183.545L184.02 39.5933L184.658 42.7734Z" fill="#773E50"/>
<path d="M163.933 48.0064L165.908 51.3934L165.33 42.7734L163.933 48.0064Z" fill="#773E50"/>
<path d="M192.025 48.0064L189.989 51.3934L190.464 42.7734L192.025 48.0064Z" fill="#773E50"/>
<path d="M173.291 49.5474C173.291 50.2172 172.745 50.7563 172.08 50.7563C171.408 50.7563 170.868 50.2117 170.868 49.5474C170.868 48.8776 171.414 48.3385 172.08 48.3385C172.745 48.3331 173.291 48.8776 173.291 49.5474Z" fill="#1C2238"/>
<path d="M184.521 49.5474C184.521 50.2172 183.976 50.7563 183.31 50.7563C182.639 50.7563 182.099 50.2117 182.099 49.5474C182.099 48.8776 182.644 48.3385 183.31 48.3385C183.981 48.3331 184.521 48.8776 184.521 49.5474Z" fill="#1C2238"/>
<path d="M171.638 44.2218C171.638 44.2218 174.672 43.7862 174.781 45.0223C174.781 45.0223 174.83 45.8609 172.178 46.193C169.526 46.5252 168.822 46.3727 168.527 45.5995C168.238 44.8208 170.202 44.3144 171.638 44.2218Z" fill="#1C2238"/>
<path d="M183.725 44.2381C183.725 44.2381 186.791 44.3525 186.671 45.5886C186.671 45.5886 186.568 46.4217 183.899 46.2693C181.231 46.1168 180.565 45.8391 180.418 45.0277C180.276 44.2164 182.3 44.0748 183.725 44.2381Z" fill="#1C2238"/>
<path d="M177.908 51.1592L178.634 53.1794L177.591 53.8274" stroke="#1C2238" stroke-width="1.1578" stroke-miterlimit="10" stroke-linecap="round" stroke-linejoin="round"/>
<path d="M173.291 56.0927L175.528 55.2595C175.889 55.1506 176.281 55.1561 176.68 55.2868L177.657 55.6026L178.491 55.216C178.873 55.0417 179.386 55.0308 179.752 55.1888L181.858 56.0382L173.291 56.0927Z" fill="#D5717A"/>
<path d="M173.291 56.0927C173.291 56.0927 174.393 59.85 177.646 59.85C180.898 59.85 181.864 56.0382 181.864 56.0382L173.291 56.0927Z" fill="#D5717A"/>
<path d="M173.968 56.3213C173.968 56.3213 174.453 58.2436 177.64 58.249C180.543 58.249 181.335 56.2723 181.335 56.2723L173.968 56.3213Z" fill="white"/>
<path d="M176.074 59.1148C176.276 59.1148 176.44 58.9515 176.44 58.75C176.44 58.5485 176.276 58.3851 176.074 58.3851C175.872 58.3851 175.708 58.5485 175.708 58.75C175.708 58.9515 175.872 59.1148 176.074 59.1148Z" fill="#E0939C"/>
<path d="M166.334 66.4825C163.987 66.1939 162.093 64.2935 161.826 61.9465C161.531 59.3872 163.13 57.1655 165.395 56.4358C165.531 56.3923 165.63 56.267 165.63 56.12C165.63 55.8913 165.406 55.7334 165.188 55.8042C162.65 56.6264 160.86 59.1204 161.166 61.9847C161.45 64.6148 163.545 66.7657 166.175 67.1251C169.057 67.5117 171.343 66.134 172.238 63.6455C172.052 63.542 171.725 63.3242 171.725 63.3242C171.005 65.6222 168.942 66.7984 166.334 66.4825Z" fill="#773E50"/>
<path d="M189.144 66.4825C191.49 66.1939 193.384 64.2935 193.651 61.9465C193.946 59.3872 192.347 57.1655 190.082 56.4358C189.946 56.3923 189.848 56.267 189.848 56.12C189.848 55.8913 190.071 55.7334 190.29 55.8042C192.827 56.6264 194.617 59.1204 194.311 61.9847C194.028 64.6148 191.932 66.7657 189.302 67.1251C186.421 67.5117 184.134 66.134 183.239 63.6455C183.425 63.542 183.752 63.3242 183.752 63.3242C184.473 65.6222 186.535 66.7984 189.144 66.4825Z" fill="#773E50"/>
<path d="M91.584 5.29834V168.267C91.584 171.197 93.9632 173.565 96.8936 173.565H256.607C259.543 173.565 261.917 171.191 261.917 168.267V5.29834C261.917 2.36873 259.538 0 256.607 0H96.8936C93.9578 0 91.584 2.37418 91.584 5.29834ZM251.058 162.01H102.443V10.3081H251.063V162.01H251.058Z" fill="white"/>
<path d="M237.546 172.983C235.991 171.464 233.508 171.491 231.986 173.043L230.982 174.061L229.95 173.048C228.406 171.529 225.918 171.545 224.39 173.092C222.867 174.638 222.884 177.121 224.433 178.641L228.259 182.398C228.264 182.403 228.27 182.414 228.28 182.425C228.892 183.024 229.645 183.378 230.43 183.498C231.642 183.683 232.919 183.302 233.841 182.365L237.601 178.532C239.123 176.985 239.096 174.502 237.546 172.983Z" fill="#DD8285"/>
<path d="M109.772 71.0457H65.2653C62.4331 71.0457 60.1357 68.7532 60.1357 65.9271V43.0184C60.1357 40.1923 62.4331 37.8998 65.2653 37.8998H109.772C112.604 37.8998 114.902 40.1923 114.902 43.0184V65.9271C114.902 68.7532 112.604 71.0457 109.772 71.0457Z" fill="#6A6ABB"/>
<path d="M78.5254 67.4681L85.2647 77.0901C86.2251 78.4568 88.2551 78.4514 89.2046 77.0737L95.8184 67.4626H78.5254V67.4681Z" fill="#6A6ABB"/>
<path d="M94.5674 49.2214C92.8758 47.566 90.1637 47.5987 88.5102 49.2867L87.4188 50.3976L86.2947 49.2922C84.6085 47.6313 81.8964 47.6586 80.232 49.3357C78.5731 51.0184 78.5895 53.7247 80.2811 55.3855L84.4502 59.4805C84.4612 59.4913 84.4666 59.5022 84.4721 59.5077C85.1378 60.1557 85.9618 60.5477 86.8131 60.6784C88.1337 60.8799 89.5252 60.4661 90.5293 59.4423L94.6274 55.2657C96.2863 53.5777 96.2591 50.8713 94.5674 49.2214Z" fill="white"/>
<path d="M257.704 43.5084C267.532 43.5084 275.499 35.5582 275.499 25.7511C275.499 15.944 267.532 7.99377 257.704 7.99377C247.876 7.99377 239.909 15.944 239.909 25.7511C239.909 35.5582 247.876 43.5084 257.704 43.5084Z" fill="#FF4950"/>
<path d="M263.756 21.1824C262.299 19.7557 259.963 19.7829 258.539 21.2368L257.6 22.1952L256.635 21.2423C255.183 19.8156 252.847 19.8319 251.418 21.2804C249.988 22.7288 250.004 25.0595 251.461 26.4861L255.052 30.0147C255.058 30.0202 255.063 30.0311 255.074 30.0365C255.647 30.5974 256.356 30.9296 257.093 31.0439C258.228 31.2182 259.429 30.8642 260.296 29.9821L263.827 26.3827C265.235 24.9342 265.213 22.6036 263.756 21.1824Z" fill="white"/>
<path d="M109.182 184.68C109.721 175.002 102.296 166.72 92.5971 166.182C82.8982 165.644 74.5987 173.054 74.0596 182.732C73.5205 192.41 80.946 200.692 90.6448 201.23C100.344 201.768 108.643 194.358 109.182 184.68Z" fill="#6A6ABB"/>
<path d="M94.5746 189.907C91.5297 189.961 88.4465 189.999 85.6471 189.809C84.7631 189.749 83.9936 188.344 85.0687 187.898C84.6157 187.663 84.1573 187.44 83.9609 186.934C83.7754 186.455 83.9991 185.801 84.5011 185.681C83.4425 185.943 83.0278 184.271 83.8518 183.732C83.4152 183.362 83.055 182.871 82.9623 182.305C82.8695 181.739 83.1042 181.102 83.6062 180.829C83.9336 180.65 84.3265 180.644 84.703 180.639C85.969 180.628 87.2351 180.623 88.5011 180.612C88.1573 178.635 88.0536 176.479 89.0631 174.742C89.3687 174.219 90.1818 173.593 90.8257 173.996C91.4314 174.371 91.2623 175.313 91.235 175.901C91.1095 178.363 92.5119 180.835 94.6892 181.995C94.6892 181.995 94.5419 187.233 94.5746 189.907Z" fill="#FBFBFB"/>
<path d="M95.6796 189.896H100.28V181.99H95.6796V189.896Z" fill="#FBFBFB"/>
<path d="M288.465 123.583H245.203C242.338 123.583 240.019 121.268 240.019 118.409V95.2557C240.019 92.3969 242.338 90.0826 245.203 90.0826H288.465C291.33 90.0826 293.649 92.3969 293.649 95.2557V118.409C293.649 121.268 291.33 123.583 288.465 123.583Z" fill="#FF4950"/>
<path d="M258.026 119.972L264.837 129.698C265.803 131.081 267.86 131.07 268.815 129.681L275.499 119.972H258.026Z" fill="#FF4950"/>
<path d="M264.34 101.638C262.627 99.966 259.893 99.9933 258.218 101.703L257.115 102.825L255.98 101.709C254.278 100.031 251.533 100.053 249.858 101.758C248.182 103.457 248.199 106.196 249.907 107.867L254.119 112.006C254.13 112.017 254.136 112.028 254.141 112.033C254.812 112.692 255.642 113.084 256.51 113.215C257.841 113.422 259.249 113.002 260.264 111.968L264.406 107.747C266.081 106.043 266.054 103.309 264.34 101.638Z" fill="white"/>
</g>
</svg>
