<svg width="56" height="55" viewBox="0 0 56 55" fill="none" xmlns="http://www.w3.org/2000/svg">
<defs>
<filter id="filter0_d" x="0.5" y="0" width="55" height="55" filterUnits="userSpaceOnUse" color-interpolation-filters="sRGB">
<feFlood flood-opacity="0" result="BackgroundImageFix"/>
<feColorMatrix in="SourceAlpha" type="matrix" values="0 0 0 0 0 0 0 0 0 0 0 0 0 0 0 0 0 0 127 0"/>
<feOffset dy="3"/>
<feGaussianBlur stdDeviation="8"/>
<feColorMatrix type="matrix" values="0 0 0 0 0.221129 0 0 0 0 0.167572 0 0 0 0 0.104701 0 0 0 0.11 0"/>
<feBlend mode="normal" in2="BackgroundImageFix" result="effect1_dropShadow"/>
<feBlend mode="normal" in="SourceGraphic" in2="effect1_dropShadow" result="shape"/>
</filter>
</defs>
<g filter="url(#filter0_d)">
<circle cx="28" cy="24.5" r="11.5" fill="white"/>
</g>
<path fill-rule="evenodd" clip-rule="evenodd" d="M23.9344 19.4344C24.0844 19.2844 24.2879 19.2002 24.5 19.2002C24.7122 19.2002 24.9156 19.2844 25.0656 19.4344L28.5 22.8688L31.9344 19.4344C32.0082 19.358 32.0965 19.2971 32.1941 19.2551C32.2917 19.2132 32.3967 19.1911 32.5029 19.1902C32.6091 19.1893 32.7145 19.2095 32.8128 19.2498C32.9111 19.29 33.0004 19.3494 33.0755 19.4245C33.1507 19.4996 33.2101 19.5889 33.2503 19.6873C33.2905 19.7856 33.3107 19.8909 33.3098 19.9971C33.3089 20.1034 33.2868 20.2083 33.2449 20.3059C33.203 20.4035 33.142 20.4918 33.0656 20.5656L29.6312 24L33.0656 27.4344C33.2114 27.5853 33.292 27.7874 33.2902 27.9971C33.2883 28.2069 33.2042 28.4075 33.0559 28.5559C32.9076 28.7042 32.7069 28.7883 32.4971 28.7902C32.2874 28.792 32.0853 28.7113 31.9344 28.5656L28.5 25.1312L25.0656 28.5656C24.9147 28.7113 24.7127 28.792 24.5029 28.7902C24.2931 28.7883 24.0925 28.7042 23.9442 28.5559C23.7958 28.4075 23.7117 28.2069 23.7099 27.9971C23.7081 27.7874 23.7887 27.5853 23.9344 27.4344L27.3688 24L23.9344 20.5656C23.7844 20.4156 23.7002 20.2121 23.7002 20C23.7002 19.7879 23.7844 19.5844 23.9344 19.4344Z" fill="#9C9FA4"/>
</svg>
