<svg width="34" height="33" viewBox="0 0 34 33" fill="none" xmlns="http://www.w3.org/2000/svg">
<path d="M0 5.14995C0 4.0228 0.447759 2.94182 1.24478 2.1448C2.04179 1.34778 3.12278 0.900024 4.24993 0.900024H19.1247C20.2518 0.900024 21.3328 1.34778 22.1298 2.1448C22.9269 2.94182 23.3746 4.0228 23.3746 5.14995V13.6498C23.3746 14.777 22.9269 15.8579 22.1298 16.655C21.3328 17.452 20.2518 17.8997 19.1247 17.8997H14.8748L8.49986 24.2746V17.8997H4.24993C3.12278 17.8997 2.04179 17.452 1.24478 16.655C0.447759 15.8579 0 14.777 0 13.6498V5.14995Z" fill="white"/>
<path d="M27.6258 9.39988V13.6498C27.6258 15.9041 26.7303 18.0661 25.1363 19.6601C23.5422 21.2542 21.3803 22.1497 19.126 22.1497H16.6355L12.8828 25.9045C13.4778 26.2211 14.1557 26.3996 14.876 26.3996H19.126L25.5009 32.7745V26.3996H29.7508C30.8779 26.3996 31.9589 25.9518 32.7559 25.1548C33.553 24.3578 34.0007 23.2768 34.0007 22.1497V13.6498C34.0007 12.5227 33.553 11.4417 32.7559 10.6447C31.9589 9.84764 30.8779 9.39988 29.7508 9.39988H27.6258Z" fill="white"/>
</svg>
