<svg width="203" height="203" viewBox="0 0 203 203" fill="none" xmlns="http://www.w3.org/2000/svg">
    <defs>
        <linearGradient id="paint0_linear" x1="100.56" y1="75.5996" x2="96.5" y2="122" gradientUnits="userSpaceOnUse">
            <stop stop-color="#FF5C5C"/>
            <stop offset="1" stop-color="#FF6600" stop-opacity="0.02"/>
        </linearGradient>
    </defs>
    <rect width="203" height="203" rx="30" fill="white"/>
<path d="M138.347 64.89C138.347 77.4382 128.368 87.8147 115.955 88.5386C115.468 88.5386 114.981 88.5386 114.494 88.5386C110.357 88.5386 106.219 87.3321 102.811 85.4015C95.5095 81.2992 90.6416 73.5772 90.6416 64.6487C90.6416 58.6158 92.8322 53.0656 96.7265 48.9633C101.108 44.1371 107.436 41 114.494 41C123.743 41 131.776 46.3089 135.67 54.0309C137.374 57.4093 138.347 61.029 138.347 64.89Z" fill="#F1F3F9" stroke="#FFEAD1" stroke-width="2" stroke-miterlimit="10"/>
<path opacity="0.1" d="M138.138 64.89C138.138 77.4383 128.159 87.8147 115.746 88.5386C111.121 87.8147 106.74 86.6081 102.602 85.6429C95.3005 81.5406 90.4326 73.8186 90.4326 64.89C90.4326 58.8572 92.6232 53.307 96.5175 49.2047C104.55 48.9634 113.799 49.6873 123.291 51.3765C127.672 52.1004 131.81 53.0657 135.704 54.0309C137.165 57.4093 138.138 61.029 138.138 64.89Z" fill="#AAB2C5"/>
<path d="M167.241 80.8605C169.078 70.6263 146.428 58.071 116.652 52.8173C86.875 47.5637 61.2471 51.6012 59.4101 61.8354C57.5732 72.0696 80.2227 84.625 109.999 89.8786C139.776 95.1323 165.404 91.0947 167.241 80.8605Z" fill="#F1F3F9" stroke="#FFEAD1" stroke-width="2" stroke-miterlimit="10"/>
<path d="M109.061 58.661C109.196 56.9336 106.481 55.3156 102.997 55.047C99.5121 54.7784 96.5775 55.9609 96.4421 57.6883C96.3066 59.4156 99.0216 61.0337 102.506 61.3023C105.991 61.5709 108.925 60.3883 109.061 58.661Z" fill="#FFEAD1"/>
<path d="M78.4352 63.0975C81.7855 62.1114 84.0984 59.9656 83.601 58.3047C83.1037 56.6439 79.9845 56.097 76.6342 57.0832C73.2839 58.0693 70.971 60.2151 71.4684 61.876C71.9657 63.5368 75.0849 64.0837 78.4352 63.0975Z" fill="#FFEAD1"/>
<path d="M133.676 65.0099C133.982 63.3042 131.441 61.4293 128 60.8222C124.559 60.2152 121.522 61.1058 121.215 62.8115C120.909 64.5172 123.45 66.392 126.891 66.9991C130.332 67.6062 133.37 66.7156 133.676 65.0099Z" fill="#FFEAD1"/>
<path d="M152.153 77.6276C152.954 76.0877 151.085 73.552 147.979 71.9639C144.873 70.3758 141.705 70.3368 140.904 71.8767C140.103 73.4166 141.972 75.9523 145.079 77.5404C148.185 79.1284 151.353 79.1675 152.153 77.6276Z" fill="#FFEAD1"/>
<path d="M110.29 73.4015L87.4111 73.1602L54.8281 133.764L146.281 143.382L136.09 81.6061L110.29 73.4015Z" fill="url(#paint0_linear)"/>
<path d="M158.235 159.637H41.1616C44.3258 156.802 48.9503 153.966 54.305 151.839C57.2258 150.776 60.6333 149.358 64.0409 148.649C74.2635 145.813 86.6767 144.041 99.8201 144.041C115.641 144.041 130.245 146.522 141.441 150.421C145.335 151.839 148.743 153.257 151.664 155.029C154.341 156.447 156.531 157.865 158.235 159.637Z" fill="#F1F3F9" stroke="#FFEAD1" stroke-width="2" stroke-miterlimit="10"/>
<path d="M65.2215 151.58C65.3749 153.019 62.8659 154.743 59.9616 155.052C57.0573 155.361 54.5092 154.419 54.1138 153.006C56.9415 151.976 60.2276 150.656 63.5649 149.815C64.5841 150.192 65.1448 150.86 65.2215 151.58Z" fill="#FFEAD1"/>
<path d="M86.1903 149.349C90.0886 149.349 93.2488 148.593 93.2488 147.66C93.2488 146.727 90.0886 145.971 86.1903 145.971C82.292 145.971 79.1318 146.727 79.1318 147.66C79.1318 148.593 82.292 149.349 86.1903 149.349Z" fill="#FFEAD1"/>
<path d="M124.237 149.211C124.317 148.014 121.229 146.837 117.339 146.581C113.449 146.325 110.231 147.088 110.151 148.285C110.071 149.482 113.16 150.659 117.049 150.915C120.939 151.171 124.157 150.408 124.237 149.211Z" fill="#FFEAD1"/>
<path d="M150.41 155.443C149.443 155.332 148.281 155.369 146.858 154.962C143.017 154.276 140.012 152.715 140.15 151.516C140.178 151.277 140.178 151.277 140.447 151.065C144.205 152.47 147.621 153.829 150.41 155.443Z" fill="#FFEAD1"/>
<path d="M135.945 82.3601C136.769 77.7678 126.495 72.1144 112.996 69.7327C99.4972 67.3511 87.8861 69.1431 87.0618 73.7354C86.2376 78.3276 96.5122 83.9811 110.011 86.3628C123.51 88.7444 135.121 86.9524 135.945 82.3601Z" fill="#FF6600" stroke="#FFEAD1" stroke-width="2" stroke-miterlimit="10"/>
<path d="M48.5418 104.6C48.5418 104.6 40.1342 106.735 42.682 108.442C45.2297 110.065 51.2595 112.882 56.9495 111.004C62.6395 109.125 56.9495 106.478 57.0344 106.478C57.1193 106.478 48.5418 104.6 48.5418 104.6Z" fill="#CED7E2"/>
<path d="M38.2656 103.917C41.3229 104.856 50.7497 103.319 56.7794 99.3912C61.5353 105.283 63.3187 106.82 65.0172 106.991C62.3845 109.638 53.6372 113.907 48.7115 108.357C42.9365 112.028 38.2656 103.917 38.2656 103.917Z" fill="#E9EEF7"/>
<path d="M139.25 111.603C142.478 111.774 151.225 107.846 155.981 102.552C162.096 107.077 164.134 108.102 165.917 107.846C163.964 111.09 158.019 118.178 149.611 118.69C143.497 115.104 139.25 111.603 139.25 111.603Z" fill="#E9EEF7"/>
<path d="M111.282 111.708C110.644 108.54 104.661 101.047 98.3491 97.7599C101.209 90.7107 101.693 88.4815 101.001 86.8181C104.63 87.9016 112.975 91.8936 115.565 99.9086C113.615 106.724 111.282 111.708 111.282 111.708Z" fill="white"/>
<path d="M187.152 159.637H179.761H26.5479H17" stroke="#D5DAE8" stroke-width="2" stroke-miterlimit="10" stroke-linecap="round" stroke-linejoin="round"/>
<path d="M82.8352 140.249V145.075H79.9144V149.66H74.3163V145.075H62.1465V139.525L73.3427 124.081H79.671V140.249H82.8352ZM74.5597 130.355L67.5012 140.249H74.5597V130.355Z" fill="white" stroke="#FF6600" stroke-width="2" stroke-miterlimit="10" stroke-linejoin="round"/>
<path d="M98.3596 150.143C92.5181 150.143 87.4067 145.075 87.4067 136.871C87.4067 128.666 92.5181 123.598 98.3596 123.598C104.201 123.598 109.312 128.666 109.312 136.871C109.556 144.834 104.444 150.143 98.3596 150.143ZM98.3596 145.075C101.037 145.075 103.958 142.421 103.958 136.629C103.958 131.079 101.28 128.183 98.3596 128.183C95.6822 128.183 92.7615 130.838 92.7615 136.629C93.0049 142.421 95.6822 145.075 98.3596 145.075Z" fill="white" stroke="#FF6600" stroke-width="2" stroke-miterlimit="10" stroke-linejoin="round"/>
<path d="M135.06 140.249V145.075H132.139V149.66H126.541V145.075H114.371V139.525L125.567 124.081H131.896V140.249H135.06ZM126.541 130.355L119.482 140.249H126.541V130.355Z" fill="white" stroke="#FF6600" stroke-width="2" stroke-miterlimit="10" stroke-linejoin="round"/>
</svg>
