<svg id="svg" version="1.1" xmlns="http://www.w3.org/2000/svg" xmlns:xlink="http://www.w3.org/1999/xlink" width="400" height="400" viewBox="0, 0, 400,400"><g id="svgg"><path id="path0" d="M259.000 46.400 C 258.864 46.620,257.503 46.800,255.976 46.800 C 254.392 46.800,253.200 46.972,253.200 47.200 C 253.200 47.420,252.480 47.600,251.600 47.600 C 250.720 47.600,250.000 47.780,250.000 48.000 C 250.000 48.220,249.640 48.400,249.200 48.400 C 248.760 48.400,248.400 48.580,248.400 48.800 C 248.400 49.020,247.680 49.200,246.800 49.200 C 245.920 49.200,245.200 49.380,245.200 49.600 C 245.200 49.820,244.660 50.000,244.000 50.000 C 243.340 50.000,242.800 50.180,242.800 50.400 C 242.800 50.620,242.440 50.800,242.000 50.800 C 241.560 50.800,241.200 50.980,241.200 51.200 C 241.200 51.420,240.840 51.600,240.400 51.600 C 239.960 51.600,239.600 51.780,239.600 52.000 C 239.600 52.220,239.280 52.400,238.888 52.400 C 238.497 52.400,237.917 52.760,237.600 53.200 C 237.283 53.640,236.743 54.000,236.400 54.000 C 236.057 54.000,235.517 54.360,235.200 54.800 C 234.883 55.240,234.393 55.600,234.112 55.600 C 233.519 55.600,221.200 67.867,221.200 68.457 C 221.200 68.674,220.300 69.729,219.200 70.800 C 218.100 71.871,217.200 72.990,217.200 73.286 C 217.200 73.581,216.840 74.083,216.400 74.400 C 215.960 74.717,215.600 75.257,215.600 75.600 C 215.600 75.943,215.240 76.483,214.800 76.800 C 214.360 77.117,214.000 77.616,214.000 77.908 C 214.000 78.201,212.560 79.884,210.800 81.649 C 209.040 83.413,207.600 85.042,207.600 85.268 C 207.600 85.494,207.060 86.183,206.400 86.800 C 205.740 87.417,205.200 88.097,205.200 88.312 C 205.200 88.527,204.480 89.445,203.600 90.352 C 202.720 91.259,202.000 92.205,202.000 92.454 C 202.000 92.702,201.673 93.197,201.272 93.553 C 200.872 93.909,200.422 94.528,200.273 94.930 C 199.963 95.765,198.800 94.966,198.800 93.917 C 198.800 93.620,198.440 93.117,198.000 92.800 C 197.560 92.483,197.200 91.979,197.200 91.680 C 197.200 91.382,196.480 90.446,195.600 89.600 C 194.720 88.754,194.000 87.851,194.000 87.592 C 194.000 87.333,193.460 86.617,192.800 86.000 C 192.140 85.383,191.600 84.591,191.600 84.240 C 191.600 83.888,191.322 83.600,190.982 83.600 C 190.269 83.600,188.400 81.854,188.400 81.187 C 188.400 80.940,187.680 80.046,186.800 79.200 C 185.920 78.354,185.200 77.379,185.200 77.031 C 185.200 76.684,185.020 76.400,184.800 76.400 C 184.580 76.400,184.400 76.157,184.400 75.859 C 184.400 75.562,183.860 74.754,183.200 74.063 C 182.540 73.372,182.000 72.644,182.000 72.444 C 182.000 72.244,181.131 71.194,180.069 70.109 C 179.007 69.024,178.023 67.836,177.882 67.469 C 177.741 67.101,177.431 66.800,177.194 66.800 C 176.639 66.800,174.800 64.966,174.800 64.412 C 174.800 63.871,168.146 57.200,167.606 57.200 C 167.383 57.200,166.459 56.480,165.552 55.600 C 164.645 54.720,163.738 54.000,163.535 54.000 C 163.332 54.000,162.780 53.640,162.308 53.200 C 161.836 52.760,161.213 52.400,160.925 52.400 C 160.636 52.400,160.400 52.220,160.400 52.000 C 160.400 51.780,160.040 51.600,159.600 51.600 C 159.160 51.600,158.800 51.420,158.800 51.200 C 158.800 50.980,158.440 50.800,158.000 50.800 C 157.560 50.800,157.200 50.620,157.200 50.400 C 157.200 50.180,156.480 50.000,155.600 50.000 C 154.720 50.000,154.000 49.820,154.000 49.600 C 154.000 49.380,153.280 49.200,152.400 49.200 C 151.520 49.200,150.800 49.020,150.800 48.800 C 150.800 48.580,150.440 48.400,150.000 48.400 C 149.560 48.400,149.200 48.220,149.200 48.000 C 149.200 47.780,148.480 47.600,147.600 47.600 C 146.720 47.600,146.000 47.420,146.000 47.200 C 146.000 46.335,136.642 46.709,136.000 47.600 C 135.683 48.040,135.103 48.400,134.712 48.400 C 134.320 48.400,134.000 48.580,134.000 48.800 C 134.000 49.020,133.640 49.200,133.200 49.200 C 132.760 49.200,132.400 49.380,132.400 49.600 C 132.400 49.820,132.080 50.000,131.688 50.000 C 131.297 50.000,130.717 50.360,130.400 50.800 C 130.083 51.240,129.590 51.600,129.304 51.600 C 128.671 51.600,123.600 56.607,123.600 57.232 C 123.600 57.478,123.060 58.183,122.400 58.800 C 121.740 59.417,121.200 60.169,121.200 60.472 C 121.200 60.775,120.840 61.283,120.400 61.600 C 119.960 61.917,119.600 62.457,119.600 62.800 C 119.600 63.143,119.240 63.683,118.800 64.000 C 118.360 64.317,118.000 64.897,118.000 65.288 C 118.000 65.680,117.820 66.000,117.600 66.000 C 117.380 66.000,117.200 66.540,117.200 67.200 C 117.200 67.860,117.020 68.400,116.800 68.400 C 116.580 68.400,116.400 69.120,116.400 70.000 C 116.400 70.880,116.220 71.600,116.000 71.600 C 115.774 71.600,115.600 72.733,115.600 74.200 C 115.600 75.667,115.426 76.800,115.200 76.800 C 114.956 76.800,114.784 78.793,114.760 81.900 C 114.735 85.075,114.599 86.622,114.400 86.000 C 114.099 85.060,114.077 85.079,114.040 86.324 C 114.016 87.113,114.162 87.547,114.400 87.400 C 114.658 87.241,114.800 88.737,114.800 91.600 C 114.800 94.463,114.942 95.959,115.200 95.800 C 115.455 95.642,115.600 96.870,115.600 99.200 C 115.600 101.530,115.745 102.758,116.000 102.600 C 116.251 102.445,116.400 103.329,116.400 104.976 C 116.400 106.459,116.574 107.600,116.800 107.600 C 117.020 107.600,117.200 108.140,117.200 108.800 C 117.200 109.460,117.380 110.000,117.600 110.000 C 117.820 110.000,118.000 110.360,118.000 110.800 C 118.000 111.240,118.180 111.600,118.400 111.600 C 118.620 111.600,118.800 112.140,118.800 112.800 L 118.800 114.000 149.826 114.000 C 170.449 114.000,181.112 114.139,181.626 114.414 C 182.389 114.822,182.400 116.588,182.400 234.014 L 182.400 353.200 183.700 353.263 C 184.415 353.298,185.225 353.318,185.500 353.307 C 185.775 353.297,186.000 353.449,186.000 353.644 C 186.000 353.840,186.360 354.000,186.800 354.000 C 187.240 354.000,187.600 353.820,187.600 353.600 C 187.600 352.999,192.290 353.094,192.536 353.700 C 192.673 354.036,192.847 354.064,193.070 353.785 C 193.341 353.445,195.649 353.327,196.400 353.615 C 197.066 353.871,200.243 353.741,200.455 353.449 C 200.596 353.256,200.935 353.236,201.209 353.405 C 202.026 353.910,204.480 353.953,206.378 353.495 C 207.731 353.168,208.194 353.181,208.317 353.550 C 208.409 353.827,208.674 353.896,208.939 353.711 C 209.193 353.533,211.763 353.481,214.650 353.594 C 218.468 353.744,220.023 353.668,220.350 353.317 C 220.681 352.961,220.800 321.330,220.800 233.660 C 220.800 125.357,220.858 114.463,221.433 114.243 C 221.781 114.109,235.371 114.000,251.633 114.000 C 280.933 114.000,281.200 113.993,281.200 113.200 C 281.200 112.760,281.380 112.400,281.600 112.400 C 281.820 112.400,282.000 111.860,282.000 111.200 C 282.000 110.540,282.180 110.000,282.400 110.000 C 282.620 110.000,282.800 109.460,282.800 108.800 C 282.800 108.140,282.980 107.600,283.200 107.600 C 283.420 107.600,283.600 106.711,283.600 105.624 C 283.600 104.537,283.780 103.536,284.000 103.400 C 284.220 103.264,284.400 101.813,284.400 100.176 C 284.400 98.459,284.569 97.200,284.800 97.200 C 285.033 97.200,285.200 95.867,285.200 94.000 C 285.200 92.133,285.367 90.800,285.600 90.800 C 285.844 90.800,286.000 88.933,286.000 86.000 C 286.000 83.067,285.844 81.200,285.600 81.200 C 285.367 81.200,285.200 79.867,285.200 78.000 C 285.200 76.133,285.033 74.800,284.800 74.800 C 284.580 74.800,284.400 73.911,284.400 72.824 C 284.400 71.737,284.220 70.736,284.000 70.600 C 283.780 70.464,283.600 69.733,283.600 68.976 C 283.600 68.219,283.420 67.600,283.200 67.600 C 282.980 67.600,282.800 67.240,282.800 66.800 C 282.800 66.360,282.620 66.000,282.400 66.000 C 282.180 66.000,282.000 65.640,282.000 65.200 C 282.000 64.760,281.820 64.400,281.600 64.400 C 281.380 64.400,281.200 64.080,281.200 63.688 C 281.200 63.297,280.840 62.717,280.400 62.400 C 279.960 62.083,279.600 61.575,279.600 61.272 C 279.600 60.969,279.060 60.217,278.400 59.600 C 277.740 58.983,277.200 58.279,277.200 58.034 C 277.200 57.357,270.498 50.800,269.806 50.800 C 269.473 50.800,269.200 50.620,269.200 50.400 C 269.200 50.180,268.919 50.000,268.576 50.000 C 268.233 50.000,268.040 49.858,268.148 49.685 C 268.255 49.512,267.881 49.332,267.318 49.285 C 266.755 49.238,265.982 48.840,265.600 48.400 C 265.218 47.960,264.612 47.600,264.253 47.600 C 263.894 47.600,263.600 47.420,263.600 47.200 C 263.600 46.980,263.240 46.800,262.800 46.800 C 262.360 46.800,262.000 46.620,262.000 46.400 C 262.000 46.180,261.381 46.000,260.624 46.000 C 259.867 46.000,259.136 46.180,259.000 46.400 M159.000 84.000 C 158.844 84.253,159.855 84.400,161.753 84.400 C 163.403 84.400,164.864 84.580,165.000 84.800 C 165.136 85.020,165.687 85.200,166.224 85.200 C 166.761 85.200,167.200 85.380,167.200 85.600 C 167.200 85.820,167.650 86.000,168.200 86.000 C 168.750 86.000,169.200 86.180,169.200 86.400 C 169.200 86.620,169.560 86.800,170.000 86.800 C 170.440 86.800,170.800 86.980,170.800 87.200 C 170.800 87.420,171.070 87.600,171.400 87.600 C 171.730 87.600,172.000 87.780,172.000 88.000 C 172.000 88.220,172.270 88.400,172.600 88.400 C 172.930 88.400,173.200 88.580,173.200 88.800 C 173.200 89.020,173.470 89.200,173.800 89.200 C 174.130 89.200,174.400 89.337,174.400 89.505 C 174.400 89.673,174.805 89.988,175.300 90.205 C 176.228 90.612,176.840 92.800,176.027 92.800 C 175.792 92.800,175.600 93.160,175.600 93.600 C 175.600 94.040,175.420 94.400,175.200 94.400 C 174.980 94.400,174.800 94.828,174.800 95.351 C 174.800 96.799,173.882 97.328,171.908 97.016 C 170.968 96.867,168.805 96.654,167.100 96.542 C 165.395 96.431,164.000 96.173,164.000 95.970 C 164.000 95.766,163.190 95.600,162.200 95.600 C 161.210 95.600,160.400 95.420,160.400 95.200 C 160.400 94.980,159.781 94.800,159.024 94.800 C 158.267 94.800,157.536 94.620,157.400 94.400 C 157.264 94.180,156.623 94.000,155.976 94.000 C 155.329 94.000,154.800 93.820,154.800 93.600 C 154.800 93.380,154.350 93.200,153.800 93.200 C 153.250 93.200,152.800 93.020,152.800 92.800 C 152.800 92.580,152.339 92.400,151.776 92.400 C 151.196 92.400,150.860 92.227,151.000 92.000 C 151.136 91.780,150.967 91.600,150.624 91.600 C 150.281 91.600,150.000 91.420,150.000 91.200 C 150.000 90.980,149.730 90.800,149.400 90.800 C 149.070 90.800,148.800 90.620,148.800 90.400 C 148.800 90.180,148.621 90.000,148.403 90.000 C 147.800 90.000,146.000 88.323,146.000 87.761 C 146.000 87.489,145.775 87.162,145.500 87.033 C 145.100 86.847,145.100 86.753,145.500 86.567 C 145.775 86.438,146.000 86.078,146.000 85.767 C 146.000 85.455,146.270 85.200,146.600 85.200 C 146.930 85.200,147.200 85.020,147.200 84.800 C 147.200 84.580,148.010 84.400,149.000 84.400 C 149.990 84.400,150.800 84.220,150.800 84.000 C 150.800 83.759,152.475 83.600,155.024 83.600 C 157.737 83.600,159.159 83.743,159.000 84.000 M247.600 84.000 C 247.177 84.273,247.745 84.390,249.518 84.394 C 252.947 84.402,255.806 87.347,253.300 88.288 C 252.915 88.433,252.123 89.057,251.540 89.675 C 250.956 90.294,250.231 90.800,249.928 90.800 C 249.625 90.800,249.117 91.160,248.800 91.600 C 248.483 92.040,247.813 92.400,247.312 92.400 C 246.810 92.400,246.400 92.580,246.400 92.800 C 246.400 93.020,245.950 93.200,245.400 93.200 C 244.850 93.200,244.400 93.380,244.400 93.600 C 244.400 93.820,243.860 94.000,243.200 94.000 C 242.540 94.000,242.000 94.180,242.000 94.400 C 242.000 94.620,241.280 94.800,240.400 94.800 C 239.520 94.800,238.800 94.980,238.800 95.200 C 238.800 95.420,237.900 95.600,236.800 95.600 C 235.700 95.600,234.800 95.780,234.800 96.000 C 234.800 96.434,226.915 96.572,225.833 96.157 C 225.485 96.024,225.200 95.484,225.200 94.957 C 225.200 94.431,225.020 94.000,224.800 94.000 C 224.580 94.000,224.400 93.640,224.400 93.200 C 224.400 92.760,224.220 92.400,224.000 92.400 C 223.780 92.400,223.600 92.040,223.600 91.600 C 223.600 91.134,223.867 90.800,224.240 90.800 C 224.591 90.800,225.383 90.260,226.000 89.600 C 226.617 88.940,227.409 88.400,227.760 88.400 C 228.112 88.400,228.400 88.220,228.400 88.000 C 228.400 87.780,228.760 87.600,229.200 87.600 C 229.640 87.600,230.000 87.420,230.000 87.200 C 230.000 86.980,230.371 86.800,230.824 86.800 C 231.277 86.800,231.536 86.620,231.400 86.400 C 231.260 86.173,231.596 86.000,232.176 86.000 C 232.739 86.000,233.200 85.820,233.200 85.600 C 233.200 85.380,233.740 85.200,234.400 85.200 C 235.060 85.200,235.600 85.020,235.600 84.800 C 235.600 84.575,236.782 84.390,238.300 84.377 C 239.785 84.364,241.720 84.205,242.600 84.023 C 244.968 83.533,248.346 83.518,247.600 84.000 M87.100 123.895 C 88.255 123.976,90.145 123.976,91.300 123.895 C 92.455 123.814,91.510 123.748,89.200 123.748 C 86.890 123.748,85.945 123.814,87.100 123.895 M93.783 140.800 C 93.783 149.930,93.835 153.665,93.900 149.100 C 93.964 144.535,93.964 137.065,93.900 132.500 C 93.835 127.935,93.783 131.670,93.783 140.800 M109.309 189.200 C 109.309 190.190,109.387 190.595,109.482 190.100 C 109.578 189.605,109.578 188.795,109.482 188.300 C 109.387 187.805,109.309 188.210,109.309 189.200 M109.340 203.600 C 109.340 205.470,109.409 206.235,109.493 205.300 C 109.577 204.365,109.577 202.835,109.493 201.900 C 109.409 200.965,109.340 201.730,109.340 203.600 M312.524 208.200 C 312.526 209.520,312.601 210.012,312.690 209.293 C 312.779 208.574,312.777 207.494,312.686 206.893 C 312.595 206.292,312.522 206.880,312.524 208.200 M312.528 213.200 C 312.528 214.630,312.601 215.215,312.689 214.500 C 312.778 213.785,312.778 212.615,312.689 211.900 C 312.601 211.185,312.528 211.770,312.528 213.200 M109.334 219.200 C 109.334 220.850,109.405 221.525,109.491 220.700 C 109.578 219.875,109.578 218.525,109.491 217.700 C 109.405 216.875,109.334 217.550,109.334 219.200 M312.520 223.200 C 312.520 224.410,312.595 224.905,312.687 224.300 C 312.778 223.695,312.778 222.705,312.687 222.100 C 312.595 221.495,312.520 221.990,312.520 223.200 M312.520 227.600 C 312.520 228.810,312.595 229.305,312.687 228.700 C 312.778 228.095,312.778 227.105,312.687 226.500 C 312.595 225.895,312.520 226.390,312.520 227.600 M312.493 231.200 C 312.493 231.970,312.575 232.285,312.676 231.900 C 312.776 231.515,312.776 230.885,312.676 230.500 C 312.575 230.115,312.493 230.430,312.493 231.200 M109.340 234.800 C 109.340 236.670,109.409 237.435,109.493 236.500 C 109.577 235.565,109.577 234.035,109.493 233.100 C 109.409 232.165,109.340 232.930,109.340 234.800 M312.520 240.000 C 312.520 241.210,312.595 241.705,312.687 241.100 C 312.778 240.495,312.778 239.505,312.687 238.900 C 312.595 238.295,312.520 238.790,312.520 240.000 M312.537 245.400 C 312.539 247.160,312.609 247.830,312.693 246.889 C 312.778 245.949,312.777 244.509,312.691 243.689 C 312.605 242.870,312.536 243.640,312.537 245.400 M109.334 250.400 C 109.334 252.050,109.405 252.725,109.491 251.900 C 109.578 251.075,109.578 249.725,109.491 248.900 C 109.405 248.075,109.334 248.750,109.334 250.400 M312.493 259.600 C 312.493 260.370,312.575 260.685,312.676 260.300 C 312.776 259.915,312.776 259.285,312.676 258.900 C 312.575 258.515,312.493 258.830,312.493 259.600 M312.493 262.400 C 312.493 263.170,312.575 263.485,312.676 263.100 C 312.776 262.715,312.776 262.085,312.676 261.700 C 312.575 261.315,312.493 261.630,312.493 262.400 M109.340 266.000 C 109.340 267.870,109.409 268.635,109.493 267.700 C 109.577 266.765,109.577 265.235,109.493 264.300 C 109.409 263.365,109.340 264.130,109.340 266.000 M263.513 353.495 C 264.676 353.576,266.476 353.576,267.513 353.493 C 268.551 353.411,267.600 353.345,265.400 353.346 C 263.200 353.347,262.351 353.414,263.513 353.495 " stroke="none" fill="#fbc95b" fill-rule="evenodd"></path><path id="path1" d="M80.000 114.379 C 80.000 114.610,79.550 114.800,79.000 114.800 C 78.450 114.800,78.000 114.980,78.000 115.200 C 78.000 115.420,77.640 115.600,77.200 115.600 C 76.760 115.600,76.400 115.780,76.400 116.000 C 76.400 116.220,76.117 116.400,75.771 116.400 C 74.963 116.400,74.000 117.363,74.000 118.171 C 74.000 118.517,73.820 118.800,73.600 118.800 C 73.380 118.800,73.200 119.340,73.200 120.000 C 73.200 120.660,73.020 121.200,72.800 121.200 C 72.539 121.200,72.400 128.067,72.400 141.000 C 72.400 153.933,72.539 160.800,72.800 160.800 C 73.020 160.800,73.200 161.328,73.200 161.974 C 73.200 163.506,77.148 167.600,78.626 167.600 C 79.162 167.600,79.600 167.780,79.600 168.000 C 79.600 168.240,81.195 168.400,83.584 168.400 L 87.567 168.400 87.684 176.300 C 87.942 193.834,87.556 252.020,87.183 251.790 C 86.972 251.659,86.800 251.733,86.800 251.953 C 86.800 252.173,86.965 252.455,87.166 252.579 C 87.694 252.905,87.741 275.065,87.215 275.391 C 86.987 275.532,86.800 275.827,86.800 276.047 C 86.800 276.267,86.980 276.336,87.200 276.200 C 87.585 275.962,87.771 302.403,87.610 334.500 C 87.566 343.275,87.678 347.200,87.973 347.200 C 88.208 347.200,88.400 347.545,88.400 347.966 C 88.400 348.885,90.935 351.600,91.793 351.600 C 92.127 351.600,92.400 351.780,92.400 352.000 C 92.400 352.220,92.850 352.400,93.400 352.400 C 93.950 352.400,94.400 352.580,94.400 352.800 C 94.400 353.064,109.200 353.200,138.000 353.200 L 181.600 353.200 181.665 267.100 C 181.742 164.676,181.609 115.092,181.257 114.750 C 180.783 114.288,80.000 113.919,80.000 114.379 M251.160 114.300 L 221.720 114.405 221.465 121.303 C 221.121 130.628,221.107 337.150,221.450 346.100 L 221.722 353.200 230.037 353.200 C 235.149 353.200,238.448 353.354,238.600 353.600 C 238.736 353.820,239.242 353.987,239.724 353.972 C 240.569 353.945,240.571 353.931,239.800 353.600 C 239.341 353.403,248.113 353.256,260.400 353.256 C 272.687 353.256,281.459 353.403,281.000 353.600 C 279.768 354.129,281.209 354.095,282.749 353.558 C 283.739 353.213,284.163 353.235,284.685 353.658 C 285.150 354.035,285.262 354.048,285.053 353.700 C 284.816 353.305,286.944 353.200,295.176 353.200 C 301.859 353.200,305.600 353.056,305.600 352.800 C 305.600 352.580,306.061 352.400,306.624 352.400 C 307.204 352.400,307.540 352.227,307.400 352.000 C 307.263 351.779,307.565 351.593,308.076 351.585 C 308.667 351.575,309.300 351.105,309.832 350.285 C 310.290 349.578,310.875 349.045,311.132 349.100 C 311.391 349.155,311.600 348.754,311.600 348.200 C 311.600 347.650,311.780 347.200,312.000 347.200 C 312.265 347.200,312.400 317.133,312.400 257.800 L 312.400 168.400 316.400 168.400 C 318.800 168.400,320.400 168.240,320.400 168.000 C 320.400 167.780,320.863 167.600,321.429 167.600 C 321.994 167.600,322.727 167.330,323.057 167.000 C 323.387 166.670,323.528 166.400,323.370 166.400 C 323.212 166.400,323.604 165.909,324.242 165.310 C 324.879 164.710,325.535 164.260,325.700 164.310 C 325.865 164.359,326.000 164.040,326.000 163.600 C 326.000 163.160,326.180 162.800,326.400 162.800 C 326.620 162.800,326.800 162.350,326.800 161.800 C 326.800 161.250,326.980 160.800,327.200 160.800 C 327.461 160.800,327.600 153.933,327.600 141.000 C 327.600 128.067,327.461 121.200,327.200 121.200 C 326.980 121.200,326.800 120.660,326.800 120.000 C 326.800 119.340,326.620 118.800,326.400 118.800 C 326.180 118.800,326.000 118.517,326.000 118.171 C 326.000 117.400,325.049 116.400,324.317 116.400 C 324.020 116.400,323.517 116.040,323.200 115.600 C 322.825 115.080,322.165 114.800,321.312 114.800 C 320.590 114.800,320.000 114.620,320.000 114.400 C 320.000 114.137,313.232 114.033,300.300 114.097 C 289.465 114.151,267.352 114.242,251.160 114.300 M94.304 140.574 C 94.386 154.047,94.300 157.816,93.904 158.068 C 93.076 158.593,85.027 158.467,84.480 157.920 C 83.950 157.390,83.755 123.978,84.278 123.455 C 84.431 123.302,86.726 123.227,89.378 123.288 L 94.200 123.400 94.304 140.574 M317.600 140.740 L 317.600 158.280 314.100 158.466 C 311.280 158.615,240.641 158.595,225.500 158.440 L 221.600 158.400 221.600 140.800 L 221.600 123.200 269.600 123.200 L 317.600 123.200 317.600 140.740 M305.100 168.264 L 312.000 168.526 312.000 174.602 L 312.000 180.678 307.764 180.938 C 305.435 181.080,303.365 181.298,303.164 181.422 C 302.947 181.556,302.800 214.318,302.800 262.575 C 302.800 330.270,302.711 343.576,302.257 343.953 C 301.860 344.282,290.949 344.376,261.757 344.302 L 221.800 344.200 221.697 256.600 C 221.641 208.420,221.680 168.775,221.785 168.500 C 221.994 167.950,291.615 167.753,305.100 168.264 M181.400 174.773 L 181.400 180.945 139.600 180.909 C 116.610 180.889,95.595 180.856,92.900 180.836 L 88.000 180.800 88.000 174.598 L 88.000 168.397 134.700 168.498 L 181.400 168.600 181.400 174.773 M109.902 233.157 C 109.977 267.530,109.886 279.456,109.543 279.869 C 109.187 280.297,108.018 280.399,104.441 280.312 L 99.800 280.200 99.697 234.000 C 99.640 208.590,99.682 187.569,99.789 187.288 C 99.937 186.901,101.188 186.803,104.892 186.888 L 109.800 187.000 109.902 233.157 M86.920 244.000 C 86.920 245.210,86.995 245.705,87.087 245.100 C 87.178 244.495,87.178 243.505,87.087 242.900 C 86.995 242.295,86.920 242.790,86.920 244.000 M86.909 249.200 C 86.909 250.190,86.987 250.595,87.082 250.100 C 87.178 249.605,87.178 248.795,87.082 248.300 C 86.987 247.805,86.909 248.210,86.909 249.200 M277.700 353.876 C 278.085 353.976,278.715 353.976,279.100 353.876 C 279.485 353.775,279.170 353.693,278.400 353.693 C 277.630 353.693,277.315 353.775,277.700 353.876 M286.500 353.876 C 286.885 353.976,287.515 353.976,287.900 353.876 C 288.285 353.775,287.970 353.693,287.200 353.693 C 286.430 353.693,286.115 353.775,286.500 353.876 " stroke="none" fill="#e11b2b" fill-rule="evenodd"></path><path id="path2" d="M221.600 140.800 L 221.600 158.400 225.500 158.440 C 240.641 158.595,311.280 158.615,314.100 158.466 L 317.600 158.280 317.600 140.740 L 317.600 123.200 269.600 123.200 L 221.600 123.200 221.600 140.800 M221.785 168.500 C 221.680 168.775,221.641 208.420,221.697 256.600 L 221.800 344.200 261.757 344.302 C 290.949 344.376,301.860 344.282,302.257 343.953 C 302.711 343.576,302.800 330.270,302.800 262.575 C 302.800 214.318,302.947 181.556,303.164 181.422 C 303.365 181.298,305.435 181.080,307.764 180.938 L 312.000 180.678 312.000 174.602 L 312.000 168.526 305.100 168.264 C 291.615 167.753,221.994 167.950,221.785 168.500 M88.000 174.598 L 88.000 180.800 92.900 180.836 C 95.595 180.856,116.610 180.889,139.600 180.909 L 181.400 180.945 181.400 174.773 L 181.400 168.600 134.700 168.498 L 88.000 168.397 88.000 174.598 M312.914 235.000 C 312.917 236.100,312.995 236.503,313.087 235.895 C 313.179 235.286,313.177 234.386,313.082 233.895 C 312.987 233.403,312.911 233.900,312.914 235.000 M312.893 265.600 C 312.893 266.370,312.975 266.685,313.076 266.300 C 313.176 265.915,313.176 265.285,313.076 264.900 C 312.975 264.515,312.893 264.830,312.893 265.600 " stroke="none" fill="#b90404" fill-rule="evenodd"></path><path id="path3" d="M174.800 64.548 C 174.800 65.039,176.834 66.899,177.091 66.642 C 177.224 66.509,177.258 66.355,177.167 66.300 C 177.075 66.245,176.505 65.764,175.900 65.230 C 175.295 64.697,174.800 64.390,174.800 64.548 M115.170 74.900 C 114.876 75.890,114.891 76.800,115.203 76.800 C 115.421 76.800,115.600 76.350,115.600 75.800 C 115.600 75.006,115.316 74.410,115.170 74.900 M114.040 82.700 C 114.108 86.601,114.715 87.444,114.760 83.700 C 114.784 81.740,114.638 80.400,114.400 80.400 C 114.175 80.400,114.017 81.407,114.040 82.700 M150.800 84.000 C 150.800 84.220,149.990 84.400,149.000 84.400 C 148.010 84.400,147.200 84.580,147.200 84.800 C 147.200 85.020,146.930 85.200,146.600 85.200 C 146.270 85.200,146.000 85.455,146.000 85.767 C 146.000 86.078,145.775 86.438,145.500 86.567 C 145.100 86.753,145.100 86.847,145.500 87.033 C 145.775 87.162,146.000 87.489,146.000 87.761 C 146.000 88.323,147.800 90.000,148.403 90.000 C 148.621 90.000,148.800 90.180,148.800 90.400 C 148.800 90.620,149.055 90.800,149.367 90.800 C 149.678 90.800,150.014 91.025,150.112 91.300 C 150.210 91.575,150.427 91.674,150.593 91.519 C 150.917 91.218,149.888 90.000,149.309 90.000 C 148.088 90.000,148.059 88.977,149.246 87.752 C 149.932 87.044,150.702 86.046,150.957 85.533 C 151.384 84.675,151.708 84.591,155.008 84.483 C 160.257 84.312,160.316 83.600,155.080 83.600 C 152.493 83.600,150.800 83.758,150.800 84.000 M242.658 83.990 C 241.363 84.240,240.144 85.259,235.059 90.344 L 229.003 96.400 231.802 96.345 L 234.600 96.290 240.400 90.202 C 243.590 86.854,246.396 84.162,246.636 84.220 C 246.876 84.278,247.326 84.165,247.636 83.969 C 248.321 83.535,244.937 83.550,242.658 83.990 M158.600 88.400 C 155.890 91.120,154.325 92.400,153.708 92.400 C 153.208 92.400,152.800 92.580,152.800 92.800 C 152.800 93.020,153.250 93.200,153.800 93.200 C 154.350 93.200,154.800 93.380,154.800 93.600 C 154.800 93.820,155.329 94.000,155.976 94.000 C 156.623 94.000,157.264 94.180,157.400 94.400 C 157.536 94.620,158.087 94.800,158.624 94.800 C 159.161 94.800,159.600 94.620,159.600 94.400 C 159.600 94.180,159.288 94.000,158.908 94.000 C 158.470 94.000,159.684 92.525,162.200 90.000 C 164.392 87.800,166.413 86.000,166.692 86.000 C 166.972 86.000,167.200 85.820,167.200 85.600 C 167.200 85.380,166.761 85.200,166.224 85.200 C 165.687 85.200,165.136 85.020,165.000 84.800 C 164.206 83.515,162.526 84.459,158.600 88.400 M235.600 84.800 C 235.600 85.020,235.960 85.200,236.400 85.200 C 236.840 85.200,237.200 85.020,237.200 84.800 C 237.200 84.580,236.840 84.400,236.400 84.400 C 235.960 84.400,235.600 84.580,235.600 84.800 M251.000 84.800 C 251.136 85.020,251.507 85.200,251.824 85.200 C 252.141 85.200,252.400 85.020,252.400 84.800 C 252.400 84.580,252.029 84.400,251.576 84.400 C 251.123 84.400,250.864 84.580,251.000 84.800 M167.600 86.400 C 167.600 86.620,167.960 86.800,168.400 86.800 C 168.840 86.800,169.200 86.980,169.200 87.200 C 169.200 87.420,169.549 87.600,169.976 87.600 C 170.403 87.600,170.864 87.780,171.000 88.000 C 171.136 88.220,171.417 88.400,171.624 88.400 C 171.831 88.400,172.000 88.220,172.000 88.000 C 172.000 87.780,171.730 87.600,171.400 87.600 C 171.070 87.600,170.800 87.420,170.800 87.200 C 170.800 86.980,170.440 86.800,170.000 86.800 C 169.560 86.800,169.200 86.620,169.200 86.400 C 169.200 86.180,168.840 86.000,168.400 86.000 C 167.960 86.000,167.600 86.180,167.600 86.400 M251.853 88.631 C 250.782 89.626,250.012 90.546,250.141 90.675 C 250.271 90.804,250.877 90.379,251.488 89.730 C 252.100 89.082,252.915 88.433,253.300 88.288 C 253.685 88.143,254.000 87.749,254.000 87.413 C 254.000 86.606,254.086 86.557,251.853 88.631 M114.367 87.300 C 114.132 88.003,114.172 89.531,114.437 90.000 C 114.664 90.402,114.780 90.038,114.788 88.900 C 114.798 87.549,114.571 86.688,114.367 87.300 M172.400 88.767 C 172.400 88.968,172.625 89.217,172.900 89.320 C 174.167 89.793,167.518 95.600,165.710 95.600 C 162.770 95.600,163.845 96.329,167.100 96.542 C 168.805 96.654,170.968 96.867,171.908 97.016 C 173.035 97.194,173.816 97.118,174.208 96.794 C 174.875 96.240,175.014 94.800,174.400 94.800 C 174.180 94.800,174.000 95.160,174.000 95.600 C 174.000 96.202,173.733 96.400,172.922 96.400 L 171.843 96.400 173.216 94.983 C 173.971 94.204,174.651 93.754,174.728 93.983 C 174.987 94.762,175.694 94.404,175.484 93.600 C 175.345 93.067,175.472 92.800,175.864 92.800 C 176.824 92.800,176.361 90.671,175.300 90.205 C 174.805 89.988,174.400 89.673,174.400 89.505 C 174.400 89.337,174.130 89.200,173.800 89.200 C 173.470 89.200,173.200 89.020,173.200 88.800 C 173.200 88.580,173.020 88.400,172.800 88.400 C 172.580 88.400,172.400 88.565,172.400 88.767 M226.500 88.998 C 225.931 89.645,225.861 90.000,226.304 90.000 C 226.471 90.000,226.832 89.640,227.107 89.200 C 227.678 88.287,227.251 88.145,226.500 88.998 M223.600 91.600 C 223.600 92.040,223.742 92.400,223.915 92.400 C 224.088 92.400,224.257 92.040,224.290 91.600 C 224.323 91.160,224.181 90.800,223.975 90.800 C 223.769 90.800,223.600 91.160,223.600 91.600 M151.000 92.000 C 150.864 92.220,151.123 92.400,151.576 92.400 C 152.029 92.400,152.400 92.220,152.400 92.000 C 152.400 91.780,152.141 91.600,151.824 91.600 C 151.507 91.600,151.136 91.780,151.000 92.000 M245.200 92.800 C 245.200 93.020,245.470 93.200,245.800 93.200 C 246.130 93.200,246.400 93.020,246.400 92.800 C 246.400 92.580,246.130 92.400,245.800 92.400 C 245.470 92.400,245.200 92.580,245.200 92.800 M243.000 93.600 C 242.864 93.820,243.123 94.000,243.576 94.000 C 244.029 94.000,244.400 93.820,244.400 93.600 C 244.400 93.380,244.141 93.200,243.824 93.200 C 243.507 93.200,243.136 93.380,243.000 93.600 M240.600 94.400 C 240.464 94.620,240.723 94.800,241.176 94.800 C 241.629 94.800,242.000 94.620,242.000 94.400 C 242.000 94.180,241.741 94.000,241.424 94.000 C 241.107 94.000,240.736 94.180,240.600 94.400 M160.400 95.200 C 160.400 95.420,160.940 95.600,161.600 95.600 C 162.260 95.600,162.800 95.420,162.800 95.200 C 162.800 94.980,162.260 94.800,161.600 94.800 C 160.940 94.800,160.400 94.980,160.400 95.200 M225.200 95.400 C 225.200 95.730,225.380 96.000,225.600 96.000 C 225.820 96.000,226.000 95.730,226.000 95.400 C 226.000 95.070,225.820 94.800,225.600 94.800 C 225.380 94.800,225.200 95.070,225.200 95.400 M237.200 95.200 C 237.200 95.420,237.560 95.600,238.000 95.600 C 238.440 95.600,238.800 95.420,238.800 95.200 C 238.800 94.980,238.440 94.800,238.000 94.800 C 237.560 94.800,237.200 94.980,237.200 95.200 M115.012 96.117 C 114.841 96.512,114.813 96.947,114.951 97.084 C 115.357 97.490,115.684 96.920,115.497 96.131 C 115.332 95.433,115.310 95.432,115.012 96.117 M84.800 140.800 L 84.800 157.600 89.200 157.600 L 93.600 157.600 93.600 140.800 L 93.600 124.000 89.200 124.000 L 84.800 124.000 84.800 140.800 M100.184 187.700 C 100.080 187.975,100.040 208.810,100.097 234.000 L 100.200 279.800 104.479 279.913 C 108.250 280.013,108.801 279.942,109.122 279.313 C 109.412 278.746,109.541 196.251,109.264 188.900 L 109.200 187.200 104.787 187.200 C 101.626 187.200,100.321 187.342,100.184 187.700 M312.928 213.200 C 312.928 214.630,313.001 215.215,313.089 214.500 C 313.178 213.785,313.178 212.615,313.089 211.900 C 313.001 211.185,312.928 211.770,312.928 213.200 M312.920 223.200 C 312.920 224.410,312.995 224.905,313.087 224.300 C 313.178 223.695,313.178 222.705,313.087 222.100 C 312.995 221.495,312.920 221.990,312.920 223.200 M312.893 231.200 C 312.893 231.970,312.975 232.285,313.076 231.900 C 313.176 231.515,313.176 230.885,313.076 230.500 C 312.975 230.115,312.893 230.430,312.893 231.200 M312.920 240.000 C 312.920 241.210,312.995 241.705,313.087 241.100 C 313.178 240.495,313.178 239.505,313.087 238.900 C 312.995 238.295,312.920 238.790,312.920 240.000 M87.328 262.400 C 87.328 263.830,87.401 264.415,87.489 263.700 C 87.578 262.985,87.578 261.815,87.489 261.100 C 87.401 260.385,87.328 260.970,87.328 262.400 M312.893 262.400 C 312.893 263.170,312.975 263.485,313.076 263.100 C 313.176 262.715,313.176 262.085,313.076 261.700 C 312.975 261.315,312.893 261.630,312.893 262.400 M242.261 353.500 C 242.158 353.665,243.812 353.752,245.937 353.694 C 253.065 353.498,253.843 353.349,248.124 353.274 C 245.002 353.233,242.363 353.335,242.261 353.500 M257.415 353.624 C 257.543 353.831,260.273 354.000,263.490 354.000 C 266.704 354.000,269.258 353.929,269.167 353.843 C 268.785 353.483,257.194 353.267,257.415 353.624 M274.200 353.600 C 274.051 353.842,274.596 354.000,275.576 354.000 C 276.469 354.000,277.200 353.820,277.200 353.600 C 277.200 353.380,276.581 353.200,275.824 353.200 C 275.067 353.200,274.336 353.380,274.200 353.600 M210.500 353.876 C 210.885 353.976,211.515 353.976,211.900 353.876 C 212.285 353.775,211.970 353.693,211.200 353.693 C 210.430 353.693,210.115 353.775,210.500 353.876 " stroke="none" fill="#fcfbfb" fill-rule="evenodd"></path><path id="path4" d="M78.800 114.400 C 78.800 114.620,79.070 114.800,79.400 114.800 C 79.730 114.800,80.000 114.620,80.000 114.400 C 80.000 114.180,79.730 114.000,79.400 114.000 C 79.070 114.000,78.800 114.180,78.800 114.400 M150.183 114.300 C 167.113 114.358,181.120 114.560,181.310 114.750 C 181.502 114.942,181.640 167.927,181.622 234.147 C 181.600 314.332,181.722 353.200,181.995 353.200 C 182.886 353.200,182.519 114.892,181.626 114.414 C 181.108 114.136,170.725 114.032,150.126 114.097 L 119.400 114.195 150.183 114.300 M221.300 114.265 C 220.902 114.426,220.800 138.698,220.800 233.753 C 220.800 328.635,220.698 353.148,220.300 353.567 C 219.888 354.001,219.941 354.009,220.600 353.613 C 221.397 353.134,221.400 352.768,221.283 242.266 C 221.219 181.290,221.284 127.576,221.427 122.903 L 221.688 114.405 251.144 114.300 L 280.600 114.195 251.200 114.129 C 235.030 114.093,221.575 114.154,221.300 114.265 M320.000 114.400 C 320.000 114.620,320.270 114.800,320.600 114.800 C 320.930 114.800,321.200 114.620,321.200 114.400 C 321.200 114.180,320.930 114.000,320.600 114.000 C 320.270 114.000,320.000 114.180,320.000 114.400 M72.400 120.400 C 72.400 120.840,72.580 121.200,72.800 121.200 C 73.020 121.200,73.200 120.840,73.200 120.400 C 73.200 119.960,73.020 119.600,72.800 119.600 C 72.580 119.600,72.400 119.960,72.400 120.400 M326.800 120.400 C 326.800 120.840,326.980 121.200,327.200 121.200 C 327.420 121.200,327.600 120.840,327.600 120.400 C 327.600 119.960,327.420 119.600,327.200 119.600 C 326.980 119.600,326.800 119.960,326.800 120.400 M84.278 123.455 C 83.755 123.978,83.950 157.390,84.480 157.920 C 85.027 158.467,93.076 158.593,93.904 158.068 C 94.300 157.816,94.386 154.047,94.304 140.574 L 94.200 123.400 89.378 123.288 C 86.726 123.227,84.431 123.302,84.278 123.455 M93.556 124.146 C 93.881 124.539,93.980 129.307,93.905 141.046 L 93.800 157.400 89.300 157.513 L 84.800 157.626 84.800 140.880 C 84.800 131.669,84.920 124.013,85.067 123.867 C 85.607 123.326,93.079 123.572,93.556 124.146 M326.800 161.400 C 326.800 161.730,326.980 162.000,327.200 162.000 C 327.420 162.000,327.600 161.730,327.600 161.400 C 327.600 161.070,327.420 160.800,327.200 160.800 C 326.980 160.800,326.800 161.070,326.800 161.400 M324.299 165.215 C 323.693 165.840,323.367 166.456,323.573 166.583 C 324.077 166.895,326.152 164.786,325.731 164.390 C 325.549 164.218,324.904 164.590,324.299 165.215 M74.830 165.500 C 75.364 166.105,75.845 166.675,75.900 166.767 C 75.955 166.858,76.121 166.813,76.268 166.665 C 76.581 166.352,74.851 164.400,74.261 164.400 C 74.041 164.400,74.297 164.895,74.830 165.500 M86.800 194.800 C 86.800 210.938,86.946 221.200,87.175 221.200 C 87.400 221.200,87.599 213.915,87.675 202.900 C 87.832 179.883,87.667 168.400,87.177 168.400 C 86.945 168.400,86.800 178.556,86.800 194.800 M312.400 175.200 C 312.400 179.467,312.549 182.000,312.800 182.000 C 313.051 182.000,313.200 179.467,313.200 175.200 C 313.200 170.933,313.051 168.400,312.800 168.400 C 312.549 168.400,312.400 170.933,312.400 175.200 M312.480 196.800 C 312.536 204.500,312.721 210.800,312.891 210.800 C 313.061 210.800,313.200 204.500,313.200 196.800 C 313.200 187.490,313.062 182.800,312.789 182.800 C 312.514 182.800,312.412 187.424,312.480 196.800 M99.789 187.288 C 99.682 187.569,99.640 208.590,99.697 234.000 L 99.800 280.200 104.441 280.312 C 108.018 280.399,109.187 280.297,109.543 279.869 C 109.886 279.456,109.977 267.530,109.902 233.157 L 109.800 187.000 104.892 186.888 C 101.188 186.803,99.937 186.901,99.789 187.288 M109.400 233.600 L 109.400 279.800 104.800 279.800 L 100.200 279.800 100.097 234.000 C 100.040 208.810,100.082 187.969,100.190 187.687 C 100.336 187.302,101.509 187.202,104.893 187.287 L 109.400 187.400 109.400 233.600 M312.400 218.333 C 312.400 219.910,312.547 221.200,312.727 221.200 C 313.110 221.200,313.051 216.118,312.663 215.730 C 312.518 215.585,312.400 216.757,312.400 218.333 M86.848 229.600 C 86.816 234.448,86.943 237.200,87.199 237.200 C 87.453 237.200,87.600 234.415,87.600 229.600 C 87.600 225.420,87.442 222.000,87.249 222.000 C 87.056 222.000,86.876 225.420,86.848 229.600 M312.600 227.600 C 312.600 228.920,312.735 230.000,312.900 230.000 C 313.065 230.000,313.200 228.920,313.200 227.600 C 313.200 226.280,313.065 225.200,312.900 225.200 C 312.735 225.200,312.600 226.280,312.600 227.600 M312.440 235.200 C 312.546 238.841,313.005 238.841,313.002 235.201 C 313.001 233.661,312.855 232.401,312.679 232.401 C 312.502 232.400,312.395 233.660,312.440 235.200 M86.800 239.200 C 86.800 239.860,86.980 240.400,87.200 240.400 C 87.420 240.400,87.600 239.860,87.600 239.200 C 87.600 238.540,87.420 238.000,87.200 238.000 C 86.980 238.000,86.800 238.540,86.800 239.200 M87.320 244.000 C 87.320 245.210,87.395 245.705,87.487 245.100 C 87.578 244.495,87.578 243.505,87.487 242.900 C 87.395 242.295,87.320 242.790,87.320 244.000 M312.539 251.600 C 312.505 257.050,312.634 261.200,312.837 261.200 C 313.040 261.200,313.191 257.014,313.184 251.600 C 313.178 246.320,313.044 242.000,312.886 242.000 C 312.729 242.001,312.573 246.321,312.539 251.600 M87.106 249.500 C 87.010 250.545,87.082 251.571,87.266 251.780 C 87.450 251.989,87.600 251.136,87.600 249.880 C 87.600 247.107,87.344 246.910,87.106 249.500 M312.418 304.410 C 312.436 330.606,312.584 345.133,312.833 344.980 C 313.350 344.660,313.283 263.600,312.765 263.600 C 312.535 263.600,312.401 279.312,312.418 304.410 M87.059 277.488 C 86.623 280.122,86.759 344.727,87.200 345.000 C 87.462 345.162,87.608 342.032,87.624 335.924 C 87.675 315.718,87.549 276.215,87.432 276.099 C 87.364 276.031,87.196 276.656,87.059 277.488 M87.600 347.800 C 87.600 348.130,87.780 348.400,88.000 348.400 C 88.220 348.400,88.400 348.130,88.400 347.800 C 88.400 347.470,88.220 347.200,88.000 347.200 C 87.780 347.200,87.600 347.470,87.600 347.800 M311.600 347.800 C 311.600 348.130,311.780 348.400,312.000 348.400 C 312.220 348.400,312.400 348.130,312.400 347.800 C 312.400 347.470,312.220 347.200,312.000 347.200 C 311.780 347.200,311.600 347.470,311.600 347.800 M310.271 349.522 C 309.498 350.376,309.417 350.800,310.029 350.800 C 310.777 350.800,311.742 349.582,311.325 349.165 C 311.080 348.920,310.699 349.049,310.271 349.522 M88.400 349.429 C 88.400 349.554,88.679 349.936,89.019 350.276 C 89.789 351.047,90.299 350.643,89.608 349.810 C 89.109 349.208,88.400 348.984,88.400 349.429 M93.200 352.800 C 93.200 353.020,93.470 353.200,93.800 353.200 C 94.130 353.200,94.400 353.020,94.400 352.800 C 94.400 352.580,94.130 352.400,93.800 352.400 C 93.470 352.400,93.200 352.580,93.200 352.800 M305.600 352.800 C 305.600 353.020,305.870 353.200,306.200 353.200 C 306.530 353.200,306.800 353.020,306.800 352.800 C 306.800 352.580,306.530 352.400,306.200 352.400 C 305.870 352.400,305.600 352.580,305.600 352.800 M184.226 353.642 C 184.493 354.075,186.000 354.123,186.000 353.700 C 186.000 353.535,185.551 353.374,185.002 353.342 C 184.454 353.311,184.105 353.446,184.226 353.642 M187.600 353.600 C 187.600 353.822,188.667 354.000,190.000 354.000 C 191.333 354.000,192.400 353.822,192.400 353.600 C 192.400 353.378,191.333 353.200,190.000 353.200 C 188.667 353.200,187.600 353.378,187.600 353.600 M193.200 353.662 C 193.200 353.848,193.950 354.000,194.867 354.000 C 195.783 354.000,196.420 353.886,196.281 353.747 C 195.889 353.356,193.200 353.281,193.200 353.662 M200.400 353.555 C 200.400 353.748,201.139 353.916,202.042 353.928 C 204.008 353.955,203.952 353.763,201.900 353.440 C 201.075 353.311,200.400 353.362,200.400 353.555 M206.000 353.600 C 205.150 353.872,205.256 353.926,206.700 353.960 C 207.635 353.982,208.400 353.820,208.400 353.600 C 208.400 353.139,207.439 353.139,206.000 353.600 M253.781 353.569 C 253.927 353.806,254.877 354.000,255.890 354.000 C 258.166 354.000,258.010 353.791,255.457 353.420 C 254.108 353.224,253.596 353.270,253.781 353.569 M269.200 353.715 C 269.200 353.895,270.280 354.003,271.600 353.955 C 272.920 353.908,274.000 353.707,274.000 353.510 C 274.000 353.312,272.920 353.204,271.600 353.269 C 270.280 353.335,269.200 353.535,269.200 353.715 M286.500 353.476 C 286.885 353.576,287.515 353.576,287.900 353.476 C 288.285 353.375,287.970 353.293,287.200 353.293 C 286.430 353.293,286.115 353.375,286.500 353.476 M198.100 353.876 C 198.485 353.976,199.115 353.976,199.500 353.876 C 199.885 353.775,199.570 353.693,198.800 353.693 C 198.030 353.693,197.715 353.775,198.100 353.876 M213.700 353.891 C 214.525 353.978,215.875 353.978,216.700 353.891 C 217.525 353.805,216.850 353.734,215.200 353.734 C 213.550 353.734,212.875 353.805,213.700 353.891 " stroke="none" fill="#ec6c74" fill-rule="evenodd"></path></g></svg>