<svg width="25" height="25" viewBox="0 0 25 25" fill="none" xmlns="http://www.w3.org/2000/svg">
<path d="M12.2779 13C15.035 13 17.2778 10.757 17.2778 7.99992C17.2778 5.24297 15.035 3 12.2779 3C9.52097 3 7.27783 5.24297 7.27783 7.99992C7.27783 10.757 9.52097 13 12.2779 13ZM15.965 7.99992C15.965 10.0331 14.3109 11.687 12.2779 11.687C10.2449 11.687 8.59088 10.0331 8.59088 7.99992C8.59088 5.96694 10.2449 4.31305 12.2779 4.31305C14.3109 4.31305 15.965 5.96694 15.965 7.99992Z" fill="#9F9B96"/>
<path d="M12.4999 8.88034H14.5185C14.9465 8.88034 15.2938 8.57466 15.2938 8.19773C15.2938 7.8208 14.9465 7.5153 14.5185 7.5153H13.2752V6.58934C13.2752 6.21241 12.9281 5.90674 12.4999 5.90674C12.0717 5.90674 11.7246 6.21241 11.7246 6.58934V8.19791C11.7246 8.57466 12.0717 8.88034 12.4999 8.88034Z" fill="#9F9B96"/>
<path d="M21.6703 18.9385C21.11 18.1066 20.2796 17.456 19.3124 17.0525C20.4385 15.9675 20.4059 14.2784 19.2137 13.2291C17.9875 12.1496 15.992 12.1496 14.7659 13.2291C14.278 13.6585 13.985 14.1953 13.8853 14.7539C13.0142 14.3784 11.9859 14.3784 11.1148 14.7539C11.0151 14.1953 10.7221 13.6585 10.234 13.2291C9.00786 12.1496 7.01256 12.1496 5.78637 13.2291C4.5942 14.2784 4.56138 15.9675 5.68772 17.0525C4.7203 17.456 3.88992 18.1064 3.32963 18.9385C2.89644 19.5817 2.88988 20.3552 3.31193 21.0073C3.73816 21.6658 4.50569 22.0588 5.36492 22.0588H7.4909C7.49527 22.4018 7.5981 22.7448 7.80177 23.0594C8.228 23.7178 8.99533 24.1108 9.85456 24.1108H15.1455C16.0048 24.1108 16.7721 23.7178 17.1983 23.0594C17.402 22.7448 17.5048 22.4018 17.5092 22.0588H19.6352C20.4946 22.0588 21.2619 21.6658 21.6882 21.0073C22.1102 20.355 22.1035 19.5815 21.6703 18.9385ZM20.3405 20.3317C20.1937 20.5585 19.9301 20.6938 19.6352 20.6938H16.9626C16.4147 20.0033 15.6716 19.4586 14.8225 19.1045C15.09 18.8468 15.2919 18.5549 15.4286 18.2456C15.9145 18.0572 16.4453 17.9548 16.9897 17.9548C18.3563 17.9548 19.6386 18.5983 20.3363 19.6346C20.5459 19.9457 20.4091 20.2258 20.3405 20.3317ZM15.8466 21.6866C16.0563 21.9977 15.9194 22.2777 15.8508 22.3838C15.704 22.6105 15.4403 22.7458 15.1453 22.7458H9.85456C9.5596 22.7458 9.29606 22.6105 9.14928 22.3838C9.08066 22.2777 8.94382 21.9977 9.15326 21.6866C9.85118 20.6505 11.1334 20.0068 12.5 20.0068C13.8665 20.0068 15.1487 20.6505 15.8466 21.6866ZM4.65944 20.3317C4.59082 20.2258 4.45398 19.9457 4.66362 19.6346C5.36134 18.5985 6.64381 17.9548 8.01021 17.9548C8.55458 17.9548 9.08543 18.0572 9.57133 18.2456C9.70797 18.5549 9.90985 18.8468 10.1774 19.1045C9.32828 19.4586 8.58521 20.0033 8.03726 20.6938H5.36472C5.06996 20.6938 4.80622 20.5585 4.65944 20.3317ZM6.88288 14.1942C7.19375 13.9206 7.60188 13.7839 8.01021 13.7839C8.41854 13.7839 8.82667 13.9206 9.13754 14.1942C9.75909 14.7413 9.75909 15.6316 9.13754 16.1787C8.516 16.7259 7.50462 16.7259 6.88288 16.1787C6.26133 15.6316 6.26133 14.7413 6.88288 14.1942ZM15.8624 14.1942C16.1732 13.9206 16.5816 13.7839 16.9897 13.7839C17.398 13.7839 17.8063 13.9206 18.117 14.1942C18.7386 14.7413 18.7386 15.6316 18.117 16.1787C17.4955 16.7259 16.4841 16.7259 15.8626 16.1787C15.2408 15.6316 15.2408 14.7413 15.8624 14.1942ZM13.6274 18.2307C13.0056 18.778 11.9943 18.7778 11.3727 18.2307C10.7512 17.6836 10.7512 16.7933 11.3727 16.2462C11.6834 15.9726 12.0917 15.8359 12.5 15.8359C12.9082 15.8359 13.3165 15.9726 13.6274 16.2462C14.2489 16.7933 14.2489 17.6836 13.6274 18.2307Z" fill="#9F9B96"/>
</svg>
