<svg width="33" height="32" viewBox="0 0 33 32" fill="none" xmlns="http://www.w3.org/2000/svg">
<path fill-rule="evenodd" clip-rule="evenodd" d="M22.5972 0.50081C23.6267 0.50081 24.6546 0.646019 25.6319 0.973964C31.654 2.93184 33.824 9.53968 32.0113 15.3154C30.9834 18.2669 29.3029 20.9606 27.102 23.1616C23.9514 26.2126 20.4941 28.921 16.7725 31.2542L16.3646 31.5005L15.9404 31.2379C12.2058 28.921 8.7289 26.2126 5.54898 23.1453C3.36268 20.9443 1.68054 18.2669 0.636337 15.3154C-1.20733 9.53968 0.962651 2.93184 7.05002 0.939701C7.52317 0.776544 8.01101 0.662335 8.50048 0.598704H8.69627C9.15474 0.53181 9.60995 0.50081 10.0668 0.50081H10.2463C11.2741 0.53181 12.2694 0.711282 13.2337 1.03923H13.3299C13.3952 1.07023 13.4441 1.10449 13.4768 1.13549C13.8373 1.25133 14.1783 1.38186 14.5046 1.56133L15.1246 1.83869C15.2745 1.91859 15.4426 2.04068 15.5879 2.1462C15.68 2.21305 15.7629 2.27325 15.8262 2.31185C15.8528 2.32756 15.8799 2.34335 15.9072 2.35928C16.0471 2.44094 16.1928 2.52601 16.3157 2.62021C18.1283 1.23501 20.3293 0.484494 22.5972 0.50081ZM26.9372 12.2481C27.6061 12.2301 28.1772 11.6933 28.2261 11.0065V10.8123C28.2751 8.52647 26.8899 6.45602 24.7835 5.65655C24.1146 5.4265 23.3804 5.78708 23.1356 6.47233C22.9072 7.15759 23.2662 7.90811 23.9514 8.15121C24.9973 8.54279 25.6972 9.57231 25.6972 10.7128V10.7634C25.6662 11.137 25.7788 11.4976 26.0072 11.7749C26.2356 12.0523 26.5782 12.2138 26.9372 12.2481Z" fill="white"/>
</svg>
