<svg width="21" height="20" viewBox="0 0 21 20" fill="none" xmlns="http://www.w3.org/2000/svg">
<defs>
<clipPath id="clip0">
<rect width="20" height="20" fill="white" transform="translate(0.75)"/>
</clipPath>
</defs>
    <g clip-path="url(#clip0)">
        <path fill-rule="evenodd" clip-rule="evenodd" d="M10.75 0C7.46 0 4.57 1.6 2.75 4.05V2C2.75 1.45 2.3 1 1.75 1C1.2 1 0.75 1.45 0.75 2V6C0.75 6.55 1.2 7 1.75 7H5.75C6.3 7 6.75 6.55 6.75 6C6.75 5.45 6.3 5 5.75 5H4.51C5.98 3.17 8.22 2 10.75 2C15.17 2 18.75 5.58 18.75 10C18.75 14.42 15.17 18 10.75 18C6.33 18 2.75 14.42 2.75 10C2.75 9.45 2.3 9 1.75 9C1.2 9 0.75 9.45 0.75 10C0.75 15.52 5.23 20 10.75 20C16.27 20 20.75 15.52 20.75 10C20.75 4.48 16.27 0 10.75 0ZM10.75 3C10.2 3 9.75 3.45 9.75 4V10C9.75 10.28 9.86 10.53 10.04 10.71L13.04 13.71C13.22 13.89 13.47 14 13.75 14C14.3 14 14.75 13.55 14.75 13C14.75 12.72 14.64 12.47 14.46 12.29L11.75 9.59V4C11.75 3.45 11.3 3 10.75 3Z" fill="#FF6600"/>
    </g>
</svg>
