<svg width="14" height="14" viewBox="0 0 14 14" fill="none" xmlns="http://www.w3.org/2000/svg">
<defs>
<linearGradient id="paint0_linear" x1="0.354492" y1="0.333374" x2="15.7218" y2="3.02157" gradientUnits="userSpaceOnUse">
<stop stop-color="#F29E51"/>
<stop offset="1" stop-color="#FF6600"/>
</linearGradient>
</defs>
<path d="M4.78365 12.8548V10.8102C4.78364 10.2921 5.20494 9.87118 5.72678 9.86792H7.6429C8.16707 9.86792 8.592 10.2898 8.592 10.8102V12.8489C8.59199 13.2982 8.95717 13.6634 9.40979 13.6667H10.717C11.3276 13.6683 11.9137 13.4286 12.3459 13.0005C12.7782 12.5725 13.0212 11.9912 13.0212 11.3851V5.57727C13.0211 5.08763 12.8025 4.62318 12.4242 4.30904L7.98314 0.782886C7.20683 0.166122 6.09807 0.186046 5.34475 0.830297L0.999167 4.30904C0.602986 4.61392 0.366194 5.07975 0.354492 5.57727V11.3791C0.354492 12.6425 1.38608 13.6667 2.65861 13.6667H3.93602C4.15394 13.6683 4.36348 13.5834 4.51814 13.431C4.6728 13.2786 4.75978 13.0711 4.75977 12.8548H4.78365Z" fill="url(#paint0_linear)"/>
</svg>
