<svg width="36" height="21" viewBox="0 0 36 21" fill="none" xmlns="http://www.w3.org/2000/svg">
<path fill-rule="evenodd" clip-rule="evenodd" d="M6.23922 1C6.57017 1 6.88757 1.13147 7.12158 1.36549C7.3556 1.5995 7.48707 1.9169 7.48707 2.24784V3.49569H11.2306C11.5615 3.49569 11.8789 3.62716 12.113 3.86117C12.347 4.09519 12.4784 4.41258 12.4784 4.74353C12.4784 5.07448 12.347 5.39188 12.113 5.62589C11.8789 5.85991 11.5615 5.99138 11.2306 5.99138H9.45617C9.01127 8.06751 8.28762 10.0739 7.30488 11.9561C7.66676 12.3978 8.0486 12.8246 8.44541 13.2364C8.55922 13.3543 8.64867 13.4936 8.70866 13.6462C8.76866 13.7987 8.79802 13.9616 8.79506 14.1255C8.79211 14.2894 8.7569 14.4511 8.69144 14.6014C8.62599 14.7517 8.53158 14.8876 8.41359 15.0014C8.29561 15.1152 8.15636 15.2047 8.0038 15.2647C7.85125 15.3247 7.68837 15.354 7.52446 15.3511C7.36056 15.3481 7.19885 15.3129 7.04855 15.2475C6.89825 15.182 6.76232 15.0876 6.64852 14.9696C6.41392 14.725 6.18307 14.4755 5.95721 14.2209C4.85431 15.8595 3.55197 17.3547 2.08016 18.672C1.83306 18.8891 1.51022 18.9999 1.18186 18.9802C0.853507 18.9606 0.546197 18.812 0.326782 18.567C0.107366 18.3219 -0.00640506 18.0001 0.0102153 17.6716C0.0268356 17.343 0.172503 17.0344 0.415532 16.8127C1.93325 15.4545 3.24853 13.8858 4.32129 12.1545C3.62426 11.166 3.00393 10.1256 2.46574 9.04236C2.38677 8.89509 2.33818 8.73346 2.32285 8.56706C2.30753 8.40066 2.32578 8.23287 2.37653 8.07366C2.42728 7.91444 2.5095 7.76704 2.61829 7.64021C2.72709 7.51337 2.86025 7.40967 3.00988 7.33528C3.15951 7.26088 3.32257 7.21729 3.48936 7.2071C3.65616 7.19692 3.8233 7.22033 3.98087 7.27597C4.13845 7.3316 4.28324 7.41832 4.40667 7.53097C4.53009 7.64362 4.62963 7.77992 4.69938 7.93178C4.99138 8.51826 5.30958 9.08978 5.65274 9.64382C6.17309 8.47833 6.59111 7.25669 6.89684 5.99138H1.24784C0.916896 5.99138 0.599501 5.85991 0.365485 5.62589C0.131469 5.39188 0 5.07448 0 4.74353C0 4.41258 0.131469 4.09519 0.365485 3.86117C0.599501 3.62716 0.916896 3.49569 1.24784 3.49569H4.99138V2.24784C4.99138 1.9169 5.12285 1.5995 5.35686 1.36549C5.59088 1.13147 5.90827 1 6.23922 1ZM13.7263 8.48707C13.958 8.48719 14.185 8.55181 14.3821 8.67368C14.5791 8.79556 14.7383 8.96988 14.8419 9.17712L18.5742 16.6417C18.5829 16.6569 18.5912 16.6723 18.5991 16.6879L19.8345 19.1586C19.9826 19.4548 20.007 19.7977 19.9022 20.1119C19.7975 20.4261 19.5723 20.6858 19.2761 20.8339C18.9799 20.982 18.637 21.0063 18.3228 20.9016C18.0086 20.7969 17.7489 20.5717 17.6008 20.2755L16.6999 18.4698H10.7552L9.85173 20.2755C9.78165 20.4272 9.68181 20.5632 9.55813 20.6756C9.43446 20.788 9.28947 20.8744 9.13176 20.9297C8.97406 20.985 8.80686 21.0081 8.64008 20.9975C8.47329 20.9869 8.31033 20.943 8.16086 20.8683C8.01139 20.7935 7.87845 20.6895 7.76994 20.5624C7.66142 20.4353 7.57954 20.2878 7.52915 20.1284C7.47876 19.9691 7.46089 19.8012 7.47659 19.6349C7.4923 19.4685 7.54127 19.307 7.62059 19.1599L8.85595 16.6891L8.87966 16.6417L12.6107 9.17712C12.7143 8.96988 12.8735 8.79556 13.0705 8.67368C13.2675 8.55181 13.4946 8.48719 13.7263 8.48707ZM12.0018 15.9741H15.4508L13.7263 12.5251L12.0018 15.9741Z" fill="#464646"/>
<path fill-rule="evenodd" clip-rule="evenodd" d="M21.2928 7.29299C21.4803 7.10552 21.7346 7.0002 21.9998 7.0002C22.265 7.0002 22.5193 7.10552 22.7068 7.29299L25.9998 10.586L29.2928 7.29299C29.385 7.19748 29.4954 7.1213 29.6174 7.06889C29.7394 7.01648 29.8706 6.98889 30.0034 6.98774C30.1362 6.98659 30.2678 7.01189 30.3907 7.06217C30.5136 7.11245 30.6253 7.1867 30.7192 7.28059C30.8131 7.37449 30.8873 7.48614 30.9376 7.60904C30.9879 7.73193 31.0132 7.86361 31.012 7.99639C31.0109 8.12917 30.9833 8.26039 30.9309 8.38239C30.8785 8.5044 30.8023 8.61474 30.7068 8.70699L26.7068 12.707C26.5193 12.8945 26.265 12.9998 25.9998 12.9998C25.7346 12.9998 25.4803 12.8945 25.2928 12.707L21.2928 8.70699C21.1053 8.51946 21 8.26515 21 7.99999C21 7.73483 21.1053 7.48052 21.2928 7.29299Z" fill="#464646"/>
</svg>
