<svg width="31" height="31" viewBox="0 0 31 31" fill="none" xmlns="http://www.w3.org/2000/svg">
<path d="M0.100098 16.4688C0.100098 16.0871 0.17527 15.7092 0.321323 15.3566C0.467376 15.004 0.681448 14.6836 0.951319 14.4137C1.22119 14.1439 1.54157 13.9298 1.89417 13.7837C2.24678 13.6377 2.62469 13.5625 3.00635 13.5625C3.388 13.5625 3.76592 13.6377 4.11852 13.7837C4.47112 13.9298 4.79151 14.1439 5.06138 14.4137C5.33125 14.6836 5.54532 15.004 5.69137 15.3566C5.83743 15.7092 5.9126 16.0871 5.9126 16.4688V28.0938C5.9126 28.8645 5.60641 29.6038 5.06138 30.1488C4.51635 30.6938 3.77713 31 3.00635 31C2.23556 31 1.49635 30.6938 0.951319 30.1488C0.406291 29.6038 0.100098 28.8645 0.100098 28.0938V16.4688ZM7.8501 16.1452V26.6658C7.84976 27.3859 8.05009 28.0919 8.42859 28.7045C8.8071 29.317 9.34882 29.8121 9.99297 30.1339L10.0898 30.1824C11.1649 30.7197 12.3503 30.9996 13.5522 31H24.0457C24.9418 31.0004 25.8104 30.6901 26.5035 30.122C27.1966 29.554 27.6714 28.7633 27.847 27.8845L30.172 16.2595C30.2844 15.6974 30.2706 15.1173 30.1317 14.5612C29.9929 14.005 29.7323 13.4866 29.3689 13.0433C29.0054 12.6 28.5482 12.2428 28.0301 11.9976C27.5119 11.7523 26.9458 11.6251 26.3726 11.625H19.4751V3.875C19.4751 2.84729 19.0668 1.86166 18.3401 1.13496C17.6134 0.408258 16.6278 0 15.6001 0C15.0862 0 14.5934 0.204129 14.2301 0.567481C13.8667 0.930832 13.6626 1.42364 13.6626 1.9375V3.22981C13.6626 4.90668 13.1187 6.53832 12.1126 7.87981L9.4001 11.4952C8.39398 12.8367 7.8501 14.4683 7.8501 16.1452Z" fill="white"/>
</svg>
