<svg width="20" height="20" viewBox="0 0 20 20" fill="none" xmlns="http://www.w3.org/2000/svg">
<defs>
<linearGradient id="paint0_linear" x1="0" y1="0" x2="23.8551" y2="4.32826" gradientUnits="userSpaceOnUse">
<stop stop-color="#F29E51"/>
<stop offset="1" stop-color="#FF6600"/>
</linearGradient>
</defs>
<path fill-rule="evenodd" clip-rule="evenodd" d="M9.32265 0.0190572C7.72241 0.172297 6.27081 1.05783 5.36586 2.43284C4.80319 3.28777 4.50816 4.254 4.50598 5.24905C4.50498 5.69381 4.54007 5.93342 4.67058 6.37271C4.7745 6.72268 5.16099 7.6876 5.28175 7.89857C5.332 7.98634 5.50404 8.31847 5.6641 8.63664C6.14513 9.59291 6.49844 10.1906 7.31495 11.4294C8.01393 12.4898 8.5953 13.247 9.17929 13.8575C9.6423 14.3415 9.83519 14.427 10.0938 14.2631C10.2298 14.1769 10.673 13.7288 10.962 13.3852L11.1458 13.1669L12.89 14.0459C14.7468 14.9817 15.5185 15.3375 16.4444 15.6848L17.0215 15.9012L17.1947 16.7273C17.2901 17.1817 17.3913 17.6476 17.4197 17.7628L17.4715 17.9723H13.4485H9.42562L8.88614 17.4437C8.58945 17.1529 7.95314 16.538 7.47215 16.0772C6.99116 15.6164 6.29318 14.9432 5.92105 14.5811C5.54892 14.2191 5.00598 13.6922 4.71454 13.4103C4.4231 13.1284 4.19035 12.8934 4.19731 12.8882C4.2168 12.8735 4.85364 12.4834 5.4551 12.1177C5.75271 11.9368 6.01152 11.7733 6.03034 11.7544C6.07399 11.7107 5.5825 10.9022 5.5256 10.9242C5.50229 10.9332 5.04696 11.2032 4.51385 11.5241C3.98071 11.845 3.52829 12.1076 3.50843 12.1076C3.48862 12.1076 3.4819 12.0672 3.49351 12.0178C3.50509 11.9684 3.5785 11.6408 3.65664 11.2897C3.73474 10.9386 3.83103 10.5078 3.87062 10.3322C3.9102 10.1567 3.96376 9.9098 3.98958 9.78365L4.03661 9.55425H4.40874H4.78087L4.37376 8.70646C4.14984 8.2402 3.93364 7.78239 3.89329 7.68912L3.81993 7.51956H3.47513C2.84773 7.51956 2.5054 7.70352 2.31052 8.14541C2.25426 8.27295 2.1359 8.72741 2.04749 9.15529C1.95908 9.58317 1.72358 10.7052 1.52421 11.6488C1.3248 12.5923 1.09085 13.7039 1.00431 14.1189C0.917773 14.534 0.802988 15.0547 0.749235 15.2759C0.46225 16.4571 -0.00146863 18.7685 3.49651e-06 19.0105C0.00251009 19.4162 0.218475 19.7478 0.58937 19.9152C0.74092 19.9836 1.17858 19.9875 9.74041 19.9976C16.1136 20.0051 18.7934 19.9955 18.942 19.9647C19.374 19.8751 19.7071 19.4649 19.7071 19.0225C19.7071 18.8269 19.1998 16.3256 18.9723 15.399C18.9184 15.1796 18.7565 14.4435 18.6125 13.7633C18.2585 12.0913 17.6117 9.04554 17.5322 8.67654C17.4098 8.1079 17.2255 7.80063 16.9021 7.6256C16.7523 7.54457 16.6806 7.53879 15.6786 7.52714C15.0933 7.52036 14.6143 7.50915 14.6143 7.50221C14.6143 7.49526 14.6596 7.38699 14.7149 7.26155C14.8758 6.89679 15.1237 6.14734 15.1722 5.87924C15.1967 5.74352 15.2158 5.45208 15.2145 5.23153C15.2001 2.77598 13.3754 0.590486 10.934 0.104674C10.4589 0.0101205 9.78816 -0.0255065 9.32265 0.0190572ZM10.4111 3.19425C11.8015 3.55395 12.4976 5.08958 11.8614 6.39374C11.5756 6.97957 10.8332 7.5103 10.1624 7.60837C9.48729 7.70703 8.78874 7.45688 8.25341 6.92475C7.06107 5.73949 7.62016 3.67978 9.26297 3.20562C9.56782 3.11761 10.0946 3.11238 10.4111 3.19425ZM15.6283 9.55317C15.6414 9.57456 15.7226 9.91116 15.8087 10.3012C15.8948 10.6913 16.0348 11.3246 16.1197 11.7086C16.4667 13.2776 16.7695 14.7473 16.7498 14.767C16.6977 14.8194 15.5623 14.3024 13.9181 13.4775C12.1792 12.6053 11.7939 12.3987 11.7909 12.3374C11.7901 12.3212 11.9 12.152 12.035 11.9615C12.369 11.4902 12.8354 10.7663 13.2453 10.0829L13.5863 9.51435H14.5953C15.2066 9.51435 15.6138 9.52967 15.6283 9.55317ZM4.30286 14.4077C4.82073 14.909 5.56702 15.6334 5.96127 16.0174C6.35552 16.4014 6.97123 16.9983 7.32955 17.3439L7.98099 17.9723H5.10644H2.2319L2.25414 17.8825C2.28112 17.7736 2.59401 16.3008 2.89615 14.8604C3.0181 14.2789 3.13802 13.7098 3.16256 13.5956C3.20438 13.4012 3.21218 13.3915 3.28427 13.4421C3.32661 13.4719 3.78499 13.9064 4.30286 14.4077Z" fill="url(#paint0_linear)"/>
</svg>
