<svg width="22" height="18" viewBox="0 0 22 18" fill="none" xmlns="http://www.w3.org/2000/svg">
<defs>
<linearGradient id="paint0_linear" x1="0" y1="2.9231" x2="25.6552" y2="9.81635" gradientUnits="userSpaceOnUse">
<stop stop-color="#F29E51"/>
<stop offset="1" stop-color="#FF6600"/>
</linearGradient>
<clipPath id="clip0">
<rect width="22" height="18" fill="white"/>
</clipPath>
</defs>
<g>
    <path d="M7.41846 0H1.64615C1.20982 0.000813306 0.791583 0.174508 0.483046 0.483046C0.174508 0.791583 0.000813306 1.20982 0 1.64615V5.73846C0.000813306 6.1748 0.174508 6.59303 0.483046 6.90157C0.791583 7.21011 1.20982 7.3838 1.64615 7.38462H8.81538C9.25172 7.3838 9.66996 7.21011 9.97849 6.90157C10.287 6.59303 10.4607 6.1748 10.4615 5.73846V2.73846L7.41846 0Z" fill="#FF6600"/>
    <path d="M20.8 2.9231H1.2C0.537258 2.9231 0 3.46035 0 4.1231V16.8C0 17.4628 0.537258 18 1.2 18H20.8C21.4627 18 22 17.4628 22 16.8V4.1231C22 3.46035 21.4627 2.9231 20.8 2.9231Z" fill="url(#paint0_linear)"/>
    <path fill-rule="evenodd" clip-rule="evenodd" d="M7.83301 10.0025C7.83301 7.70265 9.70318 5.83337 11.9997 5.83337C14.2962 5.83337 16.1663 7.70265 16.1663 10.0025C16.1663 12.2974 14.2962 14.1667 11.9997 14.1667C9.70318 14.1667 7.83301 12.2974 7.83301 10.0025ZM13.528 10.4241C13.5722 10.3799 13.6285 10.3115 13.6406 10.2954C13.705 10.211 13.7371 10.1065 13.7371 10.0024C13.7371 9.8854 13.7009 9.77686 13.6326 9.68842C13.627 9.68282 13.616 9.67088 13.6017 9.65532C13.5749 9.6262 13.5365 9.5844 13.4998 9.54773C13.17 9.19397 12.3094 8.6151 11.8589 8.43822C11.7905 8.41049 11.6176 8.34979 11.5251 8.34577C11.4366 8.34577 11.3522 8.36586 11.2717 8.40606C11.1712 8.46234 11.0907 8.55078 11.0465 8.6553C11.0183 8.72766 10.9741 8.94474 10.9741 8.94876C10.9299 9.18593 10.9057 9.57185 10.9057 9.99796C10.9057 10.4044 10.9299 10.7738 10.9661 11.015C10.9671 11.016 10.9705 11.0332 10.9759 11.06C10.9922 11.1415 11.0263 11.3112 11.0626 11.3808C11.1511 11.5497 11.324 11.6542 11.509 11.6542H11.5251C11.6458 11.6502 11.8991 11.5456 11.8991 11.5416C12.3254 11.3647 13.166 10.814 13.5039 10.4482L13.528 10.4241Z" fill="white"/>
</g>
</svg>
