<svg width="30" height="30" viewBox="0 0 30 30" fill="none" xmlns="http://www.w3.org/2000/svg">
<rect x="0.25" y="0.25" width="29.5" height="29.5" rx="9.75" stroke="black" stroke-opacity="0.1" stroke-width="0.5"/>
<path d="M22.2863 10.024L16.0353 15.5949C15.8903 15.7242 15.7028 15.7957 15.5085 15.7957C15.3142 15.7957 15.1267 15.7242 14.9816 15.5949L8.7045 10.0271C8.85435 9.98142 9.01016 9.95821 9.16683 9.95825H21.8335C21.9868 9.95811 22.1394 9.98025 22.2863 10.024ZM23.3598 11.1204C23.397 11.255 23.4168 11.3959 23.4168 11.5416V19.4583C23.4168 19.8782 23.25 20.2809 22.9531 20.5778C22.6561 20.8748 22.2534 21.0416 21.8335 21.0416H9.16683C8.7469 21.0416 8.34418 20.8748 8.04724 20.5778C7.75031 20.2809 7.5835 19.8782 7.5835 19.4583V11.5416C7.58334 11.3987 7.60251 11.2565 7.6405 11.1188L13.9279 16.7777C14.363 17.1654 14.9253 17.3796 15.5081 17.3796C16.0908 17.3796 16.6532 17.1654 17.0882 16.7777L23.3598 11.1204Z" fill="#FF6600"/>
</svg>
