<svg id="svg" version="1.1" xmlns="http://www.w3.org/2000/svg" xmlns:xlink="http://www.w3.org/1999/xlink" width="400" height="400" viewBox="0, 0, 400,400"><g id="svgg"><path id="path0" d="M58.325 42.393 C 57.734 42.571,57.149 42.616,57.025 42.492 C 56.901 42.368,56.800 42.477,56.800 42.733 C 56.800 42.990,56.524 43.200,56.187 43.200 C 55.849 43.200,54.949 43.824,54.187 44.587 C 53.424 45.349,52.800 46.249,52.800 46.587 C 52.800 46.924,52.620 47.200,52.400 47.200 C 52.180 47.200,52.000 47.819,52.000 48.576 C 52.000 49.333,51.820 50.064,51.600 50.200 C 50.872 50.650,51.069 95.464,51.800 95.745 C 52.327 95.947,52.400 100.362,52.400 132.135 L 52.400 168.294 56.300 170.843 C 58.445 172.245,60.290 173.484,60.400 173.596 C 60.953 174.161,63.216 175.600,63.550 175.600 C 63.761 175.600,63.993 175.761,64.067 175.958 C 64.140 176.155,64.759 176.650,65.443 177.058 C 66.127 177.466,70.975 180.654,76.218 184.141 C 87.554 191.683,86.653 191.255,86.990 189.259 C 87.368 187.020,89.252 184.236,91.280 182.918 L 93.000 181.800 110.800 181.669 C 120.590 181.597,129.708 181.654,131.063 181.797 C 138.555 182.585,141.776 190.872,136.796 196.544 C 134.353 199.325,134.077 199.366,115.872 199.595 L 99.544 199.800 124.971 216.700 L 150.399 233.600 200.063 233.600 L 249.728 233.600 253.232 231.200 C 255.159 229.880,256.930 228.800,257.168 228.800 C 257.406 228.800,257.600 228.650,257.600 228.468 C 257.600 228.285,258.095 227.880,258.700 227.568 C 259.305 227.255,260.149 226.685,260.575 226.300 C 261.002 225.915,261.572 225.600,261.842 225.600 C 262.112 225.600,262.393 225.462,262.467 225.294 C 262.540 225.125,281.725 212.239,305.100 196.659 L 347.600 168.330 347.600 132.153 C 347.600 100.364,347.673 95.947,348.200 95.745 C 348.931 95.464,349.128 50.650,348.400 50.200 C 348.180 50.064,348.000 49.333,348.000 48.576 C 348.000 47.819,347.820 47.200,347.600 47.200 C 347.380 47.200,347.200 46.924,347.200 46.587 C 347.200 45.791,344.609 43.200,343.813 43.200 C 343.476 43.200,343.200 43.050,343.200 42.867 C 343.200 41.946,275.469 41.674,274.552 42.591 C 273.632 43.511,126.377 43.520,125.457 42.600 C 124.788 41.930,60.515 41.732,58.325 42.393 M202.200 77.706 C 207.315 79.285,208.558 81.483,208.728 89.249 L 208.856 95.102 210.528 95.384 C 211.448 95.539,213.100 95.815,214.200 95.997 C 215.300 96.179,216.920 96.534,217.800 96.786 C 218.680 97.039,219.940 97.394,220.600 97.576 C 223.951 98.502,229.298 100.946,232.366 102.955 C 234.953 104.649,240.000 109.472,240.000 110.249 C 240.000 110.552,240.180 110.800,240.400 110.800 C 240.620 110.800,240.800 110.997,240.800 111.238 C 240.800 111.479,241.134 112.154,241.543 112.738 C 241.952 113.322,242.389 114.250,242.515 114.800 C 242.641 115.350,242.933 116.520,243.163 117.400 C 244.170 121.252,242.229 125.730,238.800 127.466 C 233.925 129.934,227.741 127.382,226.385 122.343 C 225.455 118.891,221.301 116.165,214.000 114.216 C 208.221 112.674,208.800 111.832,208.800 121.781 L 208.800 130.362 210.300 130.779 C 211.125 131.008,212.287 131.197,212.881 131.198 C 213.476 131.199,214.376 131.360,214.881 131.555 C 215.387 131.750,216.790 132.127,218.000 132.393 C 253.862 140.271,251.203 173.994,214.200 180.584 C 212.220 180.937,210.195 181.313,209.700 181.420 C 208.825 181.610,208.800 181.753,208.800 186.661 C 208.800 195.509,206.209 199.200,200.000 199.200 C 193.770 199.200,191.200 195.476,191.200 186.450 C 191.200 180.989,191.636 181.555,186.833 180.782 C 169.723 178.031,156.729 167.790,156.624 156.972 C 156.543 148.757,165.930 145.058,171.800 150.991 C 172.639 151.839,173.184 152.871,174.024 155.200 C 174.964 157.803,179.200 160.567,184.400 161.969 C 185.390 162.236,186.753 162.622,187.428 162.827 C 188.104 163.032,189.229 163.200,189.928 163.200 L 191.200 163.200 191.200 154.625 L 191.200 146.049 189.300 145.785 C 186.186 145.353,179.400 143.698,177.000 142.785 C 176.560 142.618,175.570 142.264,174.800 141.998 C 148.740 133.016,150.932 106.180,178.400 97.916 C 183.009 96.530,183.766 96.333,185.800 95.997 C 186.900 95.815,188.565 95.537,189.500 95.380 L 191.200 95.095 191.200 90.094 C 191.200 84.193,191.661 82.355,193.624 80.427 C 196.699 77.409,198.937 76.699,202.200 77.706 M306.694 77.698 C 314.099 79.634,315.298 89.661,308.618 93.791 L 306.663 95.000 287.031 95.000 L 267.400 95.000 265.529 93.900 C 258.524 89.782,259.498 80.203,267.172 77.742 C 269.282 77.065,304.125 77.026,306.694 77.698 M188.600 113.471 C 181.164 115.131,174.456 118.627,174.413 120.864 C 174.376 122.775,180.482 125.662,187.800 127.196 C 188.680 127.380,189.805 127.657,190.300 127.812 L 191.200 128.093 191.200 120.647 L 191.200 113.200 190.300 113.246 C 189.805 113.272,189.040 113.373,188.600 113.471 M208.800 156.000 L 208.800 163.200 210.381 163.200 C 211.251 163.200,212.376 163.040,212.881 162.844 C 213.387 162.648,215.145 162.064,216.788 161.547 C 219.486 160.697,223.648 158.409,225.056 157.001 C 226.866 155.191,223.966 152.886,217.000 150.599 C 215.305 150.043,209.932 148.800,209.221 148.800 C 208.942 148.800,208.800 151.227,208.800 156.000 " stroke="none" fill="#4cac54" fill-rule="evenodd"></path><path id="path1" d="M197.615 78.069 C 193.147 79.352,191.600 82.342,191.600 89.699 C 191.600 94.543,191.522 95.169,190.900 95.349 C 190.515 95.460,188.580 95.841,186.600 96.196 C 164.485 100.160,151.983 114.427,158.299 128.493 C 161.992 136.719,174.259 143.413,189.265 145.392 C 191.666 145.709,191.600 145.442,191.600 154.800 C 191.600 164.352,191.694 163.989,189.335 163.548 C 180.785 161.951,174.887 158.642,173.384 154.600 C 169.852 145.096,157.031 146.821,157.039 156.800 C 157.046 165.558,166.289 174.893,178.400 178.375 C 179.390 178.660,180.650 179.039,181.200 179.217 C 181.750 179.395,183.100 179.725,184.200 179.949 C 185.300 180.173,187.370 180.594,188.800 180.885 L 191.400 181.414 191.600 187.207 C 191.876 195.201,192.964 197.141,198.008 198.639 C 204.469 200.558,208.091 196.652,208.400 187.430 L 208.600 181.460 211.200 180.908 C 212.630 180.604,215.051 180.082,216.579 179.748 C 251.993 172.012,252.141 140.145,216.800 132.383 C 215.590 132.118,214.078 131.743,213.440 131.550 C 212.802 131.358,211.756 131.200,211.114 131.200 C 208.380 131.200,208.399 131.264,208.406 122.086 C 208.414 111.968,208.381 112.026,213.200 113.584 C 213.750 113.762,215.010 114.139,216.000 114.422 C 221.435 115.976,225.963 119.256,226.753 122.213 C 228.307 128.027,236.306 130.058,240.628 125.735 C 247.257 119.106,240.365 106.587,226.565 100.192 C 222.646 98.375,214.591 96.003,212.323 95.998 C 211.815 95.997,210.725 95.808,209.900 95.579 L 208.400 95.162 208.400 89.707 C 208.400 80.397,204.431 76.114,197.615 78.069 M267.091 78.131 C 260.114 80.301,259.130 89.739,265.491 93.478 L 267.400 94.600 287.200 94.600 L 307.000 94.600 308.668 93.468 C 314.901 89.238,313.643 80.004,306.566 78.039 C 304.320 77.416,269.128 77.497,267.091 78.131 M191.509 120.505 C 191.634 129.154,192.078 128.466,187.079 127.367 C 179.632 125.730,173.972 122.905,174.013 120.845 C 174.061 118.411,182.447 114.111,189.200 113.057 C 191.481 112.701,191.391 112.413,191.509 120.505 M211.154 148.774 C 225.859 152.581,228.826 155.010,223.295 158.714 C 218.730 161.771,209.179 164.764,208.621 163.312 C 208.305 162.487,208.347 148.987,208.667 148.667 C 209.022 148.312,209.436 148.330,211.154 148.774 M93.000 182.530 C 89.787 183.788,87.860 186.170,87.443 189.400 C 87.118 191.919,86.834 191.600,93.075 195.719 L 98.350 199.200 114.628 199.200 C 131.864 199.200,133.077 199.090,135.508 197.306 C 140.932 193.328,139.393 184.401,132.954 182.489 C 130.673 181.812,94.742 181.849,93.000 182.530 " stroke="none" fill="#f7faf8" fill-rule="evenodd"></path><path id="path2" d="M6.526 142.343 C 4.408 143.075,2.206 145.005,1.565 146.692 C 1.374 147.195,0.989 147.560,0.709 147.503 C -0.035 147.352,-0.044 359.252,0.700 359.500 C 0.975 359.592,1.200 360.001,1.200 360.410 C 1.200 360.818,1.380 361.264,1.600 361.400 C 1.820 361.536,2.000 362.042,1.999 362.524 C 1.998 363.436,3.577 366.901,4.100 367.133 C 4.265 367.207,4.400 367.612,4.400 368.033 C 4.400 368.455,4.580 368.800,4.800 368.800 C 5.020 368.800,5.200 369.126,5.200 369.525 C 5.200 369.923,5.533 370.606,5.939 371.043 C 6.346 371.479,6.751 372.051,6.839 372.314 C 7.354 373.843,17.446 384.000,18.451 384.000 C 18.661 384.000,19.220 384.360,19.692 384.800 C 20.164 385.240,20.843 385.600,21.200 385.600 C 21.557 385.600,22.198 385.915,22.625 386.300 C 23.051 386.685,23.760 387.062,24.200 387.138 C 24.640 387.214,25.180 387.406,25.400 387.566 C 25.620 387.725,26.565 388.097,27.500 388.392 C 28.435 388.687,29.200 389.083,29.200 389.272 C 29.200 389.461,29.649 389.534,30.198 389.435 C 30.747 389.335,31.422 389.467,31.698 389.727 C 31.974 389.987,32.830 390.197,33.600 390.193 C 34.370 390.189,35.578 390.414,36.283 390.692 C 38.028 391.379,361.752 391.436,363.485 390.750 C 364.098 390.507,365.050 390.270,365.600 390.222 C 367.670 390.044,369.855 389.504,371.496 388.764 C 372.428 388.344,373.553 388.000,373.996 388.000 C 374.438 388.000,374.800 387.820,374.800 387.600 C 374.800 387.380,375.168 387.200,375.617 387.200 C 376.066 387.200,376.820 386.840,377.292 386.400 C 377.764 385.960,378.443 385.600,378.800 385.600 C 379.157 385.600,379.836 385.240,380.308 384.800 C 380.780 384.360,381.354 384.000,381.583 384.000 C 381.812 384.000,382.000 383.820,382.000 383.600 C 382.000 383.380,382.182 383.200,382.404 383.200 C 382.626 383.200,383.372 382.660,384.063 382.000 C 384.754 381.340,385.562 380.800,385.859 380.800 C 386.157 380.800,386.406 380.665,386.412 380.500 C 386.419 380.335,387.500 379.057,388.813 377.660 C 390.127 376.263,391.510 374.598,391.887 373.960 C 392.264 373.322,392.714 372.800,392.886 372.800 C 393.059 372.800,393.200 372.607,393.200 372.371 C 393.200 372.136,393.472 371.671,393.804 371.339 C 394.136 371.007,394.305 370.570,394.180 370.368 C 394.055 370.165,394.143 370.000,394.376 370.000 C 394.609 370.000,394.800 369.719,394.800 369.376 C 394.800 369.033,394.980 368.864,395.200 369.000 C 395.428 369.141,395.600 368.796,395.600 368.200 C 395.600 367.604,395.772 367.259,396.000 367.400 C 396.220 367.536,396.400 367.364,396.400 367.018 C 396.400 366.672,396.559 366.077,396.753 365.695 C 396.948 365.313,397.329 364.460,397.600 363.800 C 397.871 363.140,398.252 362.287,398.447 361.905 C 398.641 361.523,398.800 360.848,398.800 360.405 C 398.800 359.962,398.950 359.600,399.133 359.600 C 399.317 359.600,399.525 359.375,399.596 359.100 C 400.048 357.357,399.952 147.599,399.499 147.587 C 399.225 147.580,398.513 146.773,397.919 145.793 C 395.867 142.412,391.684 140.964,388.006 142.361 C 386.247 143.029,350.842 166.388,345.200 170.602 C 344.210 171.342,343.257 171.959,343.083 171.973 C 342.909 171.988,342.380 172.360,341.908 172.800 C 341.436 173.240,340.813 173.600,340.525 173.600 C 340.236 173.600,340.000 173.751,340.000 173.936 C 340.000 174.120,339.564 174.470,339.031 174.713 C 338.498 174.956,337.733 175.423,337.331 175.751 C 335.951 176.878,291.498 206.400,291.183 206.400 C 291.009 206.400,290.807 206.549,290.733 206.732 C 290.615 207.027,265.425 223.817,243.382 238.295 C 231.815 245.891,224.054 249.473,215.400 251.206 C 214.080 251.470,212.478 251.847,211.840 252.043 C 211.202 252.239,209.762 252.404,208.640 252.408 C 207.518 252.412,205.340 252.603,203.800 252.832 C 200.921 253.259,192.312 252.787,188.300 251.982 C 173.367 248.983,170.939 247.773,143.800 229.806 C 133.460 222.961,123.110 216.111,120.800 214.584 C 118.490 213.058,116.374 211.593,116.098 211.330 C 115.821 211.068,115.236 210.738,114.798 210.599 C 114.359 210.460,114.000 210.178,114.000 209.973 C 114.000 209.768,113.752 209.600,113.449 209.600 C 113.146 209.600,112.671 209.327,112.394 208.993 C 112.117 208.659,111.285 208.098,110.545 207.747 C 109.805 207.396,109.200 206.949,109.200 206.754 C 109.200 206.559,108.975 206.398,108.700 206.395 C 108.425 206.392,107.750 206.031,107.200 205.594 C 106.650 205.157,104.670 203.784,102.800 202.544 C 100.930 201.304,98.950 199.891,98.400 199.404 C 97.300 198.430,87.004 191.600,86.636 191.600 C 86.510 191.600,81.860 188.570,76.303 184.866 C 70.746 181.163,65.480 177.655,64.600 177.072 C 63.720 176.488,62.820 175.867,62.600 175.691 C 62.380 175.514,60.040 173.925,57.400 172.159 C 54.760 170.392,44.050 163.207,33.600 156.192 C 11.111 141.095,10.719 140.894,6.526 142.343 " stroke="none" fill="#fcc404" fill-rule="evenodd"></path><path id="path3" d="M190.693 9.252 C 190.335 9.452,188.907 9.689,187.521 9.778 C 185.143 9.930,183.774 10.158,179.000 11.200 C 177.900 11.439,176.503 11.739,175.895 11.864 C 175.287 11.990,174.692 12.251,174.571 12.446 C 174.451 12.641,173.733 12.800,172.976 12.800 C 172.219 12.800,171.600 12.947,171.600 13.128 C 171.600 13.308,170.700 13.700,169.600 14.000 C 168.500 14.300,167.600 14.692,167.600 14.872 C 167.600 15.053,167.060 15.200,166.400 15.200 C 165.740 15.200,165.200 15.380,165.200 15.600 C 165.200 15.820,164.840 16.000,164.400 16.000 C 163.960 16.000,163.600 16.180,163.600 16.400 C 163.600 16.620,163.335 16.800,163.012 16.800 C 162.689 16.800,161.783 17.160,161.000 17.600 C 160.217 18.040,159.311 18.400,158.988 18.400 C 158.665 18.400,158.400 18.580,158.400 18.800 C 158.400 19.020,158.164 19.200,157.875 19.200 C 157.587 19.200,156.964 19.560,156.492 20.000 C 156.020 20.440,155.356 20.800,155.017 20.800 C 154.678 20.800,154.400 20.980,154.400 21.200 C 154.400 21.420,154.080 21.600,153.688 21.600 C 153.297 21.600,152.717 21.960,152.400 22.400 C 152.083 22.840,151.543 23.200,151.200 23.200 C 150.857 23.200,150.317 23.560,150.000 24.000 C 149.683 24.440,149.113 24.800,148.734 24.800 C 148.355 24.800,147.765 25.200,147.423 25.689 C 147.080 26.178,146.800 26.447,146.800 26.286 C 146.800 26.125,145.720 26.731,144.400 27.632 C 143.080 28.533,142.000 29.434,142.000 29.635 C 142.000 29.836,141.712 30.000,141.360 30.000 C 141.009 30.000,140.217 30.540,139.600 31.200 C 138.983 31.860,138.280 32.400,138.036 32.400 C 137.792 32.400,137.028 32.940,136.337 33.600 C 135.646 34.260,134.878 34.800,134.629 34.800 C 134.380 34.800,133.917 35.160,133.600 35.600 C 133.283 36.040,132.775 36.400,132.472 36.400 C 132.169 36.400,131.417 36.940,130.800 37.600 C 130.183 38.260,129.561 38.800,129.416 38.800 C 129.271 38.800,128.399 39.383,127.477 40.096 C 126.554 40.809,125.715 41.448,125.612 41.518 C 124.383 42.338,270.884 42.956,273.920 42.143 C 274.842 41.896,273.971 40.400,272.905 40.400 C 272.724 40.400,272.317 40.040,272.000 39.600 C 271.683 39.160,271.191 38.800,270.908 38.800 C 270.625 38.800,269.828 38.260,269.137 37.600 C 268.446 36.940,267.726 36.400,267.537 36.400 C 267.348 36.400,266.628 35.860,265.937 35.200 C 265.246 34.540,264.478 34.000,264.229 34.000 C 263.980 34.000,263.517 33.640,263.200 33.200 C 262.883 32.760,262.369 32.400,262.059 32.400 C 261.748 32.400,261.203 32.083,260.847 31.697 C 259.846 30.609,255.777 27.600,255.306 27.600 C 255.075 27.600,254.779 27.321,254.648 26.981 C 254.517 26.641,253.868 26.173,253.205 25.942 C 252.542 25.711,252.000 25.359,252.000 25.161 C 252.000 24.962,251.680 24.800,251.288 24.800 C 250.897 24.800,250.317 24.440,250.000 24.000 C 249.683 23.560,249.143 23.200,248.800 23.200 C 248.457 23.200,247.917 22.840,247.600 22.400 C 247.283 21.960,246.703 21.600,246.312 21.600 C 245.920 21.600,245.600 21.420,245.600 21.200 C 245.600 20.980,245.240 20.800,244.800 20.800 C 244.360 20.800,244.000 20.642,244.000 20.449 C 244.000 20.255,243.460 19.873,242.800 19.600 C 242.140 19.327,241.600 18.934,241.600 18.728 C 241.600 18.522,241.435 18.455,241.232 18.580 C 241.030 18.705,240.593 18.536,240.261 18.204 C 239.929 17.872,239.385 17.600,239.052 17.600 C 238.719 17.600,238.336 17.420,238.200 17.200 C 238.064 16.980,237.603 16.800,237.176 16.800 C 236.749 16.800,236.400 16.620,236.400 16.400 C 236.400 16.180,236.040 16.000,235.600 16.000 C 235.160 16.000,234.800 15.820,234.800 15.600 C 234.800 15.380,234.260 15.200,233.600 15.200 C 232.940 15.200,232.400 15.053,232.400 14.872 C 232.400 14.692,231.500 14.300,230.400 14.000 C 229.300 13.700,228.400 13.308,228.400 13.128 C 228.400 12.947,227.858 12.800,227.195 12.800 C 226.532 12.800,225.677 12.629,225.295 12.420 C 223.613 11.500,216.478 10.024,212.483 9.770 C 211.098 9.682,209.658 9.447,209.283 9.249 C 208.388 8.777,191.537 8.779,190.693 9.252 M50.000 96.305 C 49.670 96.687,49.108 97.180,48.751 97.400 C 46.556 98.753,44.000 100.632,44.000 100.894 C 44.000 101.062,43.802 101.200,43.560 101.200 C 43.319 101.200,42.617 101.740,42.000 102.400 C 41.383 103.060,40.631 103.600,40.328 103.600 C 40.025 103.600,39.517 103.960,39.200 104.400 C 38.883 104.840,38.375 105.200,38.072 105.200 C 37.769 105.200,37.017 105.740,36.400 106.400 C 35.783 107.060,35.068 107.600,34.811 107.600 C 34.553 107.600,34.092 107.825,33.785 108.100 C 32.500 109.252,32.015 109.600,31.692 109.600 C 31.505 109.600,31.002 109.920,30.575 110.311 C 30.149 110.702,29.170 111.464,28.400 112.005 C 26.632 113.247,25.741 113.967,24.568 115.100 C 24.056 115.595,23.398 116.000,23.106 116.000 C 22.815 116.000,22.317 116.360,22.000 116.800 C 21.683 117.240,21.175 117.600,20.872 117.600 C 20.569 117.600,19.817 118.140,19.200 118.800 C 18.583 119.460,17.893 120.000,17.665 120.000 C 17.022 120.000,7.600 129.413,7.600 130.055 C 7.600 130.367,7.240 130.883,6.800 131.200 C 6.360 131.517,6.000 132.097,6.000 132.488 C 6.000 132.880,5.820 133.200,5.600 133.200 C 5.380 133.200,5.200 133.560,5.200 134.000 C 5.200 134.440,5.020 134.800,4.800 134.800 C 4.580 134.800,4.400 135.160,4.400 135.600 C 4.400 136.040,4.220 136.400,4.000 136.400 C 3.780 136.400,3.600 136.760,3.600 137.200 C 3.600 137.640,3.420 138.000,3.200 138.000 C 2.980 138.000,2.800 138.360,2.800 138.800 C 2.800 139.240,2.620 139.600,2.400 139.600 C 2.180 139.600,2.000 140.140,2.000 140.800 C 2.000 141.460,1.820 142.000,1.600 142.000 C 1.380 142.000,1.200 142.540,1.200 143.200 C 1.200 143.860,1.020 144.400,0.800 144.400 C 0.278 144.400,0.279 147.078,0.801 147.400 C 1.021 147.537,1.370 147.204,1.577 146.662 C 2.276 144.822,4.675 142.859,7.077 142.160 C 10.880 141.055,11.412 141.334,32.761 155.620 L 51.800 168.361 51.902 132.524 C 52.011 94.203,52.000 93.989,50.000 96.305 M348.447 96.144 C 348.118 96.540,348.023 106.381,348.098 132.533 L 348.200 168.380 367.260 155.635 C 378.847 147.887,387.093 142.634,388.293 142.235 C 391.889 141.041,395.945 142.541,397.919 145.793 C 398.513 146.773,399.135 147.580,399.300 147.587 C 399.752 147.606,399.660 144.484,399.200 144.200 C 398.980 144.064,398.800 143.513,398.800 142.976 C 398.800 142.439,398.620 142.000,398.400 142.000 C 398.180 142.000,398.000 141.460,398.000 140.800 C 398.000 140.140,397.820 139.600,397.600 139.600 C 397.380 139.600,397.200 139.240,397.200 138.800 C 397.200 138.360,397.020 138.000,396.800 138.000 C 396.580 138.000,396.400 137.640,396.400 137.200 C 396.400 136.760,396.220 136.400,396.000 136.400 C 395.780 136.400,395.600 136.040,395.600 135.600 C 395.600 135.160,395.420 134.800,395.200 134.800 C 394.980 134.800,394.800 134.440,394.800 134.000 C 394.800 133.560,394.620 133.200,394.400 133.200 C 394.180 133.200,394.000 132.964,394.000 132.675 C 394.000 132.387,393.640 131.764,393.200 131.292 C 392.760 130.820,392.400 130.222,392.400 129.963 C 392.400 129.363,382.975 120.000,382.372 120.000 C 382.124 120.000,381.417 119.460,380.800 118.800 C 380.183 118.140,379.473 117.600,379.221 117.600 C 378.970 117.600,378.314 117.150,377.764 116.600 C 377.214 116.050,376.600 115.600,376.400 115.600 C 376.200 115.600,375.586 115.150,375.036 114.600 C 374.486 114.050,373.928 113.600,373.795 113.600 C 373.555 113.600,370.906 111.599,369.495 110.353 C 369.093 109.997,368.141 109.371,367.381 108.962 C 366.622 108.553,366.000 108.079,366.000 107.909 C 366.000 107.739,365.712 107.600,365.360 107.600 C 365.009 107.600,364.217 107.060,363.600 106.400 C 362.983 105.740,362.273 105.200,362.021 105.200 C 361.770 105.200,361.144 104.795,360.632 104.300 C 359.107 102.826,358.016 102.000,357.595 102.000 C 357.378 102.000,357.200 101.820,357.200 101.600 C 357.200 101.380,357.010 101.200,356.778 101.200 C 356.546 101.200,355.781 100.661,355.078 100.002 C 354.375 99.343,353.575 98.803,353.300 98.802 C 353.025 98.801,352.800 98.662,352.800 98.494 C 352.800 98.326,352.080 97.744,351.200 97.200 C 350.320 96.656,349.600 96.074,349.600 95.906 C 349.600 95.416,348.937 95.553,348.447 96.144 M151.420 234.749 C 156.157 239.096,171.785 247.579,179.064 249.756 C 182.038 250.645,183.558 251.011,188.200 251.956 C 192.256 252.782,200.878 253.266,203.800 252.832 C 205.340 252.603,207.518 252.412,208.640 252.408 C 209.762 252.404,211.202 252.239,211.840 252.043 C 212.478 251.847,214.080 251.470,215.400 251.206 C 219.797 250.325,226.550 247.958,231.000 245.738 C 234.689 243.898,248.800 235.029,248.800 234.550 C 248.800 234.468,226.804 234.400,199.920 234.400 C 172.106 234.400,151.204 234.550,151.420 234.749 " stroke="none" fill="#fba404" fill-rule="evenodd"></path><path id="path4" d="M125.200 42.457 C 125.200 43.140,131.278 43.200,200.000 43.200 C 268.722 43.200,274.800 43.140,274.800 42.457 C 274.800 42.316,241.140 42.200,200.000 42.200 C 158.860 42.200,125.200 42.316,125.200 42.457 M198.296 77.535 C 197.909 77.688,198.676 77.813,200.000 77.813 C 201.324 77.813,202.091 77.688,201.704 77.535 C 201.317 77.382,200.550 77.256,200.000 77.256 C 199.450 77.256,198.683 77.382,198.296 77.535 M267.915 77.528 C 267.538 77.678,276.126 77.800,287.000 77.800 C 297.874 77.800,306.462 77.678,306.085 77.528 C 305.708 77.379,297.120 77.256,287.000 77.256 C 276.880 77.256,268.292 77.379,267.915 77.528 M203.799 78.630 C 207.444 80.531,208.151 82.171,208.440 89.400 L 208.680 95.400 208.640 89.398 C 208.592 82.216,206.538 77.986,203.106 78.002 C 202.828 78.004,203.140 78.286,203.799 78.630 M264.568 78.895 C 263.891 79.360,262.946 80.336,262.468 81.065 C 261.175 83.037,261.419 83.098,262.900 81.172 C 263.615 80.242,264.827 79.148,265.594 78.741 C 266.360 78.333,266.720 78.011,266.394 78.025 C 266.067 78.039,265.246 78.430,264.568 78.895 M307.600 78.291 C 308.656 78.693,310.168 80.001,311.300 81.493 C 311.905 82.290,312.400 82.742,312.400 82.498 C 312.400 81.735,308.490 77.998,307.726 78.032 C 307.163 78.056,307.134 78.114,307.600 78.291 M193.538 80.417 C 192.692 81.306,192.001 82.251,192.003 82.517 C 192.004 82.783,192.359 82.460,192.791 81.800 C 193.223 81.140,194.076 80.196,194.688 79.702 C 195.300 79.208,195.637 78.803,195.438 78.802 C 195.239 78.801,194.384 79.528,193.538 80.417 M261.043 83.833 C 260.705 84.712,260.750 88.102,261.106 88.662 C 261.268 88.916,261.400 87.791,261.400 86.162 C 261.400 82.931,261.397 82.910,261.043 83.833 M312.571 86.066 C 312.563 89.432,311.411 91.710,308.947 93.233 C 307.708 93.998,306.957 94.819,308.100 94.158 C 311.929 91.943,313.930 87.823,312.905 84.266 C 312.661 83.421,312.576 83.881,312.571 86.066 M191.358 89.800 C 191.358 92.880,191.421 94.087,191.497 92.482 C 191.573 90.878,191.573 88.358,191.496 86.882 C 191.419 85.407,191.357 86.720,191.358 89.800 M261.600 89.769 C 261.600 90.586,263.759 92.860,265.514 93.891 L 267.400 95.000 285.424 95.122 C 295.337 95.189,304.312 95.099,305.370 94.922 C 306.469 94.738,298.752 94.600,287.346 94.600 L 267.400 94.600 265.505 93.486 C 264.463 92.873,263.158 91.707,262.605 90.893 C 262.052 90.080,261.600 89.574,261.600 89.769 M188.200 95.619 C 187.642 95.871,187.885 95.907,189.000 95.738 C 189.880 95.604,190.675 95.428,190.767 95.347 C 191.110 95.044,188.968 95.271,188.200 95.619 M210.000 95.600 C 210.550 95.776,211.360 95.926,211.800 95.932 L 212.600 95.944 211.800 95.600 C 211.360 95.411,210.550 95.262,210.000 95.268 L 209.000 95.280 210.000 95.600 M51.500 96.030 C 51.892 96.446,52.000 104.314,52.000 132.582 L 52.000 168.603 57.100 171.984 C 59.905 173.843,62.380 175.510,62.600 175.688 C 62.820 175.866,63.720 176.488,64.600 177.072 C 65.480 177.655,70.700 181.128,76.200 184.791 C 88.349 192.880,87.387 192.465,87.449 189.645 L 87.499 187.400 87.089 189.119 C 86.581 191.244,87.584 191.703,76.218 184.141 C 70.975 180.654,66.127 177.466,65.443 177.058 C 64.759 176.650,64.140 176.155,64.067 175.958 C 63.993 175.761,63.761 175.600,63.550 175.600 C 63.216 175.600,60.953 174.161,60.400 173.596 C 60.290 173.484,58.446 172.245,56.302 170.844 L 52.404 168.297 52.302 132.082 C 52.212 100.298,52.127 95.844,51.600 95.683 C 51.116 95.535,51.096 95.602,51.500 96.030 M347.867 95.867 C 347.720 96.013,347.600 112.378,347.600 132.232 L 347.600 168.330 305.100 196.659 C 281.725 212.239,262.540 225.125,262.467 225.294 C 262.393 225.462,262.112 225.600,261.842 225.600 C 261.572 225.600,261.002 225.915,260.575 226.300 C 260.149 226.685,259.305 227.255,258.700 227.568 C 258.095 227.880,257.600 228.285,257.600 228.468 C 257.600 228.650,257.406 228.800,257.168 228.800 C 256.930 228.800,255.159 229.880,253.232 231.200 L 249.728 233.600 200.063 233.600 L 150.399 233.600 124.972 216.700 L 99.545 199.800 115.072 199.593 L 130.600 199.386 114.414 199.293 C 100.711 199.214,98.318 199.284,98.814 199.747 C 99.136 200.048,100.930 201.307,102.800 202.546 C 104.670 203.785,106.650 205.157,107.200 205.594 C 107.750 206.031,108.425 206.392,108.700 206.395 C 108.975 206.398,109.200 206.559,109.200 206.754 C 109.200 206.949,109.805 207.396,110.545 207.747 C 111.285 208.098,112.117 208.659,112.394 208.993 C 112.671 209.327,113.146 209.600,113.449 209.600 C 113.752 209.600,114.000 209.768,114.000 209.973 C 114.000 210.178,114.359 210.460,114.798 210.599 C 115.236 210.738,115.821 211.066,116.098 211.326 C 116.848 212.034,148.501 233.025,149.939 233.768 C 151.059 234.348,155.909 234.399,200.489 234.305 L 249.800 234.200 270.200 220.632 C 281.420 213.169,290.660 206.914,290.733 206.732 C 290.807 206.549,291.009 206.400,291.183 206.400 C 291.498 206.400,335.951 176.878,337.331 175.751 C 337.733 175.423,338.498 174.956,339.031 174.713 C 339.564 174.470,340.000 174.120,340.000 173.936 C 340.000 173.751,340.236 173.600,340.525 173.600 C 340.813 173.600,341.436 173.240,341.908 172.800 C 342.380 172.360,342.856 172.000,342.966 172.000 C 343.210 172.000,345.454 170.487,346.918 169.336 L 348.000 168.485 348.000 132.522 C 348.000 105.085,348.114 96.446,348.480 96.080 C 348.767 95.793,348.794 95.600,348.547 95.600 C 348.319 95.600,348.013 95.720,347.867 95.867 M183.600 96.421 C 183.170 96.714,183.454 96.754,184.600 96.562 C 186.584 96.230,186.904 95.998,185.367 96.006 C 184.725 96.009,183.930 96.196,183.600 96.421 M214.800 96.400 C 216.342 96.894,217.164 96.894,216.400 96.400 C 216.070 96.187,215.350 96.027,214.800 96.046 L 213.800 96.080 214.800 96.400 M178.200 98.000 C 177.696 98.217,177.622 98.344,178.000 98.344 C 178.330 98.344,178.960 98.189,179.400 98.000 C 179.904 97.783,179.978 97.656,179.600 97.656 C 179.270 97.656,178.640 97.811,178.200 98.000 M220.033 97.744 C 220.125 97.823,220.740 98.008,221.400 98.156 C 222.276 98.352,222.438 98.315,222.000 98.018 C 221.460 97.653,219.632 97.398,220.033 97.744 M175.600 98.800 C 175.067 99.145,175.067 99.188,175.600 99.188 C 175.930 99.188,176.470 99.013,176.800 98.800 C 177.333 98.455,177.333 98.412,176.800 98.412 C 176.470 98.412,175.930 98.587,175.600 98.800 M231.856 103.140 C 233.805 104.427,236.435 106.574,237.700 107.910 C 238.965 109.247,240.000 110.196,240.000 110.020 C 240.000 108.889,230.061 100.814,228.656 100.803 C 228.467 100.801,229.907 101.853,231.856 103.140 M166.328 103.906 C 164.639 105.162,163.335 106.268,163.430 106.363 C 163.525 106.458,164.007 106.174,164.502 105.731 C 164.996 105.288,166.464 104.177,167.765 103.263 C 169.066 102.348,169.966 101.605,169.765 101.612 C 169.564 101.618,168.018 102.651,166.328 103.906 M161.374 108.334 C 159.765 110.257,158.400 112.240,158.400 112.655 C 158.400 112.837,158.874 112.269,159.454 111.393 C 160.034 110.517,161.150 109.125,161.935 108.300 C 162.720 107.475,163.191 106.815,162.981 106.834 C 162.772 106.852,162.048 107.527,161.374 108.334 M190.491 113.051 C 191.108 113.233,191.196 114.051,191.305 120.628 L 191.427 128.001 191.414 120.505 C 191.401 113.309,191.368 113.007,190.600 112.928 C 189.995 112.866,189.968 112.896,190.491 113.051 M157.579 114.255 C 157.358 114.836,157.252 115.385,157.343 115.476 C 157.433 115.567,157.699 115.092,157.933 114.420 C 158.453 112.928,158.139 112.782,157.579 114.255 M186.800 113.606 C 186.378 113.882,186.615 113.923,187.600 113.742 C 189.325 113.425,189.651 113.198,188.367 113.206 C 187.835 113.209,187.130 113.389,186.800 113.606 M211.600 113.600 C 213.142 114.094,213.964 114.094,213.200 113.600 C 212.870 113.387,212.150 113.227,211.600 113.246 L 210.600 113.280 211.600 113.600 M208.492 121.886 C 208.392 131.071,208.440 131.275,210.674 131.164 C 211.073 131.144,210.819 130.960,210.108 130.755 L 208.816 130.381 208.700 121.891 L 208.583 113.400 208.492 121.886 M184.000 114.418 C 183.562 114.715,183.724 114.752,184.600 114.556 C 186.071 114.227,186.390 113.998,185.367 114.006 C 184.945 114.009,184.330 114.195,184.000 114.418 M214.033 114.144 C 214.125 114.223,214.740 114.408,215.400 114.556 C 216.276 114.752,216.438 114.715,216.000 114.418 C 215.460 114.053,213.632 113.798,214.033 114.144 M242.644 116.600 C 242.973 118.071,243.202 118.390,243.194 117.367 C 243.191 116.945,243.005 116.330,242.782 116.000 C 242.485 115.562,242.448 115.724,242.644 116.600 M156.600 118.000 C 156.445 119.128,156.402 120.136,156.506 120.239 C 156.609 120.342,156.816 119.500,156.967 118.367 C 157.117 117.234,157.159 116.226,157.061 116.128 C 156.963 116.029,156.755 116.872,156.600 118.000 M224.732 119.295 C 225.411 120.117,226.165 121.526,226.407 122.427 C 226.652 123.335,227.488 124.718,228.285 125.532 C 229.532 126.805,229.065 125.963,227.711 124.494 C 227.441 124.203,227.026 123.238,226.786 122.350 C 226.547 121.462,225.710 120.075,224.925 119.268 L 223.498 117.800 224.732 119.295 M174.485 119.613 C 172.958 122.058,178.186 125.572,185.400 126.950 C 186.981 127.252,185.859 126.773,182.355 125.652 C 175.852 123.570,173.147 121.413,174.873 119.687 C 175.134 119.426,175.262 119.129,175.158 119.025 C 175.055 118.921,174.752 119.186,174.485 119.613 M156.447 122.433 C 156.473 123.185,156.641 124.340,156.820 125.000 C 157.035 125.789,157.070 125.378,156.923 123.800 C 156.677 121.155,156.373 120.281,156.447 122.433 M242.483 122.920 C 241.004 127.011,235.022 129.377,231.180 127.390 C 230.531 127.054,230.000 126.869,230.000 126.979 C 230.000 128.163,235.724 128.846,237.881 127.920 C 240.514 126.789,243.574 123.322,243.126 121.977 C 243.046 121.738,242.757 122.163,242.483 122.920 M157.401 127.200 C 157.761 128.399,158.753 130.400,158.988 130.400 C 159.171 130.400,157.618 126.723,157.298 126.400 C 157.190 126.290,157.236 126.650,157.401 127.200 M187.233 127.343 C 187.325 127.421,188.030 127.601,188.800 127.742 C 189.785 127.923,190.022 127.882,189.600 127.606 C 189.058 127.250,186.837 127.003,187.233 127.343 M160.037 132.000 C 161.196 133.796,161.200 133.801,161.198 133.367 C 161.197 133.165,160.732 132.460,160.165 131.800 L 159.134 130.600 160.037 132.000 M213.400 131.600 C 214.596 132.114,215.595 132.114,214.800 131.600 C 214.470 131.387,213.840 131.222,213.400 131.234 L 212.600 131.256 213.400 131.600 M217.000 132.400 C 217.440 132.589,218.070 132.744,218.400 132.744 C 218.778 132.744,218.704 132.617,218.200 132.400 C 217.760 132.211,217.130 132.056,216.800 132.056 C 216.422 132.056,216.496 132.183,217.000 132.400 M222.400 134.000 C 222.730 134.213,223.270 134.388,223.600 134.388 C 224.133 134.388,224.133 134.345,223.600 134.000 C 223.270 133.787,222.730 133.612,222.400 133.612 C 221.867 133.612,221.867 133.655,222.400 134.000 M163.200 135.386 C 163.200 135.565,163.515 135.960,163.900 136.263 C 164.736 136.921,166.373 137.851,165.800 137.343 C 163.718 135.496,163.200 135.106,163.200 135.386 M227.945 136.023 C 228.685 136.474,229.377 136.757,229.482 136.651 C 229.684 136.450,227.473 135.199,226.920 135.201 C 226.744 135.202,227.205 135.572,227.945 136.023 M237.081 141.840 C 239.100 143.809,240.327 145.420,241.181 147.225 C 241.851 148.641,242.400 149.569,242.400 149.287 C 242.401 147.481,238.245 141.867,235.465 139.918 C 234.769 139.430,235.497 140.295,237.081 141.840 M182.800 144.425 C 184.450 144.844,185.971 145.132,186.180 145.067 C 186.638 144.922,181.252 143.584,180.400 143.631 C 180.070 143.649,181.150 144.006,182.800 144.425 M186.833 145.346 C 186.925 145.426,187.990 145.594,189.200 145.719 C 190.620 145.866,191.046 145.829,190.400 145.613 C 189.409 145.283,186.513 145.065,186.833 145.346 M191.291 154.700 L 191.200 163.200 189.700 163.253 L 188.200 163.305 189.600 163.562 C 191.602 163.928,191.630 163.794,191.500 154.521 L 191.383 146.200 191.291 154.700 M164.300 148.282 C 164.795 148.378,165.605 148.378,166.100 148.282 C 166.595 148.187,166.190 148.109,165.200 148.109 C 164.210 148.109,163.805 148.187,164.300 148.282 M160.944 149.169 C 160.253 149.590,159.547 150.175,159.375 150.468 C 159.190 150.782,159.377 150.734,159.831 150.350 C 160.254 149.993,161.140 149.415,161.800 149.066 C 162.460 148.717,162.820 148.425,162.600 148.418 C 162.380 148.410,161.635 148.748,160.944 149.169 M168.000 148.590 C 168.000 148.694,168.585 149.065,169.300 149.414 L 170.600 150.048 169.600 149.233 C 168.637 148.448,168.000 148.192,168.000 148.590 M208.667 148.667 C 208.302 149.031,208.339 162.898,208.706 163.409 C 208.874 163.643,209.598 163.708,210.400 163.561 L 211.800 163.305 210.300 163.253 L 208.800 163.200 208.800 155.955 L 208.800 148.711 210.300 148.946 C 211.369 149.114,211.570 149.077,211.000 148.819 C 210.020 148.375,209.023 148.310,208.667 148.667 M213.200 149.600 C 214.568 150.038,215.619 150.038,214.600 149.600 C 214.160 149.411,213.440 149.262,213.000 149.268 C 212.357 149.277,212.396 149.343,213.200 149.600 M242.658 151.200 C 242.975 152.925,243.202 153.251,243.194 151.967 C 243.191 151.435,243.011 150.730,242.794 150.400 C 242.518 149.978,242.477 150.215,242.658 151.200 M157.619 152.563 C 157.119 153.535,156.806 154.571,156.923 154.865 C 157.070 155.231,157.147 155.183,157.168 154.712 C 157.186 154.334,157.569 153.368,158.020 152.565 C 158.470 151.763,158.769 151.036,158.684 150.950 C 158.598 150.865,158.119 151.590,157.619 152.563 M222.400 152.537 C 222.400 152.623,223.120 153.170,224.000 153.753 C 225.022 154.429,225.617 155.134,225.646 155.706 C 225.684 156.428,225.729 156.459,225.881 155.870 C 226.101 155.022,225.074 153.762,223.501 152.949 C 222.895 152.636,222.400 152.450,222.400 152.537 M172.800 152.925 C 172.800 153.384,174.096 156.438,174.232 156.301 C 174.405 156.128,173.429 153.295,173.074 152.941 C 172.923 152.790,172.800 152.783,172.800 152.925 M243.324 155.800 C 243.326 157.120,243.401 157.612,243.490 156.893 C 243.579 156.174,243.577 155.094,243.486 154.493 C 243.395 153.892,243.322 154.480,243.324 155.800 M156.615 157.600 C 156.893 160.847,159.588 167.200,160.688 167.200 C 160.800 167.200,160.601 166.750,160.246 166.200 C 159.891 165.650,159.341 164.795,159.025 164.300 C 158.242 163.075,157.293 160.176,156.820 157.564 L 156.427 155.400 156.615 157.600 M224.733 157.132 C 224.660 157.314,223.612 158.124,222.405 158.932 C 221.198 159.739,220.353 160.400,220.527 160.400 C 220.913 160.400,225.600 157.245,225.600 156.985 C 225.600 156.662,224.872 156.786,224.733 157.132 M242.854 159.489 C 242.825 159.977,242.360 161.372,241.822 162.589 C 241.284 163.805,240.934 164.800,241.044 164.800 C 241.494 164.800,243.228 160.223,243.075 159.443 C 242.915 158.629,242.907 158.630,242.854 159.489 M215.600 162.000 C 215.067 162.345,215.067 162.388,215.600 162.388 C 215.930 162.388,216.470 162.213,216.800 162.000 C 217.333 161.655,217.333 161.612,216.800 161.612 C 216.470 161.612,215.930 161.787,215.600 162.000 M186.200 162.800 C 187.396 163.314,188.395 163.314,187.600 162.800 C 187.270 162.587,186.640 162.422,186.200 162.434 L 185.400 162.456 186.200 162.800 M239.300 166.780 C 238.585 167.642,238.000 168.468,238.000 168.617 C 238.000 168.984,240.779 165.880,240.791 165.500 C 240.806 165.015,240.666 165.134,239.300 166.780 M163.204 170.157 C 164.285 171.412,171.000 176.003,171.744 175.995 C 171.995 175.993,171.450 175.561,170.533 175.037 C 167.988 173.582,165.152 171.619,163.604 170.242 C 162.221 169.012,162.217 169.011,163.204 170.157 M233.400 172.432 C 231.030 174.224,230.727 174.702,232.880 173.254 C 233.913 172.559,234.869 171.812,235.003 171.595 C 235.374 170.994,235.139 171.117,233.400 172.432 M228.489 175.461 C 227.329 176.039,226.442 176.575,226.519 176.652 C 226.682 176.816,230.800 174.807,230.800 174.564 C 230.800 174.316,230.755 174.333,228.489 175.461 M224.600 177.414 C 223.595 177.898,223.563 177.953,224.400 177.751 C 224.950 177.619,225.571 177.350,225.780 177.155 C 226.298 176.671,226.014 176.733,224.600 177.414 M175.600 177.719 C 176.678 178.334,178.800 178.935,178.800 178.626 C 178.800 178.523,178.215 178.269,177.500 178.062 C 176.785 177.856,175.840 177.566,175.400 177.418 C 174.904 177.251,174.981 177.366,175.600 177.719 M179.233 178.944 C 179.325 179.023,179.940 179.208,180.600 179.356 C 181.476 179.552,181.638 179.515,181.200 179.218 C 180.660 178.853,178.832 178.598,179.233 178.944 M217.024 179.650 C 216.157 179.853,215.347 180.121,215.224 180.245 C 214.901 180.571,218.086 179.962,218.800 179.561 C 219.539 179.146,219.072 179.170,217.024 179.650 M182.800 180.000 C 184.168 180.438,185.219 180.438,184.200 180.000 C 183.760 179.811,183.040 179.662,182.600 179.668 C 181.957 179.677,181.996 179.743,182.800 180.000 M185.633 180.549 C 185.725 180.631,186.700 180.801,187.800 180.928 C 189.149 181.084,189.474 181.049,188.800 180.820 C 187.801 180.480,185.318 180.268,185.633 180.549 M211.400 180.810 C 210.866 181.047,211.198 181.086,212.400 180.927 C 213.390 180.796,214.275 180.624,214.367 180.544 C 214.714 180.243,212.164 180.472,211.400 180.810 M190.687 181.485 C 191.015 181.718,191.218 183.530,191.307 187.016 L 191.438 192.200 191.419 186.833 C 191.403 182.412,191.294 181.437,190.800 181.302 C 190.369 181.185,190.337 181.237,190.687 181.485 M208.575 181.721 C 208.465 182.008,208.431 184.573,208.501 187.421 L 208.626 192.600 208.713 187.133 C 208.776 183.202,208.940 181.610,209.300 181.465 C 209.692 181.307,209.689 181.256,209.287 181.232 C 209.006 181.214,208.685 181.435,208.575 181.721 M104.100 181.900 C 109.105 181.963,117.295 181.963,122.300 181.900 C 127.305 181.836,123.210 181.784,113.200 181.784 C 103.190 181.784,99.095 181.836,104.100 181.900 M92.200 182.400 C 91.908 182.873,92.299 182.873,93.400 182.400 C 94.171 182.069,94.169 182.055,93.324 182.028 C 92.842 182.013,92.336 182.180,92.200 182.400 M133.145 182.548 C 133.885 182.815,135.207 183.636,136.082 184.371 C 137.084 185.212,137.487 185.407,137.169 184.899 C 136.479 183.794,133.623 181.993,132.620 182.030 C 132.045 182.052,132.201 182.206,133.145 182.548 M90.131 183.759 C 89.509 184.287,88.677 185.322,88.283 186.059 C 87.619 187.299,87.618 187.325,88.271 186.400 C 88.660 185.850,89.581 184.815,90.317 184.100 C 91.882 182.582,91.767 182.371,90.131 183.759 M138.446 187.600 C 138.465 187.930,138.624 188.650,138.800 189.200 L 139.120 190.200 139.154 189.200 C 139.173 188.650,139.013 187.930,138.800 187.600 C 138.455 187.067,138.416 187.067,138.446 187.600 M138.854 191.467 C 138.825 191.944,138.696 192.664,138.570 193.067 C 138.352 193.761,138.364 193.762,138.796 193.088 C 139.047 192.697,139.175 191.977,139.081 191.488 C 138.909 190.601,138.909 190.601,138.854 191.467 M191.839 193.400 C 192.303 195.895,195.306 198.600,198.046 198.992 C 199.079 199.140,198.942 199.038,197.468 198.561 C 195.208 197.829,192.772 195.574,192.089 193.581 C 191.667 192.352,191.640 192.332,191.839 193.400 M206.433 195.958 C 205.681 196.971,205.375 197.546,205.752 197.236 C 206.571 196.561,208.147 194.403,207.944 194.235 C 207.865 194.170,207.185 194.945,206.433 195.958 M135.800 197.068 C 134.920 197.857,134.560 198.316,135.000 198.088 C 135.741 197.704,137.951 195.579,137.570 195.617 C 137.476 195.626,136.680 196.279,135.800 197.068 M132.200 198.800 C 131.696 199.017,131.622 199.144,132.000 199.144 C 132.330 199.144,132.960 198.989,133.400 198.800 C 133.904 198.583,133.978 198.456,133.600 198.456 C 133.270 198.456,132.640 198.611,132.200 198.800 M201.800 198.800 C 201.296 199.017,201.222 199.144,201.600 199.144 C 201.930 199.144,202.560 198.989,203.000 198.800 C 203.504 198.583,203.578 198.456,203.200 198.456 C 202.870 198.456,202.240 198.611,201.800 198.800 " stroke="none" fill="#a6b02c" fill-rule="evenodd"></path></g></svg>