<svg width="203" height="203" viewBox="0 0 203 203" fill="none" xmlns="http://www.w3.org/2000/svg">
    <defs>
        <linearGradient id="paint0_linear" x1="137.185" y1="57.9156" x2="139.165" y2="68.2286" gradientUnits="userSpaceOnUse">
            <stop stop-color="#F29E51"/>
            <stop offset="1" stop-color="#FF6600"/>
        </linearGradient>
        <linearGradient id="paint1_linear" x1="143.752" y1="58.8126" x2="146.603" y2="73.6549" gradientUnits="userSpaceOnUse">
            <stop stop-color="#F29E51"/>
            <stop offset="1" stop-color="#FF6600"/>
        </linearGradient>
        <linearGradient id="paint2_linear" x1="139.786" y1="52.0333" x2="140.78" y2="56.771" gradientUnits="userSpaceOnUse">
            <stop stop-color="#F29E51"/>
            <stop offset="1" stop-color="#FF6600"/>
        </linearGradient>
    </defs>
    <rect width="203" height="203" rx="30" fill="white"/>
<path d="M153.1 123.916C153.1 138.116 147.3 150.916 138 160.116C128.9 169.216 116.3 174.716 102.4 174.716C88.6002 174.716 76.0002 169.116 66.8002 160.116C57.5002 150.916 51.7002 138.116 51.7002 123.916C51.7002 95.8161 74.4002 73.1161 102.4 73.1161C130.4 73.1161 153.1 95.9161 153.1 123.916Z" fill="#F1F3F9" stroke="#FFEAD1" stroke-width="2" stroke-miterlimit="10"/>
<path d="M161.951 100.547C161.951 102.535 160.34 104.147 158.351 104.147C156.363 104.147 154.751 102.535 154.751 100.547C154.751 98.5584 156.363 96.9467 158.351 96.9467C160.34 96.9467 161.951 98.5584 161.951 100.547Z" fill="#FFEAD1" stroke="white"/>
<path d="M157 71.8161C157 73.0864 155.97 74.1161 154.7 74.1161C153.43 74.1161 152.4 73.0864 152.4 71.8161C152.4 70.5459 153.43 69.5161 154.7 69.5161C155.97 69.5161 157 70.5459 157 71.8161Z" fill="#FFEAD1" stroke="white"/>
<path d="M55.6 87.716C55.6 88.9863 54.5703 90.016 53.3 90.016C52.0297 90.016 51 88.9863 51 87.716C51 86.4458 52.0297 85.416 53.3 85.416C54.5703 85.416 55.6 86.4458 55.6 87.716Z" fill="#FFEAD1" stroke="white"/>
<path d="M40.9 139.316C40.9 141.912 38.7957 144.016 36.2 144.016C33.6043 144.016 31.5 141.912 31.5 139.316C31.5 136.72 33.6043 134.616 36.2 134.616C38.7957 134.616 40.9 136.72 40.9 139.316Z" fill="#FFEAD1" stroke="white"/>
<path d="M140.844 94.0093L136.674 124.302L131.461 161.733C130.244 162.43 128.854 162.952 127.464 162.952H67.3414C64.7349 162.952 62.476 162.081 60.5646 160.689C60.0433 160.34 59.522 159.818 59.0007 159.296C56.9155 157.207 55.5254 154.073 55.5254 150.765V86.0008C55.5254 83.0411 57.9581 80.7778 60.7383 80.7778H78.9837C80.2 80.7778 81.4164 81.3001 82.459 82.3447L88.367 88.7863C89.2358 89.6568 90.4521 90.1791 91.6685 90.1791H137.369C139.454 90.1791 141.018 91.9201 140.844 94.0093Z" fill="#FFEAD1" stroke="white" stroke-width="2" stroke-miterlimit="10"/>
<path d="M64.3872 156.336L69.2526 100.103C69.4264 98.0135 71.164 96.4467 73.2492 96.4467H142.408C144.319 96.4467 145.709 98.0135 145.535 99.9286L140.67 147.805L64.3872 156.336Z" fill="white" stroke="#FFEAD1" stroke-width="2" stroke-miterlimit="10" stroke-linejoin="round"/>
<path d="M92.0162 150.243L66.6465 156.162L82.2853 113.16C82.9804 111.245 84.718 110.026 86.8032 110.026H148.142C150.401 110.026 151.965 112.464 150.922 114.553L134.241 148.676L92.0162 150.243Z" fill="white" stroke="#FFEAD1" stroke-width="2" stroke-miterlimit="10" stroke-linejoin="round"/>
<path d="M156.83 128.481L133.546 159.818C133.024 160.515 132.156 161.211 131.461 161.733C130.244 162.43 128.854 162.952 127.464 162.952H67.3413C64.7348 162.952 62.4759 162.081 60.5645 160.689L84.8915 132.311H123.12C124.857 132.311 126.595 131.788 127.985 130.57L134.588 125.521C135.283 124.999 135.978 124.65 136.673 124.302C137.542 123.954 138.585 123.78 139.454 123.78H154.398C156.83 123.606 158.22 126.565 156.83 128.481Z" fill="#FFEAD1" stroke="white" stroke-width="2" stroke-miterlimit="10"/>
<path d="M143.879 87.0575L116.602 69.3894C115.034 68.3634 114.576 66.2779 115.597 64.6921L132.536 38.6123C133.564 37.0444 135.651 36.5856 137.237 37.6042L164.515 55.2724C166.083 56.2983 166.54 58.3839 165.52 59.9696L148.588 86.0673C147.56 87.6352 145.447 88.0834 143.879 87.0575Z" fill="#FFEAD1" stroke="white" stroke-width="2" stroke-miterlimit="10"/>
<path d="M144.907 82.1745L120.925 66.6392C120.247 66.2078 120.064 65.3026 120.496 64.625L134.504 43.0612C134.936 42.3837 135.842 42.2003 136.52 42.6318L160.502 58.167C161.18 58.5985 161.363 59.5037 160.93 60.1812L146.923 81.745C146.49 82.4225 145.584 82.6059 144.907 82.1745Z" fill="white"/>
<path d="M138.698 66.5546L129.944 60.8809L137.528 58.755L138.698 66.5546Z" fill="url(#paint0_linear)"/>
<path d="M145.94 71.2413L133.329 63.0812L144.249 60.0269L145.94 71.2413Z" fill="url(#paint1_linear)"/>
<path d="M136.885 55.3484C137.297 56.3544 138.447 56.8355 139.454 56.4231C140.461 56.0106 140.944 54.8608 140.532 53.8548C140.12 52.8488 138.969 52.3677 137.962 52.7801C136.955 53.1926 136.473 54.3425 136.885 55.3484Z" fill="url(#paint2_linear)"/>
<path d="M97.9931 56.0598C97.2366 53.3486 96.1778 50.1598 94.6017 47.793C93.7381 46.4902 92.4216 45.5545 90.8682 45.2033C89.1637 44.8299 87.6322 45.1939 85.9713 45.6009C83.0161 46.2208 80.0826 47.1226 77.2139 48.2196C74.6472 49.1441 71.6274 50.0022 69.579 51.8384C66.6033 54.5605 67.2954 57.9433 68.3545 61.5655C69.111 64.2767 70.1697 67.4655 71.7458 69.8323C73.0197 71.7214 75.2423 72.7898 77.4642 72.5578C80.398 72.3062 86.265 70.5027 89.0905 69.4923C91.5278 68.6108 94.2672 67.7735 96.3158 66.154C99.7445 63.4983 99.1818 60.0725 97.9931 56.0598ZM78.275 55.7428C77.9509 54.7666 78.3605 54.2693 79.3746 54.5107C82.0932 55.1253 84.898 55.7836 87.6166 56.3982C88.6307 56.6395 88.8251 57.2252 88.1784 58.0903C86.3674 60.2089 84.578 62.3926 82.7669 64.5112C82.0339 65.3326 81.4945 65.2227 81.1273 64.3331C80.9976 63.9426 78.5775 56.6539 78.275 55.7428Z" fill="#FF6600" stroke="#FF6600" stroke-width="2" stroke-miterlimit="10"/>
</svg>
