<svg width="204" height="203" viewBox="0 0 204 203" fill="none" xmlns="http://www.w3.org/2000/svg">
<rect x="0.6875" width="203" height="203" rx="30" fill="white"/>
<path d="M107.133 159C139.314 159 165.536 132.886 165.536 100.813C165.428 68.6315 139.314 42.5178 107.133 42.5178C74.8427 42.5178 48.7291 68.6315 48.7291 100.705C48.7291 132.886 74.8427 159 107.133 159Z" fill="#F1F3F9" stroke="#FFEAD1" stroke-width="2" stroke-miterlimit="10"/>
<path d="M166.945 80.4423C169.398 80.4423 171.387 78.4533 171.387 75.9997C171.387 73.5461 169.398 71.5571 166.945 71.5571C164.491 71.5571 162.502 73.5461 162.502 75.9997C162.502 78.4533 164.491 80.4423 166.945 80.4423Z" fill="#F1F3F9"/>
<path d="M173.446 63.1054C175.122 63.1054 176.48 61.747 176.48 60.0714C176.48 58.3958 175.122 57.0375 173.446 57.0375C171.77 57.0375 170.412 58.3958 170.412 60.0714C170.412 61.747 171.77 63.1054 173.446 63.1054Z" fill="#F1F3F9"/>
<path d="M43.745 139.821C46.8568 139.821 49.3794 137.298 49.3794 134.187C49.3794 131.075 46.8568 128.552 43.745 128.552C40.6331 128.552 38.1105 131.075 38.1105 134.187C38.1105 137.298 40.6331 139.821 43.745 139.821Z" fill="#F1F3F9"/>
<path d="M92.7736 115.691C92.7736 120.729 88.6993 124.803 83.6174 124.803C83.5298 124.803 82.785 124.803 77.3088 124.803C73.4974 124.803 67.4079 124.803 57.6822 124.803H53.0384C46.9489 124.935 42.086 120.072 42.086 114.201C42.086 108.287 46.9927 103.38 53.1698 103.687C58.4707 87.127 82.7412 89.4489 84.8003 106.578C89.3564 107.148 92.7736 111.003 92.7736 115.691Z" fill="white" stroke="#FFEAD1" stroke-width="2" stroke-miterlimit="10"/>
<path d="M84.6684 106.622C84.3179 106.578 83.9675 106.578 83.617 106.578C81.8208 106.578 80.1122 107.104 78.6665 108.024" fill="white"/>
<path d="M84.6684 106.622C84.3179 106.578 83.9675 106.578 83.617 106.578C81.8208 106.578 80.1122 107.104 78.6665 108.024" stroke="#FFEAD1" stroke-width="2" stroke-miterlimit="10" stroke-linecap="round"/>
<path d="M53.1694 103.687C52.6437 105.264 52.3808 106.929 52.3808 108.681C52.3808 109.382 52.4246 110.039 52.5122 110.696" fill="white"/>
<path d="M53.1694 103.687C52.6437 105.264 52.3808 106.929 52.3808 108.681C52.3808 109.382 52.4246 110.039 52.5122 110.696" stroke="#FFEAD1" stroke-width="2" stroke-miterlimit="10" stroke-linecap="round" stroke-linejoin="round"/>
<path d="M94.6534 69.2802C94.6534 75.8369 89.3511 81.1393 82.7374 81.1393C82.6233 81.1393 81.6541 81.1393 74.5273 81.1393C69.567 81.1393 61.642 81.1393 48.9847 81.1393H42.9412C35.0161 81.3103 28.6875 74.9817 28.6875 67.3418C28.6875 59.6448 35.0731 53.2591 43.1122 53.6582C50.011 32.1067 81.5971 35.1285 84.2768 57.4212C90.2063 58.1624 94.6534 63.1797 94.6534 69.2802Z" fill="white" stroke="#FFEAD1" stroke-width="2" stroke-miterlimit="10"/>
<path d="M84.1062 57.4783C83.6501 57.4213 83.1939 57.4213 82.7378 57.4213C80.4002 57.4213 78.1766 58.1054 76.2952 59.3027" fill="white"/>
<path d="M84.1062 57.4783C83.6501 57.4213 83.1939 57.4213 82.7378 57.4213C80.4002 57.4213 78.1766 58.1054 76.2952 59.3027" stroke="#FFEAD1" stroke-width="2" stroke-miterlimit="10" stroke-linecap="round"/>
<path d="M43.1122 53.6582C42.428 55.7107 42.0859 57.8773 42.0859 60.1579C42.0859 61.0701 42.143 61.9253 42.257 62.7805" fill="white"/>
<path d="M43.1122 53.6582C42.428 55.7107 42.0859 57.8773 42.0859 60.1579C42.0859 61.0701 42.143 61.9253 42.257 62.7805" stroke="#FFEAD1" stroke-width="2" stroke-miterlimit="10" stroke-linecap="round" stroke-linejoin="round"/>
<ellipse cx="102.467" cy="87.0495" rx="24.4477" ry="21.5652" fill="#FDFDFE"/>
<path d="M86.9312 89.9874C86.9312 79.8372 95.1998 71.5849 105.37 71.5849C115.54 71.5849 123.809 79.8372 123.809 89.9874C123.809 100.138 115.54 108.39 105.37 108.39C95.1998 108.39 86.9312 100.22 86.9312 89.9874ZM105.37 55.163C85.3602 55.163 69.071 71.4199 69.071 91.3903C69.071 105.914 88.2542 133.394 98.7553 143.627C101.07 145.855 104.213 146.763 107.189 146.185C107.437 146.185 107.603 146.103 107.851 146.02C107.933 146.02 108.016 146.02 108.099 145.938C109.504 145.525 110.91 144.7 112.068 143.627C120.832 135.045 135.633 112.599 140.264 99.0649C140.925 97.0843 141.421 95.1038 141.587 93.2058C141.669 92.5456 141.669 91.9679 141.669 91.3078C141.669 71.4199 125.463 55.163 105.37 55.163Z" fill="#FF6600" stroke="white" stroke-width="2" stroke-miterlimit="10"/>
<path d="M105.37 154.85C90.0729 154.85 74.528 150.806 74.528 143.132C74.528 141.069 75.6856 138.098 81.2255 135.54C82.3004 135.045 83.458 135.54 83.9541 136.53C84.4503 137.603 83.9541 138.758 82.9619 139.253C79.7372 140.739 78.6622 142.224 78.6622 143.049C78.6622 146.185 89.0807 150.641 105.37 150.641C121.659 150.641 132.077 146.103 132.077 143.049C132.077 141.976 130.506 140.243 126.207 138.593C125.132 138.18 124.636 137.025 125.049 135.952C125.462 134.88 126.62 134.384 127.695 134.797C134.723 137.52 136.212 140.821 136.212 143.132C136.212 150.806 120.667 154.85 105.37 154.85Z" fill="white" stroke="#FF6600" stroke-width="2" stroke-miterlimit="10"/>
<path d="M171.388 120.683C171.388 125.721 167.314 129.796 162.232 129.796C162.145 129.796 161.4 129.796 155.924 129.796C152.112 129.796 146.023 129.796 136.297 129.796H131.653C125.564 129.927 120.701 125.064 120.701 119.194C120.701 113.28 125.607 108.373 131.785 108.68C137.086 92.1195 161.356 94.4414 163.415 111.571C167.971 112.14 171.388 115.996 171.388 120.683Z" fill="white" stroke="#FFEAD1" stroke-width="2" stroke-miterlimit="10"/>
<path d="M163.283 111.615C162.932 111.571 162.582 111.571 162.231 111.571C160.435 111.571 158.727 112.097 157.281 113.017" fill="white"/>
<path d="M163.283 111.615C162.932 111.571 162.582 111.571 162.231 111.571C160.435 111.571 158.727 112.097 157.281 113.017" stroke="#FFEAD1" stroke-width="2" stroke-miterlimit="10" stroke-linecap="round"/>
<path d="M131.784 108.68C131.258 110.257 130.995 111.921 130.995 113.674C130.995 114.375 131.039 115.032 131.127 115.689" fill="white"/>
<path d="M131.784 108.68C131.258 110.257 130.995 111.921 130.995 113.674C130.995 114.375 131.039 115.032 131.127 115.689" stroke="#FFEAD1" stroke-width="2" stroke-miterlimit="10" stroke-linecap="round" stroke-linejoin="round"/>
</svg>
