<svg width="203" height="203" viewBox="0 0 203 203" fill="none" xmlns="http://www.w3.org/2000/svg">
    <defs>
        <linearGradient id="paint0_linear" x1="68.151" y1="78.118" x2="68.151" y2="76.4653" gradientUnits="userSpaceOnUse">
            <stop stop-color="white"/>
            <stop offset="1" stop-color="#E2E5EC"/>
        </linearGradient>
        <linearGradient id="paint1_linear" x1="68.151" y1="143.718" x2="68.151" y2="142.065" gradientUnits="userSpaceOnUse">
            <stop stop-color="white"/>
            <stop offset="1" stop-color="#E2E5EC"/>
        </linearGradient>
        <linearGradient id="paint2_linear" x1="53.7012" y1="110.278" x2="53.7012" y2="109.176" gradientUnits="userSpaceOnUse">
            <stop stop-color="white"/>
            <stop offset="1" stop-color="#E2E5EC"/>
        </linearGradient>
    </defs>
    <rect width="203" height="203" rx="30" fill="white"/>
<path d="M97.7 157.6C125.7 157.6 148.4 134.9 148.4 106.8C148.4 78.7 125.7 56 97.7 56C69.7 56 47 78.7 47 106.8C47 134.9 69.7 157.6 97.7 157.6Z" fill="#F1F3F9" stroke="#FFEAD1" stroke-width="2" stroke-miterlimit="10"/>
<path d="M154.2 85.8997C156.464 85.8997 158.3 84.0641 158.3 81.7997C158.3 79.5353 156.464 77.6997 154.2 77.6997C151.935 77.6997 150.1 79.5353 150.1 81.7997C150.1 84.0641 151.935 85.8997 154.2 85.8997Z" fill="white"/>
<path d="M160.2 69.7997C161.747 69.7997 163 68.5461 163 66.9997C163 65.4533 161.747 64.1997 160.2 64.1997C158.654 64.1997 157.4 65.4533 157.4 66.9997C157.4 68.5461 158.654 69.7997 160.2 69.7997Z" fill="white"/>
<path d="M43.5002 88.7997C45.0466 88.7997 46.3002 87.5461 46.3002 85.9997C46.3002 84.4533 45.0466 83.1997 43.5002 83.1997C41.9538 83.1997 40.7002 84.4533 40.7002 85.9997C40.7002 87.5461 41.9538 88.7997 43.5002 88.7997Z" fill="#EAEEF9"/>
<path d="M48.7 149.7C51.5719 149.7 53.9 147.372 53.9 144.5C53.9 141.628 51.5719 139.3 48.7 139.3C45.8281 139.3 43.5 141.628 43.5 144.5C43.5 147.372 45.8281 149.7 48.7 149.7Z" fill="white"/>
<path d="M144.7 86.4997H57.9996C56.0996 86.4997 54.5996 84.9997 54.5996 83.0997V63.5997C54.5996 61.6997 56.0996 60.1997 57.9996 60.1997H144.6C146.5 60.1997 148 61.6997 148 63.5997V83.0997C148.1 84.9997 146.5 86.4997 144.7 86.4997Z" fill="white" stroke="#FFEAD1" stroke-width="2" stroke-miterlimit="10"/>
<path d="M75.5996 73.2997C75.5996 75.4997 74.5996 77.4997 73.0996 78.8997C71.7996 80.0997 69.9996 80.7997 68.0996 80.7997C66.1996 80.7997 64.3996 80.0997 63.0996 78.8997C61.4996 77.4997 60.5996 75.4997 60.5996 73.2997C60.5996 69.1997 63.9996 65.7997 68.0996 65.7997C72.1996 65.7997 75.5996 69.1997 75.5996 73.2997Z" fill="#FFEAD1"/>
<path d="M73.0996 78.8997C71.7996 80.0997 69.9996 80.7997 68.0996 80.7997C66.1996 80.7997 64.3996 80.0997 63.0996 78.8997C63.6996 78.6997 64.3996 78.3997 65.2996 77.9997C65.4996 77.8997 65.6996 77.6997 65.7996 77.4997C65.8996 77.3997 65.8996 77.1997 65.8996 77.0997V75.1997L65.7996 75.0997C65.5996 74.8997 65.4996 74.5997 65.4996 74.2997L65.2996 74.1997C64.7996 74.2997 64.8996 73.7997 64.6996 72.7997C64.6996 72.3997 64.6996 72.2997 64.8996 72.1997L65.0996 71.9997C64.1996 69.8997 64.5996 68.5997 65.5996 68.0997C65.2996 67.3997 65.2996 67.1997 65.2996 67.1997C65.2996 67.1997 67.2996 67.4997 67.8996 67.3997C68.7996 67.1997 70.0996 67.3997 70.5996 68.5997C71.3996 68.8997 71.6996 69.3997 71.7996 69.9997C71.8996 70.8997 71.3996 71.8997 71.2996 72.1997C71.3996 72.2997 71.4996 72.3997 71.3996 72.6997C71.2996 73.5997 71.2996 74.1997 70.7996 74.0997L70.3996 74.9997C70.3996 75.0997 70.3996 75.0997 70.3996 75.1997C70.3996 75.2997 70.3996 75.5997 70.3996 77.1997C70.3996 77.3997 70.4996 77.5997 70.4996 77.6997C70.5996 77.8997 70.7996 77.9997 70.8996 78.0997C71.7996 78.3997 72.4996 78.6997 73.0996 78.8997Z" fill="white"/>
<path d="M71.3259 72.2997C71.3259 72.0916 71.2218 71.7793 71.1177 71.5711V71.4671C70.7014 70.6344 69.8688 70.3222 69.0361 70.3222C66.9545 70.2181 66.7463 70.6344 66.0177 70.0099C66.2259 70.3222 66.2259 70.8426 65.9136 71.4671C65.7055 71.8834 65.2892 72.0916 64.8728 72.1956C63.9361 70.0099 64.3524 68.6569 65.3932 68.1364C65.081 67.4079 65.081 67.1997 65.081 67.1997C65.081 67.1997 67.1626 67.512 67.7871 67.4079C68.7239 67.1997 70.0769 67.4079 70.5973 68.6569C71.43 68.9691 71.7422 69.4895 71.8463 70.114C71.9504 70.8426 71.43 71.8834 71.3259 72.2997Z" fill="#FF6600"/>
<path d="M70.4996 77.6997V78.0997H65.7996V77.5997C65.8996 77.4997 65.8996 77.2997 65.8996 77.1997V75.2997L65.7996 75.1997V75.0997C65.8996 75.2997 65.9996 75.3997 66.1996 75.5997L67.6996 76.5997C67.9996 76.8997 68.4996 76.8997 68.8996 76.5997L70.2996 75.3997L70.3996 75.2997C70.3996 75.3997 70.3996 75.6997 70.3996 77.2997C70.2996 77.3997 70.3996 77.4997 70.4996 77.6997Z" fill="url(#paint0_linear)"/>
<path d="M100.2 71.0998H80.9996C80.4996 71.0998 80.1996 70.6998 80.1996 70.2998V67.7998C80.1996 67.2998 80.5996 66.9998 80.9996 66.9998H100.2C100.7 66.9998 101 67.3998 101 67.7998V70.2998C101 70.7998 100.7 71.0998 100.2 71.0998Z" fill="#FFEAD1"/>
<path d="M123 79.5998H80.9996C80.4996 79.5998 80.1996 79.1998 80.1996 78.7998V76.2998C80.1996 75.7998 80.5996 75.4998 80.9996 75.4998H123C123.5 75.4998 123.8 75.8998 123.8 76.2998V78.7998C123.8 79.2998 123.4 79.5998 123 79.5998Z" fill="#FFEAD1"/>
<path d="M144.7 152.1H57.9996C56.0996 152.1 54.5996 150.6 54.5996 148.7V129.2C54.5996 127.3 56.0996 125.8 57.9996 125.8H144.6C146.5 125.8 148 127.3 148 129.2V148.7C148.1 150.6 146.5 152.1 144.7 152.1Z" fill="white" stroke="#FFEAD1" stroke-width="2" stroke-miterlimit="10"/>
<path d="M75.5996 138.9C75.5996 141.1 74.5996 143.1 73.0996 144.5C71.7996 145.7 69.9996 146.4 68.0996 146.4C66.1996 146.4 64.3996 145.7 63.0996 144.5C61.4996 143.1 60.5996 141.1 60.5996 138.9C60.5996 134.8 63.9996 131.4 68.0996 131.4C72.1996 131.4 75.5996 134.8 75.5996 138.9Z" fill="#FFEAD1"/>
<path d="M73.0996 144.5C71.7996 145.7 69.9996 146.4 68.0996 146.4C66.1996 146.4 64.3996 145.7 63.0996 144.5C63.6996 144.3 64.3996 144 65.2996 143.6C65.4996 143.5 65.6996 143.3 65.7996 143.1C65.8996 143 65.8996 142.8 65.8996 142.7V140.8L65.7996 140.7C65.5996 140.5 65.4996 140.2 65.4996 139.9L65.2996 139.8C64.7996 139.9 64.8996 139.4 64.6996 138.4C64.6996 138 64.6996 137.9 64.8996 137.8L65.0996 137.6C64.1996 135.5 64.5996 134.2 65.5996 133.7C65.2996 133 65.2996 132.8 65.2996 132.8C65.2996 132.8 67.2996 133.1 67.8996 133C68.7996 132.8 70.0996 133 70.5996 134.2C71.3996 134.5 71.6996 135 71.7996 135.6C71.8996 136.5 71.3996 137.5 71.2996 137.8C71.3996 137.9 71.4996 138 71.3996 138.3C71.2996 139.2 71.2996 139.8 70.7996 139.7L70.3996 140.5C70.3996 140.6 70.3996 140.6 70.3996 140.7C70.3996 140.8 70.3996 141.1 70.3996 142.7C70.3996 142.9 70.4996 143.1 70.4996 143.2C70.5996 143.4 70.7996 143.5 70.8996 143.6C71.7996 144.1 72.4996 144.3 73.0996 144.5Z" fill="white"/>
<path d="M71.3259 137.9C71.3259 137.692 71.2218 137.379 71.1177 137.171V137.067C70.7014 136.235 69.8688 135.922 69.0361 135.922C66.9545 135.818 66.7463 136.235 66.0177 135.61C66.2259 135.922 66.2259 136.443 65.9136 137.067C65.7055 137.483 65.2892 137.692 64.8728 137.796C63.9361 135.61 64.3524 134.257 65.3932 133.737C65.081 133.008 65.081 132.8 65.081 132.8C65.081 132.8 67.1626 133.112 67.7871 133.008C68.7239 132.8 70.0769 133.008 70.5973 134.257C71.43 134.569 71.7422 135.09 71.8463 135.714C71.9504 136.547 71.43 137.483 71.3259 137.9Z" fill="#FF6600"/>
<path d="M70.4996 143.3V143.7H65.7996V143.2C65.8996 143.1 65.8996 142.9 65.8996 142.8V140.9L65.7996 140.8V140.7C65.8996 140.9 65.9996 141 66.1996 141.2L67.6996 142.2C67.9996 142.5 68.4996 142.5 68.8996 142.2L70.2996 141L70.3996 140.9C70.3996 141 70.3996 141.3 70.3996 142.9C70.2996 143 70.3996 143.2 70.4996 143.3Z" fill="url(#paint1_linear)"/>
<path d="M100.2 136.8H80.9996C80.4996 136.8 80.1996 136.4 80.1996 136V133.5C80.1996 133 80.5996 132.7 80.9996 132.7H100.2C100.7 132.7 101 133.1 101 133.5V136C101 136.4 100.7 136.8 100.2 136.8Z" fill="#FFEAD1"/>
<path d="M123 145.3H80.9996C80.4996 145.3 80.1996 144.9 80.1996 144.5V142C80.1996 141.5 80.5996 141.2 80.9996 141.2H123C123.5 141.2 123.8 141.6 123.8 142V144.5C123.8 144.9 123.4 145.3 123 145.3Z" fill="#FFEAD1"/>
<path d="M130 119.3H43.4C41.5 119.3 40 117.8 40 115.9V96.4C40 94.5 41.5 93 43.4 93H130C131.9 93 133.4 94.5 133.4 96.4V115.9C133.5 117.8 131.9 119.3 130 119.3Z" fill="white" stroke="#FF6600" stroke-width="2" stroke-miterlimit="10"/>
<path d="M85.6 103.9H66.4C65.9 103.9 65.6 103.5 65.6 103.1V100.6C65.6 100.1 66 99.8 66.4 99.8H85.6C86.1 99.8 86.4 100.2 86.4 100.6V103.1C86.4 103.6 86.1 103.9 85.6 103.9Z" fill="#FFEAD1"/>
<path d="M108.4 112.5H66.4C65.9 112.5 65.6 112.1 65.6 111.7V109.2C65.6 108.7 66 108.4 66.4 108.4H108.3C108.8 108.4 109.1 108.8 109.1 109.2V111.7C109.2 112.1 108.8 112.5 108.4 112.5Z" fill="#FFEAD1"/>
<path d="M61.1 106.1C61.1 108.2 60.2 110.1 58.8 111.5C58.7 111.6 58.7 111.6 58.6 111.7C57.3 112.9 55.5 113.6 53.6 113.6C51.7 113.6 50 112.9 48.7 111.8C48.7 111.8 48.7 111.8 48.6 111.8C47 110.4 46 108.4 46 106.1C46 102 49.4 98.6 53.5 98.6C57.7 98.6 61.1 102 61.1 106.1Z" fill="#FFEAD1"/>
<path d="M58.7707 111.652C58.4664 110.942 57.9594 110.334 57.1481 109.928C56.7425 109.725 56.4383 109.624 55.9312 109.624H55.627C54.9171 109.624 54.8157 109.523 54.8157 109.523V108.306C55.627 107.697 56.2354 106.886 56.4383 105.973C56.9453 105.872 57.2495 105.466 57.1481 104.959C57.1481 104.756 56.9453 104.554 56.9453 104.351C56.9453 104.249 56.9453 104.148 56.9453 104.046C56.9453 103.945 56.9453 103.945 56.9453 103.844C56.9453 103.742 56.9453 103.742 56.9453 103.641C56.9453 103.235 56.8439 102.931 56.5397 102.525C55.9312 101.41 54.7143 100.7 53.396 100.7C53.0917 100.7 52.8889 100.7 52.5847 100.801C52.0776 100.903 51.672 101.106 51.2664 101.41C51.1649 101.511 51.1649 101.511 51.0635 101.613C51.0635 101.613 51.0635 101.613 50.9621 101.714C50.5565 102.12 50.2523 102.627 50.0494 103.134C49.8466 103.641 49.8466 104.249 49.8466 104.858C49.8466 104.858 49.8466 104.858 49.8466 104.959C49.8466 105.061 49.8466 105.061 49.8466 105.162C49.8466 105.162 49.8466 105.263 49.7452 105.263C49.948 105.061 49.8466 105.365 49.948 105.568C50.1508 106.075 50.4551 105.973 50.8607 106.277C50.8607 106.277 50.8607 106.277 50.7593 106.277L50.3537 106.379C48.1226 107.089 47.9198 109.421 50.1508 109.928C49.948 110.03 49.8466 110.131 49.7452 110.131C49.1367 110.638 48.7311 111.247 48.5283 111.855C49.8466 112.971 51.5706 113.68 53.4974 113.68C55.4242 113.68 57.2495 112.971 58.5679 111.754C58.6693 111.855 58.7707 111.754 58.7707 111.652C58.8721 111.652 58.8721 111.652 58.7707 111.652ZM52.4833 109.218C52.3819 109.117 52.2805 109.016 52.2805 109.016C52.179 108.914 52.0776 108.914 51.9762 108.813C51.9762 108.813 51.8748 108.813 51.8748 108.711C51.5706 108.509 51.2664 108.306 51.1649 108.001C51.1649 107.9 51.2664 107.697 51.4692 107.494C51.5706 107.596 51.672 107.697 51.7734 107.9C51.8748 108.001 51.9762 108.103 52.0776 108.204C52.179 108.204 52.2805 108.306 52.2805 108.407C52.2805 108.407 52.2805 108.407 52.3819 108.407C52.3819 108.407 52.3819 108.407 52.4833 108.407V109.218Z" fill="white"/>
<path d="M55.75 109.566C55.65 109.966 55.45 110.266 55.45 110.266L51.65 109.666L51.85 108.666C51.85 108.666 51.95 108.666 51.95 108.766C52.05 108.866 52.15 108.866 52.25 108.966C52.35 108.966 52.35 109.066 52.45 109.166V108.466C52.45 108.466 52.45 108.466 52.35 108.466C52.95 108.766 53.75 108.966 54.85 108.266V109.466C54.95 109.466 55.05 109.566 55.75 109.566Z" fill="url(#paint2_linear)"/>
<path d="M54.9598 103.988C55.6732 103.988 56.3866 103.887 56.9981 103.683C56.9981 103.683 56.9981 103.581 57.1 103.479C56.9981 103.173 56.8962 102.765 56.6923 102.358C56.0809 101.237 54.8579 100.523 53.533 100.523C53.2272 100.523 52.934 100.545 52.525 100.647C51.9808 100.813 51.7281 100.96 51.5992 101.038C51.5992 101.038 51.3013 101.238 51.087 101.441C50.8727 101.643 50.3736 102.358 50.1698 102.867C49.9659 103.479 49.8015 103.999 49.9034 104.61C50.0053 104.61 50.1698 104.498 50.2717 104.498C51.087 104.09 51.6985 103.581 52.0043 102.765C52.8196 103.479 53.8387 103.887 54.9598 103.988Z" fill="#FF6600"/>
<path d="M51.5 107.6C51.6 107.7 51.7 107.8 51.8 107.9C51.7 107.8 51.6 107.7 51.5 107.6Z" fill="#3973F4"/>
<path d="M52.9 111.3C52.6 111.7 52.1 111.7 51.6 111.7C52.1 111.2 51.8 109.7 50.2 109.9C47.9 109.5 48.2 107.1 50.4 106.4L50.8 106.3C50.8 106.3 50.8 106.3 50.9 106.4C51.1 106.9 51.3 107.2 51.6 107.6C50.7 108.4 52 108.6 52.6 109.2C53 109.4 53.4 110.7 52.9 111.3Z" fill="#FF6600"/>
</svg>
