<svg width="203" height="203" viewBox="0 0 203 203" fill="none" xmlns="http://www.w3.org/2000/svg">
    <defs>
        <linearGradient id="paint0_linear" x1="96.0283" y1="54.8752" x2="115.941" y2="74.1839" gradientUnits="userSpaceOnUse">
            <stop stop-color="#F29E51"/>
            <stop offset="1" stop-color="#FF6600"/>
        </linearGradient>
        <linearGradient id="paint1_linear" x1="111.584" y1="96.3473" x2="118.214" y2="97.1119" gradientUnits="userSpaceOnUse">
            <stop stop-color="#83A6FF"/>
            <stop offset="1" stop-color="#5A78FF"/>
        </linearGradient>
    </defs>
    <rect width="203" height="203" rx="30" fill="white"/>
<path d="M100.734 153C129.586 153 153.095 129.588 153.095 100.833C153.095 71.9814 129.683 48.6666 100.734 48.6666C71.7848 48.5694 48.3728 71.8842 48.3728 100.736C48.3728 129.588 71.7848 153 100.734 153Z" fill="#F1F3F9" stroke="#FFEAD1" stroke-width="2" stroke-miterlimit="10"/>
<path d="M91.5046 82.5703L90.1446 78.7816C89.8532 77.8102 88.8817 77.2273 87.9103 77.2273H64.0126C61.9725 77.2273 60.4182 78.7816 60.4182 80.8217V134.349V125.508H142.02V87.719C142.02 85.6789 140.466 84.1246 138.426 84.1246H93.739C92.7675 84.1246 91.8932 83.5417 91.5046 82.5703Z" fill="white" stroke="#FFEAD1" stroke-width="2" stroke-miterlimit="10"/>
<path d="M62.7749 65.0582L79.0953 93.4245C79.581 94.396 79.2896 95.6589 78.3181 96.1446L50.5347 111.688C49.5632 112.174 48.3003 111.882 47.8146 110.911L27.317 74.1898C26.637 73.2184 27.1227 71.9555 28.0942 71.4698L48.3003 60.2009L62.7749 65.0582Z" fill="white" stroke="#FFEAD1" stroke-width="2" stroke-miterlimit="10"/>
<path d="M47.8962 67.6006C47.8949 67.6067 47.8935 67.6119 47.8921 67.6164L47.8621 67.6331L34.4561 75.1132L34.4389 75.1229L34.4224 75.1338C34.4184 75.1365 34.4063 75.1428 34.3855 75.1456C34.3647 75.1485 34.3438 75.1467 34.3271 75.142C34.3186 75.1395 34.3131 75.1369 34.31 75.1351L34.2895 75.0531L34.2415 74.9811C34.2388 74.977 34.2311 74.9628 34.2269 74.9359C34.2228 74.909 34.2237 74.8794 34.2293 74.8532C34.2307 74.847 34.2321 74.8417 34.2335 74.8372L34.2609 74.8221L47.667 67.4391L47.6855 67.4289L47.7031 67.4171C47.7072 67.4144 47.7214 67.4068 47.7483 67.4026C47.7752 67.3984 47.8048 67.3994 47.831 67.405C47.8358 67.406 47.8401 67.4071 47.844 67.4082L47.8469 67.417L47.884 67.4727C47.8868 67.4768 47.8944 67.4911 47.8986 67.518C47.9027 67.5448 47.9018 67.5744 47.8962 67.6006Z" fill="#D6DCE8" stroke="#FFEAD1"/>
<path d="M41.3736 75.4913L41.3654 75.4954L41.3572 75.4998L36.2085 78.317L36.1894 78.3275L36.1712 78.3397C36.1559 78.3499 36.1414 78.3544 36.13 78.356L36.1246 78.3398L36.0874 78.284C36.0847 78.28 36.0771 78.2657 36.0729 78.2388C36.0687 78.212 36.0697 78.1824 36.0753 78.1561C36.0766 78.1501 36.078 78.1449 36.0794 78.1404L36.1092 78.1238L41.1608 75.3066L41.1781 75.2969L41.1946 75.2859C41.1987 75.2832 41.2129 75.2755 41.2398 75.2714C41.2667 75.2672 41.2962 75.2682 41.3225 75.2738C41.3273 75.2748 41.3316 75.2759 41.3354 75.277L41.3714 75.385L41.4433 75.4329C41.4299 75.4522 41.4079 75.4741 41.3736 75.4913Z" fill="#D6DCE8" stroke="#FFEAD1"/>
<mask id="path-7-inside-1" fill="white">
<path d="M48.3008 60.2009L52.7695 68.0697C53.4495 69.1383 54.9066 69.5268 55.9752 68.944L63.0668 65.0582"/>
</mask>
<path d="M48.3008 60.2009L52.7695 68.0697C53.4495 69.1383 54.9066 69.5268 55.9752 68.944L63.0668 65.0582" fill="white"/>
<path d="M52.7695 68.0697L51.8999 68.5635L51.9123 68.5854L51.9258 68.6066L52.7695 68.0697ZM55.9752 68.944L56.4541 69.8219L56.4558 69.821L55.9752 68.944ZM47.4312 60.6948L51.8999 68.5635L53.639 67.5759L49.1703 59.7071L47.4312 60.6948ZM51.9258 68.6066C52.8763 70.1002 54.9043 70.6672 56.4541 69.8219L55.4964 68.0661C54.909 68.3865 54.0226 68.1763 53.6131 67.5328L51.9258 68.6066ZM56.4558 69.821L63.5474 65.9352L62.5863 64.1812L55.4947 68.067L56.4558 69.821Z" fill="#FFEAD1" mask="url(#path-7-inside-1)"/>
<path d="M63.979 82.5735L63.9824 82.5803L63.986 82.587C64.6619 83.8423 65.15 84.9764 65.2268 86.041C65.3008 87.0665 64.9955 88.0679 63.9755 89.0879L63.9559 89.1075L63.9386 89.1291C63.4039 89.7976 62.7015 90.3463 61.9189 90.8562C61.5285 91.1105 61.1241 91.3515 60.7147 91.5926C60.6573 91.6264 60.5997 91.6603 60.542 91.6942C60.1923 91.8998 59.8395 92.1072 59.5004 92.3191C58.6343 92.8483 57.2621 93.6426 55.8557 94.3638C54.4352 95.0923 53.0256 95.722 52.0701 95.9495L52.0533 95.9535L52.0368 95.9587C50.6627 96.3881 49.3014 96.0501 48.2651 95.0138C46.8678 93.6165 45.7313 91.6374 44.8615 89.8979C44.279 88.7329 43.8042 87.6562 43.6588 86.6158C43.5177 85.6066 43.6861 84.6267 44.4211 83.6277C45.5269 82.2713 47.191 81.2972 48.7658 80.3753C48.89 80.3026 49.0137 80.2302 49.1365 80.158L49.1433 80.1539L49.15 80.1497C50.9633 79.0045 52.7815 78.1422 54.8115 77.2722L54.825 77.2664L54.8381 77.2599C55.9787 76.6896 56.9642 76.3412 58.0146 76.3412C59.0268 76.3412 59.8761 76.7583 60.5754 77.4576C61.9727 78.8549 63.1092 80.834 63.979 82.5735ZM50.3787 85.0021L50.3873 85.0193L50.3971 85.0358C50.4748 85.1652 50.7264 85.6135 51.0591 86.2063C51.333 86.6942 51.6617 87.2799 51.9936 87.8663C52.3582 88.5104 52.7243 89.151 53.018 89.6497C53.1646 89.8987 53.295 90.1154 53.3992 90.2807C53.4511 90.363 53.4986 90.4361 53.5397 90.4955C53.5632 90.5294 53.5944 90.5735 53.6293 90.6154C53.8378 90.9388 54.1739 91.1926 54.6075 91.1671C55.0353 91.1419 55.3759 90.8522 55.6134 90.496L55.6247 90.4792L55.6345 90.4615C56.6065 88.7118 57.575 86.9687 58.5427 85.3235L58.5588 85.2961L58.5713 85.2669C58.7305 84.8956 58.8417 84.4242 58.6012 84.0234C58.3531 83.6099 57.8763 83.5035 57.4448 83.5014C56.47 83.4529 55.4963 83.4285 54.5176 83.4044L54.4831 83.4035C53.5157 83.3796 52.5428 83.3556 51.5476 83.3085C51.0823 83.2549 50.592 83.3546 50.3364 83.7806C50.0967 84.1801 50.2027 84.6502 50.3787 85.0021Z" fill="white" stroke="#FFEAD1"/>
<path d="M162 77.7824L154.145 109.552C153.824 110.589 152.739 111.299 151.702 110.977L120.891 102.965C119.853 102.643 119.144 101.559 119.465 100.522L130.088 59.8309C130.269 58.6591 131.494 58.0838 132.531 58.4056L154.915 64.2581L162 77.7824Z" fill="white" stroke="#FFEAD1" stroke-width="2" stroke-miterlimit="10"/>
<path d="M149.501 69.3192C149.496 69.3227 149.492 69.3255 149.488 69.3278L149.454 69.3191L134.601 65.4389L134.582 65.4339L134.563 65.4304C134.558 65.4296 134.545 65.4257 134.528 65.4134C134.511 65.4011 134.497 65.3853 134.488 65.3703C134.484 65.3627 134.482 65.357 134.481 65.3536L134.523 65.2802L134.538 65.1949C134.539 65.1901 134.543 65.1746 134.559 65.1523C134.574 65.13 134.595 65.1093 134.617 65.0942C134.623 65.0907 134.627 65.0879 134.632 65.0856L134.662 65.0937L149.448 69.044L149.468 69.0494L149.489 69.0532C149.494 69.054 149.509 69.0584 149.532 69.074C149.554 69.0895 149.575 69.1107 149.59 69.1329C149.593 69.137 149.595 69.1408 149.597 69.1442L149.593 69.1526L149.581 69.2185C149.58 69.2234 149.576 69.2389 149.56 69.2612C149.545 69.2835 149.524 69.3042 149.501 69.3192Z" fill="#D6DCE8" stroke="#FFEAD1"/>
<path d="M139.333 70.4996L139.324 70.4969L139.315 70.4945L133.649 68.9641L133.628 68.9584L133.606 68.9546C133.588 68.9514 133.575 68.9446 133.565 68.9379L133.573 68.9224L133.584 68.8565C133.585 68.8516 133.59 68.8361 133.605 68.8138C133.621 68.7915 133.642 68.7708 133.664 68.7558C133.669 68.7523 133.674 68.7495 133.678 68.7472L133.711 68.7559L139.307 70.219L139.326 70.224L139.346 70.2275C139.351 70.2284 139.366 70.2327 139.388 70.2483C139.411 70.2639 139.431 70.2851 139.446 70.3073C139.449 70.3114 139.452 70.3151 139.454 70.3186L139.405 70.4215L139.423 70.5057C139.4 70.5104 139.369 70.511 139.333 70.4996Z" fill="#D6DCE8" stroke="#FFEAD1"/>
<mask id="path-13-inside-2" fill="white">
<path d="M154.915 64.2581L152.694 73.0303C152.445 74.2723 153.228 75.5613 154.402 75.8803L162.21 77.9841"/>
</mask>
<path d="M154.915 64.2581L152.694 73.0303C152.445 74.2723 153.228 75.5613 154.402 75.8803L162.21 77.9841" fill="white"/>
<path d="M152.694 73.0303L151.724 72.7849L151.718 72.8092L151.713 72.8339L152.694 73.0303ZM154.402 75.8803L154.14 76.8453L154.142 76.8458L154.402 75.8803ZM153.945 64.0126L151.724 72.7849L153.663 73.2758L155.884 64.5035L153.945 64.0126ZM151.713 72.8339C151.365 74.5699 152.437 76.3828 154.14 76.8453L154.664 74.9152C154.019 74.7399 153.524 73.9747 153.674 73.2268L151.713 72.8339ZM154.142 76.8458L161.95 78.9497L162.47 77.0186L154.662 74.9147L154.142 76.8458Z" fill="#FFEAD1" mask="url(#path-13-inside-2)"/>
<path d="M150.746 91.2577L150.744 91.265L150.742 91.2723C150.361 92.6462 149.928 93.8026 149.247 94.6241C148.59 95.4155 147.677 95.9269 146.235 95.9571L146.207 95.9577L146.179 95.9613C145.331 96.0736 144.444 95.9835 143.526 95.8099C143.068 95.7232 142.61 95.6172 142.147 95.5079C142.083 95.4925 142.018 95.4771 141.952 95.4617C141.558 95.368 141.16 95.2735 140.768 95.1917C139.777 94.9742 138.237 94.5978 136.722 94.1449C135.193 93.6874 133.74 93.1663 132.893 92.6691L132.878 92.6604L132.862 92.6527C131.573 92.0115 130.825 90.8253 130.794 89.3601C130.753 87.3844 131.302 85.1695 131.878 83.3119C132.264 82.0679 132.667 80.9621 133.282 80.1106C133.879 79.2845 134.678 78.6938 135.9 78.4815C137.637 78.268 139.513 78.7167 141.287 79.1413C141.427 79.1748 141.567 79.2082 141.705 79.241L141.713 79.2429L141.721 79.2444C143.822 79.6729 145.731 80.3091 147.799 81.0862L147.812 81.0914L147.826 81.0957C149.044 81.4736 149.997 81.9042 150.755 82.6313C151.485 83.3319 151.81 84.2207 151.83 85.2095C151.872 87.1852 151.322 89.4002 150.746 91.2577ZM139.249 83.5971L139.243 83.6154L139.239 83.6342C139.205 83.7813 139.077 84.279 138.907 84.9372C138.767 85.4788 138.598 86.1292 138.432 86.7821C138.249 87.4994 138.07 88.2151 137.937 88.7783C137.871 89.0595 137.815 89.3062 137.775 89.4975C137.756 89.5929 137.74 89.6785 137.728 89.7498C137.722 89.7906 137.714 89.844 137.71 89.8984C137.637 90.2761 137.703 90.6919 138.034 90.9736C138.36 91.2516 138.807 91.2783 139.225 91.1856L139.244 91.1812L139.264 91.1752C141.176 90.5852 143.082 89.9974 144.919 89.4798L144.95 89.4712L144.979 89.4588C145.351 89.3009 145.757 89.0377 145.861 88.582C145.968 88.1118 145.698 87.7049 145.388 87.4048C144.718 86.6951 144.032 86.0035 143.342 85.3087L143.318 85.2842C142.636 84.5974 141.951 83.9067 141.265 83.1838C140.966 82.823 140.543 82.5556 140.064 82.6862C139.614 82.8086 139.366 83.2213 139.249 83.5971Z" fill="white" stroke="#FFEAD1"/>
<path d="M118.397 56.459L116.753 89.1439C116.635 90.2237 115.706 91.1275 114.627 91.0096L82.8526 89.0285C81.7729 88.9107 80.8691 87.9818 80.9869 86.902L83.6436 44.9317C83.598 43.7467 84.6903 42.9482 85.77 43.066L108.859 44.5365L118.397 56.459Z" fill="white" stroke="#FFEAD1" stroke-width="2" stroke-miterlimit="10"/>
<path d="M104.434 51.0461L89.1135 50.0736C88.7633 50.0791 88.4076 49.7344 88.5364 49.3551C88.5309 49.0049 88.8756 48.6492 89.1732 48.7253L104.441 49.7795C104.792 49.774 105.147 50.1187 105.071 50.4163C105.077 50.7666 104.732 51.1223 104.434 51.0461Z" fill="#FFEAD1"/>
<path d="M94.7018 54.1357L88.8478 53.7155C88.4976 53.721 88.2236 53.4289 88.2997 53.1313C88.2942 52.781 88.639 52.4253 88.9366 52.5015L94.7089 52.8691C95.0591 52.8636 95.4148 53.2084 95.3386 53.506C95.4784 53.8271 95.1337 54.1829 94.7018 54.1357Z" fill="#FFEAD1"/>
<path d="M108.86 44.5365L108.355 53.5715C108.348 54.8381 109.362 55.9539 110.576 56.0427L118.642 56.6169" fill="#FFEAD1"/>
<path d="M110.42 71.8897C110.632 69.9462 110.757 67.5999 110.321 65.5857C110.089 64.5115 109.535 63.5771 108.555 62.9457C107.575 62.3144 106.466 62.0623 105.171 61.9209C102.982 61.551 100.957 61.2863 98.774 61.2666C96.8596 61.1889 94.6476 61.0349 92.7441 61.6576C90.1458 62.6414 89.6706 64.9932 89.3879 67.5845C89.1758 69.528 89.0509 71.8743 89.4867 73.8884C89.8353 75.4997 90.9315 76.6682 92.5012 77.1017C94.4792 77.7983 98.8215 78.0536 100.87 78.1023C102.703 78.1275 104.728 78.3921 106.497 77.7985C109.586 77.1304 110.195 74.7495 110.42 71.8897ZM97.6714 66.5654C97.7421 65.9176 98.1685 65.6145 98.7692 66.1171C100.432 67.3036 102.065 68.3559 103.645 69.4898C104.299 69.9107 104.252 70.3426 103.638 70.7564C101.927 71.6186 100.164 72.5624 98.4 73.5062C97.7576 73.7857 97.3493 73.5227 97.3674 72.9565C97.2802 72.5537 97.6534 67.1316 97.6714 66.5654Z" fill="url(#paint0_linear)"/>
<path d="M124.534 101.222L123.66 100.639C123.466 100.445 123.466 100.251 123.66 100.056C123.854 99.862 124.048 99.8621 124.34 99.9592L125.214 100.542C125.408 100.639 125.408 100.931 125.311 101.125C125.02 101.319 124.728 101.319 124.534 101.222Z" fill="#E3EAF2"/>
<path d="M122.203 99.3763L117.249 95.4905C117.055 95.3934 117.055 95.1019 117.152 94.9077C117.249 94.7134 117.54 94.7134 117.832 94.8105L122.786 98.6963C122.98 98.7935 122.98 99.0849 122.883 99.2792C122.689 99.4735 122.398 99.5706 122.203 99.3763Z" fill="#E3EAF2"/>
<path d="M117.637 97.5305L112.1 96.9476C111.808 96.9476 111.614 96.6562 111.711 96.3648C111.711 96.0733 112.003 95.8791 112.391 95.9762L117.929 96.5591C118.22 96.5591 118.414 96.8505 118.317 97.1419C118.22 97.4334 117.929 97.7248 117.637 97.5305Z" fill="url(#paint1_linear)"/>
<path d="M143.671 102.776L137.648 129.686C137.26 131.24 135.414 132.503 133.083 132.503H67.7039C65.4696 132.503 63.5267 131.337 63.1381 129.686L58.1837 107.634C57.7952 105.982 59.6409 104.428 61.9724 104.428H98.8875C100.053 104.428 100.928 103.845 101.316 103.165L102.385 100.834C102.773 100.056 103.745 99.5707 104.813 99.5707H139.98C142.214 99.5707 143.963 101.125 143.671 102.776Z" fill="white"/>
<path d="M148.432 99.1821L141.729 140.469C141.341 142.897 139.204 144.743 136.678 144.743H63.819C61.2933 144.743 59.1561 142.995 58.7675 140.469L53.2302 106.565C52.8417 104.039 54.7846 101.611 57.4075 101.611H98.4998C99.7627 101.611 100.831 100.736 101.22 99.5707L102.386 95.9763C102.774 94.8106 103.843 93.9363 105.106 93.9363H144.255C146.781 94.2277 148.821 96.5592 148.432 99.1821Z" fill="white" stroke="#FF6600" stroke-width="2" stroke-miterlimit="10"/>
<path d="M113.467 124.86C115.045 124.86 116.397 123.508 116.397 121.93C116.397 120.353 115.045 119 113.467 119C111.89 119 110.537 120.353 110.537 121.93C110.537 123.621 111.777 124.86 113.467 124.86Z" fill="#FF6600"/>
<path d="M108.283 125.424H106.818C105.579 128.129 102.311 129.143 99.7191 127.791C98.7049 127.34 97.8034 126.438 97.3526 125.424H95.8877C97.1273 128.917 101.184 130.72 104.565 129.368C106.142 128.692 107.607 127.34 108.283 125.424Z" fill="#FF6600"/>
<path d="M90.9299 124.86C92.5075 124.86 93.8598 123.508 93.8598 121.93C93.8598 120.353 92.5075 119 90.9299 119C89.3523 119 88 120.353 88 121.93C88.1127 123.621 89.3523 124.86 90.9299 124.86Z" fill="#FF6600"/>
</svg>
