<svg width="203" height="203" viewBox="0 0 203 203" fill="none" xmlns="http://www.w3.org/2000/svg">
    <defs>
        <linearGradient id="paint0_linear" x1="78" y1="68" x2="151.769" y2="81.5836" gradientUnits="userSpaceOnUse">
            <stop stop-color="#F29E51"/>
            <stop offset="1" stop-color="#FF6600"/>
        </linearGradient>
    </defs>
    <rect width="203" height="203" rx="30" fill="white"/>
<path d="M106.133 159C138.314 159 164.536 132.886 164.536 100.813C164.428 68.6315 138.314 42.5178 106.133 42.5178C73.8427 42.5178 47.729 68.6315 47.729 100.705C47.729 132.886 73.8427 159 106.133 159Z" fill="#F1F3F9" stroke="#FFEAD1" stroke-width="2" stroke-miterlimit="10"/>
<path d="M165.945 80.4423C168.399 80.4423 170.388 78.4533 170.388 75.9997C170.388 73.5461 168.399 71.5571 165.945 71.5571C163.491 71.5571 161.502 73.5461 161.502 75.9997C161.502 78.4533 163.491 80.4423 165.945 80.4423Z" fill="#F1F3F9"/>
<path d="M42.7448 139.821C45.8567 139.821 48.3793 137.298 48.3793 134.187C48.3793 131.075 45.8567 128.552 42.7448 128.552C39.633 128.552 37.1104 131.075 37.1104 134.187C37.1104 137.298 39.633 139.821 42.7448 139.821Z" fill="#F1F3F9"/>
<path d="M91.7735 115.691C91.7735 120.729 87.6992 124.803 82.6173 124.803C82.5297 124.803 81.785 124.803 76.3088 124.803C72.4973 124.803 66.4078 124.803 56.6821 124.803H52.0383C45.9488 124.935 41.0859 120.072 41.0859 114.201C41.0859 108.287 45.9926 103.38 52.1697 103.687C57.4707 87.127 81.7411 89.4489 83.8002 106.578C88.3564 107.148 91.7735 111.003 91.7735 115.691Z" fill="white" stroke="#FFEAD1" stroke-width="2" stroke-miterlimit="10"/>
<path d="M83.6684 106.622C83.3179 106.578 82.9675 106.578 82.617 106.578C80.8208 106.578 79.1122 107.104 77.6665 108.024" fill="white"/>
<path d="M83.6684 106.622C83.3179 106.578 82.9675 106.578 82.617 106.578C80.8208 106.578 79.1122 107.104 77.6665 108.024" stroke="#FFEAD1" stroke-width="2" stroke-miterlimit="10" stroke-linecap="round"/>
<path d="M52.1694 103.687C51.6437 105.264 51.3809 106.929 51.3809 108.681C51.3809 109.382 51.4247 110.039 51.5123 110.696" fill="white"/>
<path d="M52.1694 103.687C51.6437 105.264 51.3809 106.929 51.3809 108.681C51.3809 109.382 51.4247 110.039 51.5123 110.696" stroke="#FFEAD1" stroke-width="2" stroke-miterlimit="10" stroke-linecap="round" stroke-linejoin="round"/>
<path d="M112.312 119.588C112.312 121.759 110.552 123.52 108.381 123.52C106.209 123.52 104.449 121.759 104.449 119.588C104.449 117.417 106.209 115.656 108.381 115.656C110.552 115.656 112.312 117.417 112.312 119.588ZM100.447 79.0186C103.065 78.4271 105.774 78.127 108.5 78.127C118.588 78.127 127.954 82.2159 134.874 89.6403C135.343 90.1439 135.98 90.3984 136.618 90.3984C137.199 90.3984 137.782 90.1867 138.242 89.759C139.205 88.8617 139.257 87.3538 138.36 86.3909C130.529 77.9887 119.925 73.3613 108.499 73.3613C105.421 73.3613 102.358 73.7006 99.3969 74.3703C98.1129 74.6602 97.3077 75.9359 97.5977 77.2194C97.8876 78.5035 99.1637 79.3091 100.447 79.0186ZM110.802 89.5631C110.568 90.8582 111.427 92.0976 112.722 92.3321C117.749 93.2411 122.419 95.75 126.228 99.5886C126.694 100.058 127.307 100.293 127.919 100.293C128.526 100.293 129.134 100.062 129.598 99.6011C130.532 98.6741 130.538 97.1653 129.611 96.2312C125.109 91.696 119.563 88.7263 113.57 87.6424C112.276 87.4078 111.036 88.2683 110.802 89.5631ZM138.302 124.932L82.0675 68.6981C81.1372 67.7673 79.6284 67.7673 78.6981 68.6981C77.7673 69.6284 77.7673 71.1372 78.6981 72.068L86.4515 79.8214C83.6215 81.656 81.0013 83.8573 78.6399 86.3914C77.7426 87.3538 77.7957 88.8617 78.7581 89.759C79.2175 90.1867 79.8006 90.3984 80.3823 90.3984C81.0204 90.3984 81.6566 90.1439 82.1262 89.6403C84.4596 87.1365 87.0728 85.0008 89.9071 83.277L96.4714 89.8414C93.1481 91.3744 90.0541 93.545 87.3884 96.2317C86.4613 97.1657 86.4674 98.6745 87.4014 99.6016C87.8663 100.063 88.4727 100.293 89.0796 100.293C89.6925 100.293 90.3054 100.058 90.7713 99.5886C93.5162 96.8218 96.6548 94.7731 100.113 93.4826L107.764 101.134C103.859 101.293 99.6682 103.165 96.7046 106.1C95.7701 107.026 95.7631 108.535 96.6892 109.47C97.1551 109.94 97.7685 110.176 98.3819 110.176C98.9878 110.176 99.5942 109.946 100.059 109.486C102.266 107.3 105.501 105.887 108.303 105.887H108.304H108.476H108.478C110.276 105.887 112.275 106.464 114.107 107.513C114.131 107.526 114.155 107.536 114.179 107.549L134.932 128.302C135.397 128.767 136.007 129 136.617 129C137.227 129 137.837 128.767 138.302 128.302C139.233 127.372 139.233 125.863 138.302 124.932Z" fill="url(#paint0_linear)"/>
<path d="M170.388 120.683C170.388 125.721 166.314 129.796 161.232 129.796C161.144 129.796 160.4 129.796 154.924 129.796C151.112 129.796 145.023 129.796 135.297 129.796H130.653C124.564 129.927 119.701 125.064 119.701 119.194C119.701 113.28 124.607 108.373 130.784 108.68C136.085 92.1195 160.356 94.4414 162.415 111.571C166.971 112.14 170.388 115.996 170.388 120.683Z" fill="white" stroke="#FFEAD1" stroke-width="2" stroke-miterlimit="10"/>
<path d="M162.283 111.615C161.932 111.571 161.582 111.571 161.231 111.571C159.435 111.571 157.726 112.097 156.281 113.017" fill="white"/>
<path d="M162.283 111.615C161.932 111.571 161.582 111.571 161.231 111.571C159.435 111.571 157.726 112.097 156.281 113.017" stroke="#FFEAD1" stroke-width="2" stroke-miterlimit="10" stroke-linecap="round"/>
<path d="M130.784 108.679C130.258 110.257 129.995 111.921 129.995 113.674C129.995 114.375 130.039 115.032 130.127 115.689" fill="white"/>
<path d="M130.784 108.679C130.258 110.257 129.995 111.921 129.995 113.674C129.995 114.375 130.039 115.032 130.127 115.689" stroke="#FFEAD1" stroke-width="2" stroke-miterlimit="10" stroke-linecap="round" stroke-linejoin="round"/>
</svg>
