<svg width="203" height="203" viewBox="0 0 203 203" fill="none" xmlns="http://www.w3.org/2000/svg">
    <defs>
        <linearGradient id="paint0_linear" x1="129" y1="79" x2="171.451" y2="84.3936" gradientUnits="userSpaceOnUse">
            <stop stop-color="#F29E51"/>
            <stop offset="1" stop-color="#FF6600"/>
        </linearGradient>
        <clipPath id="clip0">
            <rect width="138" height="138" fill="white" transform="translate(43 35)"/>
        </clipPath>
    </defs>
    <rect width="203" height="203" rx="30" fill="white"/>
<g clip-path="url(#clip0)">
<path d="M66 71L61.5 76L60 81V126L61.5 132L66.5 137L74.5 138.5H119L125.5 135.5L128.5 131L129 125.5V78.5L126 73L119.5 69.5H70.5L66 71Z" fill="white"/>
<path d="M154.5 80L129 92.5V115.5L156.5 129H159.5L162.5 127L163.5 124V82.5L161.5 80L158.5 79L154.5 80Z" fill="url(#paint0_linear)"/>
<path d="M129.25 92L155.43 78.913C156.306 78.4751 157.28 78.2683 158.259 78.3124C159.237 78.3565 160.189 78.6499 161.022 79.1649C161.856 79.6798 162.544 80.3992 163.021 81.2548C163.499 82.1104 163.749 83.0738 163.75 84.0535V122.946C163.749 123.926 163.499 124.89 163.021 125.745C162.544 126.601 161.856 127.32 161.022 127.835C160.189 128.35 159.237 128.644 158.259 128.688C157.28 128.732 156.306 128.525 155.43 128.087L129.25 115V92ZM71.75 138H117.75C120.8 138 123.725 136.788 125.882 134.632C128.038 132.475 129.25 129.55 129.25 126.5V80.5C129.25 77.45 128.038 74.5249 125.882 72.3683C123.725 70.2116 120.8 69 117.75 69H71.75C68.7 69 65.7749 70.2116 63.6183 72.3683C61.4616 74.5249 60.25 77.45 60.25 80.5V126.5C60.25 129.55 61.4616 132.475 63.6183 134.632C65.7749 136.788 68.7 138 71.75 138Z" stroke="#FF6600" stroke-width="2" stroke-linecap="round" stroke-linejoin="round"/>
<path d="M72 51.4038C84.9261 38.4777 105.882 38.4777 118.808 51.4038M82.8018 62.2056C86.144 58.8633 90.6771 56.9856 95.4038 56.9856C100.13 56.9856 104.664 58.8633 108.006 62.2056" stroke="#FF6600" stroke-width="2" stroke-linecap="round" stroke-linejoin="round"/>
<path d="M105.467 104.86C107.045 104.86 108.397 103.508 108.397 101.93C108.397 100.352 107.045 99 105.467 99C103.889 99 102.537 100.352 102.537 101.93C102.537 103.62 103.777 104.86 105.467 104.86Z" fill="#FF6600"/>
<path d="M100.283 105.424H98.8184C97.5789 108.128 94.3109 109.142 91.7191 107.79C90.7049 107.339 89.8034 106.438 89.3526 105.424H87.8877C89.1273 108.917 93.184 110.72 96.5647 109.368C98.1423 108.692 99.6073 107.339 100.283 105.424Z" fill="#FF6600"/>
<path d="M82.9299 104.86C84.5075 104.86 85.8598 103.508 85.8598 101.93C85.8598 100.352 84.5075 99 82.9299 99C81.3523 99 80 100.352 80 101.93C80.1127 103.62 81.3523 104.86 82.9299 104.86Z" fill="#FF6600"/>
</g>
</svg>
