<svg width="203" height="203" viewBox="0 0 203 203" fill="none" xmlns="http://www.w3.org/2000/svg">
<rect width="203" height="203" rx="30" fill="white"/>
<path d="M105.3 157.621C133.3 157.621 156 134.921 156 106.821C156 78.7209 133.2 56.0209 105.3 56.0209C77.3 56.0209 54.6 78.7209 54.6 106.821C54.6 134.921 77.3 157.621 105.3 157.621Z" fill="#F1F3F9" stroke="#FFEAD1" stroke-width="2" stroke-miterlimit="10"/>
<path d="M159.15 139.598C161.414 139.598 163.25 137.762 163.25 135.498C163.25 133.233 161.414 131.398 159.15 131.398C156.886 131.398 155.05 133.233 155.05 135.498C155.05 137.762 156.886 139.598 159.15 139.598Z" fill="#EFF2F8"/>
<path d="M165.15 123.598C166.696 123.598 167.95 122.344 167.95 120.798C167.95 119.251 166.696 117.998 165.15 117.998C163.604 117.998 162.35 119.251 162.35 120.798C162.35 122.344 163.604 123.598 165.15 123.598Z" fill="#EFF2F8"/>
<path d="M57.3 73.4209C58.8464 73.4209 60.1 72.1673 60.1 70.6209C60.1 69.0745 58.8464 67.8209 57.3 67.8209C55.7536 67.8209 54.5 69.0745 54.5 70.6209C54.5 72.1673 55.7536 73.4209 57.3 73.4209Z" fill="#EFF2F8"/>
<path d="M40.2 127.421C43.0719 127.421 45.4 125.093 45.4 122.221C45.4 119.349 43.0719 117.021 40.2 117.021C37.3281 117.021 35 119.349 35 122.221C35 125.093 37.3281 127.421 40.2 127.421Z" fill="#EFF2F8"/>
<path d="M111.661 125.239H100.394C97.7834 125.239 95.585 127.647 95.585 130.507V136.678C95.585 143 100.257 148.118 106.028 148.118C111.799 148.118 116.47 143 116.47 136.678V130.507C116.47 127.497 114.272 125.239 111.661 125.239Z" fill="#FF6600" stroke="#FF6600" stroke-width="2" stroke-miterlimit="10"/>
<path fill-rule="evenodd" clip-rule="evenodd" d="M110.661 66.1047C121.686 68.6549 129.898 78.5283 129.898 90.3274V93.4867C129.898 120.135 149.959 137.58 149.959 137.58H59.959C59.959 137.58 80.1575 120.135 80.1575 93.4867V90.3274C80.1575 78.5283 88.3694 68.6548 99.3941 66.1047V65.0526C99.3941 61.8933 101.867 59.4208 105.028 59.4208C108.188 59.4208 110.661 61.8933 110.661 65.0526V66.1047Z" fill="white"/>
<path d="M110.661 66.1047H109.661V66.8998L110.436 67.079L110.661 66.1047ZM149.959 137.58V138.58H152.633L150.615 136.826L149.959 137.58ZM59.959 137.58L59.3053 136.823L57.2713 138.58H59.959V137.58ZM99.3941 66.1047L99.6195 67.079L100.394 66.8998V66.1047H99.3941ZM130.898 90.3274C130.898 78.0525 122.355 67.7831 110.887 65.1304L110.436 67.079C121.017 69.5266 128.898 79.004 128.898 90.3274H130.898ZM130.898 93.4867V90.3274H128.898V93.4867H130.898ZM149.959 137.58C150.615 136.826 150.615 136.826 150.616 136.826C150.615 136.826 150.615 136.826 150.615 136.826C150.615 136.826 150.615 136.825 150.614 136.824C150.612 136.823 150.609 136.82 150.605 136.817C150.597 136.81 150.584 136.798 150.567 136.783C150.532 136.752 150.479 136.704 150.408 136.64C150.268 136.511 150.059 136.317 149.791 136.059C149.256 135.543 148.487 134.772 147.562 133.762C145.71 131.743 143.238 128.772 140.766 124.98C135.818 117.391 130.898 106.556 130.898 93.4867H128.898C128.898 107.065 134.008 118.277 139.091 126.073C141.634 129.973 144.177 133.03 146.087 135.114C147.043 136.156 147.841 136.956 148.403 137.498C148.684 137.769 148.906 137.976 149.059 138.116C149.136 138.186 149.195 138.239 149.236 138.276C149.257 138.294 149.273 138.308 149.284 138.318C149.289 138.323 149.294 138.327 149.297 138.33C149.298 138.331 149.3 138.332 149.301 138.333C149.301 138.333 149.302 138.334 149.302 138.334C149.302 138.334 149.303 138.335 149.959 137.58ZM59.959 138.58H149.959V136.58H59.959V138.58ZM79.1575 93.4867C79.1575 106.555 74.2043 117.388 69.2222 124.978C66.7331 128.77 64.2441 131.74 62.3801 133.76C61.4485 134.769 60.674 135.54 60.1351 136.056C59.8657 136.314 59.6553 136.509 59.5137 136.637C59.4429 136.702 59.3894 136.749 59.3542 136.78C59.3366 136.796 59.3237 136.807 59.3155 136.814C59.3114 136.818 59.3085 136.821 59.3068 136.822C59.3059 136.823 59.3054 136.823 59.3051 136.824C59.305 136.824 59.3051 136.824 59.305 136.824C59.3051 136.824 59.3053 136.823 59.959 137.58C60.6126 138.337 60.613 138.337 60.6134 138.336C60.6137 138.336 60.6142 138.336 60.6147 138.335C60.6157 138.334 60.6169 138.333 60.6185 138.332C60.6217 138.329 60.6262 138.325 60.6318 138.32C60.643 138.31 60.659 138.296 60.6796 138.278C60.7209 138.242 60.7808 138.188 60.8579 138.118C61.0122 137.978 61.2357 137.772 61.5186 137.501C62.0844 136.959 62.8879 136.159 63.8499 135.116C65.7731 133.032 68.3337 129.976 70.8942 126.075C76.0114 118.28 81.1575 107.067 81.1575 93.4867H79.1575ZM79.1575 90.3274V93.4867H81.1575V90.3274H79.1575ZM99.1687 65.1304C87.7007 67.7831 79.1575 78.0525 79.1575 90.3274H81.1575C81.1575 79.004 89.0382 69.5266 99.6195 67.079L99.1687 65.1304ZM100.394 66.1047V65.0526H98.3941V66.1047H100.394ZM100.394 65.0526C100.394 62.4459 102.419 60.4208 105.028 60.4208V58.4208C101.315 58.4208 98.3941 61.3407 98.3941 65.0526H100.394ZM105.028 60.4208C107.636 60.4208 109.661 62.4459 109.661 65.0526H111.661C111.661 61.3407 108.74 58.4208 105.028 58.4208V60.4208ZM109.661 65.0526V66.1047H111.661V65.0526H109.661Z" fill="#FFEAD1"/>
<path d="M87.6373 98.8169L87.6335 98.8061L87.6293 98.7955C87.4846 98.434 87.6698 97.9992 88.1751 97.7971C88.5342 97.6535 88.965 97.8348 89.1692 98.3306C89.9286 100.585 92.1743 102.228 94.5849 102.228C96.979 102.228 99.2389 100.736 100.002 98.3267C100.207 97.8339 100.637 97.6539 100.995 97.7971C101.5 97.9992 101.685 98.434 101.541 98.7955L101.535 98.8091L101.53 98.8231C100.499 101.915 97.8053 103.838 94.5849 103.838C91.3744 103.838 88.6706 101.787 87.6373 98.8169Z" fill="#FF6600" stroke="#FF6600"/>
<path d="M108.385 98.8169L108.382 98.8061L108.377 98.7955C108.233 98.434 108.418 97.9992 108.923 97.7971C109.282 97.6535 109.713 97.8348 109.917 98.3306C110.677 100.585 112.922 102.228 115.333 102.228C117.727 102.228 119.987 100.736 120.75 98.3267C120.955 97.8339 121.385 97.6539 121.743 97.7971C122.248 97.9992 122.433 98.434 122.289 98.7955L122.283 98.8091L122.279 98.8231C121.248 101.915 118.553 103.838 115.333 103.838C112.123 103.838 109.419 101.787 108.385 98.8169Z" fill="#FF6600" stroke="#FF6600"/>
<path d="M107.688 117.998C107.688 119.466 106.497 120.657 105.028 120.657C103.558 120.657 102.367 119.466 102.367 117.998C102.367 116.529 103.558 115.338 105.028 115.338C106.497 115.338 107.688 116.529 107.688 117.998Z" fill="#FF6600" stroke="#FF6600"/>
<path d="M127.67 58.9441H139.643V62.5937H121.828V58.6243L133.975 43.9687L134.653 43.1497H133.59H122.462V39.5H139.432V43.4694L127.285 58.125L126.606 58.9441H127.67Z" fill="#FF6600" stroke="#FFEAD1"/>
<path d="M140.566 88.5329H148.1V90.4918H136.838V88.2121L144.546 78.8398L145.219 78.0222H144.16H137.261V76.0634H147.889V78.343L140.18 87.7153L139.508 88.5329H140.566Z" fill="#FF6600" stroke="#FFEAD1"/>
</svg>
