<svg width="203" height="203" viewBox="0 0 203 203" fill="none" xmlns="http://www.w3.org/2000/svg">
<rect width="203" height="203" rx="30" fill="white"/>
<path d="M146.11 81.3346C148.222 81.3346 149.934 79.6208 149.934 77.5066C149.934 75.3924 148.222 73.6786 146.11 73.6786C143.997 73.6786 142.285 75.3924 142.285 77.5066C142.285 79.6208 143.997 81.3346 146.11 81.3346Z" fill="white"/>
<path d="M44.5162 102.036C45.9058 102.036 47.0324 100.908 47.0324 99.5173C47.0324 98.1264 45.9058 96.9989 44.5162 96.9989C43.1265 96.9989 42 98.1264 42 99.5173C42 100.908 43.1265 102.036 44.5162 102.036Z" fill="#FFEAD1"/>
<path d="M56.0826 147.312C57.4722 147.312 58.5988 146.185 58.5988 144.794C58.5988 143.403 57.4722 142.276 56.0826 142.276C54.6929 142.276 53.5664 143.403 53.5664 144.794C53.5664 146.185 54.6929 147.312 56.0826 147.312Z" fill="white"/>
<path d="M69.5322 147.312L104.841 136.249V90.8868L69.5322 101.866V147.312Z" fill="#FF6600" stroke="#FF6600" stroke-width="2" stroke-miterlimit="10" stroke-linejoin="round"/>
<path d="M140.15 147.312L104.841 136.249V90.8868L140.15 101.866V147.312Z" fill="#FF6600" stroke="#FFEAD1" stroke-width="2" stroke-miterlimit="10" stroke-linejoin="round"/>
<path d="M104.841 158.461L69.5322 147.397V102.036L104.841 113.1V158.461Z" fill="white" stroke="#FFEAD1" stroke-width="2" stroke-miterlimit="10" stroke-linejoin="round"/>
<path d="M104.841 158.461L140.15 147.397V102.036L104.841 113.1V158.461Z" fill="white" stroke="#FFEAD1" stroke-width="2" stroke-miterlimit="10" stroke-linejoin="round"/>
<path d="M104.841 90.8868L88.2402 78.4613L52.3413 90.5464L69.5323 101.866L104.841 90.8868Z" fill="white" stroke="#FFEAD1" stroke-width="2" stroke-miterlimit="10" stroke-linejoin="round"/>
<path d="M104.841 90.8868L121.442 78.4613L157.341 90.5464L140.15 101.866L104.841 90.8868Z" fill="white" stroke="#FFEAD1" stroke-width="2" stroke-miterlimit="10" stroke-linejoin="round"/>
<path d="M69.5323 102.036L104.841 113.1L87.229 124.334L52.3413 112.759L69.5323 102.036Z" fill="white" stroke="#FFEAD1" stroke-width="2" stroke-miterlimit="10" stroke-linejoin="round"/>
<path d="M140.15 102.036L104.841 113.1L122.454 124.334L157.341 112.759L140.15 102.036Z" fill="white" stroke="#FFEAD1" stroke-width="2" stroke-miterlimit="10" stroke-linejoin="round"/>
<path d="M114.693 47.3381C119.639 60.7625 121.114 63.7454 121.598 76.9733C121.412 79.9927 121.296 83.2761 119.873 85.92C117.972 89.9645 113.321 92.7654 108.928 92.8108C104.402 92.8917 99.9651 90.1205 97.968 85.8474C96.5629 83.2541 96.6076 79.7069 98.535 77.3523C100.63 75.0941 104.317 74.5311 106.968 75.9421C109.885 77.282 111.626 80.0682 112.271 83.0065C112.916 85.9449 112.633 89.1318 111.845 92.0295C110.199 99.0769 108.836 99.4179 104.798 111.35" stroke="#FF6600" stroke-width="2" stroke-miterlimit="10" stroke-dasharray="4 4"/>
<path d="M120.713 40.2325C120.702 42.2065 118.865 43.4152 116.535 42.7849C114.082 42.3668 112.347 41.9359 112.235 40.1741C112.291 38.3673 114.262 37.6601 116.57 36.863C119.336 35.7636 120.557 38.3035 120.713 40.2325Z" fill="#F1F3F9" stroke="#FF6600" stroke-width="2" stroke-miterlimit="10" stroke-linejoin="round"/>
<path d="M104.864 46.2689C106.107 47.5485 108.728 47.9216 110.005 45.967C111.405 43.8003 112.604 42.225 111.316 40.7782C110.073 39.4986 108.863 40.3601 106.097 41.4594C103.879 42.5909 103.408 44.8671 104.864 46.2689Z" fill="#F1F3F9" stroke="#FF6600" stroke-width="2" stroke-miterlimit="10" stroke-linejoin="round"/>
<path d="M110.6 38.1036C111.731 37.6214 113.086 37.9751 113.691 38.8882C113.948 39.1776 114.251 39.6341 114.34 39.9685C115.303 42.219 115 44.4502 113.701 44.9773C112.279 45.7167 110.319 44.4498 109.569 42.3215C109.389 41.6528 109.3 41.3184 109.166 40.8169C109.02 39.6016 109.468 38.5857 110.6 38.1036C110.6 38.1036 110.768 38.0586 110.6 38.1036Z" fill="#F1F3F9"/>
<path d="M110.6 38.1036C111.731 37.6214 113.086 37.9751 113.691 38.8882C113.948 39.1776 114.251 39.6341 114.34 39.9685C115.303 42.219 115 44.4502 113.701 44.9773C112.279 45.7167 110.319 44.4498 109.569 42.3215C109.389 41.6528 109.3 41.3184 109.166 40.8169C109.02 39.6016 109.468 38.5857 110.6 38.1036ZM110.6 38.1036C110.6 38.1036 110.768 38.0586 110.6 38.1036Z" stroke="#FF6600" stroke-width="2" stroke-miterlimit="10" stroke-linejoin="round"/>
<path d="M58.5986 74.3315H56.4085V72.1415H54.5314V74.3315H52.3413V76.2713H54.5314V78.4613H56.4085V76.2713H58.5986V74.3315Z" fill="#FF6600"/>
<path d="M63.4094 129.279H61.2193V127.089H59.3421V129.279H57.1521V131.218H59.3421V133.408H61.2193V131.218H63.4094V129.279Z" fill="#FF6600"/>
<path d="M159.147 129.403L156.468 128.05L157.821 125.37L155.524 124.211L154.171 126.89L151.491 125.537L150.293 127.911L152.973 129.264L151.62 131.943L153.917 133.103L155.269 130.423L157.949 131.776L159.147 129.403Z" fill="#FF6600"/>
</svg>
