<svg width="203" height="203" viewBox="0 0 203 203" fill="none" xmlns="http://www.w3.org/2000/svg">
<rect width="203" height="203" rx="30" fill="white"/>
<path d="M103.2 162.6C131.2 162.6 153.9 139.9 153.9 111.8C153.9 83.7 131.2 61 103.2 61C75.2 61 52.5 83.7 52.5 111.8C52.5 139.9 75.2 162.6 103.2 162.6Z" fill="white" stroke="#FFEAD1" stroke-width="2" stroke-miterlimit="10"/>
<path d="M159.7 90.8997C161.964 90.8997 163.8 89.0641 163.8 86.7997C163.8 84.5353 161.964 82.6997 159.7 82.6997C157.435 82.6997 155.6 84.5353 155.6 86.7997C155.6 89.0641 157.435 90.8997 159.7 90.8997Z" fill="#FFEAD1"/>
<path d="M165.7 74.7997C167.247 74.7997 168.5 73.5461 168.5 71.9997C168.5 70.4533 167.247 69.1997 165.7 69.1997C164.154 69.1997 162.9 70.4533 162.9 71.9997C162.9 73.5461 164.154 74.7997 165.7 74.7997Z" fill="#FFEAD1"/>
<path d="M48.9992 93.7997C50.5456 93.7997 51.7992 92.5461 51.7992 90.9997C51.7992 89.4533 50.5456 88.1997 48.9992 88.1997C47.4528 88.1997 46.1992 89.4533 46.1992 90.9997C46.1992 92.5461 47.4528 93.7997 48.9992 93.7997Z" fill="#FFEAD1"/>
<path d="M45.2 154.7C48.0719 154.7 50.4 152.372 50.4 149.5C50.4 146.628 48.0719 144.3 45.2 144.3C42.3281 144.3 40 146.628 40 149.5C40 152.372 42.3281 154.7 45.2 154.7Z" fill="#FF6600"/>
<path d="M105.927 106.607L103 101.431L100.073 106.607C99.7971 107.094 99.3238 107.438 98.775 107.55L92.948 108.734L96.9662 113.116C97.3449 113.529 97.5257 114.086 97.4622 114.643L96.7875 120.551L102.198 118.084C102.453 117.967 102.727 117.91 103 117.91C103.274 117.91 103.548 117.967 103.802 118.084L109.213 120.551L108.538 114.643C108.475 114.086 108.655 113.529 109.034 113.116L113.052 108.734L107.225 107.55C106.677 107.438 106.203 107.094 105.927 106.607Z" fill="#FFEAD1"/>
<path d="M102.999 91.1515C91.5036 91.1515 82.1509 100.504 82.1509 112C82.1509 123.496 91.5036 132.849 102.999 132.849C114.495 132.849 123.848 123.496 123.848 112C123.848 100.504 114.495 91.1515 102.999 91.1515ZM112.48 115.08L113.442 123.509C113.521 124.202 113.221 124.883 112.657 125.293C111.708 125.983 110.739 125.497 110.719 125.488L102.999 121.968L95.2802 125.488C94.6457 125.777 93.905 125.703 93.341 125.293C92.7776 124.883 92.478 124.202 92.5565 123.509L93.5193 115.08L87.786 108.827C87.3147 108.313 87.1566 107.586 87.3721 106.923C87.5876 106.26 88.143 105.764 88.8258 105.625L97.1403 103.936L101.316 96.5504C101.66 95.9437 102.303 95.5685 102.999 95.5685C103.696 95.5685 104.339 95.9437 104.682 96.5504L108.859 103.936L117.173 105.625C117.856 105.764 118.411 106.26 118.627 106.923C118.842 107.586 118.684 108.313 118.213 108.827L112.48 115.08Z" fill="#FF6600"/>
<path d="M103 79C84.8036 79 70 93.8036 70 112C70 130.196 84.8036 145 103 145C121.196 145 136 130.196 136 112C136 93.8036 121.196 79 103 79ZM103 136.716C89.3717 136.716 78.2842 125.628 78.2842 112C78.2842 98.3717 89.3717 87.2842 103 87.2842C116.628 87.2842 127.716 98.3717 127.716 112C127.716 125.628 116.628 136.716 103 136.716Z" fill="#FFEAD1"/>
<path d="M50.7866 63.1304L49.5005 60.856L48.2143 63.1304C48.0931 63.3446 47.8851 63.4957 47.644 63.5448L45.0836 64.065L46.8492 65.9906C47.0156 66.172 47.095 66.4165 47.0671 66.6612L46.7707 69.2571L49.148 68.1732C49.26 68.1221 49.3803 68.0967 49.5005 68.0967C49.6206 68.0967 49.741 68.1221 49.8529 68.1732L52.2303 69.2571L51.9338 66.6612C51.9059 66.4167 51.9854 66.172 52.1517 65.9906L53.9173 64.065L51.357 63.5448C51.1158 63.4957 50.9079 63.3446 50.7866 63.1304Z" fill="#FFEAD1"/>
<path d="M49.5 56.3392C44.4488 56.3392 40.3392 60.4488 40.3392 65.5C40.3392 70.5512 44.4488 74.6607 49.5 74.6607C54.5512 74.6607 58.6607 70.5512 58.6607 65.5C58.6607 60.4488 54.5512 56.3392 49.5 56.3392ZM53.6655 66.8534L54.0883 70.5571C54.123 70.8614 53.9914 71.1607 53.7436 71.3408C53.3263 71.6439 52.9006 71.4304 52.8918 71.4264L49.5 69.8799L46.1082 71.4264C45.8294 71.5534 45.5039 71.5209 45.2561 71.3408C45.0085 71.1607 44.8769 70.8614 44.9114 70.5571L45.3344 66.8534L42.8153 64.1059C42.6082 63.88 42.5387 63.5605 42.6334 63.2691C42.7281 62.9777 42.9721 62.76 43.2722 62.6989L46.9255 61.9566L48.7603 58.7115C48.9112 58.4449 49.1938 58.2801 49.5 58.2801C49.8062 58.2801 50.0887 58.4449 50.2394 58.7115L52.0745 61.9566L55.7276 62.6989C56.0278 62.76 56.2718 62.9777 56.3665 63.2691C56.461 63.5605 56.3915 63.88 56.1847 64.1059L53.6655 66.8534Z" fill="#FFEAD1"/>
<path d="M49.5 51C41.5046 51 35 57.5046 35 65.5C35 73.4954 41.5046 80 49.5 80C57.4954 80 64 73.4954 64 65.5C64 57.5046 57.4954 51 49.5 51ZM49.5 76.36C43.5118 76.36 38.64 71.4882 38.64 65.5C38.64 59.5118 43.5118 54.64 49.5 54.64C55.4882 54.64 60.36 59.5118 60.36 65.5C60.36 71.4882 55.4882 76.36 49.5 76.36Z" fill="#FFEAD1"/>
<path d="M149.621 70.8561L149 69.7581L148.379 70.8561C148.321 70.9595 148.22 71.0324 148.104 71.0561L146.868 71.3073L147.72 72.2368C147.8 72.3244 147.839 72.4424 147.825 72.5606L147.682 73.8138L148.83 73.2905C148.884 73.2659 148.942 73.2536 149 73.2536C149.058 73.2536 149.116 73.2659 149.17 73.2905L150.318 73.8138L150.175 72.5606C150.161 72.4426 150.2 72.3244 150.28 72.2368L151.132 71.3073L149.896 71.0561C149.78 71.0324 149.68 70.9595 149.621 70.8561Z" fill="white"/>
<path d="M149 67.5776C146.561 67.5776 144.577 69.5616 144.577 72.0001C144.577 74.4386 146.561 76.4225 149 76.4225C151.438 76.4225 153.422 74.4386 153.422 72.0001C153.422 69.5616 151.438 67.5776 149 67.5776ZM151.011 72.6534L151.215 74.4415C151.232 74.5883 151.168 74.7328 151.048 74.8198C150.847 74.9661 150.641 74.863 150.637 74.8611L149 74.1145L147.362 74.8611C147.228 74.9224 147.071 74.9067 146.951 74.8198C146.831 74.7328 146.768 74.5883 146.785 74.4415L146.989 72.6534L145.773 71.327C145.673 71.218 145.639 71.0638 145.685 70.9231C145.731 70.7824 145.848 70.6773 145.993 70.6478L147.757 70.2895L148.643 68.7229C148.715 68.5942 148.852 68.5146 149 68.5146C149.148 68.5146 149.284 68.5942 149.357 68.7229L150.243 70.2895L152.006 70.6478C152.151 70.6773 152.269 70.7824 152.315 70.9231C152.36 71.0638 152.327 71.218 152.227 71.327L151.011 72.6534Z" fill="white"/>
<path d="M149 65C145.14 65 142 68.1402 142 72C142 75.8598 145.14 79 149 79C152.86 79 156 75.8598 156 72C156 68.1402 152.86 65 149 65ZM149 77.2427C146.109 77.2427 143.757 74.8909 143.757 72C143.757 69.1091 146.109 66.7573 149 66.7573C151.891 66.7573 154.243 69.1091 154.243 72C154.243 74.8909 151.891 77.2427 149 77.2427Z" fill="white"/>
</svg>
