<svg width="203" height="203" viewBox="0 0 203 203" fill="none" xmlns="http://www.w3.org/2000/svg">
    <defs>
        <linearGradient id="paint0_linear" x1="60.3989" y1="89.3722" x2="112.456" y2="44.6266" gradientUnits="userSpaceOnUse">
            <stop stop-color="#F29E51"/>
            <stop offset="1" stop-color="#FF6600"/>
        </linearGradient>
    </defs>
    <rect width="203" height="203" rx="30" fill="white"/>
<path d="M116.772 64.6848C117.304 64.2597 117.304 63.4094 116.879 62.9843C116.454 62.4528 115.71 62.4528 115.178 62.878C114.647 63.3031 114.647 64.0471 115.072 64.5785C115.497 65.11 116.241 65.11 116.772 64.6848Z" fill="#F1F3F9"/>
<path d="M101.718 156C131.478 156 155.605 131.873 155.605 102.007C155.605 72.1409 131.372 48.0142 101.718 48.0142C71.9583 48.0142 47.8315 72.1409 47.8315 102.007C47.8315 131.873 71.9583 156 101.718 156Z" fill="#F1F3F9" stroke="#FFEAD1" stroke-width="2" stroke-miterlimit="10"/>
<path d="M152.097 66.6142C154.504 66.6142 156.455 64.6632 156.455 62.2565C156.455 59.8498 154.504 57.8988 152.097 57.8988C149.691 57.8988 147.74 59.8498 147.74 62.2565C147.74 64.6632 149.691 66.6142 152.097 66.6142Z" fill="#F1F3F9"/>
<path d="M158.475 49.6085C160.119 49.6085 161.451 48.2761 161.451 46.6325C161.451 44.9889 160.119 43.6565 158.475 43.6565C156.832 43.6565 155.5 44.9889 155.5 46.6325C155.5 48.2761 156.832 49.6085 158.475 49.6085Z" fill="#F1F3F9"/>
<path d="M50.7016 66.5079C52.3452 66.5079 53.6776 65.1755 53.6776 63.5319C53.6776 61.8883 52.3452 60.5559 50.7016 60.5559C49.058 60.5559 47.7256 61.8883 47.7256 63.5319C47.7256 65.1755 49.058 66.5079 50.7016 66.5079Z" fill="#F1F3F9"/>
<path d="M32.5268 123.902C35.5792 123.902 38.0537 121.427 38.0537 118.375C38.0537 115.323 35.5792 112.848 32.5268 112.848C29.4744 112.848 27 115.323 27 118.375C27 121.427 29.4744 123.902 32.5268 123.902Z" fill="#F1F3F9"/>
<path d="M97.2027 113.814L61.1302 138.882C59.0436 140.318 56.2006 139.822 54.74 137.733L30.796 103.186C29.3615 101.097 29.857 98.251 31.9436 96.7887L68.0161 71.7208C70.1027 70.2846 72.9457 70.7807 74.4064 72.8697L98.3764 107.416C99.811 109.505 99.2893 112.378 97.2027 113.814Z" fill="white" stroke="#FFEAD1" stroke-width="2" stroke-miterlimit="10"/>
<path d="M91.6204 110.028L59.9038 132.066C59.017 132.693 57.7911 132.458 57.1651 131.57L37.3683 103.003C36.7423 102.115 36.9771 100.888 37.8639 100.261L69.5805 78.2226C70.4673 77.5959 71.6932 77.8309 72.3192 78.7187L92.116 107.286C92.742 108.174 92.5072 109.401 91.6204 110.028Z" fill="white"/>
<path d="M68.9035 109.793L57.3228 117.835L58.5486 107.26L68.9035 109.793Z" fill="#FF6600"/>
<path d="M78.4755 103.134L61.8086 114.728L63.5822 99.5044L78.4755 103.134Z" fill="#FF6600"/>
<path d="M53.9578 106.32C55.4271 106.32 56.6182 105.127 56.6182 103.656C56.6182 102.185 55.4271 100.993 53.9578 100.993C52.4885 100.993 51.2974 102.185 51.2974 103.656C51.2974 105.127 52.4885 106.32 53.9578 106.32Z" fill="#FF6600"/>
<path d="M140.89 135.148L107.374 106.737C105.444 105.092 105.209 102.194 106.826 100.262L133.979 68.1693C135.622 66.237 138.517 66.002 140.447 67.621L173.963 96.0313C175.894 97.6764 176.128 100.575 174.511 102.507L147.359 134.599C145.716 136.532 142.821 136.767 140.89 135.148Z" fill="white" stroke="#FFEAD1" stroke-width="2" stroke-miterlimit="10"/>
<path d="M143.109 128.776L113.635 103.813C112.8 103.108 112.696 101.88 113.4 101.045L135.831 74.5146C136.536 73.679 137.762 73.5746 138.596 74.2796L168.07 99.2431C168.904 99.9481 169.009 101.175 168.304 102.011L145.873 128.541C145.169 129.377 143.943 129.481 143.109 128.776Z" fill="white"/>
<path d="M137.448 106.711L126.702 97.5979L137.239 96.0573L137.448 106.711Z" fill="#FF6600"/>
<path d="M146.369 114.258L130.875 101.123L146.03 98.9297L146.369 114.258Z" fill="#FF6600"/>
<path d="M139.535 93.3679C141.004 93.3679 142.195 92.1755 142.195 90.7045C142.195 89.2335 141.004 88.041 139.535 88.041C138.066 88.041 136.875 89.2335 136.875 90.7045C136.875 92.1755 138.066 93.3679 139.535 93.3679Z" fill="#FF6600"/>
<path d="M125.715 106.029L82.5711 114.339C80.0795 114.812 77.6738 113.178 77.1817 110.707L69.1927 69.4359C68.7169 66.9444 70.3483 64.5412 72.8196 64.0519L115.964 55.7418C118.456 55.2689 120.861 56.9026 121.353 59.3738L129.342 100.645C129.818 103.137 128.187 105.54 125.715 106.029Z" fill="white" stroke="#FFEAD1" stroke-width="2" stroke-miterlimit="10"/>
<path d="M122.14 100.308L84.2153 107.629C83.1428 107.837 82.1211 107.149 81.9114 106.077L75.2975 71.97C75.0878 70.8975 75.7747 69.8768 76.8472 69.6683L114.772 62.3481C115.844 62.1396 116.866 62.8276 117.076 63.9L123.69 98.0067C123.899 99.0792 123.212 100.1 122.14 100.308Z" fill="url(#paint0_linear)"/>
<path d="M101.399 90.8892L87.5628 93.5509L92.9667 84.3744L101.399 90.8892Z" fill="white"/>
<path d="M112.871 88.6681L92.926 92.5084L100.715 79.3254L112.871 88.6681Z" fill="white"/>
<path d="M92.31 80.9003C93.2309 79.7554 93.0482 78.0798 91.902 77.1579C90.7558 76.2359 89.0801 76.4167 88.1591 77.5616C87.2382 78.7065 87.4209 80.382 88.5671 81.304C89.7133 82.2259 91.3891 82.0452 92.31 80.9003Z" fill="white"/>
<path d="M126.301 131.947C125.794 134.102 125.033 136.384 124.146 138.285C121.738 142.975 117.935 146.651 113.245 149.059C108.428 151.468 102.724 152.482 97.0203 151.214C83.5842 148.425 74.9648 135.243 77.7535 121.807C80.5421 108.371 93.5979 99.6247 107.034 102.54C111.851 103.554 116.034 105.962 119.583 109.258C125.54 115.216 128.075 123.835 126.301 131.947Z" fill="white" stroke="#FF6600" stroke-width="2" stroke-miterlimit="10"/>
<path d="M113.729 135.058C115.217 135.058 116.493 133.782 116.493 132.294C116.493 130.806 115.217 129.531 113.729 129.531C112.241 129.531 110.966 130.806 110.966 132.294C110.966 133.889 112.135 135.058 113.729 135.058Z" fill="#FF6600"/>
<path d="M108.84 135.59H107.459C106.289 138.141 103.207 139.097 100.763 137.822C99.8061 137.397 98.9558 136.546 98.5306 135.59H97.1489C98.3181 138.885 102.144 140.585 105.333 139.31C106.821 138.672 108.203 137.397 108.84 135.59Z" fill="#FF6600"/>
<path d="M92.4719 135.058C93.9599 135.058 95.2353 133.782 95.2353 132.294C95.2353 130.806 93.9599 129.531 92.4719 129.531C90.9839 129.531 89.7085 130.806 89.7085 132.294C89.8148 133.889 90.9839 135.058 92.4719 135.058Z" fill="#FF6600"/>
</svg>
