<svg width="203" height="203" viewBox="0 0 203 203" fill="none" xmlns="http://www.w3.org/2000/svg">
<rect width="203" height="203" rx="30" fill="white"/>
<path d="M101.598 164C134.716 164 161.563 137.137 161.563 104C161.563 70.8629 134.716 44 101.598 44C68.4802 44 41.6328 70.8629 41.6328 104C41.6328 137.137 68.4802 164 101.598 164Z" fill="#F1F3F9" stroke="#D6DCE8" stroke-width="2" stroke-miterlimit="10"/>
<path d="M88.8858 137.989L42.1866 154.67C41.4612 154.929 40.5996 154.521 40.3403 153.795L16.4862 87.0176C16.2269 86.2917 16.6347 85.4299 17.3602 85.1707L64.0593 68.489C64.7848 68.2298 65.6464 68.6382 65.9057 69.364L89.7274 136.051C90.1098 136.835 89.7019 137.697 88.8858 137.989Z" fill="white" stroke="#FFEAD1" stroke-width="1.76633" stroke-miterlimit="10"/>
<path d="M77.2679 116.049L38.2764 129.977C37.9137 130.107 37.4538 129.964 37.2918 129.511C37.1623 129.148 37.3047 128.688 37.7581 128.527L76.7497 114.598C77.1124 114.468 77.5723 114.611 77.7342 115.064C77.8638 115.427 77.6307 115.919 77.2679 116.049Z" fill="#F1F3F9"/>
<path d="M78.597 119.769L39.6055 133.697C39.2428 133.827 38.7829 133.684 38.621 133.231C38.4914 132.868 38.6338 132.408 39.0872 132.246L78.0788 118.318C78.4415 118.188 78.9014 118.331 79.0633 118.784C79.2253 119.238 78.9598 119.639 78.597 119.769Z" fill="#F1F3F9"/>
<path d="M79.9579 123.579L40.9663 137.508C40.6036 137.638 40.1437 137.495 39.9818 137.042C39.8522 136.679 39.9947 136.219 40.4481 136.057L79.4396 122.129C79.8023 121.999 80.2622 122.142 80.4242 122.595C80.5861 123.048 80.3206 123.45 79.9579 123.579Z" fill="#F1F3F9"/>
<rect x="42.0239" y="140.132" width="20.3128" height="8.83167" rx="2.6495" transform="rotate(-19.6576 42.0239 140.132)" fill="#F1F3F9"/>
<rect x="62.8164" y="132.705" width="20.3128" height="8.83167" rx="2.6495" transform="rotate(-19.6576 62.8164 132.705)" fill="#F1F3F9"/>
<rect x="23.3667" y="90.5276" width="43.2752" height="35.3267" rx="3.53267" transform="rotate(-19.6576 23.3667 90.5276)" fill="#EAEEF9"/>
<g clip-path="url(#clip0)">
<path d="M44.1766 91.0583L43.1055 91.4498L44.1074 94.1911L45.1785 93.7997L44.1766 91.0583Z" fill="white"/>
<path d="M50.7867 95.3015L45.7881 97.1284L46.5054 99.091L51.504 97.2641L50.7867 95.3015Z" fill="#FF6600"/>
<path d="M50.7864 95.3015L48.2871 96.215L49.0044 98.1776L51.5037 97.2641L50.7864 95.3015Z" fill="#FF6600"/>
<path d="M50.0059 96.4875L47.1496 97.5315C45.9664 97.9639 44.6568 97.3553 44.2244 96.1722L43.4414 94.0299C44.7798 93.5408 46.274 93.7529 47.4234 94.5951L47.7948 94.8672L47.9031 94.4198C48.2385 93.0349 49.2439 91.9092 50.5822 91.4201L51.3652 93.5623C51.7976 94.7455 51.189 96.0551 50.0059 96.4875Z" fill="white"/>
<path d="M51.4681 97.1672L46.4696 98.9941L43.8153 110.447L43.8283 110.482C50.0064 110.125 55.9423 107.956 60.8949 104.245L60.8819 104.209L51.4681 97.1672Z" fill="white"/>
<path d="M49.1751 89.2314L48.104 89.6229L49.1059 92.3642L50.177 91.9728L49.1751 89.2314Z" fill="white"/>
<path d="M48.5776 97.0095L50.0058 96.4875C51.1889 96.0551 51.7975 94.7454 51.3651 93.5623L50.5821 91.4201C49.2438 91.9092 48.2384 93.0349 47.903 94.4198L47.7947 94.8672L48.5776 97.0095Z" fill="white"/>
<path d="M51.468 97.1672L48.9688 98.0806L52.8211 108.621C55.6964 107.57 58.4185 106.1 60.8948 104.245L60.8818 104.209L51.468 97.1672Z" fill="white"/>
</g>
<path d="M112.369 137.989L159.068 154.67C159.793 154.929 160.655 154.521 160.914 153.795L184.768 87.0176C185.028 86.2917 184.62 85.4299 183.894 85.1707L137.195 68.489C136.47 68.2298 135.608 68.6382 135.349 69.364L111.527 136.051C111.145 136.835 111.552 137.697 112.369 137.989Z" fill="white" stroke="#FFEAD1" stroke-width="1.76633" stroke-miterlimit="10"/>
<path d="M123.986 116.049L162.978 129.977C163.341 130.107 163.801 129.964 163.963 129.511C164.092 129.148 163.95 128.688 163.496 128.527L124.505 114.598C124.142 114.468 123.682 114.611 123.52 115.064C123.391 115.427 123.624 115.919 123.986 116.049Z" fill="#F1F3F9"/>
<path d="M122.657 119.769L161.649 133.697C162.012 133.827 162.471 133.684 162.633 133.231C162.763 132.868 162.621 132.408 162.167 132.246L123.176 118.318C122.813 118.188 122.353 118.331 122.191 118.784C122.029 119.238 122.295 119.639 122.657 119.769Z" fill="#F1F3F9"/>
<path d="M121.297 123.579L160.288 137.508C160.651 137.638 161.111 137.495 161.273 137.042C161.402 136.679 161.26 136.219 160.806 136.057L121.815 122.129C121.452 121.999 120.992 122.142 120.83 122.595C120.668 123.048 120.934 123.45 121.297 123.579Z" fill="#F1F3F9"/>
<rect width="20.3128" height="8.83167" rx="2.6495" transform="matrix(-0.94172 -0.336399 -0.336399 0.94172 159.23 140.132)" fill="#F1F3F9"/>
<rect width="20.3128" height="8.83167" rx="2.6495" transform="matrix(-0.94172 -0.336399 -0.336399 0.94172 138.438 132.705)" fill="#F1F3F9"/>
<rect width="43.2752" height="35.3267" rx="3.53267" transform="matrix(-0.94172 -0.336399 -0.336399 0.94172 177.888 90.5276)" fill="#EAEEF9"/>
<g clip-path="url(#clip1)">
<path d="M159.309 98.596L159.174 97.8264C159.092 97.3584 158.647 97.0461 158.179 97.128L157.421 97.2608C157.251 97.2905 157.137 97.4523 157.167 97.6227L157.491 99.4689C157.511 99.5828 157.59 99.6714 157.692 99.7085C157.795 99.7464 157.782 99.7349 158.61 99.5904C159.076 99.5092 159.39 99.0633 159.309 98.596Z" fill="white"/>
<path d="M157.456 93.5112L157.708 92.1632C157.793 91.7109 157.541 91.268 157.109 91.11L152.233 89.3277C151.801 89.1697 151.323 89.3456 151.096 89.746L150.42 90.9391C150.324 91.107 150.403 91.3204 150.584 91.3867L157.041 93.7471C157.223 93.8134 157.42 93.7008 157.456 93.5112Z" fill="white"/>
<path d="M157.455 93.5108L157.708 92.1629C157.793 91.7106 157.541 91.2679 157.109 91.1099L155.348 90.4661C155.78 90.6241 156.032 91.0668 155.947 91.5192L155.694 92.8671C155.659 93.0566 155.461 93.1694 155.28 93.1032L157.041 93.7469C157.222 93.8131 157.42 93.7005 157.455 93.5108Z" fill="white"/>
<path d="M157.496 96.8972L157.965 94.1709C158.036 93.7613 157.804 93.3604 157.414 93.2177L150.64 90.7415C150.249 90.5988 149.813 90.7556 149.603 91.1141L148.204 93.5006C148.105 93.6686 148.183 93.8853 148.366 93.9522L157.08 97.1377C157.263 97.2045 157.463 97.0894 157.496 96.8972Z" fill="#FFEAD1"/>
<path d="M151.891 107.835L145.434 105.475C145.253 105.409 145.055 105.521 145.02 105.711L144.767 107.059C144.682 107.511 144.934 107.954 145.367 108.112L150.242 109.894C150.674 110.052 151.153 109.876 151.38 109.476L152.056 108.283C152.151 108.115 152.073 107.902 151.891 107.835Z" fill="white"/>
<path d="M152.055 108.283L151.379 109.476C151.152 109.876 150.674 110.052 150.242 109.894L148.481 109.25C148.913 109.408 149.391 109.233 149.618 108.832L150.294 107.639C150.39 107.472 150.311 107.258 150.13 107.191L151.891 107.835C152.072 107.901 152.151 108.115 152.055 108.283Z" fill="white"/>
<path d="M154.108 105.269L145.394 102.084C145.211 102.017 145.012 102.132 144.978 102.324L144.509 105.051C144.438 105.46 144.67 105.861 145.06 106.004L151.834 108.48C152.225 108.623 152.661 108.466 152.871 108.107L154.27 105.721C154.369 105.553 154.291 105.336 154.108 105.269Z" fill="#FFEAD1"/>
<path d="M154.271 105.721L152.871 108.107C152.661 108.466 152.225 108.623 151.835 108.48L150.111 107.85C150.501 107.992 150.937 107.836 151.147 107.477L152.546 105.09C152.645 104.924 152.568 104.706 152.384 104.639L154.108 105.269C154.293 105.337 154.369 105.554 154.271 105.721Z" fill="#FFEAD1"/>
<path d="M157.496 96.8973L157.965 94.171C158.036 93.7614 157.804 93.3605 157.414 93.2178L155.689 92.5875C156.08 92.7302 156.312 93.131 156.241 93.5406L155.771 96.267C155.739 96.4579 155.54 96.5746 155.356 96.5074L157.081 97.1377C157.265 97.2051 157.463 97.0878 157.496 96.8973Z" fill="#FFEAD1"/>
<path d="M158.598 100.638L157.826 100.356C157.664 100.296 157.484 100.38 157.425 100.542L156.567 102.89C156.507 103.052 156.591 103.231 156.753 103.291L157.525 103.573C157.97 103.736 158.465 103.506 158.627 103.061L159.11 101.74C159.273 101.295 159.043 100.801 158.598 100.638Z" fill="white"/>
<path d="M159.11 101.74L158.628 103.061C158.465 103.506 157.97 103.736 157.525 103.573L156.938 103.358C157.383 103.521 157.878 103.291 158.041 102.846L158.523 101.525C158.686 101.08 158.456 100.586 158.011 100.423L158.598 100.638C159.043 100.801 159.273 101.295 159.11 101.74Z" fill="white"/>
<path d="M156.859 104.381L156.365 103.791C156.255 103.659 156.058 103.642 155.925 103.752L154.487 104.954C154.354 105.065 154.337 105.262 154.447 105.394L154.942 105.985C155.246 106.35 155.788 106.398 156.152 106.093L156.752 105.592C157.115 105.287 157.163 104.744 156.859 104.381Z" fill="white"/>
<path d="M156.751 105.591L156.152 106.093C155.79 106.396 155.247 106.352 154.941 105.985C154.405 105.344 154.44 105.387 154.425 105.365C154.602 105.576 154.704 105.73 154.958 105.823C155.236 105.925 155.56 105.88 155.806 105.675L156.405 105.173C156.751 104.884 156.811 104.377 156.553 104.016L156.858 104.381C157.162 104.744 157.115 105.287 156.751 105.591Z" fill="white"/>
<path d="M159.308 98.5962L159.174 97.8263C159.092 97.3614 158.649 97.0453 158.179 97.1278C157.355 97.2721 157.41 97.2614 157.385 97.2693C157.656 97.2218 157.833 97.1695 158.087 97.2622C158.365 97.364 158.584 97.6073 158.639 97.9222L158.774 98.6921C158.851 99.1367 158.57 99.5631 158.14 99.6724L158.609 99.5903C159.076 99.5091 159.389 99.0631 159.308 98.5962Z" fill="white"/>
<path d="M148.877 106.068C152.444 107.372 156.391 105.537 157.695 101.971C158.999 98.4052 157.164 94.4574 153.598 93.1538C150.032 91.8502 146.084 93.6843 144.781 97.2505C143.477 100.817 145.311 104.764 148.877 106.068Z" fill="white"/>
<path d="M157.695 101.971C156.267 105.877 151.708 107.635 148.019 105.686C151.322 106.406 154.741 104.59 155.934 101.328C157.126 98.0657 155.684 94.4724 152.696 92.8918C156.764 93.7802 159.125 98.0577 157.695 101.971Z" fill="white"/>
<path d="M156.227 101.435C155.174 104.317 151.902 105.694 149.124 104.484C146.567 103.377 145.278 100.442 146.248 97.7869C147.22 95.1283 150.1 93.7207 152.765 94.5227C155.674 95.3913 157.279 98.5582 156.227 101.435Z" fill="#E6E5EF"/>
<path d="M156.227 101.435C155.099 104.521 151.435 105.872 148.562 104.201C151.047 104.637 153.57 103.242 154.466 100.791C155.362 98.34 154.333 95.6467 152.153 94.3773C155.428 94.9533 157.355 98.35 156.227 101.435Z" fill="#FFEAD1"/>
<path d="M153.352 94.7374L152.926 95.9026C152.867 96.0647 152.687 96.1481 152.525 96.0888C152.363 96.0295 152.28 95.8502 152.339 95.688L152.765 94.5228C152.959 94.5806 153.157 94.6524 153.352 94.7374Z" fill="white"/>
<path d="M147.715 98.3234C147.656 98.4855 147.477 98.5689 147.314 98.5096L146.149 98.0836C146.207 97.8908 146.278 97.6926 146.364 97.4966L147.529 97.9226C147.691 97.9819 147.774 98.1612 147.715 98.3234Z" fill="white"/>
<path d="M150.136 103.534L149.71 104.699C149.516 104.641 149.318 104.569 149.123 104.484L149.549 103.319C149.608 103.157 149.788 103.074 149.95 103.133C150.112 103.192 150.195 103.372 150.136 103.534Z" fill="white"/>
<path d="M156.111 101.725L154.946 101.299C154.783 101.24 154.7 101.061 154.759 100.898C154.819 100.736 154.998 100.653 155.16 100.712L156.325 101.138C156.268 101.331 156.196 101.529 156.111 101.725Z" fill="white"/>
<path d="M150.954 99.7426L150.023 97.7386C149.951 97.5821 150.019 97.3963 150.175 97.3236C150.332 97.2509 150.517 97.3188 150.59 97.4753L151.39 99.1959L154.313 97.8378C154.469 97.7652 154.655 97.8331 154.728 97.9896C154.8 98.1461 154.732 98.3319 154.576 98.4046L151.369 99.8943C151.213 99.9671 151.027 99.8991 150.954 99.7426Z" fill="#FF6600"/>
</g>
<path d="M129.785 144.564H73.6354C72.7632 144.564 72 143.8 72 142.927V62.6364C72 61.7636 72.7632 61 73.6354 61H129.785C130.657 61 131.42 61.7636 131.42 62.6364V142.818C131.529 143.8 130.766 144.564 129.785 144.564Z" fill="white" stroke="#FF6600" stroke-width="2" stroke-miterlimit="10"/>
<path d="M125.754 116.744H78.8722C78.4361 116.744 78 116.417 78 115.872C78 115.436 78.3271 115 78.8722 115H125.754C126.19 115 126.626 115.327 126.626 115.872C126.626 116.308 126.19 116.744 125.754 116.744Z" fill="#F1F3F9"/>
<path d="M125.754 121.217H78.8722C78.4361 121.217 78 120.89 78 120.345C78 119.909 78.3271 119.473 78.8722 119.473H125.754C126.19 119.473 126.626 119.8 126.626 120.345C126.626 120.89 126.19 121.217 125.754 121.217Z" fill="#F1F3F9"/>
<path d="M125.754 125.799H78.8722C78.4361 125.799 78 125.472 78 124.927C78 124.491 78.3271 124.055 78.8722 124.055H125.754C126.19 124.055 126.626 124.382 126.626 124.927C126.626 125.472 126.19 125.799 125.754 125.799Z" fill="#F1F3F9"/>
<rect x="79" y="129" width="23" height="10" rx="3" fill="#FFEAD1"/>
<rect x="104" y="129" width="23" height="10" rx="3" fill="#FFEAD1"/>
<rect x="78" y="69" width="49" height="40" rx="4" fill="#EAEEF9"/>
<g clip-path="url(#clip2)">
<path d="M94.0325 86.7453L88.7676 82.6105L88.292 82.8647L91.2613 100.764C91.3264 101.157 91.666 101.444 92.064 101.444C92.5358 101.444 92.9087 101.044 92.8755 100.574L92.3542 93.1643C92.2126 91.1513 92.8116 89.1594 94.0325 87.5601V86.7453Z" fill="#FFE07D"/>
<path d="M92.0768 100.694L90.4275 83.9141L88.7676 82.6105L88.292 82.8647L91.2613 100.764C91.3264 101.157 91.666 101.444 92.064 101.444C92.2203 101.444 92.3652 101.4 92.4887 101.324C92.2628 101.197 92.1035 100.966 92.0768 100.694Z" fill="#FFD064"/>
<path d="M101.938 88.979C97.5844 80.8875 92.8959 75.7151 92.8959 75.7151L92.5864 76.6648L101.849 94.3006L106.329 96.0713L110.803 94.7433V93.9929C107.927 94.18 104.295 93.3593 101.938 88.979Z" fill="#EC625E"/>
<path d="M106.329 96.0712L108.422 95.45C105.909 94.8699 103.258 93.2558 101.894 89.3114C101.756 88.912 101.616 88.5188 101.475 88.1317C97.2585 80.5284 92.8959 75.7151 92.8959 75.7151L92.5864 76.6648L98.7525 88.4044L98.8813 88.3542L99.1539 89.1687L101.849 94.3006L106.329 96.0712Z" fill="#DF4854"/>
<path d="M90.7049 74.9002C91.1184 74.4315 91.8524 74.4433 92.2549 74.9214C93.524 76.4286 96.2209 80.0403 98.6042 85.9372C101.721 93.6497 104.455 97.5682 110.958 93.9072C111.515 93.5939 112.186 93.558 112.771 93.8127C114.562 94.3778 115.941 94.9229 116.986 95.4007C118.337 96.0182 118.339 97.9354 116.986 98.5487C115.225 99.3467 112.771 100.313 109.938 101.021C107.475 101.637 105.282 101.496 103.579 101.134C101.526 100.697 99.8863 99.1545 99.3191 97.1339C96.7586 88.0136 89.8049 83.7082 88.2924 82.8646C88.1096 82.7627 87.9971 82.5687 88.0001 82.3594C88.0539 78.5044 89.6819 76.0599 90.7049 74.9002Z" fill="#F87C68"/>
<path d="M105.913 100.571C103.86 100.134 102.22 98.5919 101.653 96.5713C99.0927 87.4511 92.1389 83.1458 90.6264 82.3022C90.4436 82.2002 90.3311 82.0063 90.3341 81.797C90.3779 78.6594 91.4645 76.4562 92.4189 75.1196C92.3622 75.0508 92.3069 74.9841 92.2549 74.9224C91.8523 74.4443 91.1183 74.4325 90.7049 74.9012C89.6819 76.0608 88.0539 78.5053 88.0001 82.3604C87.9971 82.5697 88.1096 82.7636 88.2924 82.8656C89.8049 83.7091 96.7586 88.0145 99.319 97.1347C99.8862 99.1553 101.526 100.698 103.579 101.134C105.282 101.497 107.475 101.638 109.938 101.022C110.368 100.915 110.79 100.801 111.201 100.683C109.173 101.028 107.365 100.88 105.913 100.571Z" fill="#EC625E"/>
</g>
<defs>
<clipPath id="clip0">
<rect width="19.4632" height="19.4632" fill="white" transform="translate(37 93.6812) rotate(-20.0763)"/>
</clipPath>
<clipPath id="clip1">
<rect width="20" height="20" fill="white" transform="translate(145.866 87) rotate(20.08)"/>
</clipPath>
<clipPath id="clip2">
<rect width="30" height="30" fill="white" transform="translate(88 73)"/>
</clipPath>
</defs>
</svg>
