<svg width="203" height="203" viewBox="0 0 203 203" fill="none" xmlns="http://www.w3.org/2000/svg">
    <defs>
        <linearGradient id="paint0_linear" x1="65.6512" y1="78.118" x2="65.6512" y2="76.4653" gradientUnits="userSpaceOnUse">
            <stop stop-color="white"/>
            <stop offset="1" stop-color="#E2E5EC"/>
        </linearGradient>
        <linearGradient id="paint1_linear" x1="65.6512" y1="143.718" x2="65.6512" y2="142.065" gradientUnits="userSpaceOnUse">
            <stop stop-color="white"/>
            <stop offset="1" stop-color="#E2E5EC"/>
        </linearGradient>
        <linearGradient id="paint2_linear" x1="87.2011" y1="110.278" x2="87.2011" y2="109.176" gradientUnits="userSpaceOnUse">
            <stop stop-color="white"/>
            <stop offset="1" stop-color="#E2E5EC"/>
        </linearGradient>
    </defs>
    <rect width="203" height="203" rx="30" fill="white"/>
<path d="M99.2 157.6C127.2 157.6 149.9 134.9 149.9 106.8C149.9 78.7 127.2 56 99.2 56C71.2 56 48.5 78.7 48.5 106.8C48.5 134.9 71.2 157.6 99.2 157.6Z" fill="#F1F3F9" stroke="#FFEAD1" stroke-width="2" stroke-miterlimit="10"/>
<path d="M155.7 85.8997C157.964 85.8997 159.8 84.0641 159.8 81.7997C159.8 79.5353 157.964 77.6997 155.7 77.6997C153.435 77.6997 151.6 79.5353 151.6 81.7997C151.6 84.0641 153.435 85.8997 155.7 85.8997Z" fill="white"/>
<path d="M161.7 69.7997C163.247 69.7997 164.5 68.5461 164.5 66.9997C164.5 65.4533 163.247 64.1997 161.7 64.1997C160.154 64.1997 158.9 65.4533 158.9 66.9997C158.9 68.5461 160.154 69.7997 161.7 69.7997Z" fill="white"/>
<path d="M45.0002 88.7997C46.5466 88.7997 47.8002 87.5461 47.8002 85.9997C47.8002 84.4533 46.5466 83.1997 45.0002 83.1997C43.4538 83.1997 42.2002 84.4533 42.2002 85.9997C42.2002 87.5461 43.4538 88.7997 45.0002 88.7997Z" fill="white"/>
<path d="M41.2 149.7C44.0719 149.7 46.4 147.372 46.4 144.5C46.4 141.628 44.0719 139.3 41.2 139.3C38.3281 139.3 36 141.628 36 144.5C36 147.372 38.3281 149.7 41.2 149.7Z" fill="white"/>
<path d="M142.2 86.4997H55.4996C53.5996 86.4997 52.0996 84.9997 52.0996 83.0997V63.5997C52.0996 61.6997 53.5996 60.1997 55.4996 60.1997H142.1C144 60.1997 145.5 61.6997 145.5 63.5997V83.0997C145.6 84.9997 144 86.4997 142.2 86.4997Z" fill="white" stroke="#FFEAD1" stroke-width="2" stroke-miterlimit="10"/>
<path d="M73.0996 73.2997C73.0996 75.4997 72.0996 77.4997 70.5996 78.8997C69.2996 80.0997 67.4996 80.7997 65.5996 80.7997C63.6996 80.7997 61.8996 80.0997 60.5996 78.8997C58.9996 77.4997 58.0996 75.4997 58.0996 73.2997C58.0996 69.1997 61.4996 65.7997 65.5996 65.7997C69.6996 65.7997 73.0996 69.1997 73.0996 73.2997Z" fill="#FFEAD1"/>
<path d="M70.5996 78.8997C69.2996 80.0997 67.4996 80.7997 65.5996 80.7997C63.6996 80.7997 61.8996 80.0997 60.5996 78.8997C61.1996 78.6997 61.8996 78.3997 62.7996 77.9997C62.9996 77.8997 63.1996 77.6997 63.2996 77.4997C63.3996 77.3997 63.3996 77.1997 63.3996 77.0997V75.1997L63.2996 75.0997C63.0996 74.8997 62.9996 74.5997 62.9996 74.2997L62.7996 74.1997C62.2996 74.2997 62.3996 73.7997 62.1996 72.7997C62.1996 72.3997 62.1996 72.2997 62.3996 72.1997L62.5996 71.9997C61.6996 69.8997 62.0996 68.5997 63.0996 68.0997C62.7996 67.3997 62.7996 67.1997 62.7996 67.1997C62.7996 67.1997 64.7996 67.4997 65.3996 67.3997C66.2996 67.1997 67.5996 67.3997 68.0996 68.5997C68.8996 68.8997 69.1996 69.3997 69.2996 69.9997C69.3996 70.8997 68.8996 71.8997 68.7996 72.1997C68.8996 72.2997 68.9996 72.3997 68.8996 72.6997C68.7996 73.5997 68.7996 74.1997 68.2996 74.0997L67.8996 74.9997C67.8996 75.0997 67.8996 75.0997 67.8996 75.1997C67.8996 75.2997 67.8996 75.5997 67.8996 77.1997C67.8996 77.3997 67.9996 77.5997 67.9996 77.6997C68.0996 77.8997 68.2996 77.9997 68.3996 78.0997C69.2996 78.3997 69.9996 78.6997 70.5996 78.8997Z" fill="white"/>
<path d="M68.826 72.2997C68.826 72.0916 68.7219 71.7793 68.6178 71.5711V71.4671C68.2015 70.6344 67.3688 70.3222 66.5362 70.3222C64.4546 70.2181 64.2464 70.6344 63.5178 70.0099C63.726 70.3222 63.726 70.8426 63.4137 71.4671C63.2056 71.8834 62.7892 72.0916 62.3729 72.1956C61.4362 70.0099 61.8525 68.6569 62.8933 68.1364C62.5811 67.4079 62.5811 67.1997 62.5811 67.1997C62.5811 67.1997 64.6627 67.512 65.2872 67.4079C66.2239 67.1997 67.577 67.4079 68.0974 68.6569C68.9301 68.9691 69.2423 69.4895 69.3464 70.114C69.4505 70.8426 68.9301 71.8834 68.826 72.2997Z" fill="#FF6600"/>
<path d="M67.9998 77.6997V78.0997H63.2998V77.5997C63.3998 77.4997 63.3998 77.2997 63.3998 77.1997V75.2997L63.2998 75.1997V75.0997C63.3998 75.2997 63.4998 75.3997 63.6998 75.5997L65.1998 76.5997C65.4998 76.8997 65.9998 76.8997 66.3998 76.5997L67.7998 75.3997L67.8998 75.2997C67.8998 75.3997 67.8998 75.6997 67.8998 77.2997C67.7998 77.3997 67.8998 77.4997 67.9998 77.6997Z" fill="url(#paint0_linear)"/>
<path d="M142.2 152.1H55.4996C53.5996 152.1 52.0996 150.6 52.0996 148.7V129.2C52.0996 127.3 53.5996 125.8 55.4996 125.8H142.1C144 125.8 145.5 127.3 145.5 129.2V148.7C145.6 150.6 144 152.1 142.2 152.1Z" fill="white" stroke="#FFEAD1" stroke-width="2" stroke-miterlimit="10"/>
<path d="M73.0996 138.9C73.0996 141.1 72.0996 143.1 70.5996 144.5C69.2996 145.7 67.4996 146.4 65.5996 146.4C63.6996 146.4 61.8996 145.7 60.5996 144.5C58.9996 143.1 58.0996 141.1 58.0996 138.9C58.0996 134.8 61.4996 131.4 65.5996 131.4C69.6996 131.4 73.0996 134.8 73.0996 138.9Z" fill="#FFEAD1"/>
<path d="M70.5996 144.5C69.2996 145.7 67.4996 146.4 65.5996 146.4C63.6996 146.4 61.8996 145.7 60.5996 144.5C61.1996 144.3 61.8996 144 62.7996 143.6C62.9996 143.5 63.1996 143.3 63.2996 143.1C63.3996 143 63.3996 142.8 63.3996 142.7V140.8L63.2996 140.7C63.0996 140.5 62.9996 140.2 62.9996 139.9L62.7996 139.8C62.2996 139.9 62.3996 139.4 62.1996 138.4C62.1996 138 62.1996 137.9 62.3996 137.8L62.5996 137.6C61.6996 135.5 62.0996 134.2 63.0996 133.7C62.7996 133 62.7996 132.8 62.7996 132.8C62.7996 132.8 64.7996 133.1 65.3996 133C66.2996 132.8 67.5996 133 68.0996 134.2C68.8996 134.5 69.1996 135 69.2996 135.6C69.3996 136.5 68.8996 137.5 68.7996 137.8C68.8996 137.9 68.9996 138 68.8996 138.3C68.7996 139.2 68.7996 139.8 68.2996 139.7L67.8996 140.5C67.8996 140.6 67.8996 140.6 67.8996 140.7C67.8996 140.8 67.8996 141.1 67.8996 142.7C67.8996 142.9 67.9996 143.1 67.9996 143.2C68.0996 143.4 68.2996 143.5 68.3996 143.6C69.2996 144.1 69.9996 144.3 70.5996 144.5Z" fill="white"/>
<path d="M68.826 137.9C68.826 137.692 68.7219 137.379 68.6178 137.171V137.067C68.2015 136.235 67.3688 135.922 66.5362 135.922C64.4546 135.818 64.2464 136.235 63.5178 135.61C63.726 135.922 63.726 136.443 63.4137 137.067C63.2056 137.483 62.7892 137.692 62.3729 137.796C61.4362 135.61 61.8525 134.257 62.8933 133.737C62.5811 133.008 62.5811 132.8 62.5811 132.8C62.5811 132.8 64.6627 133.112 65.2872 133.008C66.2239 132.8 67.577 133.008 68.0974 134.257C68.9301 134.569 69.2423 135.09 69.3464 135.714C69.4505 136.547 68.9301 137.483 68.826 137.9Z" fill="#FF6600"/>
<path d="M67.9998 143.3V143.7H63.2998V143.2C63.3998 143.1 63.3998 142.9 63.3998 142.8V140.9L63.2998 140.8V140.7C63.3998 140.9 63.4998 141 63.6998 141.2L65.1998 142.2C65.4998 142.5 65.9998 142.5 66.3998 142.2L67.7998 141L67.8998 140.9C67.8998 141 67.8998 141.3 67.8998 142.9C67.7998 143 67.8998 143.2 67.9998 143.3Z" fill="url(#paint1_linear)"/>
<path d="M163.5 119.3H76.9C75 119.3 73.5 117.8 73.5 115.9V96.4C73.5 94.5 75 93 76.9 93H163.5C165.4 93 166.9 94.5 166.9 96.4V115.9C167 117.8 165.4 119.3 163.5 119.3Z" fill="white" stroke="#FF6600" stroke-width="2" stroke-miterlimit="10"/>
<path d="M94.6 106.1C94.6 108.2 93.7 110.1 92.3 111.5C92.2 111.6 92.2 111.6 92.1 111.7C90.8 112.9 89 113.6 87.1 113.6C85.2 113.6 83.5 112.9 82.2 111.8C82.2 111.8 82.2 111.8 82.1 111.8C80.5 110.4 79.5 108.4 79.5 106.1C79.5 102 82.9 98.6 87 98.6C91.2 98.6 94.6 102 94.6 106.1Z" fill="#FFEAD1"/>
<path d="M92.2707 111.652C91.9665 110.942 91.4594 110.334 90.6482 109.928C90.2425 109.725 89.9383 109.624 89.4312 109.624H89.127C88.4171 109.624 88.3157 109.523 88.3157 109.523V108.306C89.127 107.697 89.7355 106.886 89.9383 105.973C90.4453 105.872 90.7496 105.466 90.6482 104.959C90.6482 104.756 90.4453 104.554 90.4453 104.351C90.4453 104.249 90.4453 104.148 90.4453 104.046C90.4453 103.945 90.4453 103.945 90.4453 103.844C90.4453 103.742 90.4453 103.742 90.4453 103.641C90.4453 103.235 90.3439 102.931 90.0397 102.525C89.4312 101.41 88.2143 100.7 86.896 100.7C86.5918 100.7 86.3889 100.7 86.0847 100.801C85.5777 100.903 85.172 101.106 84.7664 101.41C84.665 101.511 84.665 101.511 84.5636 101.613C84.5636 101.613 84.5636 101.613 84.4622 101.714C84.0565 102.12 83.7523 102.627 83.5495 103.134C83.3466 103.641 83.3466 104.249 83.3466 104.858C83.3466 104.858 83.3466 104.858 83.3466 104.959C83.3466 105.061 83.3466 105.061 83.3466 105.162C83.3466 105.162 83.3466 105.263 83.2452 105.263C83.4481 105.061 83.3466 105.365 83.4481 105.568C83.6509 106.075 83.9551 105.973 84.3607 106.277C84.3607 106.277 84.3607 106.277 84.2593 106.277L83.8537 106.379C81.6227 107.089 81.4199 109.421 83.6509 109.928C83.4481 110.03 83.3466 110.131 83.2452 110.131C82.6368 110.638 82.2311 111.247 82.0283 111.855C83.3466 112.971 85.0706 113.68 86.9974 113.68C88.9242 113.68 90.7496 112.971 92.0679 111.754C92.1693 111.855 92.2707 111.754 92.2707 111.652C92.3721 111.652 92.3721 111.652 92.2707 111.652ZM85.9833 109.218C85.8819 109.117 85.7805 109.016 85.7805 109.016C85.6791 108.914 85.5777 108.914 85.4763 108.813C85.4763 108.813 85.3748 108.813 85.3748 108.711C85.0706 108.509 84.7664 108.306 84.665 108.001C84.665 107.9 84.7664 107.697 84.9692 107.494C85.0706 107.596 85.172 107.697 85.2734 107.9C85.3748 108.001 85.4763 108.103 85.5777 108.204C85.6791 108.204 85.7805 108.306 85.7805 108.407C85.7805 108.407 85.7805 108.407 85.8819 108.407C85.8819 108.407 85.8819 108.407 85.9833 108.407V109.218Z" fill="white"/>
<path d="M89.2499 109.566C89.1499 109.966 88.9499 110.266 88.9499 110.266L85.1499 109.666L85.3499 108.666C85.3499 108.666 85.4499 108.666 85.4499 108.766C85.5499 108.866 85.6499 108.866 85.7499 108.966C85.8499 108.966 85.8499 109.066 85.9499 109.166V108.466C85.9499 108.466 85.9499 108.466 85.8499 108.466C86.4499 108.766 87.2499 108.966 88.3499 108.266V109.466C88.4499 109.466 88.5499 109.566 89.2499 109.566Z" fill="url(#paint2_linear)"/>
<path d="M88.46 103.988C89.1734 103.988 89.8868 103.887 90.4983 103.683C90.4983 103.683 90.4983 103.581 90.6002 103.479C90.4983 103.173 90.3964 102.765 90.1926 102.358C89.5811 101.237 88.3581 100.523 87.0332 100.523C86.7274 100.523 86.4342 100.545 86.0252 100.647C85.481 100.813 85.2284 100.96 85.0995 101.038C85.0995 101.038 84.8016 101.238 84.5872 101.441C84.3729 101.643 83.8738 102.358 83.67 102.867C83.4662 103.479 83.3017 103.999 83.4036 104.61C83.5055 104.61 83.67 104.498 83.7719 104.498C84.5872 104.09 85.1987 103.581 85.5045 102.765C86.3198 103.479 87.3389 103.887 88.46 103.988Z" fill="#FF6600"/>
<path d="M85 107.6C85.1 107.7 85.2 107.8 85.3 107.9C85.2 107.8 85.1 107.7 85 107.6Z" fill="#3973F4"/>
<path d="M86.4001 111.3C86.1001 111.7 85.6001 111.7 85.1001 111.7C85.6001 111.2 85.3001 109.7 83.7001 109.9C81.4001 109.5 81.7001 107.1 83.9001 106.4L84.3001 106.3C84.3001 106.3 84.3001 106.3 84.4001 106.4C84.6001 106.9 84.8001 107.2 85.1001 107.6C84.2001 108.4 85.5001 108.6 86.1001 109.2C86.5001 109.4 86.9001 110.7 86.4001 111.3Z" fill="#FF6600"/>
<path d="M115.308 101.879C115.5 101.288 116.336 101.288 116.528 101.879L117.215 103.991C117.257 104.12 117.339 104.232 117.448 104.312C117.558 104.391 117.689 104.434 117.825 104.434H120.047C120.669 104.434 120.927 105.23 120.424 105.596L118.627 106.901C118.517 106.981 118.436 107.093 118.394 107.222C118.352 107.351 118.352 107.49 118.393 107.619L119.08 109.732C119.273 110.323 118.596 110.815 118.092 110.449L116.295 109.144C116.185 109.064 116.053 109.022 115.918 109.022C115.782 109.022 115.65 109.064 115.541 109.144L113.743 110.449C113.24 110.815 112.564 110.323 112.756 109.732L113.442 107.619C113.484 107.49 113.484 107.351 113.442 107.222C113.4 107.093 113.319 106.981 113.209 106.901L111.412 105.597C110.91 105.231 111.169 104.435 111.79 104.435H114.011C114.147 104.435 114.279 104.392 114.388 104.313C114.498 104.233 114.579 104.121 114.621 103.992L115.308 101.879L115.308 101.879Z" fill="#FF6600"/>
<path d="M125.349 101.879C125.541 101.288 126.377 101.288 126.569 101.879L127.256 103.991C127.298 104.12 127.38 104.232 127.489 104.312C127.599 104.391 127.73 104.434 127.866 104.434H130.088C130.71 104.434 130.968 105.23 130.465 105.596L128.668 106.901C128.558 106.981 128.477 107.093 128.435 107.222C128.393 107.351 128.393 107.49 128.434 107.619L129.121 109.732C129.314 110.323 128.637 110.815 128.133 110.449L126.336 109.144C126.226 109.064 126.094 109.022 125.959 109.022C125.823 109.022 125.691 109.064 125.582 109.144L123.784 110.449C123.281 110.815 122.605 110.323 122.797 109.732L123.483 107.619C123.525 107.49 123.525 107.351 123.483 107.222C123.441 107.093 123.36 106.981 123.25 106.901L121.453 105.597C120.951 105.231 121.21 104.435 121.831 104.435H124.052C124.188 104.435 124.32 104.392 124.429 104.313C124.539 104.233 124.621 104.121 124.663 103.992L125.349 101.879L125.349 101.879Z" fill="#FF6600"/>
<path d="M135.39 101.879C135.582 101.288 136.418 101.288 136.61 101.879L137.297 103.991C137.339 104.12 137.421 104.232 137.53 104.312C137.64 104.391 137.771 104.434 137.907 104.434H140.129C140.751 104.434 141.009 105.23 140.506 105.596L138.709 106.901C138.599 106.981 138.518 107.093 138.476 107.222C138.434 107.351 138.434 107.49 138.475 107.619L139.162 109.732C139.355 110.323 138.678 110.815 138.174 110.449L136.377 109.144C136.267 109.064 136.135 109.022 136 109.022C135.864 109.022 135.732 109.064 135.623 109.144L133.826 110.449C133.322 110.815 132.646 110.323 132.838 109.732L133.525 107.619C133.566 107.49 133.566 107.351 133.524 107.222C133.482 107.093 133.401 106.981 133.291 106.901L131.494 105.597C130.992 105.231 131.251 104.435 131.872 104.435H134.093C134.229 104.435 134.361 104.392 134.47 104.313C134.58 104.233 134.662 104.121 134.704 103.992L135.39 101.879L135.39 101.879Z" fill="#FF6600"/>
<path d="M145.43 101.879C145.623 101.288 146.459 101.288 146.651 101.879L147.338 103.991C147.38 104.12 147.461 104.232 147.571 104.312C147.68 104.391 147.812 104.434 147.947 104.434H150.169C150.791 104.434 151.049 105.23 150.547 105.596L148.75 106.901C148.64 106.981 148.558 107.093 148.516 107.222C148.474 107.351 148.474 107.49 148.516 107.619L149.203 109.732C149.395 110.323 148.718 110.815 148.214 110.449L146.417 109.144C146.308 109.064 146.176 109.022 146.04 109.022C145.905 109.022 145.773 109.064 145.663 109.144L143.866 110.449C143.363 110.815 142.686 110.323 142.878 109.732L143.565 107.619C143.607 107.49 143.607 107.351 143.565 107.222C143.523 107.093 143.441 106.981 143.331 106.901L141.535 105.597C141.032 105.231 141.291 104.435 141.912 104.435H144.134C144.269 104.435 144.401 104.392 144.511 104.313C144.62 104.233 144.702 104.121 144.744 103.992L145.431 101.879L145.43 101.879Z" fill="#FF6600"/>
<path d="M155.471 101.879C155.664 101.288 156.5 101.288 156.692 101.879L157.379 103.991C157.421 104.12 157.502 104.232 157.612 104.312C157.721 104.391 157.853 104.434 157.988 104.434H160.21C160.832 104.434 161.09 105.23 160.588 105.596L158.791 106.901C158.681 106.981 158.599 107.093 158.557 107.222C158.515 107.351 158.515 107.49 158.557 107.619L159.244 109.732C159.436 110.323 158.759 110.815 158.255 110.449L156.458 109.144C156.349 109.064 156.217 109.022 156.081 109.022C155.946 109.022 155.814 109.064 155.704 109.144L153.907 110.449C153.404 110.815 152.727 110.323 152.919 109.732L153.606 107.619C153.648 107.49 153.648 107.351 153.606 107.222C153.564 107.093 153.482 106.981 153.372 106.901L151.576 105.597C151.073 105.231 151.332 104.435 151.953 104.435H154.175C154.31 104.435 154.442 104.392 154.552 104.313C154.661 104.233 154.743 104.121 154.785 103.992L155.472 101.879L155.471 101.879Z" fill="#FF6600"/>
<path d="M94.3076 68.8786C94.5001 68.2875 95.3364 68.2875 95.5283 68.8786L96.2151 70.9915C96.257 71.1202 96.3386 71.2323 96.4481 71.3118C96.5576 71.3914 96.6894 71.4343 96.8248 71.4344H99.0468C99.6687 71.4344 99.9267 72.2302 99.4242 72.596L97.6271 73.9015C97.5173 73.9811 97.4356 74.0934 97.3937 74.2223C97.3517 74.3512 97.3516 74.4901 97.3934 74.619L98.0802 76.7319C98.2727 77.323 97.5956 77.8153 97.0918 77.4495L95.2947 76.144C95.1851 76.0644 95.0531 76.0216 94.9176 76.0216C94.7822 76.0216 94.6502 76.0644 94.5406 76.144L92.7435 77.4495C92.2403 77.8153 91.5638 77.323 91.7557 76.7319L92.4425 74.619C92.4843 74.4901 92.4842 74.3512 92.4423 74.2223C92.4003 74.0934 92.3186 73.9811 92.2089 73.9015L90.4124 72.5967C89.9099 72.2308 90.1685 71.435 90.7898 71.435H93.0111C93.1466 71.435 93.2786 71.3922 93.3882 71.3127C93.4978 71.2331 93.5795 71.1209 93.6215 70.9921L94.3082 68.8793L94.3076 68.8786Z" fill="#FFEAD1"/>
<path d="M104.349 68.8786C104.541 68.2875 105.377 68.2875 105.569 68.8786L106.256 70.9915C106.298 71.1202 106.38 71.2323 106.489 71.3118C106.599 71.3914 106.73 71.4343 106.866 71.4344H109.088C109.71 71.4344 109.968 72.2302 109.465 72.596L107.668 73.9015C107.558 73.9811 107.477 74.0934 107.435 74.2223C107.393 74.3512 107.393 74.4901 107.434 74.619L108.121 76.7319C108.314 77.323 107.637 77.8153 107.133 77.4495L105.336 76.144C105.226 76.0644 105.094 76.0216 104.959 76.0216C104.823 76.0216 104.691 76.0644 104.582 76.144L102.784 77.4495C102.281 77.8153 101.605 77.323 101.797 76.7319L102.483 74.619C102.525 74.4901 102.525 74.3512 102.483 74.2223C102.441 74.0934 102.36 73.9811 102.25 73.9015L100.453 72.5967C99.9509 72.2308 100.21 71.435 100.831 71.435H103.052C103.188 71.435 103.32 71.3922 103.429 71.3127C103.539 71.2331 103.621 71.1209 103.663 70.9921L104.349 68.8793L104.349 68.8786Z" fill="#FFEAD1"/>
<path d="M114.39 68.8786C114.582 68.2875 115.418 68.2875 115.61 68.8786L116.297 70.9915C116.339 71.1202 116.421 71.2323 116.53 71.3118C116.64 71.3914 116.771 71.4343 116.907 71.4344H119.129C119.751 71.4344 120.009 72.2302 119.506 72.596L117.709 73.9015C117.599 73.9811 117.518 74.0934 117.476 74.2223C117.434 74.3512 117.434 74.4901 117.475 74.619L118.162 76.7319C118.355 77.323 117.678 77.8153 117.174 77.4495L115.377 76.144C115.267 76.0644 115.135 76.0216 115 76.0216C114.864 76.0216 114.732 76.0644 114.623 76.144L112.826 77.4495C112.322 77.8153 111.646 77.323 111.838 76.7319L112.525 74.619C112.566 74.4901 112.566 74.3512 112.524 74.2223C112.482 74.0934 112.401 73.9811 112.291 73.9015L110.494 72.5967C109.992 72.2308 110.251 71.435 110.872 71.435H113.093C113.229 71.435 113.361 71.3922 113.47 71.3127C113.58 71.2331 113.662 71.1209 113.704 70.9921L114.39 68.8793L114.39 68.8786Z" fill="#FFEAD1"/>
<path d="M124.43 68.8786C124.623 68.2875 125.459 68.2875 125.651 68.8786L126.338 70.9915C126.38 71.1202 126.461 71.2323 126.571 71.3118C126.68 71.3914 126.812 71.4343 126.947 71.4344H129.169C129.791 71.4344 130.049 72.2302 129.547 72.596L127.75 73.9015C127.64 73.9811 127.558 74.0934 127.516 74.2223C127.474 74.3512 127.474 74.4901 127.516 74.619L128.203 76.7319C128.395 77.323 127.718 77.8153 127.214 77.4495L125.417 76.144C125.308 76.0644 125.176 76.0216 125.04 76.0216C124.905 76.0216 124.773 76.0644 124.663 76.144L122.866 77.4495C122.363 77.8153 121.686 77.323 121.878 76.7319L122.565 74.619C122.607 74.4901 122.607 74.3512 122.565 74.2223C122.523 74.0934 122.441 73.9811 122.331 73.9015L120.535 72.5967C120.032 72.2308 120.291 71.435 120.912 71.435H123.134C123.269 71.435 123.401 71.3922 123.511 71.3127C123.62 71.2331 123.702 71.1209 123.744 70.9921L124.431 68.8793L124.43 68.8786Z" fill="#FFEAD1"/>
<path d="M134.471 68.8786C134.664 68.2875 135.5 68.2875 135.692 68.8786L136.379 70.9915C136.421 71.1202 136.502 71.2323 136.612 71.3118C136.721 71.3914 136.853 71.4343 136.988 71.4344H139.21C139.832 71.4344 140.09 72.2302 139.588 72.596L137.791 73.9015C137.681 73.9811 137.599 74.0934 137.557 74.2223C137.515 74.3512 137.515 74.4901 137.557 74.619L138.244 76.7319C138.436 77.323 137.759 77.8153 137.255 77.4495L135.458 76.144C135.349 76.0644 135.217 76.0216 135.081 76.0216C134.946 76.0216 134.814 76.0644 134.704 76.144L132.907 77.4495C132.404 77.8153 131.727 77.323 131.919 76.7319L132.606 74.619C132.648 74.4901 132.648 74.3512 132.606 74.2223C132.564 74.0934 132.482 73.9811 132.372 73.9015L130.576 72.5967C130.073 72.2308 130.332 71.435 130.953 71.435H133.175C133.31 71.435 133.442 71.3922 133.552 71.3127C133.661 71.2331 133.743 71.1209 133.785 70.9921L134.472 68.8793L134.471 68.8786Z" fill="#FFEAD1"/>
<path d="M94.3076 134.879C94.5001 134.288 95.3364 134.288 95.5283 134.879L96.2151 136.991C96.257 137.12 96.3386 137.232 96.4481 137.312C96.5576 137.391 96.6894 137.434 96.8248 137.434H99.0468C99.6687 137.434 99.9267 138.23 99.4242 138.596L97.6271 139.901C97.5173 139.981 97.4356 140.093 97.3937 140.222C97.3517 140.351 97.3516 140.49 97.3934 140.619L98.0802 142.732C98.2727 143.323 97.5956 143.815 97.0918 143.449L95.2947 142.144C95.1851 142.064 95.0531 142.022 94.9176 142.022C94.7822 142.022 94.6502 142.064 94.5406 142.144L92.7435 143.449C92.2403 143.815 91.5638 143.323 91.7557 142.732L92.4425 140.619C92.4843 140.49 92.4842 140.351 92.4423 140.222C92.4003 140.093 92.3186 139.981 92.2089 139.901L90.4124 138.597C89.9099 138.231 90.1685 137.435 90.7898 137.435H93.0111C93.1466 137.435 93.2786 137.392 93.3882 137.313C93.4978 137.233 93.5795 137.121 93.6215 136.992L94.3082 134.879L94.3076 134.879Z" fill="#FFEAD1"/>
<path d="M104.349 134.879C104.541 134.288 105.377 134.288 105.569 134.879L106.256 136.991C106.298 137.12 106.38 137.232 106.489 137.312C106.599 137.391 106.73 137.434 106.866 137.434H109.088C109.71 137.434 109.968 138.23 109.465 138.596L107.668 139.901C107.558 139.981 107.477 140.093 107.435 140.222C107.393 140.351 107.393 140.49 107.434 140.619L108.121 142.732C108.314 143.323 107.637 143.815 107.133 143.449L105.336 142.144C105.226 142.064 105.094 142.022 104.959 142.022C104.823 142.022 104.691 142.064 104.582 142.144L102.784 143.449C102.281 143.815 101.605 143.323 101.797 142.732L102.483 140.619C102.525 140.49 102.525 140.351 102.483 140.222C102.441 140.093 102.36 139.981 102.25 139.901L100.453 138.597C99.9509 138.231 100.21 137.435 100.831 137.435H103.052C103.188 137.435 103.32 137.392 103.429 137.313C103.539 137.233 103.621 137.121 103.663 136.992L104.349 134.879L104.349 134.879Z" fill="#FFEAD1"/>
<path d="M114.39 134.879C114.582 134.288 115.418 134.288 115.61 134.879L116.297 136.991C116.339 137.12 116.421 137.232 116.53 137.312C116.64 137.391 116.771 137.434 116.907 137.434H119.129C119.751 137.434 120.009 138.23 119.506 138.596L117.709 139.901C117.599 139.981 117.518 140.093 117.476 140.222C117.434 140.351 117.434 140.49 117.475 140.619L118.162 142.732C118.355 143.323 117.678 143.815 117.174 143.449L115.377 142.144C115.267 142.064 115.135 142.022 115 142.022C114.864 142.022 114.732 142.064 114.623 142.144L112.826 143.449C112.322 143.815 111.646 143.323 111.838 142.732L112.525 140.619C112.566 140.49 112.566 140.351 112.524 140.222C112.482 140.093 112.401 139.981 112.291 139.901L110.494 138.597C109.992 138.231 110.251 137.435 110.872 137.435H113.093C113.229 137.435 113.361 137.392 113.47 137.313C113.58 137.233 113.662 137.121 113.704 136.992L114.39 134.879L114.39 134.879Z" fill="#FFEAD1"/>
<path d="M124.43 134.879C124.623 134.288 125.459 134.288 125.651 134.879L126.338 136.991C126.38 137.12 126.461 137.232 126.571 137.312C126.68 137.391 126.812 137.434 126.947 137.434H129.169C129.791 137.434 130.049 138.23 129.547 138.596L127.75 139.901C127.64 139.981 127.558 140.093 127.516 140.222C127.474 140.351 127.474 140.49 127.516 140.619L128.203 142.732C128.395 143.323 127.718 143.815 127.214 143.449L125.417 142.144C125.308 142.064 125.176 142.022 125.04 142.022C124.905 142.022 124.773 142.064 124.663 142.144L122.866 143.449C122.363 143.815 121.686 143.323 121.878 142.732L122.565 140.619C122.607 140.49 122.607 140.351 122.565 140.222C122.523 140.093 122.441 139.981 122.331 139.901L120.535 138.597C120.032 138.231 120.291 137.435 120.912 137.435H123.134C123.269 137.435 123.401 137.392 123.511 137.313C123.62 137.233 123.702 137.121 123.744 136.992L124.431 134.879L124.43 134.879Z" fill="#FFEAD1"/>
<path d="M134.471 134.879C134.664 134.288 135.5 134.288 135.692 134.879L136.379 136.991C136.421 137.12 136.502 137.232 136.612 137.312C136.721 137.391 136.853 137.434 136.988 137.434H139.21C139.832 137.434 140.09 138.23 139.588 138.596L137.791 139.901C137.681 139.981 137.599 140.093 137.557 140.222C137.515 140.351 137.515 140.49 137.557 140.619L138.244 142.732C138.436 143.323 137.759 143.815 137.255 143.449L135.458 142.144C135.349 142.064 135.217 142.022 135.081 142.022C134.946 142.022 134.814 142.064 134.704 142.144L132.907 143.449C132.404 143.815 131.727 143.323 131.919 142.732L132.606 140.619C132.648 140.49 132.648 140.351 132.606 140.222C132.564 140.093 132.482 139.981 132.372 139.901L130.576 138.597C130.073 138.231 130.332 137.435 130.953 137.435H133.175C133.31 137.435 133.442 137.392 133.552 137.313C133.661 137.233 133.743 137.121 133.785 136.992L134.472 134.879L134.471 134.879Z" fill="#FFEAD1"/>
</svg>
