<?xml version="1.0" encoding="UTF-8" standalone="no"?> <svg id="Layer_1" data-name="Layer 1" xmlns="http://www.w3.org/2000/svg" viewBox="0 0 512 512"><title>Voucher</title><path d="M483.255,203.177A21.232,21.232,0,0,0,501.333,182.1V117.333a32.035,32.035,0,0,0-32-32h-288v5.332a10.667,10.667,0,1,1-21.333,0V85.333H42.667a32.035,32.035,0,0,0-32,32V182.1a21.232,21.232,0,0,0,18.078,21.076,53.341,53.341,0,0,1,0,105.646A21.232,21.232,0,0,0,10.667,329.9v64.768a32.035,32.035,0,0,0,32,32H160v-5.332a10.667,10.667,0,1,1,21.333,0v5.332h288a32.035,32.035,0,0,0,32-32V329.9a21.232,21.232,0,0,0-18.078-21.076,53.341,53.341,0,0,1,0-105.646ZM181.333,375.111a10.667,10.667,0,1,1-21.333,0V350.223a10.667,10.667,0,0,1,21.333,0Zm0-71.111A10.667,10.667,0,0,1,160,304V279.11a10.667,10.667,0,1,1,21.333,0Zm0-71.113a10.667,10.667,0,0,1-21.333,0V208a10.667,10.667,0,0,1,21.333,0Zm0-71.111a10.667,10.667,0,0,1-21.333,0V136.888a10.667,10.667,0,0,1,21.333,0Z"/></svg>