<svg width="30" height="30" viewBox="0 0 30 30" fill="none" xmlns="http://www.w3.org/2000/svg">
<rect x="0.25" y="0.25" width="29.5" height="29.5" rx="9.75" stroke="black" stroke-opacity="0.1" stroke-width="0.5"/>
<path d="M17.1648 17.74L18.2848 16.62C18.4357 16.471 18.6265 16.3691 18.8342 16.3265C19.0419 16.2839 19.2575 16.3025 19.4548 16.38L20.8198 16.925C21.0192 17.006 21.1902 17.1441 21.3112 17.3221C21.4322 17.5 21.4979 17.7098 21.4998 17.925V20.425C21.4987 20.5714 21.4679 20.7161 21.4094 20.8502C21.3508 20.9844 21.2657 21.1054 21.1592 21.2058C21.0527 21.3062 20.927 21.3841 20.7896 21.4346C20.6522 21.4852 20.506 21.5074 20.3598 21.5C10.7948 20.905 8.86482 12.805 8.49982 9.70502C8.48288 9.55279 8.49836 9.39869 8.54525 9.25288C8.59213 9.10706 8.66936 8.97282 8.77186 8.85899C8.87435 8.74516 8.99978 8.65432 9.1399 8.59245C9.28002 8.53058 9.43165 8.49908 9.58482 8.50002H11.9998C12.2153 8.50066 12.4257 8.56575 12.6039 8.68694C12.7821 8.80812 12.92 8.97984 12.9998 9.18002L13.5448 10.545C13.6249 10.7416 13.6454 10.9573 13.6036 11.1654C13.5618 11.3735 13.4596 11.5647 13.3098 11.715L12.1898 12.835C12.1898 12.835 12.8348 17.2 17.1648 17.74Z" fill="#65BF73"/>
</svg>
