<svg width="34" height="34" viewBox="0 0 34 34" fill="none" xmlns="http://www.w3.org/2000/svg">
    <path fill-rule="evenodd" stroke="#ff6200" stroke-width="1" clip-rule="evenodd" d="M2.8335 17.0082C2.8335 9.18887 9.19209 2.83334 17.0002 2.83334C24.8082 2.83334 31.1668 9.18887 31.1668 17.0082C31.1668 24.8112 24.8082 31.1667 17.0002 31.1667C9.19209 31.1667 2.8335 24.8112 2.8335 17.0082ZM22.1964 18.442C22.3468 18.2917 22.5383 18.0593 22.5793 18.0046C22.7981 17.7176 22.9075 17.3623 22.9075 17.0083C22.9075 16.6105 22.7844 16.2415 22.552 15.9408C22.5329 15.9218 22.4956 15.8812 22.447 15.8282C22.356 15.7292 22.2255 15.5871 22.1007 15.4624C20.9794 14.2597 18.0531 12.2915 16.5216 11.6901C16.2891 11.5958 15.7011 11.3894 15.3866 11.3758C15.0857 11.3758 14.7986 11.4441 14.5251 11.5808C14.1832 11.7721 13.9097 12.0728 13.7593 12.4282C13.6636 12.6742 13.5132 13.4123 13.5132 13.4259C13.3628 14.2323 13.2807 15.5444 13.2807 16.9932C13.2807 18.375 13.3628 19.6311 13.4858 20.4512C13.4892 20.4546 13.501 20.5132 13.5193 20.6043C13.5748 20.8813 13.6905 21.4584 13.814 21.6949C14.1149 22.269 14.7029 22.6244 15.3319 22.6244H15.3866C15.7968 22.6107 16.6583 22.2553 16.6583 22.2417C18.1078 21.6403 20.9657 19.7678 22.1144 18.524L22.1964 18.442Z" fill="#ff6200"/>
</svg>