<svg width="22" height="20" viewBox="0 0 22 20" fill="none" xmlns="http://www.w3.org/2000/svg">
<defs>
<linearGradient id="paint0_linear" x1="0" y1="0" x2="26.0836" y2="5.20961" gradientUnits="userSpaceOnUse">
<stop stop-color="#F29E51"/>
<stop offset="1" stop-color="#FF6600"/>
</linearGradient>
</defs>
<path fill-rule="evenodd" clip-rule="evenodd" d="M3.93711 1.99958C1.83464 3.09351 0.0734755 4.0074 0.0234167 4.03052C-0.0266421 4.05372 0.536747 4.65907 1.27534 5.37582L2.61819 6.67899L1.29755 8.1337C0.571151 8.93373 -0.0126257 9.6199 0.000207604 9.6584C0.0247819 9.73221 7.23462 13.9148 7.3371 13.9148C7.38752 13.9148 8.21249 13.0272 9.96437 11.0879L10.3487 10.6625L7.11311 8.94866C5.33356 8.00609 3.81969 7.19168 3.74907 7.13899C3.64995 7.0649 4.4407 6.59098 7.21623 5.06063L10.8117 3.07812L14.4004 5.06063C16.3742 6.15092 17.9606 7.071 17.9258 7.10522C17.891 7.13935 16.4086 7.94511 14.6315 8.89578C12.8544 9.84644 11.4004 10.6639 11.4004 10.7124C11.4004 10.8228 14.1818 13.7685 14.3205 13.805C14.3957 13.8248 21.5961 9.9066 21.6933 9.79292C21.7024 9.78227 21.2597 9.26157 20.7094 8.63583C20.1591 8.0101 19.5492 7.30791 19.3541 7.07537L18.9993 6.6526L20.3188 5.43708C21.0446 4.76856 21.6386 4.19471 21.639 4.16194C21.6396 4.10761 14.083 0.133847 13.8475 0.0645838C13.7596 0.0387352 13.3006 0.347917 11.1649 1.87171L10.7473 2.1696L9.27383 1.0795C8.46342 0.47989 7.79118 -0.00586257 7.78007 5.34715e-05C7.76888 0.00596951 6.03958 0.905754 3.93711 1.99958ZM8.94553 13.5887C8.19611 14.4188 7.55353 15.098 7.51758 15.098C7.48172 15.098 6.4243 14.5022 5.16791 13.7741C3.91144 13.0459 2.82362 12.4272 2.75044 12.3991C2.63649 12.3554 2.61737 12.6017 2.61737 14.1111V15.8742L6.4628 17.9257L10.3082 19.9771L10.3327 17.9865C10.3462 16.8915 10.3462 15.1145 10.3327 14.0375L10.3082 12.0793L8.94553 13.5887ZM11.2674 16.0245L11.2639 20L12.0648 19.5741C12.5054 19.3399 14.246 18.412 15.933 17.5123L19.0003 15.8763V14.1133V12.3502L18.6134 12.5736C18.4006 12.6965 17.3086 13.3023 16.1866 13.9198L14.1465 15.0424L12.7087 13.5457L11.2708 12.0489L11.2674 16.0245Z" fill="url(#paint0_linear)"/>
</svg>
