<svg width="25" height="25" viewBox="0 0 25 25" fill="none" xmlns="http://www.w3.org/2000/svg">
<path d="M16 9C16 10.0609 15.5786 11.0783 14.8284 11.8284C14.0783 12.5786 13.0609 13 12 13C10.9391 13 9.92172 12.5786 9.17157 11.8284C8.42143 11.0783 8 10.0609 8 9C8 7.93913 8.42143 6.92172 9.17157 6.17157C9.92172 5.42143 10.9391 5 12 5C13.0609 5 14.0783 5.42143 14.8284 6.17157C15.5786 6.92172 16 7.93913 16 9V9ZM12 16C10.1435 16 8.36301 16.7375 7.05025 18.0503C5.7375 19.363 5 21.1435 5 23H19C19 21.1435 18.2625 19.363 16.9497 18.0503C15.637 16.7375 13.8565 16 12 16V16Z" stroke="#9F9B96" stroke-width="1.8" stroke-linecap="round" stroke-linejoin="round"/>
</svg>
