<svg width="113" height="117" viewBox="0 0 113 117" fill="none" xmlns="http://www.w3.org/2000/svg">
    <defs>
        <linearGradient id="paint0_linear" x1="0" y1="27.9889" x2="3.67505" y2="37.1911" gradientUnits="userSpaceOnUse">
            <stop stop-color="#F29E51"/>
            <stop offset="1" stop-color="#FF6600"/>
        </linearGradient>
        <clipPath id="clip0">
            <rect width="76" height="76" fill="white" transform="translate(21 41)"/>
        </clipPath>
    </defs>
    <path d="M35.9529 3.99767H33.9526C33.4258 3.99767 33 3.63687 33 3.19063V1.60031C33 1.15407 33.4258 0.793274 33.9526 0.793274H35.9529C36.4796 0.793274 36.9055 1.15407 36.9055 1.60031V3.19063C36.9055 3.63687 36.4768 3.99767 35.9529 3.99767Z" fill="#FF6600"/>
<path d="M20.4434 29.3044H0.927338C0.514535 29.3044 0.255835 29.0295 0.255835 28.7746C0.255835 28.5196 0.514535 28.2447 0.927338 28.2447H20.4406C20.8534 28.2447 21.1121 28.5196 21.1121 28.7746C21.1121 29.03 20.8529 29.3044 20.4434 29.3044Z" fill="#E2D6C6" stroke="url(#paint0_linear)" stroke-width="0.51167"/>
<path d="M107.07 26.3473L108.344 29.6704H112.468C112.692 29.6704 112.788 29.9148 112.606 30.0264L109.269 32.0796L110.544 35.4027C110.614 35.5831 110.367 35.735 110.188 35.6234L106.851 33.5702L103.514 35.6234C103.332 35.735 103.088 35.5854 103.158 35.4027L104.433 32.0796L101.096 30.0264C100.914 29.9148 101.007 29.6704 101.234 29.6704H105.358L106.632 26.3473C106.7 26.1645 107 26.1645 107.07 26.3473Z" fill="#FF6600"/>
<g clip-path="url(#clip0)">
<path d="M87.6402 107.58L78.8894 105.654L76.1773 114.217C75.9822 114.832 75.1485 114.922 74.8263 114.363L64.0007 95.5572C69.3333 94.4017 74.078 91.6633 77.7211 87.8573L88.4431 106.485C88.7648 107.044 88.27 107.719 87.6402 107.58Z" fill="#FD646F"/>
<path d="M87.6405 107.58L79.552 105.8C79.1768 105.717 78.8008 105.935 78.6848 106.301L76.1775 114.216C75.9825 114.832 75.1487 114.922 74.8266 114.362L65.5523 98.2507L64.001 95.5569C69.3335 94.4015 74.0782 91.663 77.7213 87.8571L79.2608 90.5299L88.4435 106.485C88.765 107.044 88.2702 107.719 87.6405 107.58Z" fill="#FF6600"/>
<path d="M87.6402 107.58L79.5523 105.8C79.1767 105.718 78.8011 105.935 78.6853 106.3L79.5559 103.595C79.6733 103.23 80.0493 103.015 80.4236 103.098L87.3834 104.645L88.4434 106.486C88.7655 107.044 88.2697 107.719 87.6402 107.58Z" fill="#FF6600"/>
<path d="M54.1704 95.3314L43.1736 114.431C42.8514 114.991 42.0177 114.901 41.8226 114.285L39.3152 106.369C39.1993 106.003 38.8231 105.786 38.4481 105.869L30.3597 107.649C29.73 107.787 29.2352 107.112 29.5569 106.554L39.7845 88.7848C43.6028 92.4048 48.7532 94.4395 54.1704 95.3314Z" fill="#FF6600"/>
<path d="M41.2319 91.4279L32.1181 107.261L30.3601 107.648C29.7303 107.787 29.2354 107.112 29.5571 106.553L38.2629 91.4279L40.6171 87.3273C41.251 87.9273 41.9131 88.4977 42.6034 89.0338L41.2319 91.4279Z" fill="#FC4755"/>
<path d="M44.2465 112.567L43.1731 114.431C42.851 114.991 42.0181 114.902 41.8222 114.286L39.3147 106.37C39.1989 106.003 38.8233 105.787 38.4478 105.868L41.2209 105.258C41.5959 105.176 41.972 105.393 42.0879 105.759L44.2465 112.567Z" fill="#FC4755"/>
<path d="M40.0319 88.3328L47.2645 91.5944L54.1703 95.3315L52.3186 98.5455C47.1552 97.4973 42.3646 95.0939 38.4052 91.5544C38.3577 91.5127 38.3102 91.471 38.2627 91.4278L40.0319 88.3328Z" fill="#FC4755"/>
<path d="M79.2603 90.5301L77.7208 87.8573L69.5744 91.4529L64.0005 95.5572L64.627 96.6449L66.1654 99.3168L74.8261 114.363C75.1482 114.922 75.982 114.832 76.177 114.216L76.7286 112.475L68.1203 97.481C72.2876 96.0307 76.0814 93.6716 79.2603 90.5301Z" fill="#FC4755"/>
<path d="M85.9432 69.1414C85.9432 76.4049 83.0854 83.0014 78.4343 87.8573C74.7911 91.6633 70.0465 94.4017 64.7139 95.5571C62.8715 95.9562 60.9609 96.1661 58.9998 96.1661C57.5033 96.1661 56.0366 96.0439 54.607 95.8088C49.4674 94.963 44.8162 92.6579 41.093 89.3315C40.8911 89.1527 40.6936 88.9712 40.4976 88.785C39.8029 88.1269 39.1437 87.4314 38.5202 86.7033C37.9234 86.0035 37.3622 85.2724 36.8382 84.513C35.2645 82.2363 34.0309 79.7033 33.2099 76.9903C32.4602 74.5066 32.0564 71.8724 32.0564 69.1415C32.0564 54.2167 44.12 42.1168 58.9998 42.1168C61.721 42.1168 64.3487 42.5217 66.8235 43.2753C69.5298 44.0958 72.0536 45.3332 74.325 46.9131C75.0821 47.4388 75.811 48.0016 76.5073 48.6016C77.4396 49.3997 78.3155 50.262 79.1305 51.1791C83.3689 55.9543 85.9432 62.247 85.9432 69.1414Z" fill="#FAA515"/>
<path d="M59.0001 88.4976C69.6582 88.4976 78.2983 79.8314 78.2983 69.1411C78.2983 58.4508 69.6582 49.7846 59.0001 49.7846C48.342 49.7846 39.7019 58.4508 39.7019 69.1411C39.7019 79.8314 48.342 88.4976 59.0001 88.4976Z" fill="#FAD207"/>
<path d="M78.2979 69.1413C78.2979 79.8313 69.6577 88.4976 59 88.4976C48.3423 88.4976 39.7021 79.8313 39.7021 69.1413C39.7021 68.3342 39.7511 67.5391 39.8476 66.7589C41.0175 76.3261 49.147 83.7326 59 83.7326C68.8531 83.7326 76.9826 76.3261 78.1524 66.7589C78.2489 67.5391 78.2979 68.3342 78.2979 69.1413Z" fill="#FAA515"/>
<path fill-rule="evenodd" clip-rule="evenodd" d="M59 49.7852C48.3423 49.7852 39.7021 58.4515 39.7021 69.1414C39.7021 79.8313 48.3423 88.4976 59 88.4976C69.6577 88.4976 78.2979 79.8313 78.2979 69.1414C78.2979 58.4515 69.6577 49.7852 59 49.7852ZM59 86.2639C49.5864 86.2639 41.929 78.5834 41.929 69.1414C41.929 59.6994 49.5864 52.0188 59 52.0188C68.4137 52.0188 76.0711 59.6994 76.0711 69.1414C76.0711 78.5834 68.4137 86.2639 59 86.2639Z" fill="#FAF063"/>
<path d="M59.6667 58.4376L62.3177 63.8528C62.4257 64.0734 62.6357 64.2264 62.8789 64.2612L68.8366 65.1172C69.4463 65.2048 69.6902 65.9541 69.2489 66.3837L64.9277 70.5914C64.7523 70.7623 64.6724 71.0086 64.7141 71.2498L65.7438 77.1992C65.8491 77.807 65.21 78.2705 64.6648 77.9817L59.3476 75.164C59.1302 75.0488 58.8698 75.0488 58.6525 75.164L53.3352 77.9817C52.7901 78.2706 52.151 77.8072 52.2562 77.1992L53.2859 71.2498C53.3276 71.0086 53.2478 70.7623 53.0723 70.5914L48.7512 66.3837C48.3098 65.9539 48.5537 65.2048 49.1634 65.1172L55.1211 64.2612C55.3642 64.2264 55.5742 64.0734 55.6823 63.8528L58.3333 58.4376C58.6048 57.8829 59.3952 57.8829 59.6667 58.4376Z" fill="#FAA515"/>
<path d="M77.684 74.1355C78.287 74.2584 78.8747 73.8696 78.9981 73.2654C79.2733 71.9166 79.4127 70.5289 79.4127 69.14C79.4127 57.8505 70.2556 48.6656 58.9999 48.6656C47.7443 48.6656 38.5872 57.8505 38.5872 69.14C38.5872 80.4296 47.7443 89.6144 58.9999 89.6144C66.6719 89.6144 73.626 85.3638 77.1485 78.5215C77.4305 77.9734 77.2165 77.2997 76.67 77.0167C76.1237 76.7336 75.4519 76.9487 75.1698 77.4965C72.0312 83.5933 65.8353 87.3808 59.0001 87.3808C48.9723 87.3808 40.8142 79.198 40.8142 69.1399C40.8142 59.0818 48.9723 50.899 59.0001 50.899C69.0279 50.899 77.186 59.0818 77.186 69.1399C77.186 70.3785 77.0618 71.6157 76.8165 72.8173C76.6932 73.4217 77.0817 74.0118 77.684 74.1355Z" fill="#CF2B15"/>
<path d="M71.388 64.9864C71.2567 64.5812 70.9073 64.2864 70.487 64.226L63.2304 63.1834L59.9994 56.5831C59.6304 55.7629 58.3694 55.7631 58.0005 56.5831L54.7694 63.1832L47.5129 64.2258C46.6201 64.3245 46.2321 65.5281 46.8951 66.1325L52.1548 71.2542L50.901 78.4986C50.7187 79.378 51.7374 80.1236 52.5181 79.6772L58.9999 76.2423L65.4816 79.6772C66.2612 80.1236 67.2815 79.378 67.0988 78.4986L65.8449 71.2542L71.1046 66.1325C71.4094 65.836 71.5192 65.3914 71.388 64.9864ZM63.8718 70.0628C63.6077 70.32 63.4874 70.6913 63.5502 71.0551L64.5168 76.6399L59.5199 73.9919C59.1945 73.8195 58.8051 73.8195 58.4797 73.9919L53.4828 76.6399L54.4494 71.0551C54.5123 70.6913 54.3919 70.32 54.1278 70.0628L50.073 66.1143L55.6673 65.3104C56.0316 65.258 56.3466 65.0287 56.5089 64.6972L58.9997 59.6091L61.4905 64.6972C61.6528 65.0285 61.9678 65.258 62.3321 65.3104L67.9264 66.1143L63.8718 70.0628Z" fill="#CF2B15"/>
<path d="M90.2456 107.383L79.363 88.4766C84.1281 83.4308 87.0553 76.622 87.0553 69.1398C87.0551 53.6234 74.4697 41 58.9999 41C54.2403 41 49.5381 42.2175 45.4013 44.5209C44.8636 44.8204 44.6697 45.5002 44.9683 46.0395C45.2667 46.5786 45.9445 46.773 46.4821 46.4739C50.2889 44.3541 54.6175 43.2337 58.9999 43.2337C73.2418 43.2337 84.8283 54.8553 84.8283 69.14C84.8283 83.4247 73.2418 95.0464 58.9999 95.0464C44.758 95.0464 33.1716 83.4247 33.1716 69.1398C33.1716 61.4765 36.5278 54.2483 42.3798 49.3088C42.8502 48.9117 42.9107 48.2071 42.5147 47.7353C42.1188 47.2634 41.4164 47.2025 40.946 47.5999C34.5901 52.9647 30.9448 60.8157 30.9448 69.1398C30.9448 76.6348 33.8817 83.4543 38.6612 88.5027L35.5791 93.8571C34.8406 95.0967 36.7948 96.2428 37.5076 94.9739L40.3094 90.1065C43.6614 93.1158 47.7362 95.3299 52.2371 96.4515L42.6292 113.143L40.1715 105.385C39.9973 104.835 39.4338 104.509 38.8717 104.632L30.944 106.376L34.9093 99.4875C35.2167 98.9533 35.0343 98.2703 34.5018 97.9619C33.9691 97.6536 33.2883 97.8365 32.9808 98.3706L27.754 107.451C27.2581 108.249 28.0455 109.333 28.9568 109.1L38.3566 107.032L41.2707 116.231C41.5254 117.136 42.8511 117.284 43.296 116.451L54.537 96.9224C55.9907 97.1565 57.4809 97.2799 58.9995 97.2799C60.5305 97.2799 62.0326 97.1543 63.4977 96.9165L70.2491 108.646C70.4553 109.004 70.8296 109.204 71.2144 109.204C71.4032 109.204 71.5947 109.156 71.77 109.054C72.3025 108.746 72.485 108.063 72.1775 107.529L65.7966 96.4431C70.2956 95.3158 74.3676 93.0968 77.7159 90.0833L87.0551 106.308L79.1274 104.564C78.5653 104.44 78.0019 104.766 77.8276 105.316L75.3699 113.075L74.7755 112.042C74.4681 111.508 73.7871 111.325 73.2546 111.634C72.7221 111.942 72.5396 112.625 72.8471 113.159L74.7029 116.383C75.148 117.216 76.4736 117.068 76.7283 116.163L79.6424 106.964L89.0422 109.032C89.9543 109.264 90.7411 108.181 90.2456 107.383Z" fill="#CF2B15"/>
</g>
</svg>
