<svg width="15" height="20" viewBox="0 0 15 20" fill="none" xmlns="http://www.w3.org/2000/svg">
<defs>
<linearGradient id="paint0_linear" x1="0" y1="0" x2="17.4596" y2="2.28303" gradientUnits="userSpaceOnUse">
<stop stop-color="#F29E51"/>
<stop offset="1" stop-color="#FF6600"/>
</linearGradient>
</defs>
<path fill-rule="evenodd" clip-rule="evenodd" d="M5.08233 0.805622L4.74202 1.61124L3.99121 1.53131C3.57819 1.48734 3.11664 1.40002 2.96557 1.33705C2.7231 1.23623 2.69075 1.32527 2.69075 2.0921C2.69075 3.07958 2.48942 3.3756 1.71081 3.53233C0.582309 3.75957 0.617173 3.69644 1.08704 4.65942L1.51294 5.53241L0.756468 6.19952L0 6.86679L0.630207 7.36587C1.4363 8.0044 1.5255 8.31408 1.12803 9.09316C0.951042 9.44023 0.80625 9.78949 0.80625 9.86958C0.80625 9.94951 1.12347 10.0626 1.51105 10.1207C2.48141 10.2661 2.69075 10.5235 2.69075 11.5705C2.69075 12.3001 2.73079 12.4245 2.93997 12.3442C3.07723 12.2916 3.46543 12.2045 3.80291 12.1504C4.55106 12.0308 4.82274 12.2247 5.22649 13.1668L5.52079 13.8532L6.1477 13.2868C6.9106 12.5975 7.2316 12.5804 7.9276 13.1915C8.22268 13.4506 8.52562 13.6624 8.60053 13.6621C8.67544 13.662 8.91351 13.3262 9.12944 12.9162C9.48467 12.2417 9.57434 12.171 10.0717 12.1746C10.374 12.1768 10.8156 12.2312 11.0532 12.2954L11.4851 12.4122V11.5699C11.4851 10.5807 11.7211 10.2904 12.6629 10.1218C13.0084 10.0601 13.3433 9.97966 13.4072 9.94323C13.4712 9.9068 13.3457 9.52613 13.1283 9.0974C12.6709 8.19442 12.7293 7.981 13.6215 7.30054L14.2027 6.85737L13.6244 6.39347C12.7284 5.67469 12.6717 5.46645 13.1276 4.56676C13.5638 3.70602 13.5988 3.76067 12.465 3.53233C11.6963 3.37765 11.4851 3.0766 11.4851 2.13608V1.31067L10.6909 1.47336C9.72055 1.67218 9.47478 1.54874 9.06333 0.655176C8.89734 0.294767 8.70543 0 8.63696 0C8.56833 0 8.27074 0.212006 7.97566 0.471124C7.68058 0.730242 7.29912 0.942248 7.12795 0.942248C6.95693 0.942248 6.55019 0.730242 6.22418 0.471124C5.89816 0.212006 5.58439 0 5.52707 0C5.46975 0 5.26968 0.362608 5.08233 0.805622ZM8.53975 2.98221C9.51514 3.34718 10.5621 4.33811 10.947 5.26088C11.3084 6.12681 11.2875 7.62184 10.902 8.49342C9.98092 10.5755 7.44549 11.563 5.43897 10.6213C3.90907 9.90334 3.14538 8.80107 3.04001 7.15889C2.95238 5.79278 3.331 4.75568 4.24294 3.86542C5.39217 2.74304 7.01111 2.41043 8.53975 2.98221ZM5.93161 3.68498C3.64462 4.50033 3.04063 7.59263 4.83562 9.29638C6.69844 11.0643 9.80425 10.0802 10.3687 7.54301C10.6224 6.40258 10.3338 5.44651 9.46598 4.55184C8.44301 3.49762 7.26677 3.20898 5.93161 3.68498ZM3.57567 13.3093C3.11821 14.1972 1.45609 18.3737 1.56099 18.3718C1.62098 18.3707 2.11692 18.2297 2.66311 18.0585C3.90719 17.6684 4.10616 17.7617 4.7494 19.0358L5.23607 20L5.92643 18.3164C6.30615 17.3904 6.61678 16.5418 6.61678 16.4308C6.61678 16.0837 5.89517 14.4365 5.78949 14.5422C5.73436 14.5975 5.5222 14.6006 5.31805 14.5494C5.06725 14.4864 4.82714 14.2005 4.57728 13.6668C4.15955 12.775 3.89887 12.6819 3.57567 13.3093ZM9.66872 13.5286C9.10165 14.7862 8.7282 14.8852 7.74025 14.0393C7.19893 13.5762 7.03781 13.5087 6.84826 13.6661C6.7209 13.7717 6.61678 13.9194 6.61678 13.9941C6.61678 14.2447 8.85682 19.6302 8.96109 19.6302C9.01763 19.6302 9.25586 19.239 9.49032 18.7611C10.0291 17.6623 10.3159 17.5511 11.6087 17.939C12.1611 18.1047 12.6351 18.2173 12.6619 18.1893C12.747 18.1001 10.6469 13.118 10.4734 12.9975C10.1419 12.7675 9.95689 12.8896 9.66872 13.5286Z" fill="url(#paint0_linear)"/>
</svg>
