<?xml version="1.0" encoding="UTF-8" standalone="no"?> <svg width="64" height="64" viewBox="0 0 64 64" fill="none" xmlns="http://www.w3.org/2000/svg">
<path d="M23.29 57.41L51.41 35.02L33.73 28.11L41.1301 6.72998L13.05 28.86L29.88 35.66L23.29 57.41Z"/>
<path d="M52.8101 34.76C52.7812 34.5374 52.6925 34.3268 52.5534 34.1507C52.4143 33.9746 52.23 33.8395 52.0201 33.76L35.0201 27.37L42.9301 6.55996C43.0212 6.30655 43.028 6.0305 42.9495 5.7729C42.871 5.51531 42.7114 5.28995 42.4945 5.13036C42.2776 4.97078 42.015 4.8855 41.7457 4.88723C41.4765 4.88896 41.2149 4.9776 41.0001 5.13996L11.6501 28.06C11.4769 28.1992 11.3432 28.3815 11.2625 28.5885C11.1818 28.7956 11.1568 29.0202 11.1901 29.24C11.219 29.4625 11.3077 29.6731 11.4468 29.8492C11.5859 30.0253 11.7702 30.1604 11.9801 30.24L28.9801 36.63L21.0701 57.44C20.979 57.6934 20.9722 57.9694 21.0507 58.227C21.1292 58.4846 21.2888 58.71 21.5057 58.8696C21.7226 59.0291 21.9852 59.1144 22.2545 59.1127C22.5237 59.111 22.7853 59.0223 23.0001 58.86L52.3501 35.94C52.5257 35.8028 52.6612 35.6208 52.7421 35.4131C52.8231 35.2055 52.8465 34.9798 52.8101 34.76ZM25.0001 54.15L31.7301 36.32C31.8441 36.0095 31.8314 35.6667 31.6948 35.3655C31.5582 35.0643 31.3087 34.8288 31.0001 34.71L15.0001 28.71L39.0001 9.84996L32.2901 27.68C32.175 27.9879 32.1849 28.3286 32.3175 28.6294C32.4502 28.9302 32.6951 29.1673 33.0001 29.29L49.0001 35.29L25.0001 54.15Z" fill="#ff6200"/>
</svg>
