<svg width="18" height="18" viewBox="0 0 18 18" fill="none" xmlns="http://www.w3.org/2000/svg">
<defs>
<linearGradient id="paint0_linear" x1="0" y1="0" x2="21.7674" y2="4.00807" gradientUnits="userSpaceOnUse">
<stop stop-color="#F29E51"/>
<stop offset="1" stop-color="#FF6600"/>
</linearGradient>
</defs>
<path d="M14.6244 6.75002C15.3097 6.75005 15.9788 6.54145 16.5427 6.15197C17.1065 5.76249 17.5385 5.21059 17.781 4.56966C18.0236 3.92873 18.0653 3.22914 17.9006 2.56392C17.7359 1.89871 17.3726 1.29939 16.8591 0.845667C16.3455 0.391944 15.7059 0.105318 15.0255 0.0239042C14.345 -0.0575096 13.6559 0.0701473 13.0498 0.389899C12.4437 0.70965 11.9492 1.20634 11.6323 1.81393C11.3153 2.42151 11.1908 3.1112 11.2753 3.79126L5.71776 6.57002C5.24102 6.11029 4.63956 5.80099 3.98829 5.68065C3.33702 5.5603 2.66474 5.63423 2.05519 5.89322C1.44563 6.15222 0.925753 6.58483 0.560306 7.13718C0.19486 7.68952 0 8.33718 0 8.99947C0 9.66176 0.19486 10.3094 0.560306 10.8618C0.925753 11.4141 1.44563 11.8467 2.05519 12.1057C2.66474 12.3647 3.33702 12.4386 3.98829 12.3183C4.63956 12.1979 5.24102 11.8886 5.71776 11.4289L11.2753 14.2077C11.1768 14.9977 11.3608 15.7971 11.7948 16.4646C12.2287 17.132 12.8846 17.6246 13.6466 17.8553C14.4086 18.0859 15.2276 18.0398 15.9589 17.725C16.6901 17.4102 17.2866 16.847 17.6428 16.135C17.999 15.423 18.092 14.608 17.9054 13.8341C17.7188 13.0601 17.2647 12.377 16.6232 11.9055C15.9817 11.434 15.1942 11.2045 14.3998 11.2575C13.6054 11.3104 12.8554 11.6425 12.2822 12.195L6.72464 9.41628C6.75869 9.13983 6.75869 8.86024 6.72464 8.58378L12.2822 5.80502C12.8874 6.39002 13.7132 6.75002 14.6244 6.75002Z" fill="url(#paint0_linear)"/>
</svg>
