<svg width="114" height="89" viewBox="0 0 114 89" fill="none" xmlns="http://www.w3.org/2000/svg">
<path d="M64.9995 2.25C61.4191 2.25 57.9853 3.67232 55.4535 6.20406C52.9218 8.7358 51.4995 12.1696 51.4995 15.75V18H49.632C47.7377 17.998 45.9157 18.7267 44.5452 20.0343C43.1747 21.3419 42.3614 23.1278 42.2745 25.02L40.497 62.0325C40.4514 63.0278 40.6079 64.022 40.9569 64.9552C41.3059 65.8884 41.8402 66.7413 42.5277 67.4624C43.2152 68.1835 44.0416 68.758 44.9571 69.1511C45.8725 69.5443 46.8582 69.748 47.8545 69.75H82.1445C83.1408 69.748 84.1264 69.5443 85.0419 69.1511C85.9574 68.758 86.7838 68.1835 87.4713 67.4624C88.1587 66.7413 88.6931 65.8884 89.0421 64.9552C89.3911 64.022 89.5476 63.0278 89.502 62.0325L87.7245 25.02C87.6376 23.1278 86.8242 21.3419 85.4537 20.0343C84.0833 18.7267 82.2612 17.998 80.367 18H78.4995V15.75C78.4995 12.1696 77.0772 8.7358 74.5454 6.20406C72.0137 3.67232 68.5799 2.25 64.9995 2.25V2.25ZM55.9995 15.75C55.9995 13.3631 56.9477 11.0739 58.6355 9.38604C60.3233 7.69821 62.6125 6.75 64.9995 6.75C67.3864 6.75 69.6756 7.69821 71.3634 9.38604C73.0513 11.0739 73.9995 13.3631 73.9995 15.75V18H55.9995V15.75ZM52.3095 27.4275C52.3095 26.9825 52.4414 26.5475 52.6887 26.1775C52.9359 25.8075 53.2873 25.5191 53.6984 25.3488C54.1096 25.1785 54.562 25.1339 54.9984 25.2207C55.4349 25.3076 55.8358 25.5218 56.1505 25.8365C56.4651 26.1512 56.6794 26.5521 56.7662 26.9885C56.8531 27.425 56.8085 27.8774 56.6382 28.2885C56.4679 28.6997 56.1795 29.0511 55.8095 29.2983C55.4395 29.5455 55.0045 29.6775 54.5595 29.6775C53.9627 29.6775 53.3904 29.4404 52.9685 29.0185C52.5465 28.5965 52.3095 28.0242 52.3095 27.4275ZM73.1895 27.4275C73.1895 26.9825 73.3214 26.5475 73.5687 26.1775C73.8159 25.8075 74.1673 25.5191 74.5784 25.3488C74.9896 25.1785 75.442 25.1339 75.8784 25.2207C76.3149 25.3076 76.7158 25.5218 77.0305 25.8365C77.3451 26.1512 77.5594 26.5521 77.6463 26.9885C77.7331 27.425 77.6885 27.8774 77.5182 28.2885C77.3479 28.6997 77.0595 29.0511 76.6895 29.2983C76.3195 29.5455 75.8845 29.6775 75.4395 29.6775C74.8427 29.6775 74.2705 29.4404 73.8485 29.0185C73.4265 28.5965 73.1895 28.0242 73.1895 27.4275Z" fill="#43E05C"/>
<path fill-rule="evenodd" clip-rule="evenodd" d="M59.3316 37.7213C60.2614 37.6471 61.1441 37.2814 61.8539 36.6763C62.6557 35.9934 63.6744 35.6184 64.7275 35.6184C65.7806 35.6184 66.7993 35.9934 67.6011 36.6763C68.3109 37.2814 69.1936 37.6471 70.1234 37.7213C71.1734 37.8053 72.1592 38.2604 72.904 39.0053C73.6489 39.7501 74.1041 40.7359 74.188 41.786C74.2617 42.7154 74.6274 43.5986 75.2331 44.3083C75.9159 45.11 76.2909 46.1287 76.2909 47.1818C76.2909 48.235 75.9159 49.2537 75.2331 50.0554C74.6279 50.7652 74.2622 51.6479 74.188 52.5777C74.1041 53.6277 73.6489 54.6135 72.904 55.3584C72.1592 56.1032 71.1734 56.5584 70.1234 56.6423C69.1936 56.7166 68.3109 57.0823 67.6011 57.6874C66.7993 58.3702 65.7806 58.7453 64.7275 58.7453C63.6744 58.7453 62.6557 58.3702 61.8539 57.6874C61.1441 57.0823 60.2614 56.7166 59.3316 56.6423C58.2816 56.5584 57.2958 56.1032 56.5509 55.3584C55.8061 54.6135 55.3509 53.6277 55.267 52.5777C55.1928 51.6479 54.827 50.7652 54.2219 50.0554C53.5391 49.2537 53.1641 48.235 53.1641 47.1818C53.1641 46.1287 53.5391 45.11 54.2219 44.3083C54.827 43.5984 55.1928 42.7158 55.267 41.786C55.3509 40.7359 55.8061 39.7501 56.5509 39.0053C57.2958 38.2604 58.2816 37.8053 59.3316 37.7213V37.7213ZM70.0858 45.3129C70.3491 45.0403 70.4948 44.6751 70.4915 44.2961C70.4882 43.9171 70.3362 43.5546 70.0682 43.2866C69.8002 43.0186 69.4377 42.8666 69.0587 42.8633C68.6797 42.86 68.3145 43.0057 68.0419 43.269L63.282 48.0289L61.4131 46.1599C61.1405 45.8966 60.7753 45.7509 60.3963 45.7542C60.0173 45.7575 59.6548 45.9095 59.3868 46.1775C59.1188 46.4455 58.9668 46.808 58.9635 47.187C58.9602 47.566 59.1059 47.9312 59.3692 48.2038L62.2601 51.0947C62.5312 51.3657 62.8988 51.5179 63.282 51.5179C63.6653 51.5179 64.0329 51.3657 64.304 51.0947L70.0858 45.3129V45.3129Z" fill="white"/>
<path d="M35.9529 3.78219H33.9526C33.4258 3.78219 33 3.35635 33 2.82964V0.952553C33 0.425847 33.4258 0 33.9526 0H35.9529C36.4796 0 36.9055 0.425847 36.9055 0.952553V2.82964C36.9055 3.35635 36.4768 3.78219 35.9529 3.78219Z" fill="#ABABD1"/>
<path d="M21.661 43.4852L23.356 48.5253H28.8444C29.1442 48.5253 29.2674 48.8952 29.0265 49.0661L24.5859 52.1815L26.2809 57.2216C26.3734 57.4961 26.0484 57.7259 25.8046 57.555L21.3641 54.4396L16.9235 57.555C16.6825 57.7259 16.3547 57.4961 16.4472 57.2216L18.1422 52.1815L13.7016 49.0661C13.4607 48.8952 13.5839 48.5253 13.8837 48.5253H19.3721L21.0671 43.4852C21.1679 43.2107 21.5686 43.2107 21.661 43.4852Z" fill="#FFEAD1"/>
<path d="M20.4435 33.954H0.927338C0.414641 33.954 0 33.5394 0 33.0267C0 32.514 0.414641 32.0994 0.927338 32.0994H20.4407C20.9533 32.0994 21.368 32.514 21.368 33.0267C21.368 33.5394 20.9533 33.954 20.4435 33.954Z" fill="#E2D6C6"/>
<path d="M16.12 79.2H14.2653C13.7778 79.2 13.3828 78.805 13.3828 78.3175V76.5749C13.3828 76.0874 13.7778 75.6924 14.2653 75.6924H16.12C16.6075 75.6924 17.0025 76.0874 17.0025 76.5749V78.3175C17.0025 78.805 16.6075 79.2 16.12 79.2Z" fill="#E2D6C6"/>
<path d="M3.44948 14.5387C3.44948 15.2083 2.91437 15.749 2.25599 15.749C1.59761 15.749 1.0625 15.2083 1.0625 14.5387C1.0625 13.8691 1.59761 13.3284 2.25599 13.3284C2.91437 13.3284 3.44948 13.8691 3.44948 14.5387Z" fill="#FFEAD1"/>
<path d="M70.2646 85.8447V88.3744" stroke="#91A9E8" stroke-miterlimit="10" stroke-linejoin="round"/>
<path d="M71.5297 87.1096H69" stroke="#91A9E8" stroke-miterlimit="10" stroke-linejoin="round"/>
<path d="M104 58H113.982" stroke="#91A9E8" stroke-miterlimit="10" stroke-linejoin="round"/>
<path d="M79.3906 76H86.1199" stroke="#91A9E8" stroke-miterlimit="10" stroke-linejoin="round"/>
<path d="M107.07 30.1618L108.344 34.0841H112.468C112.692 34.0841 112.788 34.3726 112.606 34.5043L109.269 36.9277L110.544 40.85C110.614 41.0629 110.367 41.2422 110.188 41.1105L106.851 38.6871L103.514 41.1105C103.332 41.2422 103.088 41.0657 103.158 40.85L104.433 36.9277L101.096 34.5043C100.914 34.3726 101.007 34.0841 101.234 34.0841H105.358L106.632 30.1618C106.7 29.9461 107 29.9461 107.07 30.1618Z" fill="#FFEAD1"/>
</svg>
