<svg width="372" height="277" viewBox="0 0 372 277" fill="none" xmlns="http://www.w3.org/2000/svg">
<defs>
        <filter id="filter0_d" x="15" y="25" width="267" height="243" filterUnits="userSpaceOnUse" color-interpolation-filters="sRGB">
            <feFlood flood-opacity="0" result="BackgroundImageFix"/>
            <feColorMatrix in="SourceAlpha" type="matrix" values="0 0 0 0 0 0 0 0 0 0 0 0 0 0 0 0 0 0 127 0"/>
            <feOffset dy="4"/>
            <feGaussianBlur stdDeviation="25"/>
            <feColorMatrix type="matrix" values="0 0 0 0 0 0 0 0 0 0 0 0 0 0 0 0 0 0 0.04 0"/>
            <feBlend mode="normal" in2="BackgroundImageFix" result="effect1_dropShadow"/>
            <feBlend mode="normal" in="SourceGraphic" in2="effect1_dropShadow" result="shape"/>
        </filter>
        <linearGradient id="paint0_linear" x1="66" y1="193" x2="67.7473" y2="206.352" gradientUnits="userSpaceOnUse">
            <stop stop-color="#F29E51"/>
            <stop offset="1" stop-color="#FF6600"/>
        </linearGradient>
    </defs>
<rect x="116" y="2" width="147" height="273" rx="30" fill="#FFEAD1" stroke="white" stroke-width="4"/>
<g filter="url(#filter0_d)">
<rect x="65" y="71" width="167" height="143" rx="21" fill="#E7E6FF"/>
<rect x="67.5" y="73.5" width="162" height="138" rx="18.5" stroke="white" stroke-width="5"/>
</g>
<circle cx="189" cy="253" r="11" fill="#FF6200"/>
<rect x="174" y="15" width="30" height="4" rx="2" fill="#FF6200"/>
<path d="M8.08152 236.458C8.08152 238.443 6.49534 240.05 4.54076 240.05C2.58618 240.05 1 238.443 1 236.458C1 234.472 2.58618 232.866 4.54076 232.866C6.49534 232.866 8.08152 234.477 8.08152 236.458Z" stroke="white" stroke-width="0.871784" stroke-miterlimit="10"/>
<path d="M48.3004 19.2154L50.0445 24.4898H55.683C55.989 24.4898 56.117 24.8755 55.8694 25.0533L51.3074 28.3143L53.0515 33.5886C53.1461 33.8759 52.8123 34.1139 52.562 33.9388L48 30.6779L43.438 33.9388C43.1905 34.1166 42.8539 33.8786 42.9485 33.5886L44.6926 28.3143L40.1306 25.0533C39.883 24.8755 40.011 24.4898 40.317 24.4898H45.9555L47.6996 19.2154C47.7942 18.9282 48.2058 18.9282 48.3004 19.2154Z" fill="white"/>
<path d="M369.599 267.387H329.694C328.757 267.387 328 266.63 328 265.694C328 264.757 328.757 264 329.694 264H369.599C370.535 264 371.292 264.757 371.292 265.694C371.292 266.63 370.535 267.387 369.599 267.387Z" fill="white"/>
<path d="M252.542 116.145H210.81C208.154 116.145 206 113.991 206 111.336V89.8097C206 87.1541 208.154 85 210.81 85H252.542C255.197 85 257.351 87.1541 257.351 89.8097V111.336C257.351 113.991 255.197 116.145 252.542 116.145Z" fill="#6A6ABB"/>
<path d="M223.243 112.784L229.562 121.825C230.463 123.109 232.366 123.104 233.257 121.81L239.458 112.779H223.243V112.784Z" fill="#6A6ABB"/>
<path d="M229.102 95.7401C227.516 94.1846 224.973 94.2153 223.422 95.8015L222.399 96.8453L221.345 95.8066C219.764 94.246 217.221 94.2716 215.66 95.8475C214.105 97.4286 214.12 99.9716 215.706 101.532L219.616 105.38C219.626 105.39 219.631 105.4 219.636 105.406C220.26 106.014 221.033 106.383 221.831 106.506C223.069 106.695 224.374 106.306 225.316 105.344L229.158 101.42C230.714 99.8334 230.688 97.2904 229.102 95.7401Z" fill="white"/>
<path d="M240.581 105.356H234.456V104.502L237.692 100.907C238.171 100.363 238.501 99.9222 238.68 99.584C238.864 99.2416 238.956 98.8885 238.956 98.5247C238.956 98.0368 238.809 97.6367 238.513 97.3242C238.218 97.0118 237.824 96.8556 237.332 96.8556C236.742 96.8556 236.281 97.0246 235.952 97.3627C235.627 97.6966 235.464 98.1631 235.464 98.7623H234.276C234.276 97.902 234.552 97.2065 235.104 96.6758C235.661 96.1451 236.403 95.8797 237.332 95.8797C238.201 95.8797 238.888 96.1087 239.393 96.5667C239.898 97.0203 240.15 97.626 240.15 98.3835C240.15 99.3037 239.564 100.399 238.391 101.671L235.888 104.386H240.581V105.356ZM242.385 100.669L242.86 96.0081H247.649V97.1059H243.868L243.585 99.6547C244.043 99.385 244.563 99.2502 245.145 99.2502C245.997 99.2502 246.673 99.5327 247.174 100.098C247.675 100.658 247.925 101.418 247.925 102.377C247.925 103.34 247.664 104.099 247.142 104.656C246.624 105.208 245.898 105.484 244.965 105.484C244.139 105.484 243.465 105.255 242.943 104.797C242.421 104.339 242.124 103.706 242.051 102.897H243.174C243.247 103.432 243.438 103.836 243.746 104.11C244.054 104.38 244.46 104.515 244.965 104.515C245.518 104.515 245.95 104.326 246.262 103.95C246.579 103.573 246.737 103.053 246.737 102.39C246.737 101.765 246.566 101.264 246.224 100.887C245.886 100.506 245.434 100.316 244.869 100.316C244.351 100.316 243.945 100.429 243.649 100.656L243.335 100.913L242.385 100.669Z" fill="white"/>
<path d="M127.236 244.264C127.658 236.677 121.85 230.185 114.264 229.764C106.677 229.342 100.185 235.15 99.7635 242.736C99.3418 250.323 105.15 256.815 112.736 257.236C120.323 257.658 126.815 251.85 127.236 244.264Z" fill="#F7546C"/>
<path d="M115.81 248.361C113.429 248.403 111.017 248.433 108.827 248.284C108.136 248.237 107.534 247.136 108.375 246.786C108.02 246.602 107.662 246.427 107.508 246.03C107.363 245.654 107.538 245.142 107.931 245.048C107.103 245.253 106.778 243.943 107.423 243.52C107.081 243.23 106.8 242.846 106.727 242.402C106.655 241.958 106.838 241.459 107.231 241.245C107.487 241.104 107.794 241.1 108.089 241.096C109.079 241.087 110.069 241.083 111.06 241.074C110.791 239.525 110.71 237.835 111.499 236.473C111.738 236.063 112.374 235.572 112.878 235.888C113.352 236.183 113.219 236.921 113.198 237.382C113.1 239.312 114.197 241.249 115.9 242.159C115.9 242.159 115.785 246.265 115.81 248.361Z" fill="#FBFBFB"/>
<path d="M116.675 248.353H120.273V242.155H116.675V248.353Z" fill="#FBFBFB"/>
<path d="M285 97C290.523 97 295 92.5228 295 87C295 81.4772 290.523 77 285 77C279.477 77 275 81.4772 275 87C275 92.5228 279.477 97 285 97Z" fill="#F7546C"/>
<path d="M288.401 84.4271C287.582 83.6236 286.27 83.639 285.469 84.4577L284.942 84.9974L284.399 84.4608C283.583 83.6574 282.271 83.6666 281.467 84.4823C280.664 85.298 280.673 86.6104 281.492 87.4139L283.51 89.401C283.513 89.4041 283.516 89.4102 283.522 89.4133C283.844 89.7291 284.243 89.9162 284.657 89.9806C285.294 90.0787 285.969 89.8794 286.457 89.3826L288.441 87.3556C289.232 86.5399 289.22 85.2274 288.401 84.4271Z" fill="white"/>
<path d="M261.758 207.742C266.31 206.495 268.989 201.794 267.742 197.242C266.495 192.69 261.794 190.011 257.242 191.258C252.69 192.505 250.011 197.206 251.258 201.758C252.505 206.31 257.206 208.989 261.758 207.742Z" fill="#F7546C"/>
<path d="M264.433 196.685C263.985 195.561 262.819 194.83 261.612 194.899C260.233 194.982 259.219 195.961 258.95 197.161C258.184 196.196 256.839 195.761 255.563 196.292C254.446 196.754 253.729 197.927 253.811 199.134C253.88 200.12 254.418 200.927 255.163 201.396L260.088 204.479C260.439 204.7 260.902 204.59 261.115 204.245L264.198 199.32C264.681 198.561 264.805 197.603 264.433 196.685Z" fill="white"/>
<path d="M250.283 174.717C255.097 172.903 257.53 167.531 255.717 162.717C253.903 157.903 248.531 155.47 243.717 157.283C238.903 159.097 236.47 164.469 238.283 169.283C240.097 174.097 245.469 176.53 250.283 174.717Z" fill="#FFD05A"/>
<path d="M249.178 170.036C249.005 171.048 248.61 171.953 247.812 172.645C247.285 173.097 246.676 173.344 245.968 173.221C245.277 173.105 244.792 172.694 244.43 172.118C244.002 171.435 243.846 170.678 243.862 169.88C243.887 168.892 244.158 167.971 244.751 167.164C244.989 166.835 245.277 166.556 245.623 166.342C246.684 165.683 247.894 165.955 248.602 167.008C249.013 167.617 249.194 168.3 249.227 169.024C249.252 169.37 249.235 169.707 249.178 170.036Z" fill="#252C37"/>
<path d="M252.946 164.827C252.864 165.272 252.724 165.667 252.42 165.988C251.984 166.448 251.383 166.457 250.939 166.012C250.593 165.667 250.429 165.239 250.371 164.77C250.289 164.144 250.379 163.552 250.741 163.025C251.062 162.556 251.523 162.375 251.984 162.548C252.296 162.663 252.51 162.902 252.667 163.19C252.963 163.7 253.021 164.26 252.946 164.827Z" fill="#252C37"/>
<path d="M241.863 163.017C241.986 162.4 242.249 161.808 242.825 161.396C243.467 160.936 244.183 161.141 244.463 161.882C244.726 162.573 244.594 163.248 244.274 163.89C244.101 164.235 243.854 164.531 243.517 164.737C242.908 165.116 242.249 164.91 241.97 164.243C241.813 163.865 241.797 163.47 241.863 163.017Z" fill="#252C37"/>
<path d="M243.993 157.833C244.553 157.94 244.989 158.138 245.343 158.484C245.54 158.681 245.557 158.936 245.384 159.117C245.211 159.298 244.956 159.29 244.75 159.092C244.52 158.878 244.257 158.747 243.944 158.689C243.549 158.615 243.261 158.837 242.99 159.068C242.891 159.15 242.792 159.216 242.66 159.208C242.488 159.199 242.364 159.125 242.29 158.969C242.216 158.813 242.224 158.64 242.34 158.516C242.817 158.056 243.36 157.759 243.993 157.833Z" fill="#252C37"/>
<path d="M252.296 159.093C252.946 159.216 253.399 159.652 253.72 160.245C253.827 160.442 253.728 160.681 253.531 160.788C253.325 160.895 253.086 160.829 252.971 160.623C252.856 160.426 252.724 160.245 252.535 160.105C252.28 159.907 252 159.882 251.696 159.924C251.358 159.965 251.112 159.718 251.186 159.405C251.227 159.241 251.334 159.142 251.498 159.101C251.745 159.051 252 159.06 252.296 159.093Z" fill="#252C37"/>
<path d="M288.171 166.409C297.679 164.213 303.606 154.724 301.409 145.216C299.213 135.708 289.724 129.781 280.216 131.978C270.708 134.174 264.781 143.663 266.978 153.171C269.174 162.679 278.663 168.606 288.171 166.409Z" fill="#F7546C"/>
<path d="M295.705 151.587C296.535 149.227 295.745 146.497 293.775 144.957C291.525 143.197 288.615 143.327 286.555 144.827C286.685 142.277 285.195 139.767 282.495 138.857C280.125 138.057 277.405 138.887 275.895 140.877C274.655 142.507 274.385 144.487 274.905 146.237L278.335 157.757C278.575 158.577 279.435 159.037 280.255 158.797L291.775 155.367C293.515 154.827 295.025 153.517 295.705 151.587Z" fill="white"/>
<path d="M244.21 203.42C245.431 203.42 246.42 202.431 246.42 201.21C246.42 199.989 245.431 199 244.21 199C242.989 199 242 199.989 242 201.21C242 202.431 242.989 203.42 244.21 203.42Z" stroke="#91A9E8" stroke-miterlimit="10" stroke-linejoin="round"/>
<path d="M130.025 129.6C128.196 129.6 126.714 128.117 126.714 126.289V122.204C126.714 118.727 127.63 115.305 129.363 112.309C130.279 110.726 132.304 110.185 133.887 111.101C135.47 112.016 136.011 114.042 135.095 115.625C133.944 117.614 133.336 119.89 133.336 122.204V126.289C133.336 128.117 131.854 129.6 130.025 129.6Z" fill="#8888A8"/>
<path d="M162.975 129.6C164.803 129.6 166.286 128.117 166.286 126.289V122.204C166.286 118.727 165.37 115.305 163.636 112.309C162.721 110.726 160.696 110.185 159.113 111.101C157.53 112.016 156.989 114.042 157.905 115.625C159.055 117.614 159.664 119.89 159.664 122.204V126.289C159.664 128.117 161.146 129.6 162.975 129.6Z" fill="#8888A8"/>
<path d="M173.917 137.638C176.868 147.964 185.692 169.332 178.195 174.395C169.896 180 151.686 180 146.5 180C141.314 180 123.104 180 114.805 174.395C107.308 169.332 116.132 147.964 119.083 137.638H173.917Z" fill="#FF6200"/>
<path d="M173.917 137.638H119.083C116.132 147.965 107.308 169.332 114.805 174.395C118.997 177.226 125.718 178.627 132.012 179.32C127.934 175.805 126.491 168.601 126.759 161.772C132.043 164.231 138.642 165.473 146.5 165.473C159.342 165.473 168.827 162.161 174.692 155.628C176.097 154.063 177.193 152.422 178.044 150.77C176.567 145.837 174.91 141.112 173.917 137.638Z" fill="#C43111"/>
<path d="M171.741 132.554C173.863 132.554 175.652 134.148 175.88 136.257C176.941 146.07 172.642 160.705 146.5 160.705C120.357 160.705 116.059 146.07 117.12 136.257C117.348 134.148 119.137 132.554 121.259 132.554H171.741Z" fill="#FF6200"/>
<path d="M156.323 147.799H136.677C135.057 147.799 133.743 149.113 133.743 150.734V151.756C133.743 153.377 135.057 154.691 136.677 154.691H156.323C157.943 154.691 159.257 153.377 159.257 151.756V150.734C159.257 149.113 157.943 147.799 156.323 147.799Z" fill="#F4D0A5"/>
<path d="M133.483 126.289H126.567C125.115 126.289 123.937 127.466 123.937 128.919V132.554H136.113V128.919C136.113 127.466 134.936 126.289 133.483 126.289Z" fill="#C43111"/>
<path d="M159.517 126.289H166.433C167.885 126.289 169.063 127.466 169.063 128.919V132.554H156.887V128.919C156.887 127.466 158.064 126.289 159.517 126.289Z" fill="#C43111"/>
<path d="M160.775 118.698C159.142 118.698 157.553 117.851 156.677 116.335C154.58 112.711 150.68 110.46 146.5 110.46C142.319 110.46 138.42 112.711 136.323 116.335C135.015 118.596 132.122 119.369 129.861 118.061C127.6 116.753 126.827 113.86 128.135 111.599C131.917 105.061 138.954 101 146.5 101C154.046 101 161.083 105.061 164.865 111.598C166.173 113.86 165.4 116.753 163.139 118.061C162.393 118.492 161.579 118.698 160.775 118.698Z" fill="#E1AC9A"/>
<path d="M62.4194 214.287L64.8128 221.32H72.563C72.9863 221.32 73.1603 221.835 72.8201 222.074L66.5496 226.421L68.9431 233.453C69.0736 233.836 68.6147 234.156 68.2705 233.918L62 229.571L55.7295 233.918C55.3892 234.156 54.9264 233.836 55.0569 233.453L57.4504 226.421L51.1799 222.074C50.8397 221.835 51.0137 221.32 51.437 221.32H59.1872L61.5806 214.287C61.7231 213.904 62.2888 213.904 62.4194 214.287Z" fill="white"/>
<path d="M48.8771 181.796H13.2342C12.2978 181.796 11.5405 181.039 11.5405 180.102C11.5405 179.166 12.2978 178.409 13.2342 178.409H48.872C49.8084 178.409 50.5656 179.166 50.5656 180.102C50.5656 181.039 49.8084 181.796 48.8771 181.796Z" fill="#E7E6FF" fill-opacity="0.33"/>
<path d="M36.7045 113.908H33.0512C32.0893 113.908 31.3115 113.13 31.3115 112.168V108.74C31.3115 107.778 32.0893 107 33.0512 107H36.7045C37.6665 107 38.4442 107.778 38.4442 108.74V112.168C38.4442 113.13 37.6614 113.908 36.7045 113.908Z" fill="white"/>
<path d="M40.9819 264.431H37.5947C36.7044 264.431 35.9829 263.709 35.9829 262.819V259.636C35.9829 258.746 36.7044 258.024 37.5947 258.024H40.9819C41.8722 258.024 42.5937 258.746 42.5937 259.636V262.819C42.5937 263.709 41.8722 264.431 40.9819 264.431Z" fill="#E2D6C6"/>
<path d="M17.8394 146.337C17.8394 147.56 16.8621 148.547 15.6597 148.547C14.4573 148.547 13.48 147.56 13.48 146.337C13.48 145.114 14.4573 144.126 15.6597 144.126C16.8621 144.126 17.8394 145.114 17.8394 146.337Z" fill="white"/>
<path d="M276.17 242.25V246.87" stroke="white" stroke-miterlimit="10" stroke-linejoin="round"/>
<path d="M278.48 244.56H273.86" stroke="white" stroke-miterlimit="10" stroke-linejoin="round"/>
<path d="M305.35 229.26H323.58" stroke="white" stroke-miterlimit="10" stroke-linejoin="round"/>
<path d="M292.84 224.27H305.13" stroke="white" stroke-miterlimit="10" stroke-linejoin="round"/>
<path d="M350.085 154.295L352.413 161.459H359.945C360.354 161.459 360.528 161.986 360.196 162.226L354.102 166.652L356.43 173.816C356.558 174.205 356.107 174.532 355.78 174.292L349.686 169.866L343.592 174.292C343.259 174.532 342.814 174.21 342.942 173.816L345.27 166.652L339.176 162.226C338.844 161.986 339.012 161.459 339.427 161.459H346.959L349.287 154.295C349.41 153.902 349.957 153.902 350.085 154.295Z" fill="white"/>
<rect x="44" y="186" width="166" height="17" rx="6" fill="white"/>
<rect x="66" y="193" width="137" height="2" fill="#FCE7CF"/>
<rect x="66" y="193" width="83" height="2" fill="url(#paint0_linear)"/>
<circle cx="53.5" cy="194.5" r="5.5" fill="#FDE8D0"/>
<rect x="52" y="192" width="1" height="5" fill="#C43111"/>
<rect x="54" y="192" width="1" height="5" fill="#C43111"/>
</svg>
