<svg width="308" height="371" viewBox="0 0 308 371" fill="none" xmlns="http://www.w3.org/2000/svg">
    <defs>
        <filter id="filter0_d" x="15" y="182" width="225" height="136" filterUnits="userSpaceOnUse" color-interpolation-filters="sRGB">
            <feFlood flood-opacity="0" result="BackgroundImageFix"/>
            <feColorMatrix in="SourceAlpha" type="matrix" values="0 0 0 0 0 0 0 0 0 0 0 0 0 0 0 0 0 0 127 0"/>
            <feOffset dy="4"/>
            <feGaussianBlur stdDeviation="25"/>
            <feColorMatrix type="matrix" values="0 0 0 0 0 0 0 0 0 0 0 0 0 0 0 0 0 0 0.04 0"/>
            <feBlend mode="normal" in2="BackgroundImageFix" result="effect1_dropShadow"/>
            <feBlend mode="normal" in="SourceGraphic" in2="effect1_dropShadow" result="shape"/>
        </filter>
        <filter id="filter1_d" x="48" y="0" width="225" height="207" filterUnits="userSpaceOnUse" color-interpolation-filters="sRGB">
            <feFlood flood-opacity="0" result="BackgroundImageFix"/>
            <feColorMatrix in="SourceAlpha" type="matrix" values="0 0 0 0 0 0 0 0 0 0 0 0 0 0 0 0 0 0 127 0"/>
            <feOffset dy="4"/>
            <feGaussianBlur stdDeviation="25"/>
            <feColorMatrix type="matrix" values="0 0 0 0 0 0 0 0 0 0 0 0 0 0 0 0 0 0 0.04 0"/>
            <feBlend mode="normal" in2="BackgroundImageFix" result="effect1_dropShadow"/>
            <feBlend mode="normal" in="SourceGraphic" in2="effect1_dropShadow" result="shape"/>
        </filter>
        <filter id="filter2_d" x="48" y="114" width="159" height="146" filterUnits="userSpaceOnUse" color-interpolation-filters="sRGB">
            <feFlood flood-opacity="0" result="BackgroundImageFix"/>
            <feColorMatrix in="SourceAlpha" type="matrix" values="0 0 0 0 0 0 0 0 0 0 0 0 0 0 0 0 0 0 127 0"/>
            <feOffset dy="4"/>
            <feGaussianBlur stdDeviation="25"/>
            <feColorMatrix type="matrix" values="0 0 0 0 0 0 0 0 0 0 0 0 0 0 0 0 0 0 0.04 0"/>
            <feBlend mode="normal" in2="BackgroundImageFix" result="effect1_dropShadow"/>
            <feBlend mode="normal" in="SourceGraphic" in2="effect1_dropShadow" result="shape"/>
        </filter>
        <filter id="filter3_d" x="111" y="114" width="159" height="146" filterUnits="userSpaceOnUse" color-interpolation-filters="sRGB">
            <feFlood flood-opacity="0" result="BackgroundImageFix"/>
            <feColorMatrix in="SourceAlpha" type="matrix" values="0 0 0 0 0 0 0 0 0 0 0 0 0 0 0 0 0 0 127 0"/>
            <feOffset dy="4"/>
            <feGaussianBlur stdDeviation="25"/>
            <feColorMatrix type="matrix" values="0 0 0 0 0 0 0 0 0 0 0 0 0 0 0 0 0 0 0.04 0"/>
            <feBlend mode="normal" in2="BackgroundImageFix" result="effect1_dropShadow"/>
            <feBlend mode="normal" in="SourceGraphic" in2="effect1_dropShadow" result="shape"/>
        </filter>
        <clipPath id="clip0">
            <rect width="19" height="19" fill="white" transform="translate(76 236)"/>
        </clipPath>
        <clipPath id="clip1">
            <rect width="50.3823" height="83.1154" fill="white" transform="translate(148.512 52) rotate(15)"/>
        </clipPath>
    </defs>
    <rect x="87" y="6" width="147" height="273" rx="30" fill="#FFEAD1" stroke="white" stroke-width="4"/>
<g filter="url(#filter0_d)">
<rect x="65" y="228" width="125" height="36" rx="15" fill="white"/>
</g>
<g clip-path="url(#clip0)">
<path d="M92.1677 250.717C91.7594 250.028 91.1542 249.49 90.4492 249.156C91.27 248.257 91.2461 246.859 90.3772 245.99C89.4835 245.096 88.0293 245.096 87.1356 245.99C87.0651 246.06 87.0007 246.135 86.9414 246.212C87.2947 246.378 87.6201 246.606 87.9042 246.89C88.8762 247.862 89.1462 249.272 88.6999 250.487C89.1643 250.864 89.5593 251.32 89.8677 251.84C90.1377 252.295 90.2708 252.798 90.2675 253.301H90.6845C91.3107 253.301 91.8701 252.975 92.1806 252.43C92.4882 251.89 92.4834 251.25 92.1677 250.717Z" fill="#FF6600"/>
<path d="M81.1008 251.84C81.4092 251.32 81.8043 250.864 82.2686 250.487C81.8224 249.272 82.0924 247.862 83.0645 246.89C83.3484 246.606 83.6739 246.378 84.0273 246.212C83.9678 246.135 83.9035 246.06 83.8329 245.99C82.9392 245.096 81.485 245.096 80.5913 245.99C79.7224 246.859 79.6985 248.257 80.5194 249.156C79.8143 249.49 79.2091 250.028 78.8008 250.717C78.4851 251.25 78.4803 251.89 78.7879 252.43C79.0985 252.976 79.6579 253.301 80.2842 253.301H80.7011C80.6977 252.798 80.8308 252.296 81.1008 251.84Z" fill="#FF6600"/>
<path d="M88.8959 252.416C88.4875 251.727 87.8823 251.189 87.1774 250.855C87.9981 249.957 87.9742 248.558 87.1053 247.689C86.2117 246.795 84.7574 246.795 83.8638 247.689C82.9949 248.558 82.971 249.957 83.7917 250.855C83.0868 251.189 82.4816 251.727 82.0733 252.416C81.7575 252.949 81.7527 253.589 82.0603 254.129C82.371 254.675 82.9302 255 83.5566 255H87.4127C88.0389 255 88.5983 254.675 88.9088 254.129C89.2164 253.589 89.2116 252.949 88.8959 252.416Z" fill="#FF6600"/>
<path d="M85.4846 244.608C87.8577 244.608 89.7884 242.677 89.7884 240.304C89.7884 237.931 87.8577 236 85.4846 236C83.1114 236 81.1807 237.931 81.1807 240.304C81.1807 242.677 83.1114 244.608 85.4846 244.608ZM88.6582 240.304C88.6582 242.054 87.2346 243.478 85.4846 243.478C83.7345 243.478 82.3109 242.054 82.3109 240.304C82.3109 238.554 83.7345 237.13 85.4846 237.13C87.2346 237.13 88.6582 238.554 88.6582 240.304Z" fill="#FF6600"/>
<path d="M85.4841 240.869H86.9552C87.2673 240.869 87.5202 240.616 87.5202 240.304C87.5202 239.992 87.2673 239.739 86.9552 239.739H86.0492V238.972C86.0492 238.66 85.7962 238.407 85.4841 238.407C85.172 238.407 84.9189 238.66 84.9189 238.972V240.304C84.9189 240.616 85.172 240.869 85.4841 240.869Z" fill="#FF6600"/>
</g>
<path d="M107.227 250.12C106.567 250.12 105.991 249.97 105.497 249.67C105.004 249.37 104.621 248.953 104.347 248.42C104.074 247.88 103.937 247.253 103.937 246.54C103.937 245.82 104.077 245.187 104.357 244.64C104.644 244.087 105.047 243.657 105.567 243.35C106.094 243.037 106.717 242.88 107.437 242.88C108.257 242.88 108.937 243.077 109.477 243.47C110.017 243.863 110.367 244.407 110.527 245.1H109.097C108.991 244.773 108.797 244.52 108.517 244.34C108.237 244.153 107.877 244.06 107.437 244.06C106.737 244.06 106.197 244.283 105.817 244.73C105.437 245.17 105.247 245.777 105.247 246.55C105.247 247.323 105.434 247.923 105.807 248.35C106.187 248.77 106.701 248.98 107.347 248.98C107.981 248.98 108.457 248.81 108.777 248.47C109.104 248.123 109.301 247.67 109.367 247.11H107.597V246.15H110.657V250H109.477L109.377 249.08C109.151 249.413 108.867 249.67 108.527 249.85C108.187 250.03 107.754 250.12 107.227 250.12ZM111.872 250V245.04H113.012L113.132 245.97C113.312 245.65 113.555 245.397 113.862 245.21C114.175 245.017 114.542 244.92 114.962 244.92V246.27H114.602C114.322 246.27 114.072 246.313 113.852 246.4C113.632 246.487 113.458 246.637 113.332 246.85C113.212 247.063 113.152 247.36 113.152 247.74V250H111.872ZM118.129 250.12C117.649 250.12 117.215 250.01 116.829 249.79C116.449 249.57 116.145 249.267 115.919 248.88C115.699 248.487 115.589 248.033 115.589 247.52C115.589 247.007 115.702 246.557 115.929 246.17C116.155 245.777 116.459 245.47 116.839 245.25C117.225 245.03 117.659 244.92 118.139 244.92C118.612 244.92 119.039 245.03 119.419 245.25C119.805 245.47 120.109 245.777 120.329 246.17C120.555 246.557 120.669 247.007 120.669 247.52C120.669 248.033 120.555 248.487 120.329 248.88C120.109 249.267 119.805 249.57 119.419 249.79C119.032 250.01 118.602 250.12 118.129 250.12ZM118.129 249.01C118.462 249.01 118.752 248.887 118.999 248.64C119.245 248.387 119.369 248.013 119.369 247.52C119.369 247.027 119.245 246.657 118.999 246.41C118.752 246.157 118.465 246.03 118.139 246.03C117.799 246.03 117.505 246.157 117.259 246.41C117.019 246.657 116.899 247.027 116.899 247.52C116.899 248.013 117.019 248.387 117.259 248.64C117.505 248.887 117.795 249.01 118.129 249.01ZM123.673 250.12C123.053 250.12 122.573 249.927 122.233 249.54C121.9 249.153 121.733 248.587 121.733 247.84V245.04H123.003V247.72C123.003 248.147 123.09 248.473 123.263 248.7C123.436 248.927 123.71 249.04 124.083 249.04C124.436 249.04 124.726 248.913 124.953 248.66C125.186 248.407 125.303 248.053 125.303 247.6V245.04H126.583V250H125.453L125.353 249.16C125.2 249.453 124.976 249.687 124.683 249.86C124.396 250.033 124.06 250.12 123.673 250.12ZM127.897 252.2V245.04H129.037L129.177 245.75C129.337 245.53 129.547 245.337 129.807 245.17C130.074 245.003 130.417 244.92 130.837 244.92C131.304 244.92 131.72 245.033 132.087 245.26C132.454 245.487 132.744 245.797 132.957 246.19C133.17 246.583 133.277 247.03 133.277 247.53C133.277 248.03 133.17 248.477 132.957 248.87C132.744 249.257 132.454 249.563 132.087 249.79C131.72 250.01 131.304 250.12 130.837 250.12C130.464 250.12 130.137 250.05 129.857 249.91C129.577 249.77 129.35 249.573 129.177 249.32V252.2H127.897ZM130.567 249C130.974 249 131.31 248.863 131.577 248.59C131.844 248.317 131.977 247.963 131.977 247.53C131.977 247.097 131.844 246.74 131.577 246.46C131.31 246.18 130.974 246.04 130.567 246.04C130.154 246.04 129.814 246.18 129.547 246.46C129.287 246.733 129.157 247.087 129.157 247.52C129.157 247.953 129.287 248.31 129.547 248.59C129.814 248.863 130.154 249 130.567 249ZM136.833 250V243H139.643C140.37 243 140.923 243.17 141.303 243.51C141.69 243.843 141.883 244.273 141.883 244.8C141.883 245.24 141.763 245.593 141.523 245.86C141.29 246.12 141.003 246.297 140.663 246.39C141.063 246.47 141.393 246.67 141.653 246.99C141.913 247.303 142.043 247.67 142.043 248.09C142.043 248.643 141.843 249.1 141.443 249.46C141.043 249.82 140.477 250 139.743 250H136.833ZM138.113 245.94H139.453C139.813 245.94 140.09 245.857 140.283 245.69C140.477 245.523 140.573 245.287 140.573 244.98C140.573 244.687 140.477 244.457 140.283 244.29C140.097 244.117 139.813 244.03 139.433 244.03H138.113V245.94ZM138.113 248.96H139.543C139.923 248.96 140.217 248.873 140.423 248.7C140.637 248.52 140.743 248.27 140.743 247.95C140.743 247.623 140.633 247.367 140.413 247.18C140.193 246.993 139.897 246.9 139.523 246.9H138.113V248.96ZM144.972 250.12C144.352 250.12 143.872 249.927 143.532 249.54C143.199 249.153 143.032 248.587 143.032 247.84V245.04H144.302V247.72C144.302 248.147 144.389 248.473 144.562 248.7C144.735 248.927 145.009 249.04 145.382 249.04C145.735 249.04 146.025 248.913 146.252 248.66C146.485 248.407 146.602 248.053 146.602 247.6V245.04H147.882V250H146.752L146.652 249.16C146.499 249.453 146.275 249.687 145.982 249.86C145.695 250.033 145.359 250.12 144.972 250.12ZM149.816 252.2L150.966 249.67H150.666L148.736 245.04H150.126L151.516 248.53L152.966 245.04H154.326L151.176 252.2H149.816Z" fill="#FC7516"/>
<rect x="145" y="19" width="30" height="4" rx="2" fill="#FF6200"/>
<path d="M58.0815 149.592C58.0815 151.577 56.4953 153.184 54.5408 153.184C52.5862 153.184 51 151.577 51 149.592C51 147.607 52.5862 146 54.5408 146C56.4953 146 58.0815 147.612 58.0815 149.592Z" stroke="white" stroke-width="0.871784" stroke-miterlimit="10"/>
<path d="M42.9889 11.2154L44.733 16.4898H50.3715C50.6775 16.4898 50.8054 16.8755 50.5579 17.0533L45.9959 20.3143L47.74 25.5886C47.8346 25.8759 47.5008 26.1139 47.2504 25.9388L42.6885 22.6779L38.1265 25.9388C37.8789 26.1166 37.5424 25.8786 37.6369 25.5886L39.3811 20.3143L34.8191 17.0533C34.5715 16.8755 34.6995 16.4898 35.0055 16.4898H40.6439L42.3881 11.2154C42.4826 10.9282 42.8943 10.9282 42.9889 11.2154Z" fill="white"/>
<path d="M41.5988 197.387H1.69363C0.757271 197.387 0 196.63 0 195.694C0 194.757 0.757271 194 1.69363 194H41.5988C42.5352 194 43.2925 194.757 43.2925 195.694C43.2925 196.63 42.5352 197.387 41.5988 197.387Z" fill="white"/>
<path d="M297.419 106.287L299.813 113.32H307.563C307.986 113.32 308.16 113.835 307.82 114.074L301.55 118.421L303.943 125.453C304.074 125.836 303.615 126.156 303.271 125.918L297 121.571L290.729 125.918C290.389 126.156 289.926 125.836 290.057 125.453L292.45 118.421L286.18 114.074C285.84 113.835 286.014 113.32 286.437 113.32H294.187L296.581 106.287C296.723 105.904 297.289 105.904 297.419 106.287Z" fill="white"/>
<path d="M283.878 73.7959H248.235C247.298 73.7959 246.541 73.0387 246.541 72.1023C246.541 71.166 247.298 70.4087 248.235 70.4087H283.872C284.809 70.4087 285.566 71.166 285.566 72.1023C285.566 73.0387 284.809 73.7959 283.878 73.7959Z" fill="#E7E6FF" fill-opacity="0.33"/>
<path d="M31.393 105.908H27.7397C26.7777 105.908 26 105.13 26 104.168V100.74C26 99.7777 26.7777 99 27.7397 99H31.393C32.3549 99 33.1327 99.7777 33.1327 100.74V104.168C33.1327 105.13 32.3498 105.908 31.393 105.908Z" fill="white"/>
<path d="M275.981 156.431H272.594C271.704 156.431 270.982 155.709 270.982 154.819V151.636C270.982 150.746 271.704 150.024 272.594 150.024H275.981C276.872 150.024 277.593 150.746 277.593 151.636V154.819C277.593 155.709 276.872 156.431 275.981 156.431Z" fill="#E2D6C6"/>
<path d="M252.84 38.3369C252.84 39.5598 251.863 40.5473 250.66 40.5473C249.458 40.5473 248.48 39.5598 248.48 38.3369C248.48 37.114 249.458 36.1265 250.66 36.1265C251.863 36.1265 252.84 37.114 252.84 38.3369Z" fill="white"/>
<path d="M247.169 246.25V250.87" stroke="white" stroke-miterlimit="10" stroke-linejoin="round"/>
<path d="M249.479 248.56H244.859" stroke="white" stroke-miterlimit="10" stroke-linejoin="round"/>
<path d="M276.35 233.26H294.58" stroke="white" stroke-miterlimit="10" stroke-linejoin="round"/>
<path d="M263.84 228.27H276.13" stroke="white" stroke-miterlimit="10" stroke-linejoin="round"/>
<path d="M216.188 370.845L201.388 360.23C201.388 360.23 183.61 354.158 178.976 350.645C174.354 347.133 160.198 329.293 158.92 324.484C157.642 319.675 162.887 296.174 162.887 296.174C162.887 296.174 170.654 298.179 172.243 307.265C173.832 316.351 173.432 322.168 173.432 322.168L187.521 333.548C187.521 333.548 183.465 322.091 181.565 318.268C179.665 314.445 176.009 303.465 176.009 303.465L166.12 280.783L157.587 255.708C157.587 255.708 155.62 248.605 158.887 246.567C165.165 242.633 172.987 260.472 172.987 260.472L194.399 301.614C194.399 301.614 184.821 278.678 191.288 275.752C197.754 272.827 203.11 277.902 203.11 277.902C203.11 277.902 202.21 273.237 206.899 272.34C211.577 271.442 216.244 275.32 216.244 275.32C217.11 273.403 216.766 272.484 219.832 271.453C225.144 269.669 237.733 286.899 240.855 293.359C243.977 299.819 251.077 325.781 255 332.983C258.922 340.185 266 347.764 266 347.764L265.378 371L216.188 370.845Z" fill="#F2CFC7"/>
<g filter="url(#filter1_d)">
<rect x="98" y="46" width="125" height="107" rx="15" fill="#E7E6FF"/>
<rect x="99" y="47" width="123" height="105" rx="14" stroke="white" stroke-width="2"/>
</g>
<g filter="url(#filter2_d)">
<rect x="98" y="160" width="59" height="46" rx="15" fill="white"/>
<rect x="99" y="161" width="57" height="44" rx="14" stroke="white" stroke-width="2"/>
</g>
<g filter="url(#filter3_d)">
<rect x="161" y="160" width="59" height="46" rx="15" fill="white"/>
<rect x="162" y="161" width="57" height="44" rx="14" stroke="white" stroke-width="2"/>
</g>
<path d="M115.83 179V173.24H118.054C118.377 173.24 118.658 173.307 118.898 173.44C119.138 173.573 119.325 173.753 119.458 173.98C119.592 174.204 119.658 174.452 119.658 174.724C119.658 175.033 119.576 175.309 119.41 175.552C119.245 175.792 119.024 175.959 118.746 176.052L118.738 175.856C119.112 175.963 119.405 176.149 119.618 176.416C119.832 176.683 119.938 177.005 119.938 177.384C119.938 177.717 119.868 178.005 119.726 178.248C119.585 178.488 119.386 178.673 119.13 178.804C118.874 178.935 118.577 179 118.238 179H115.83ZM116.422 178.436H118.094C118.329 178.436 118.54 178.395 118.726 178.312C118.913 178.227 119.06 178.107 119.166 177.952C119.276 177.797 119.33 177.611 119.33 177.392C119.33 177.179 119.281 176.987 119.182 176.816C119.084 176.645 118.949 176.509 118.778 176.408C118.61 176.304 118.418 176.252 118.202 176.252H116.422V178.436ZM116.422 175.696H118.05C118.234 175.696 118.402 175.655 118.554 175.572C118.706 175.487 118.826 175.371 118.914 175.224C119.005 175.077 119.05 174.908 119.05 174.716C119.05 174.444 118.956 174.223 118.766 174.052C118.58 173.881 118.341 173.796 118.05 173.796H116.422V175.696ZM122.22 179.108C121.961 179.108 121.734 179.068 121.54 178.988C121.348 178.908 121.184 178.8 121.048 178.664C120.914 178.528 120.806 178.373 120.724 178.2C120.641 178.024 120.581 177.839 120.544 177.644C120.506 177.447 120.488 177.251 120.488 177.056V174.68H121.08V176.884C121.08 177.121 121.102 177.341 121.148 177.544C121.193 177.747 121.265 177.924 121.364 178.076C121.465 178.225 121.594 178.341 121.752 178.424C121.912 178.507 122.105 178.548 122.332 178.548C122.54 178.548 122.722 178.512 122.88 178.44C123.04 178.368 123.173 178.265 123.28 178.132C123.389 177.996 123.472 177.832 123.528 177.64C123.584 177.445 123.612 177.227 123.612 176.984L124.028 177.076C124.028 177.519 123.95 177.891 123.796 178.192C123.641 178.493 123.428 178.721 123.156 178.876C122.884 179.031 122.572 179.108 122.22 179.108ZM123.672 179V177.936H123.612V174.68H124.2V179H123.672ZM125.764 180.92L126.6 178.652L126.612 179.324L124.72 174.68H125.344L126.896 178.564H126.64L128.072 174.68H128.672L126.352 180.92H125.764ZM130.151 179L131.839 176.816L130.187 174.68H130.891L132.183 176.364L133.463 174.68H134.167L132.515 176.816L134.207 179H133.499L132.183 177.268L130.859 179H130.151ZM136.176 177.948V176.372H134.6V175.868H136.176V174.292H136.68V175.868H138.252V176.372H136.68V177.948H136.176Z" fill="#C5B4A0"/>
<path d="M177.306 179V173.24H179.53C179.852 173.24 180.134 173.307 180.374 173.44C180.614 173.573 180.8 173.753 180.934 173.98C181.067 174.204 181.134 174.452 181.134 174.724C181.134 175.033 181.051 175.309 180.886 175.552C180.72 175.792 180.499 175.959 180.222 176.052L180.214 175.856C180.587 175.963 180.88 176.149 181.094 176.416C181.307 176.683 181.414 177.005 181.414 177.384C181.414 177.717 181.343 178.005 181.202 178.248C181.06 178.488 180.862 178.673 180.606 178.804C180.35 178.935 180.052 179 179.714 179H177.306ZM177.898 178.436H179.57C179.804 178.436 180.015 178.395 180.202 178.312C180.388 178.227 180.535 178.107 180.642 177.952C180.751 177.797 180.806 177.611 180.806 177.392C180.806 177.179 180.756 176.987 180.658 176.816C180.559 176.645 180.424 176.509 180.254 176.408C180.086 176.304 179.894 176.252 179.678 176.252H177.898V178.436ZM177.898 175.696H179.526C179.71 175.696 179.878 175.655 180.03 175.572C180.182 175.487 180.302 175.371 180.39 175.224C180.48 175.077 180.526 174.908 180.526 174.716C180.526 174.444 180.431 174.223 180.242 174.052C180.055 173.881 179.816 173.796 179.526 173.796H177.898V175.696ZM183.695 179.108C183.436 179.108 183.209 179.068 183.015 178.988C182.823 178.908 182.659 178.8 182.523 178.664C182.389 178.528 182.281 178.373 182.199 178.2C182.116 178.024 182.056 177.839 182.019 177.644C181.981 177.447 181.963 177.251 181.963 177.056V174.68H182.555V176.884C182.555 177.121 182.577 177.341 182.623 177.544C182.668 177.747 182.74 177.924 182.839 178.076C182.94 178.225 183.069 178.341 183.227 178.424C183.387 178.507 183.58 178.548 183.807 178.548C184.015 178.548 184.197 178.512 184.355 178.44C184.515 178.368 184.648 178.265 184.755 178.132C184.864 177.996 184.947 177.832 185.003 177.64C185.059 177.445 185.087 177.227 185.087 176.984L185.503 177.076C185.503 177.519 185.425 177.891 185.271 178.192C185.116 178.493 184.903 178.721 184.631 178.876C184.359 179.031 184.047 179.108 183.695 179.108ZM185.147 179V177.936H185.087V174.68H185.675V179H185.147ZM187.24 180.92L188.076 178.652L188.088 179.324L186.196 174.68H186.82L188.372 178.564H188.116L189.548 174.68H190.148L187.828 180.92H187.24ZM191.626 179L193.314 176.816L191.662 174.68H192.366L193.658 176.364L194.938 174.68H195.642L193.99 176.816L195.682 179H194.974L193.658 177.268L192.334 179H191.626ZM196.771 180.92L197.607 178.652L197.619 179.324L195.727 174.68H196.351L197.903 178.564H197.647L199.079 174.68H199.679L197.359 180.92H196.771ZM201.701 177.948V176.372H200.125V175.868H201.701V174.292H202.205V175.868H203.777V176.372H202.205V177.948H201.701Z" fill="#C5B4A0"/>
<path d="M113.123 192L114.783 189.705L113.156 187.46H114.35L115.371 188.911L116.376 187.46H117.57L115.943 189.705L117.612 192H116.418L115.371 190.499L114.316 192H113.123ZM117.608 192L119.269 189.705L117.642 187.46H118.836L119.857 188.911L120.862 187.46H122.056L120.429 189.705L122.098 192H120.904L119.857 190.499L118.802 192H117.608ZM123.439 192L122.767 191.327L128.151 185.947L128.824 186.624L123.439 192ZM127.563 192.126C127.285 192.126 127.032 192.059 126.802 191.924C126.575 191.787 126.393 191.605 126.256 191.378C126.118 191.148 126.05 190.893 126.05 190.613C126.05 190.338 126.12 190.086 126.26 189.856C126.4 189.626 126.585 189.443 126.815 189.306C127.044 189.168 127.294 189.1 127.563 189.1C127.84 189.1 128.094 189.168 128.324 189.306C128.553 189.44 128.736 189.622 128.87 189.852C129.007 190.079 129.076 190.333 129.076 190.613C129.076 190.893 129.007 191.148 128.87 191.378C128.736 191.605 128.553 191.787 128.324 191.924C128.094 192.059 127.84 192.126 127.563 192.126ZM127.563 191.26C127.678 191.26 127.784 191.231 127.882 191.172C127.983 191.113 128.063 191.035 128.122 190.937C128.181 190.838 128.21 190.731 128.21 190.613C128.21 190.495 128.181 190.387 128.122 190.289C128.063 190.191 127.983 190.113 127.882 190.054C127.784 189.995 127.678 189.966 127.563 189.966C127.445 189.966 127.337 189.995 127.239 190.054C127.141 190.113 127.061 190.191 127 190.289C126.941 190.387 126.911 190.495 126.911 190.613C126.911 190.731 126.941 190.838 127 190.937C127.061 191.035 127.141 191.113 127.239 191.172C127.337 191.231 127.445 191.26 127.563 191.26ZM124.028 188.847C123.75 188.847 123.497 188.78 123.267 188.646C123.037 188.508 122.854 188.326 122.716 188.099C122.582 187.869 122.515 187.614 122.515 187.334C122.515 187.06 122.585 186.807 122.725 186.578C122.865 186.348 123.05 186.164 123.28 186.027C123.509 185.89 123.759 185.821 124.028 185.821C124.305 185.821 124.557 185.89 124.784 186.027C125.014 186.161 125.198 186.344 125.335 186.573C125.472 186.8 125.541 187.054 125.541 187.334C125.541 187.614 125.472 187.869 125.335 188.099C125.198 188.326 125.014 188.508 124.784 188.646C124.557 188.78 124.305 188.847 124.028 188.847ZM124.028 187.982C124.145 187.982 124.253 187.952 124.351 187.893C124.449 187.834 124.528 187.756 124.587 187.658C124.646 187.56 124.675 187.452 124.675 187.334C124.675 187.217 124.646 187.109 124.587 187.011C124.528 186.912 124.449 186.834 124.351 186.775C124.253 186.716 124.145 186.687 124.028 186.687C123.91 186.687 123.802 186.716 123.704 186.775C123.606 186.834 123.528 186.912 123.469 187.011C123.41 187.109 123.38 187.217 123.38 187.334C123.38 187.452 123.41 187.56 123.469 187.658C123.528 187.756 123.606 187.834 123.704 187.893C123.802 187.952 123.91 187.982 124.028 187.982ZM133.518 192.126C133.064 192.126 132.667 192.024 132.328 191.819C131.989 191.615 131.726 191.333 131.538 190.974C131.353 190.613 131.261 190.198 131.261 189.73C131.261 189.254 131.356 188.836 131.546 188.478C131.737 188.119 132.002 187.839 132.341 187.637C132.68 187.435 133.072 187.334 133.518 187.334C133.975 187.334 134.373 187.437 134.712 187.641C135.051 187.846 135.314 188.129 135.502 188.49C135.69 188.849 135.783 189.262 135.783 189.73C135.783 190.201 135.688 190.617 135.498 190.979C135.31 191.337 135.046 191.619 134.707 191.823C134.368 192.025 133.972 192.126 133.518 192.126ZM133.518 191.176C133.921 191.176 134.221 191.042 134.417 190.773C134.614 190.504 134.712 190.156 134.712 189.73C134.712 189.29 134.612 188.94 134.413 188.679C134.214 188.416 133.916 188.284 133.518 188.284C133.246 188.284 133.022 188.346 132.845 188.469C132.672 188.59 132.543 188.759 132.459 188.978C132.374 189.194 132.332 189.444 132.332 189.73C132.332 190.17 132.432 190.522 132.631 190.785C132.833 191.046 133.128 191.176 133.518 191.176ZM136.936 192V187.389C136.936 187.274 136.94 187.148 136.948 187.011C136.957 186.87 136.98 186.732 137.02 186.594C137.059 186.457 137.13 186.332 137.234 186.22C137.363 186.077 137.502 185.979 137.65 185.926C137.801 185.87 137.95 185.839 138.096 185.834C138.241 185.825 138.369 185.821 138.478 185.821H139.046V186.645H138.52C138.327 186.645 138.183 186.694 138.087 186.792C137.995 186.887 137.949 187.013 137.949 187.17V192H136.936ZM136.204 188.255V187.46H139.046V188.255H136.204ZM139.764 192V187.389C139.764 187.274 139.769 187.148 139.777 187.011C139.785 186.87 139.809 186.732 139.849 186.594C139.888 186.457 139.959 186.332 140.063 186.22C140.192 186.077 140.331 185.979 140.479 185.926C140.63 185.87 140.779 185.839 140.925 185.834C141.07 185.825 141.198 185.821 141.307 185.821H141.875V186.645H141.349C141.156 186.645 141.011 186.694 140.916 186.792C140.824 186.887 140.777 187.013 140.777 187.17V192H139.764ZM139.033 188.255V187.46H141.875V188.255H139.033Z" fill="#6A6ABB"/>
<path d="M176.123 192L177.783 189.705L176.156 187.46H177.35L178.371 188.911L179.376 187.46H180.57L178.943 189.705L180.612 192H179.418L178.371 190.499L177.316 192H176.123ZM180.608 192L182.269 189.705L180.642 187.46H181.836L182.857 188.911L183.862 187.46H185.056L183.429 189.705L185.098 192H183.904L182.857 190.499L181.802 192H180.608ZM186.439 192L185.767 191.327L191.151 185.947L191.824 186.624L186.439 192ZM190.563 192.126C190.285 192.126 190.032 192.059 189.802 191.924C189.575 191.787 189.393 191.605 189.256 191.378C189.118 191.148 189.05 190.893 189.05 190.613C189.05 190.338 189.12 190.086 189.26 189.856C189.4 189.626 189.585 189.443 189.815 189.306C190.044 189.168 190.294 189.1 190.563 189.1C190.84 189.1 191.094 189.168 191.324 189.306C191.553 189.44 191.736 189.622 191.87 189.852C192.007 190.079 192.076 190.333 192.076 190.613C192.076 190.893 192.007 191.148 191.87 191.378C191.736 191.605 191.553 191.787 191.324 191.924C191.094 192.059 190.84 192.126 190.563 192.126ZM190.563 191.26C190.678 191.26 190.784 191.231 190.882 191.172C190.983 191.113 191.063 191.035 191.122 190.937C191.181 190.838 191.21 190.731 191.21 190.613C191.21 190.495 191.181 190.387 191.122 190.289C191.063 190.191 190.983 190.113 190.882 190.054C190.784 189.995 190.678 189.966 190.563 189.966C190.445 189.966 190.337 189.995 190.239 190.054C190.141 190.113 190.061 190.191 190 190.289C189.941 190.387 189.911 190.495 189.911 190.613C189.911 190.731 189.941 190.838 190 190.937C190.061 191.035 190.141 191.113 190.239 191.172C190.337 191.231 190.445 191.26 190.563 191.26ZM187.028 188.847C186.75 188.847 186.497 188.78 186.267 188.646C186.037 188.508 185.854 188.326 185.716 188.099C185.582 187.869 185.515 187.614 185.515 187.334C185.515 187.06 185.585 186.807 185.725 186.578C185.865 186.348 186.05 186.164 186.28 186.027C186.509 185.89 186.759 185.821 187.028 185.821C187.305 185.821 187.557 185.89 187.784 186.027C188.014 186.161 188.198 186.344 188.335 186.573C188.472 186.8 188.541 187.054 188.541 187.334C188.541 187.614 188.472 187.869 188.335 188.099C188.198 188.326 188.014 188.508 187.784 188.646C187.557 188.78 187.305 188.847 187.028 188.847ZM187.028 187.982C187.145 187.982 187.253 187.952 187.351 187.893C187.449 187.834 187.528 187.756 187.587 187.658C187.646 187.56 187.675 187.452 187.675 187.334C187.675 187.217 187.646 187.109 187.587 187.011C187.528 186.912 187.449 186.834 187.351 186.775C187.253 186.716 187.145 186.687 187.028 186.687C186.91 186.687 186.802 186.716 186.704 186.775C186.606 186.834 186.528 186.912 186.469 187.011C186.41 187.109 186.38 187.217 186.38 187.334C186.38 187.452 186.41 187.56 186.469 187.658C186.528 187.756 186.606 187.834 186.704 187.893C186.802 187.952 186.91 187.982 187.028 187.982ZM196.518 192.126C196.064 192.126 195.667 192.024 195.328 191.819C194.989 191.615 194.726 191.333 194.538 190.974C194.353 190.613 194.261 190.198 194.261 189.73C194.261 189.254 194.356 188.836 194.546 188.478C194.737 188.119 195.002 187.839 195.341 187.637C195.68 187.435 196.072 187.334 196.518 187.334C196.975 187.334 197.373 187.437 197.712 187.641C198.051 187.846 198.314 188.129 198.502 188.49C198.69 188.849 198.783 189.262 198.783 189.73C198.783 190.201 198.688 190.617 198.498 190.979C198.31 191.337 198.046 191.619 197.707 191.823C197.368 192.025 196.972 192.126 196.518 192.126ZM196.518 191.176C196.921 191.176 197.221 191.042 197.417 190.773C197.614 190.504 197.712 190.156 197.712 189.73C197.712 189.29 197.612 188.94 197.413 188.679C197.214 188.416 196.916 188.284 196.518 188.284C196.246 188.284 196.022 188.346 195.845 188.469C195.672 188.59 195.543 188.759 195.459 188.978C195.374 189.194 195.332 189.444 195.332 189.73C195.332 190.17 195.432 190.522 195.631 190.785C195.833 191.046 196.128 191.176 196.518 191.176ZM199.936 192V187.389C199.936 187.274 199.94 187.148 199.948 187.011C199.957 186.87 199.98 186.732 200.02 186.594C200.059 186.457 200.13 186.332 200.234 186.22C200.363 186.077 200.502 185.979 200.65 185.926C200.801 185.87 200.95 185.839 201.096 185.834C201.241 185.825 201.369 185.821 201.478 185.821H202.046V186.645H201.52C201.327 186.645 201.183 186.694 201.087 186.792C200.995 186.887 200.949 187.013 200.949 187.17V192H199.936ZM199.204 188.255V187.46H202.046V188.255H199.204ZM202.764 192V187.389C202.764 187.274 202.769 187.148 202.777 187.011C202.785 186.87 202.809 186.732 202.849 186.594C202.888 186.457 202.959 186.332 203.063 186.22C203.192 186.077 203.331 185.979 203.479 185.926C203.63 185.87 203.779 185.839 203.925 185.834C204.07 185.825 204.198 185.821 204.307 185.821H204.875V186.645H204.349C204.156 186.645 204.011 186.694 203.916 186.792C203.824 186.887 203.777 187.013 203.777 187.17V192H202.764ZM202.033 188.255V187.46H204.875V188.255H202.033Z" fill="#6A6ABB"/>
<g clip-path="url(#clip1)">
<path d="M158.662 79.3104L161.394 69.1123C161.518 68.6492 161.256 68.2017 160.849 68.1821L159.464 68.1087C158.818 68.0746 158.17 68.3626 157.684 68.8976L150.247 77.0556L141.032 111.448L143.394 122.231C143.552 122.939 143.969 123.512 144.541 123.805L145.777 124.434C146.139 124.62 146.59 124.364 146.714 123.9L149.447 113.702L158.662 79.3104Z" fill="#FCBD58"/>
<path d="M180.961 85.2855L178.598 74.5016C178.441 73.7942 178.023 73.2208 177.451 72.9285L176.215 72.2994C175.853 72.1131 175.402 72.3695 175.278 72.8326L172.544 83.0354L163.329 117.427L160.595 127.63C160.471 128.093 160.733 128.541 161.14 128.56L162.525 128.634C163.171 128.668 163.819 128.38 164.305 127.845L171.743 119.687L180.961 85.2855Z" fill="#FCBD58"/>
<path opacity="0.5" d="M176.012 73.3019C175.591 73.6507 175.662 74.4393 176.176 75.0586C176.691 75.6778 177.45 75.9011 177.872 75.5476C178.293 75.1988 178.222 74.4103 177.707 73.791C177.193 73.1718 176.433 72.9531 176.012 73.3019Z" fill="white"/>
<path d="M174.033 74.6086C169.775 73.9194 165.626 72.8075 161.584 71.2729C160.953 71.0344 160.615 70.3529 160.79 69.6999L163.514 59.5343C163.744 58.6728 164.467 58.0325 165.345 57.9054C169.849 57.2508 173.883 58.3316 177.456 61.1505C178.157 61.7008 178.457 62.62 178.227 63.4768L175.503 73.6424C175.334 74.292 174.696 74.7116 174.033 74.6086Z" fill="#EF5038"/>
<path d="M165.023 61.686C164.847 61.6389 164.741 61.4569 164.789 61.2809L165.301 59.3681C165.348 59.1922 165.53 59.0871 165.706 59.1342C165.882 59.1814 165.987 59.3634 165.94 59.5394L165.428 61.4521C165.381 61.6281 165.199 61.7332 165.023 61.686Z" fill="#F7A8A0"/>
<path d="M163.911 65.8306C163.735 65.7834 163.63 65.6014 163.677 65.4254L164.232 63.3552C164.279 63.1792 164.461 63.0741 164.637 63.1213C164.813 63.1684 164.918 63.3505 164.871 63.5265L164.316 65.5966C164.269 65.7726 164.087 65.8777 163.911 65.8306Z" fill="#F7A8A0"/>
<path d="M162.844 69.8132C162.668 69.7661 162.563 69.584 162.61 69.4081L163.122 67.4953C163.17 67.3194 163.352 67.2143 163.528 67.2614C163.704 67.3086 163.809 67.4906 163.761 67.6666L163.249 69.5793C163.202 69.7553 163.02 69.8604 162.844 69.8132Z" fill="#F7A8A0"/>
<path d="M175.851 64.5869C175.675 64.5398 175.57 64.3577 175.617 64.1817L176.129 62.269C176.176 62.093 176.358 61.9879 176.534 62.0351C176.71 62.0822 176.815 62.2643 176.768 62.4403L176.256 64.353C176.209 64.529 176.027 64.6341 175.851 64.5869Z" fill="#F7A8A0"/>
<path d="M174.739 68.7319C174.563 68.6848 174.458 68.5027 174.505 68.3268L175.06 66.2566C175.107 66.0806 175.289 65.9755 175.465 66.0226C175.641 66.0698 175.746 66.2518 175.699 66.4278L175.144 68.498C175.097 68.674 174.915 68.7791 174.739 68.7319Z" fill="#F7A8A0"/>
<path d="M173.672 72.7146C173.496 72.6675 173.391 72.4854 173.438 72.3094L173.951 70.3967C173.998 70.2207 174.18 70.1156 174.356 70.1628C174.532 70.2099 174.637 70.392 174.59 70.568L174.077 72.4807C174.03 72.6567 173.848 72.7618 173.672 72.7146Z" fill="#F7A8A0"/>
<g opacity="0.2">
<path opacity="0.2" d="M173.954 73.1079L162.371 70.0043C161.496 69.7698 160.977 68.8713 161.211 67.996C161.446 67.1207 162.344 66.602 163.22 66.8365L174.807 69.9414C175.682 70.1759 176.201 71.0744 175.967 71.9497C175.727 72.8237 174.829 73.3425 173.954 73.1079Z" fill="white"/>
</g>
<path opacity="0.5" d="M160.525 69.1523C160.715 69.6649 160.259 70.312 159.504 70.5913C158.749 70.8705 157.98 70.6842 157.791 70.167C157.601 69.6544 158.057 69.0073 158.812 68.7281C159.567 68.4488 160.334 68.6397 160.525 69.1523Z" fill="white"/>
<path opacity="0.5" d="M161.468 127.581C161.278 127.068 161.734 126.421 162.489 126.142C163.244 125.862 164.013 126.049 164.202 126.566C164.392 127.079 163.936 127.726 163.181 128.005C162.426 128.284 161.657 128.098 161.468 127.581Z" fill="white"/>
<path d="M160.406 125.465C156.374 123.932 152.224 122.821 147.957 122.129C147.291 122.02 146.657 122.441 146.483 123.094L143.759 133.26C143.528 134.121 143.833 135.037 144.53 135.586C148.103 138.405 152.137 139.485 156.641 138.831C157.523 138.705 158.243 138.059 158.472 137.202L161.196 127.036C161.376 126.385 161.032 125.702 160.406 125.465Z" fill="#EF5038"/>
<path d="M146.141 132.15C145.965 132.103 145.783 132.208 145.736 132.384L145.223 134.297C145.176 134.473 145.281 134.655 145.457 134.702C145.633 134.749 145.815 134.644 145.862 134.468L146.375 132.556C146.422 132.38 146.317 132.197 146.141 132.15Z" fill="#F7A8A0"/>
<path d="M147.251 128.005C147.075 127.958 146.893 128.063 146.846 128.239L146.291 130.309C146.244 130.485 146.349 130.667 146.525 130.715C146.701 130.762 146.883 130.657 146.93 130.481L147.485 128.41C147.532 128.234 147.427 128.052 147.251 128.005Z" fill="#F7A8A0"/>
<path d="M148.32 124.023C148.144 123.976 147.962 124.081 147.914 124.257L147.402 126.17C147.355 126.346 147.46 126.528 147.636 126.575C147.812 126.622 147.994 126.517 148.041 126.341L148.553 124.428C148.601 124.252 148.496 124.07 148.32 124.023Z" fill="#F7A8A0"/>
<path d="M156.969 135.052C156.793 135.005 156.611 135.11 156.564 135.286L156.051 137.198C156.004 137.374 156.109 137.556 156.285 137.604C156.461 137.651 156.643 137.546 156.69 137.37L157.203 135.457C157.25 135.281 157.145 135.099 156.969 135.052Z" fill="#F7A8A0"/>
<path d="M158.079 130.907C157.903 130.86 157.721 130.965 157.674 131.141L157.119 133.211C157.072 133.387 157.177 133.569 157.353 133.616C157.529 133.663 157.711 133.558 157.759 133.382L158.313 131.312C158.36 131.136 158.255 130.954 158.079 130.907Z" fill="#F7A8A0"/>
<path d="M159.148 126.924C158.972 126.877 158.79 126.982 158.742 127.158L158.23 129.071C158.183 129.247 158.288 129.429 158.464 129.476C158.64 129.523 158.822 129.418 158.869 129.242L159.382 127.329C159.429 127.153 159.324 126.971 159.148 126.924Z" fill="#F7A8A0"/>
<g opacity="0.2">
<path opacity="0.2" d="M159.588 126.724L148.005 123.621C147.129 123.386 146.231 123.905 145.996 124.78C145.762 125.656 146.281 126.554 147.156 126.789L158.743 129.893C159.619 130.128 160.517 129.609 160.752 128.734C160.982 127.857 160.463 126.959 159.588 126.724Z" fill="white"/>
</g>
<path opacity="0.5" d="M145.981 123.431C146.402 123.082 146.33 122.293 145.816 121.674C145.302 121.055 144.543 120.832 144.121 121.185C143.7 121.534 143.771 122.322 144.285 122.942C144.799 123.561 145.559 123.784 145.981 123.431Z" fill="white"/>
<path d="M160.379 72.9013L147.73 120.108C145.499 118.746 143.519 117.059 141.839 115.139L141.031 111.448L150.246 77.0562L152.793 74.2589C155.213 73.4331 157.77 72.9667 160.379 72.9013Z" fill="#E4A149"/>
<path d="M180.961 85.2856L171.745 119.678L169.179 122.494C169.179 122.494 169.174 122.493 169.173 122.498C166.761 123.311 164.214 123.775 161.607 123.836L174.26 76.6152C176.487 77.9716 178.461 79.647 180.142 81.5617L180.961 85.2856Z" fill="#E4A149"/>
<path d="M184.538 107.752L182.199 107.125L183.736 101.387L186.075 102.014C186.427 102.108 186.675 102.423 186.687 102.788C186.739 104.445 186.328 105.978 185.454 107.387C185.262 107.698 184.89 107.846 184.538 107.752Z" fill="#FCBD58"/>
<path d="M185.936 104.195L183.204 103.463C183.116 103.44 183.065 103.352 183.089 103.264C183.112 103.176 183.2 103.125 183.288 103.148L186.021 103.881C186.109 103.904 186.16 103.992 186.136 104.08C186.112 104.168 186.024 104.219 185.936 104.195Z" fill="#E4A149"/>
<path d="M185.425 106.108L182.692 105.376C182.604 105.353 182.553 105.265 182.577 105.177C182.601 105.089 182.689 105.038 182.777 105.061L185.509 105.793C185.597 105.817 185.648 105.905 185.624 105.993C185.601 106.081 185.513 106.132 185.425 106.108Z" fill="#E4A149"/>
<path d="M183.581 106.75C188.209 94.2858 181.857 80.4299 169.392 75.8017C156.928 71.1736 143.072 77.5259 138.444 89.99C133.816 102.454 140.169 116.31 152.633 120.938C165.097 125.566 178.953 119.214 183.581 106.75Z" fill="#FACA57"/>
<path d="M180.412 108.94C186.25 98.2257 182.297 84.8071 171.583 78.9688C160.868 73.1305 147.45 77.0834 141.611 87.7978C135.773 98.5122 139.726 111.931 150.44 117.769C161.155 123.607 174.573 119.655 180.412 108.94Z" fill="#F8F6F3"/>
<path d="M162.847 108.671L154.274 106.374C153.964 106.29 153.781 105.954 153.872 105.615L153.876 105.602C153.965 105.268 154.288 105.062 154.603 105.146L163.18 107.445C163.491 107.528 163.669 107.863 163.578 108.201L163.574 108.215C163.484 108.553 163.162 108.755 162.847 108.671Z" fill="#FACA57"/>
<path d="M162.895 105.844L155.679 103.911C155.411 103.839 155.149 103.481 155.24 103.143L155.244 103.129C155.333 102.795 155.74 102.612 156.008 102.684L163.224 104.617C163.492 104.689 163.717 105.037 163.626 105.375L163.623 105.389C163.538 105.724 163.164 105.916 162.895 105.844Z" fill="#FACA57"/>
<path d="M165.612 83.8283C165.511 84.208 165.117 84.4352 164.737 84.3334C164.358 84.2317 164.131 83.8382 164.232 83.4585L165.162 79.9896C165.264 79.6099 165.657 79.3827 166.037 79.4845C166.417 79.5862 166.644 79.9797 166.542 80.3594L165.612 83.8283Z" fill="#E4A149"/>
<path d="M172.265 88.0875C171.987 88.3654 171.534 88.3683 171.258 88.0857C170.98 87.8077 170.977 87.3552 171.259 87.0785L173.802 84.5381C174.08 84.2602 174.532 84.2573 174.809 84.54C175.087 84.818 175.089 85.2704 174.807 85.5471L172.265 88.0875Z" fill="#E4A149"/>
<path d="M175.891 95.0998C175.511 95.2016 175.119 94.9775 175.018 94.5978C174.916 94.2181 175.14 93.8264 175.52 93.7247L178.991 92.7933C179.37 92.6915 179.762 92.9156 179.864 93.2953C179.966 93.675 179.741 94.0667 179.362 94.1685L175.891 95.0998Z" fill="#E4A149"/>
<path d="M175.53 102.985C175.15 102.883 174.923 102.49 175.025 102.11C175.127 101.73 175.52 101.503 175.9 101.605L179.369 102.534C179.749 102.636 179.976 103.029 179.874 103.409C179.772 103.789 179.379 104.016 178.999 103.914L175.53 102.985Z" fill="#E4A149"/>
<path d="M171.272 109.632C170.994 109.354 170.991 108.902 171.274 108.625C171.552 108.347 172.004 108.344 172.281 108.627L174.821 111.169C175.099 111.447 175.102 111.899 174.819 112.176C174.541 112.454 174.089 112.457 173.812 112.174L171.272 109.632Z" fill="#E4A149"/>
<path d="M164.258 113.263C164.157 112.883 164.381 112.491 164.76 112.39C165.14 112.288 165.532 112.512 165.633 112.892L166.565 116.363C166.667 116.742 166.442 117.134 166.058 117.235C165.678 117.336 165.287 117.112 165.185 116.733L164.258 113.263Z" fill="#E4A149"/>
<path d="M156.375 112.898C156.476 112.518 156.87 112.291 157.25 112.392C157.629 112.494 157.857 112.888 157.755 113.267L156.825 116.736C156.724 117.116 156.33 117.343 155.95 117.241C155.571 117.14 155.343 116.746 155.445 116.366L156.375 112.898Z" fill="#E4A149"/>
<path d="M149.727 108.64C150.005 108.362 150.457 108.359 150.734 108.641C151.012 108.919 151.015 109.372 150.732 109.649L148.19 112.189C147.912 112.467 147.46 112.47 147.183 112.187C146.905 111.909 146.902 111.457 147.18 111.179L149.727 108.64Z" fill="#E4A149"/>
<path d="M146.095 101.63C146.475 101.529 146.866 101.753 146.968 102.132C147.07 102.512 146.846 102.904 146.466 103.006L142.995 103.937C142.615 104.039 142.224 103.815 142.123 103.43C142.021 103.051 142.245 102.659 142.63 102.558L146.095 101.63Z" fill="#E4A149"/>
<path d="M146.461 93.7465C146.84 93.8482 147.068 94.2416 146.966 94.6214C146.864 95.0012 146.471 95.2283 146.091 95.1266L142.622 94.1971C142.242 94.0953 142.015 93.7019 142.117 93.3221C142.219 92.9424 142.612 92.7152 142.992 92.817L146.461 93.7465Z" fill="#E4A149"/>
<path d="M150.72 87.0947C150.998 87.3726 151 87.8251 150.722 88.1031C150.444 88.381 149.992 88.3839 149.715 88.1012L147.175 85.5591C146.897 85.2811 146.894 84.8287 147.177 84.552C147.455 84.274 147.907 84.2712 148.185 84.5492L150.72 87.0947Z" fill="#E4A149"/>
<path d="M157.728 83.4676C157.83 83.8473 157.606 84.2389 157.226 84.3407C156.846 84.4425 156.454 84.2184 156.353 83.8387L155.421 80.3677C155.32 79.988 155.544 79.5963 155.923 79.4945C156.303 79.3927 156.695 79.6168 156.797 79.9965L157.728 83.4676Z" fill="#E4A149"/>
<path d="M180.412 108.94C186.25 98.2257 182.297 84.8071 171.583 78.9688C160.868 73.1305 147.45 77.0834 141.611 87.7978C135.773 98.5122 139.726 111.931 150.44 117.769C161.155 123.607 174.573 119.655 180.412 108.94Z" stroke="black" stroke-miterlimit="10"/>
<path d="M160.798 97.5734L170.184 95.5762C170.358 95.5384 170.532 95.6495 170.568 95.828C170.604 95.9915 170.506 96.1538 170.348 96.2058L161.225 99.167C160.79 99.3085 160.328 99.0705 160.186 98.6354C160.045 98.2004 160.283 97.738 160.718 97.5965C160.741 97.5829 160.773 97.5765 160.798 97.5734Z" fill="#E4A149"/>
<path d="M160.679 98.3854L160.132 83.2928C160.128 83.2125 160.191 83.1449 160.27 83.1462C160.35 83.1429 160.413 83.2045 160.418 83.2802L161.338 98.3535C161.349 98.5351 161.212 98.6922 161.031 98.7031C160.849 98.714 160.692 98.5776 160.681 98.396C160.682 98.3913 160.684 98.3867 160.679 98.3854Z" fill="#E4A149"/>
<path d="M160.683 98.9428L149.01 91.6751C148.938 91.6309 148.915 91.5305 148.959 91.4579C149.003 91.3854 149.093 91.3648 149.168 91.3998L161.342 97.799C161.664 97.9695 161.791 98.3659 161.619 98.6922C161.447 99.0184 161.052 99.1409 160.726 98.9691C160.709 98.9595 160.696 98.9511 160.683 98.9428Z" fill="#E4A149"/>
<path d="M162.127 98.6694C161.962 99.2853 161.327 99.6515 160.711 99.4864C160.095 99.3214 159.729 98.6872 159.894 98.0712C160.059 97.4553 160.694 97.0891 161.309 97.2541C161.925 97.4192 162.292 98.0534 162.127 98.6694Z" fill="#FACA57"/>
<path opacity="0.5" d="M178.865 88.1834C178.572 88.2785 178.283 88.3748 177.994 88.4711C165.484 92.793 154.612 101.356 147.553 112.917C147.394 113.177 147.235 113.437 147.079 113.703C141.395 108.666 138.698 100.671 140.794 92.8487C143.746 81.8309 155.115 75.2672 166.132 78.2194C171.769 79.7297 176.24 83.4394 178.865 88.1834Z" fill="white"/>
<path d="M155.165 120.188C143.133 116.964 135.97 104.552 139.193 92.5243C142.416 80.4968 154.83 73.3297 166.857 76.5524C178.884 79.7752 186.052 92.189 182.829 104.216C179.606 116.244 167.197 123.412 155.165 120.188ZM166.601 77.5065C155.097 74.4239 143.23 81.2758 140.147 92.7799C137.064 104.284 143.916 116.152 155.42 119.234C166.925 122.317 178.792 115.465 181.875 103.961C184.957 92.4567 178.106 80.589 166.601 77.5065Z" fill="#E4A149"/>
<path d="M138.413 92.6529C138.237 92.6058 138.132 92.4237 138.179 92.2478C141.552 79.6599 154.536 72.1639 167.123 75.5368C167.299 75.584 167.405 75.766 167.357 75.942C167.31 76.118 167.128 76.2231 166.952 76.1759C154.716 72.8973 142.091 80.1865 138.813 92.4224C138.77 92.5996 138.589 92.7001 138.413 92.6529Z" fill="#FFE69E"/>
</g>
</svg>
