<svg width="16" height="16" viewBox="0 0 16 16" fill="none" xmlns="http://www.w3.org/2000/svg">
<g clip-path="url(#clip0)">
<path d="M15.9099 5.21003L13.41 1.71006C13.31 1.58006 13.16 1.50006 13 1.50006H3.00005C2.84005 1.50006 2.69006 1.58006 2.59006 1.71006L0.0900817 5.21003C0.0600819 5.30002 0.0300822 5.39002 8.25333e-05 5.48002C-0.00991737 6.59001 0.890074 7.5 2.00006 7.5C2.60006 7.5 3.13005 7.24 3.50005 6.82001C3.87004 7.24 4.40004 7.5 5.00003 7.5C5.60003 7.5 6.13002 7.24 6.50002 6.82001C6.87002 7.24 7.40001 7.5 8 7.5C8.6 7.5 9.12999 7.24 9.49999 6.82001C9.86999 7.24 10.4 7.5 11 7.5C11.6 7.5 12.13 7.24 12.5 6.82001C12.87 7.24 13.4 7.5 13.9999 7.5C15.1099 7.5 16.0099 6.59001 15.9999 5.48002C15.9699 5.39002 15.9399 5.30002 15.9099 5.21003Z" fill="#6F6F6F"/>
<path d="M13.9999 8.50006C13.4689 8.50006 12.9519 8.35807 12.4999 8.09607C11.5959 8.61906 10.4039 8.61906 9.49992 8.09607C8.59593 8.61906 7.40294 8.61906 6.49995 8.09607C5.59695 8.61906 4.40297 8.61906 3.49998 8.09607C2.74898 8.53206 1.81899 8.58806 1 8.30507V13.5C1 14.052 1.448 14.5 1.99999 14.5H9.99991V9.50005H12.9999V14.5H13.9999C14.5519 14.5 14.9999 14.052 14.9999 13.5V8.31707C14.6819 8.43007 14.3469 8.50006 13.9999 8.50006ZM6.99994 12.5H2.99998V9.50005H6.99994V12.5Z" fill="#6F6F6F"/>
</g>
<defs>
<clipPath id="clip0">
<rect width="16" height="16" fill="white"/>
</clipPath>
</defs>
</svg>
