<svg width="22" height="22" viewBox="0 0 22 22" fill="none" xmlns="http://www.w3.org/2000/svg">
<path fill-rule="evenodd" clip-rule="evenodd" d="M11 22C13.9174 22 16.7153 20.8411 18.7782 18.7782C20.8411 16.7153 22 13.9174 22 11C22 8.08262 20.8411 5.28473 18.7782 3.22183C16.7153 1.15893 13.9174 0 11 0C8.08262 0 5.28473 1.15893 3.22183 3.22183C1.15893 5.28473 0 8.08262 0 11C0 13.9174 1.15893 16.7153 3.22183 18.7782C5.28473 20.8411 8.08262 22 11 22ZM16.0971 9.22213C16.3476 8.9628 16.4862 8.61547 16.4831 8.25495C16.4799 7.89443 16.3353 7.54956 16.0804 7.29462C15.8254 7.03969 15.4806 6.89508 15.1201 6.89195C14.7595 6.88881 14.4122 7.02741 14.1529 7.27788L9.625 11.8058L7.84712 10.0279C7.5878 9.77741 7.24047 9.63882 6.87995 9.64195C6.51943 9.64508 6.17456 9.78969 5.91962 10.0446C5.66469 10.2996 5.52008 10.6444 5.51695 11.0049C5.51381 11.3655 5.65241 11.7128 5.90288 11.9721L8.65287 14.7221C8.91073 14.9799 9.2604 15.1247 9.625 15.1247C9.9896 15.1247 10.3393 14.9799 10.5971 14.7221L16.0971 9.22213Z" fill="white"/>
</svg>
