<svg width="15" height="15" viewBox="0 0 15 15" fill="none" xmlns="http://www.w3.org/2000/svg">
<path d="M4.37558 2.5L6.72558 1.9125C6.82471 1.88766 6.92651 1.87506 7.02871 1.875L9.53996 1.875C9.77214 1.87501 9.99974 1.93968 10.1972 2.06178C10.3947 2.18387 10.5543 2.35855 10.6581 2.56625L12.8456 6.94125C12.9408 7.13182 12.9858 7.34357 12.9761 7.5564C12.9665 7.76922 12.9027 7.97606 12.7907 8.15727C12.6786 8.33849 12.5222 8.48806 12.3361 8.5918C12.15 8.69554 11.9405 8.74999 11.7275 8.75L8.74996 8.75L7.49996 8.75M4.37558 2.5L4.37496 8.125L6.49496 11.305C6.74309 11.6769 6.87496 12.1131 6.87496 12.56C6.87496 12.8719 7.12809 13.125 7.44059 13.125L7.50059 13.125C7.83211 13.125 8.15005 12.9933 8.38447 12.7589C8.61889 12.5245 8.75059 12.2065 8.75059 11.875L8.75059 8.75M4.37558 2.5L3.12496 2.5C2.79344 2.5 2.4755 2.6317 2.24108 2.86612C2.00666 3.10054 1.87496 3.41848 1.87496 3.75L1.87496 7.5C1.87496 7.83152 2.00666 8.14946 2.24108 8.38388C2.4755 8.6183 2.79344 8.75 3.12496 8.75L4.68746 8.75" stroke="#6F6F6F" stroke-linecap="round" stroke-linejoin="round"/>
</svg>
