<?xml version="1.0" encoding="UTF-8" standalone="no"?> <svg id="Layer_1" data-name="Layer 1" xmlns="http://www.w3.org/2000/svg" viewBox="0 0 128 128"><defs><style>.cls-1{fill:#1d75b8;}.cls-2{fill:#2d3e50;}</style></defs><title>a</title><path class="cls-1" d="M118.525,90.59l-.49637-4.6731a6.84735,6.84735,0,0,0-3.44889-5.24109A53.30188,53.30188,0,0,0,114.47,46.9869a6.84838,6.84838,0,0,0,3.39067-5.22029l.48876-4.674a6.84941,6.84941,0,0,0-4.02974-6.971l-4.29433-1.90906a6.84743,6.84743,0,0,0-6.28433.37587A53.26668,53.26668,0,0,0,74.54157,11.793a6.84878,6.84878,0,0,0-2.82322-5.53087l-3.802-2.76233a6.84941,6.84941,0,0,0-8.05176,0l-3.802,2.76233a6.84788,6.84788,0,0,0-2.82172,5.57375,53.28093,53.28093,0,0,0-29.259,17.065,6.8492,6.8492,0,0,0-6.21046-.30876l-4.28811,1.9231a6.8491,6.8491,0,0,0-4.007,6.98408l.504,4.67245a6.84825,6.84825,0,0,0,3.41951,5.21546A53.30024,53.30024,0,0,0,13.565,81.11641a6.84928,6.84928,0,0,0-3.34468,5.20517L9.73916,90.9965a6.8494,6.8494,0,0,0,4.04111,6.96414l4.29733,1.90219a6.84769,6.84769,0,0,0,6.25517-.36815A53.26312,53.26312,0,0,0,53.58816,116.232a6.84941,6.84941,0,0,0,2.83265,5.51854l3.80653,2.75611a6.84908,6.84908,0,0,0,8.05176-.01319l3.79753-2.76854a6.848,6.848,0,0,0,2.81207-5.589,53.2814,53.2814,0,0,0,29.08751-16.98949,6.84823,6.84823,0,0,0,6.23909.33706l4.29122-1.91592A6.84925,6.84925,0,0,0,118.525,90.59Zm-7.96685-11.08983-2.52132-.53315a6.84923,6.84923,0,0,0-7.35244,3.283l-2.34518,4.07241a6.84928,6.84928,0,0,0,.85038,8.00674l1.74728,1.93618A49.09362,49.09362,0,0,1,73.8994,112.06516l-.80663-2.4689a6.84941,6.84941,0,0,0-6.52169-4.72231l-4.69958.00772A6.84922,6.84922,0,0,0,55.365,109.625l-.8165,2.5269A49.07268,49.07268,0,0,1,27.35947,96.5992L29.087,94.672a6.84951,6.84951,0,0,0,.82422-8.00952l-2.35858-4.06469a6.84924,6.84924,0,0,0-7.36284-3.25891l-2.61288.56134a49.0991,49.0991,0,0,1-.15717-31.33266l2.564.53754a6.849,6.849,0,0,0,7.34655-3.29483l2.33875-4.07616a6.8493,6.8493,0,0,0-.86335-8.00556l-1.77354-1.95891A49.09175,49.09175,0,0,1,54.22134,15.91111l.80535,2.47833a6.84926,6.84926,0,0,0,6.514,4.73271h4.69958a6.84916,6.84916,0,0,0,6.514-4.73271l.81821-2.518A49.07775,49.07775,0,0,1,100.716,31.48589l-1.70826,1.8993a6.84917,6.84917,0,0,0-.83719,8.00824l2.352,4.06866a6.8494,6.8494,0,0,0,7.3577,3.27081l2.57267-.54848a49.11187,49.11187,0,0,1,.10517,31.31572Z"/><path class="cls-2" d="M84.97775,71.71147c-4.74-2.36362-15.14155-5.85442-15.14155-5.85442V62.42263l.28957-.21849a9.93621,9.93621,0,0,0,3.77308-6.3151l.05821-.36612h.28239a3.8386,3.8386,0,0,0,3.55266-2.38913,4.17967,4.17967,0,0,0,.52264-2.02495,3.845,3.845,0,0,0-.27317-1.42394,1.98572,1.98572,0,0,0-.77029-1.23825l-.95962-.58278.23854-1.04163c1.73356-7.557-4.12087-14.36386-11.982-14.55147-.19126-.00365-.38059-.00547-.5682-.00182-.18761-.00365-.37694-.00182-.5682.00182-7.86115.18761-13.71557,6.99448-11.982,14.55147l.23854,1.04163-.95962.58278a1.98572,1.98572,0,0,0-.77029,1.23825,3.845,3.845,0,0,0-.27317,1.42394,4.17967,4.17967,0,0,0,.52264,2.02495,3.8386,3.8386,0,0,0,3.55266,2.38913h.28239l.05821.36612a9.93621,9.93621,0,0,0,3.77308,6.3151l.28957.21849V65.857s-10.40155,3.49081-15.14155,5.85442a5.05844,5.05844,0,0,0-2.726,3.67113,110.13235,110.13235,0,0,0-.95608,12.736H88.65982a110.13235,110.13235,0,0,0-.95608-12.736A5.05844,5.05844,0,0,0,84.97775,71.71147Z"/></svg>