<svg width="22" height="22" viewBox="0 0 22 22" fill="none" xmlns="http://www.w3.org/2000/svg">
<g clip-path="url(#clip0)">
<path d="M21.5429 16.498L13.7714 2.21188C12.5227 0.109806 9.47894 0.107013 8.22864 2.21188L0.457483 16.498C-0.818946 18.6459 0.726425 21.3659 3.22819 21.3659H18.7715C21.2712 21.3659 22.8193 18.6481 21.5429 16.498ZM11 18.7878C10.2894 18.7878 9.71093 18.2094 9.71093 17.4987C9.71093 16.7881 10.2894 16.2097 11 16.2097C11.7106 16.2097 12.2891 16.7881 12.2891 17.4987C12.2891 18.2094 11.7106 18.7878 11 18.7878ZM12.2891 13.6316C12.2891 14.3422 11.7106 14.9206 11 14.9206C10.2894 14.9206 9.71093 14.3422 9.71093 13.6316V7.18624C9.71093 6.47563 10.2894 5.89718 11 5.89718C11.7106 5.89718 12.2891 6.47563 12.2891 7.18624V13.6316Z" fill="white"/>
</g>
<defs>
<clipPath id="clip0">
<rect width="22" height="22" fill="white"/>
</clipPath>
</defs>
</svg>
